<?xml version="1.0" encoding="UTF-8" standalone="no"?>
<svg
   xmlns:dc="http://purl.org/dc/elements/1.1/"
   xmlns:cc="http://creativecommons.org/ns#"
   xmlns:rdf="http://www.w3.org/1999/02/22-rdf-syntax-ns#"
   xmlns:svg="http://www.w3.org/2000/svg"
   xmlns="http://www.w3.org/2000/svg"
   xmlns:sodipodi="http://sodipodi.sourceforge.net/DTD/sodipodi-0.dtd"
   xmlns:inkscape="http://www.inkscape.org/namespaces/inkscape"
   width="612pt"
   height="792pt"
   viewBox="0 0 612 792"
   version="1.2"
   id="svg33"
   sodipodi:docname="on-white-correct.svg"
   inkscape:version="0.92.2 5c3e80d, 2017-08-06">
  <metadata
     id="metadata39">
    <rdf:RDF>
      <cc:Work
         rdf:about="">
        <dc:format>image/svg+xml</dc:format>
        <dc:type
           rdf:resource="http://purl.org/dc/dcmitype/StillImage" />
        <dc:title></dc:title>
      </cc:Work>
    </rdf:RDF>
  </metadata>
  <defs
     id="defs37" />
  <sodipodi:namedview
     pagecolor="#ffffff"
     bordercolor="#666666"
     borderopacity="1"
     objecttolerance="10"
     gridtolerance="10"
     guidetolerance="10"
     inkscape:pageopacity="0"
     inkscape:pageshadow="2"
     inkscape:window-width="1920"
     inkscape:window-height="1080"
     id="namedview35"
     showgrid="false"
     inkscape:zoom="0.59786404"
     inkscape:cx="426.32552"
     inkscape:cy="381.53808"
     inkscape:window-x="0"
     inkscape:window-y="0"
     inkscape:window-maximized="0"
     inkscape:current-layer="svg33" />
  <g
     id="surface192">
    <path
       style=" stroke:none;fill-rule:nonzero;fill:rgb(95.68634%,46.665955%,12.548828%);fill-opacity:1;"
       d="M 747.734375 596.484375 C 745.121094 594.777344 742.445312 593.046875 739.703125 591.296875 L 739.703125 568.0625 C 741.300781 570.042969 742.925781 572.015625 744.554688 573.988281 L 752.417969 587.796875 L 752.417969 590.605469 Z M 684.523438 675.820312 C 678.460938 671.980469 673.667969 668.101562 670.269531 665.125 L 670.019531 662.417969 L 668.242188 643.367188 L 660.375 643.367188 L 660.4375 643.125 L 602.144531 643.125 C 602.109375 609.550781 601.921875 573.777344 601.808594 555.222656 C 655.535156 572.226562 702.308594 591.5 738.464844 608.121094 Z M 679.421875 682.226562 C 675.648438 679.082031 672.773438 676.542969 671.203125 675.132812 L 670.761719 670.394531 L 671.757812 669.960938 L 672.757812 670.886719 C 675.371094 673.292969 678.515625 676.058594 682.007812 678.980469 Z M 675.933594 686.601562 C 675.296875 686.046875 674.757812 685.574219 674.339844 685.203125 C 673.632812 685.507812 672.929688 685.808594 672.226562 686.105469 L 671.820312 681.722656 C 672.503906 681.433594 673.195312 681.132812 673.898438 680.828125 L 675.140625 680.28125 L 676.148438 681.195312 C 676.902344 681.878906 677.699219 682.59375 678.539062 683.335938 Z M 623.292969 703.292969 L 622.382812 703.292969 L 622.382812 735.886719 L 657.59375 735.886719 L 657.59375 785.628906 L 622.382812 785.628906 L 622.382812 845.011719 L 570.464844 845.011719 L 570.464844 785.628906 L 558.5 785.628906 L 558.5 735.886719 L 570.464844 735.886719 L 570.464844 654.125 L 633.375 654.125 L 646.261719 654.113281 L 646.199219 654.367188 L 658.21875 654.367188 L 659.066406 663.4375 L 661.761719 692.363281 L 662.78125 703.292969 Z M 639.242188 724.886719 L 633.382812 724.886719 L 633.382812 721.570312 L 633.605469 721.34375 L 635.03125 722.296875 C 636.464844 723.253906 637.867188 724.113281 639.242188 724.886719 M 633.382812 717.378906 L 633.382812 714.292969 L 636.390625 714.292969 C 641.070312 716.972656 645.457031 718.617188 649.835938 719.359375 L 646.921875 723.015625 C 642.59375 722.003906 638.125 720.1875 633.382812 717.378906 M 546.632812 835.214844 C 539.457031 842.277344 528.964844 845.855469 515.453125 845.855469 L 463.679688 845.855469 L 462.832031 836.785156 L 460.121094 807.683594 L 459.101562 796.753906 L 502.398438 796.753906 L 467.421875 719.230469 C 465.234375 714.652344 463.761719 710.082031 463.042969 705.660156 C 462.382812 701.625 462.050781 697.554688 462.050781 693.5625 C 462.050781 688.226562 463.125 683.089844 465.246094 678.300781 C 467.339844 673.558594 470.347656 669.316406 474.1875 665.699219 C 478.039062 662.0625 482.800781 659.195312 488.347656 657.164062 C 493.707031 655.210938 499.753906 654.214844 506.328125 654.214844 L 550.457031 654.214844 L 551.304688 663.289062 L 554.015625 692.386719 L 555.035156 703.3125 L 517.214844 703.3125 L 547.5 770.214844 L 549.222656 774.023438 L 549.238281 774.054688 L 549.253906 774.089844 C 551.390625 778.894531 553.28125 784.027344 554.871094 789.332031 C 555.59375 791.75 556.164062 794.1875 556.59375 796.628906 C 557.199219 800.085938 557.511719 803.554688 557.511719 807.003906 C 557.511719 818.617188 553.851562 828.105469 546.632812 835.214844 M 537.171875 860.757812 C 535.269531 861.632812 533.320312 862.355469 531.324219 862.90625 L 530.851562 858.617188 C 536.5 856.949219 541.714844 853.910156 546.207031 849.046875 C 546.417969 848.917969 546.621094 848.773438 546.828125 848.640625 Z M 519.605469 992.835938 C 519.605469 1004.519531 515.976562 1013.617188 508.816406 1019.878906 C 502.164062 1025.699219 492.609375 1028.648438 480.421875 1028.648438 L 429.300781 1028.648438 L 428.027344 1017.070312 L 425.449219 993.664062 L 423.859375 979.242188 L 467.621094 979.242188 L 467.621094 962.59375 L 427.75 962.59375 L 427.75 864.589844 L 509.722656 864.589844 L 511 876.164062 L 513.578125 899.570312 L 515.167969 913.996094 L 498.773438 913.996094 C 505.070312 915.789062 509.910156 919.074219 513.222656 923.835938 C 517.515625 930.027344 519.605469 938.195312 519.605469 948.800781 Z M 409.25 843.089844 L 404.847656 843.089844 C 400.21875 841.808594 395.597656 840.332031 391.082031 838.757812 L 391.082031 834.320312 C 402.710938 838.445312 415.0625 841.996094 426.339844 843.089844 Z M 405.75 877.589844 L 405.75 1028.648438 L 353.964844 1028.648438 L 353.964844 913.996094 L 337.097656 913.996094 L 340.582031 898.199219 L 345.738281 874.792969 L 347.984375 864.589844 L 405.75 864.589844 Z M 330.320312 782.628906 C 328.308594 778.152344 326.601562 773.179688 325.242188 767.855469 C 324.511719 764.996094 323.96875 762.003906 323.609375 758.902344 L 323.609375 843.464844 L 250.0625 843.464844 L 250.0625 822.019531 C 247.96875 827.296875 244.722656 831.902344 240.371094 835.65625 C 232.527344 842.425781 222.570312 845.855469 210.78125 845.855469 L 146.28125 845.855469 L 146.28125 827.90625 C 145.234375 830.734375 143.707031 833.246094 141.699219 835.394531 C 139.804688 837.421875 137.484375 839.101562 134.78125 840.402344 C 133.871094 840.839844 132.917969 841.238281 131.921875 841.589844 C 128.359375 842.847656 124.214844 843.464844 119.25 843.464844 L 105.019531 843.464844 C 95.628906 843.464844 88.277344 841.082031 83.175781 836.382812 C 77.835938 831.46875 75.128906 824.464844 75.128906 815.5625 L 75.128906 745.183594 C 75.128906 736.351562 77.792969 729.335938 83.050781 724.328125 C 88.171875 719.449219 95.5625 716.976562 105.019531 716.976562 L 139.679688 716.976562 L 140.664062 725.882812 L 142.652344 743.933594 L 143.871094 755.03125 L 115.019531 755.03125 L 115.019531 768.230469 L 146.28125 768.230469 L 146.28125 654.214844 L 210.535156 654.214844 C 222.996094 654.214844 233.171875 657.574219 240.777344 664.199219 C 248.78125 671.175781 252.839844 681.054688 252.839844 693.5625 L 252.839844 731.363281 C 254.132812 728.632812 255.863281 726.234375 258.046875 724.191406 C 259.601562 722.730469 261.371094 721.496094 263.339844 720.480469 C 267.839844 718.152344 273.398438 716.976562 279.953125 716.976562 L 294.179688 716.976562 C 301.355469 716.976562 307.105469 718.199219 311.597656 720.679688 C 313.335938 721.640625 314.890625 722.785156 316.261719 724.128906 C 319.855469 727.664062 322.140625 732.445312 323.09375 738.390625 L 323.09375 716.976562 L 398.175781 716.976562 L 398.175781 749.773438 C 398.175781 756.183594 397.453125 762.265625 396.027344 767.851562 C 394.664062 773.191406 392.949219 778.152344 390.925781 782.601562 C 388.925781 787.003906 386.730469 791 384.40625 794.488281 C 383.058594 796.511719 381.777344 798.367188 380.578125 800.035156 L 380.578125 843.464844 L 340.691406 843.464844 L 340.691406 800.128906 C 339.492188 798.503906 338.226562 796.6875 336.867188 794.644531 C 334.527344 791.140625 332.324219 787.097656 330.320312 782.628906 M 330.746094 855.203125 C 330.429688 854.953125 330.105469 854.707031 329.78125 854.464844 L 330.910156 854.464844 Z M 328.589844 932.496094 L 328.589844 992.042969 C 328.589844 1004.167969 325.082031 1013.484375 318.15625 1019.742188 C 311.609375 1025.652344 302.074219 1028.648438 289.804688 1028.648438 L 274.132812 1028.648438 C 261.90625 1028.648438 252.339844 1025.5 245.710938 1019.289062 C 238.835938 1012.847656 235.347656 1003.75 235.347656 992.242188 L 235.347656 900.996094 C 235.347656 889.492188 238.832031 880.394531 245.714844 873.949219 C 252.351562 867.738281 261.914062 864.589844 274.132812 864.589844 L 289.804688 864.589844 C 302.066406 864.589844 311.605469 867.585938 318.160156 873.5 C 320.898438 875.976562 323.09375 878.941406 324.761719 882.363281 C 327.300781 887.582031 328.589844 893.871094 328.589844 901.195312 Z M 227.425781 864.757812 C 227.257812 864.535156 227.089844 864.292969 226.921875 864.074219 C 227.324219 864 227.722656 863.917969 228.121094 863.839844 C 227.886719 864.140625 227.65625 864.445312 227.425781 864.757812 M 220.910156 857.5625 C 220.40625 857.109375 219.890625 856.671875 219.371094 856.238281 C 226.371094 855.277344 232.785156 853.171875 238.5625 849.933594 L 238.5625 853.746094 C 238.339844 853.90625 238.105469 854.0625 237.882812 854.230469 C 232.886719 855.976562 227.277344 857.140625 221.078125 857.722656 C 221.019531 857.671875 220.964844 857.613281 220.910156 857.5625 M 216.714844 923.609375 C 216.714844 928.5 216.214844 932.949219 215.21875 936.851562 C 214.195312 940.847656 212.671875 944.601562 210.683594 948.011719 C 208.882812 951.09375 206.761719 954.042969 204.375 956.769531 C 202.359375 959.070312 200.054688 961.523438 197.519531 964.058594 L 182.867188 979.242188 L 216.714844 979.242188 L 216.714844 1028.648438 L 123.472656 1028.648438 L 123.472656 988.871094 C 123.472656 983.820312 124.113281 979.058594 125.378906 974.722656 C 126.578125 970.609375 128.167969 966.78125 130.109375 963.34375 C 131.949219 960.082031 134.007812 957.082031 136.230469 954.433594 C 138.160156 952.128906 140.074219 950.027344 141.917969 948.179688 L 164.65625 925.042969 C 164.691406 924.789062 164.730469 924.328125 164.730469 923.609375 L 164.730469 913.996094 L 125.484375 913.996094 L 127.34375 899.355469 L 130.320312 875.953125 L 131.765625 864.589844 L 177.730469 864.589844 C 189.6875 864.589844 199.183594 867.710938 205.960938 873.867188 C 213.097656 880.351562 216.714844 889.546875 216.714844 901.195312 Z M 113.632812 858.960938 C 108.875 860.644531 104.210938 862.023438 99.605469 863.128906 L 96.664062 859.488281 C 102.25 858.242188 107.925781 856.589844 113.738281 854.464844 L 114.203125 854.464844 Z M 112.234375 869.941406 C 110.351562 870.605469 108.476562 871.230469 106.617188 871.800781 L 103.769531 868.277344 C 106.753906 867.40625 109.773438 866.40625 112.828125 865.289062 Z M 111.265625 877.550781 L 110.503906 876.605469 C 110.8125 876.496094 111.117188 876.394531 111.429688 876.28125 Z M 92.195312 853.960938 L 91.375 852.945312 C 92.328125 853.183594 93.300781 853.394531 94.296875 853.574219 C 93.59375 853.707031 92.894531 853.839844 92.195312 853.960938 M 70.878906 778.6875 C 70.878906 787.398438 68.433594 794.207031 63.632812 798.949219 C 63.480469 799.09375 63.339844 799.246094 63.183594 799.390625 C 58.210938 804.027344 50.851562 806.285156 40.683594 806.285156 L 36.757812 806.285156 L 36.757812 843.464844 L -3.128906 843.464844 L -3.128906 716.976562 L 41.140625 716.976562 C 50.539062 716.976562 57.539062 718.964844 62.554688 723.070312 C 64.265625 724.472656 65.714844 726.152344 66.902344 728.097656 C 69.542969 732.433594 70.878906 738.097656 70.878906 745.03125 Z M 63.101562 817.972656 C 63.300781 817.992188 63.496094 818.007812 63.695312 818.023438 C 63.707031 818.273438 63.722656 818.515625 63.738281 818.761719 Z M -14.625 706.722656 C -18.625 706.828125 -22.683594 706.835938 -26.804688 706.765625 L -30.253906 702.5 C -1.765625 703.292969 23.261719 700.535156 48.152344 687.964844 L 48.152344 692.648438 C 31.921875 700.539062 15.652344 704.429688 -1.542969 705.976562 L -14.625 705.976562 Z M -14.625 717.09375 C -15.871094 717.136719 -17.121094 717.171875 -18.375 717.195312 L -21.734375 713.039062 C -19.34375 713.027344 -16.976562 712.976562 -14.625 712.894531 Z M -35.253906 696.316406 L -37.914062 693.027344 C -37.441406 692.746094 -36.96875 692.464844 -36.496094 692.179688 L -35.953125 691.847656 L -35.320312 691.878906 C -4.472656 693.179688 21.867188 691.285156 48.152344 678.488281 L 48.152344 683.132812 C 21.90625 695.4375 -4.347656 697.335938 -34.863281 696.089844 C -34.992188 696.167969 -35.121094 696.238281 -35.253906 696.316406 M -42.445312 687.421875 C -39.304688 685.644531 -36.179688 683.816406 -33.070312 681.890625 L -32.527344 681.550781 L -31.890625 681.578125 C -2.359375 682.664062 22.882812 680.832031 48.152344 668.980469 L 48.152344 673.59375 C 22.933594 684.976562 -2.214844 686.820312 -31.40625 685.789062 C -34.179688 687.5 -36.972656 689.132812 -39.773438 690.726562 Z M -47.066406 681.703125 C -41.210938 678.597656 -35.402344 675.234375 -29.648438 671.601562 L -29.113281 671.265625 L -28.480469 671.28125 C -0.742188 671.933594 23.199219 670.003906 48.152344 659.03125 L 48.152344 663.601562 C 23.316406 674.160156 -0.527344 676.089844 -27.949219 675.480469 C -33.378906 678.894531 -38.859375 682.070312 -44.386719 685.019531 Z M -100.15625 616.039062 L -100.539062 614.503906 C -63.117188 596.746094 -11.832031 574.890625 48.152344 555.855469 L 48.152344 652.207031 C 25.175781 661.757812 2.59375 664.066406 -24.734375 663.417969 L -52.804688 674.605469 Z M -100.894531 583.324219 C -96.539062 578.269531 -92.304688 573.179688 -88.179688 568.0625 L -88.179688 591.296875 C -92.582031 594.105469 -96.828125 596.867188 -100.894531 599.558594 Z M -82.179688 560.496094 C -77.351562 554.300781 -72.6875 548.078125 -68.179688 541.832031 L -68.179688 578.90625 C -73 581.804688 -77.671875 584.675781 -82.179688 587.503906 Z M -62.179688 533.371094 C -57.324219 526.398438 -52.660156 519.410156 -48.179688 512.421875 L -48.179688 567.210938 C -52.972656 569.929688 -57.640625 572.636719 -62.179688 575.324219 Z M -42.179688 502.882812 C -37.28125 494.941406 -32.617188 487.007812 -28.179688 479.121094 L -28.179688 556.183594 C -32.953125 558.738281 -37.621094 561.289062 -42.179688 563.832031 Z M -22.179688 468.222656 C -17.214844 459.011719 -12.550781 449.875 -8.179688 440.851562 L -8.179688 545.8125 C -12.9375 548.203125 -17.605469 550.601562 -22.179688 553.003906 Z M -2.179688 428.160156 C 2.90625 417.136719 7.5625 406.324219 11.820312 395.8125 L 11.820312 536.074219 C 7.078125 538.308594 2.40625 540.558594 -2.179688 542.824219 Z M 17.820312 380.53125 C 23.183594 366.414062 27.824219 352.953125 31.820312 340.378906 L 31.820312 526.953125 C 27.082031 529.039062 22.417969 531.148438 17.820312 533.273438 Z M 37.820312 329.625 L 54.796875 299.460938 L 54.796875 340.46875 C 53.207031 341.929688 52.191406 344.144531 52.191406 346.628906 L 52.191406 399.703125 C 52.191406 400.175781 52.234375 400.640625 52.308594 401.09375 C 51 402.527344 50.191406 404.472656 50.191406 406.628906 L 50.191406 459.703125 C 50.191406 459.886719 50.207031 460.070312 50.21875 460.25 C 48.382812 461.699219 47.191406 464.011719 47.191406 466.628906 L 47.191406 519.703125 C 47.191406 519.921875 47.207031 520.136719 47.222656 520.351562 C 44.0625 521.667969 40.925781 522.996094 37.820312 524.335938 Z M 87.519531 708.699219 C 84.804688 709.675781 82.292969 710.921875 79.976562 712.421875 C 73.964844 711.886719 67.636719 710.957031 60.871094 709.632812 C 57.289062 708.085938 53.296875 707.03125 48.851562 706.46875 C 50.175781 705.746094 51.5 705 52.824219 704.21875 L 53.539062 703.796875 L 54.351562 703.980469 C 66.703125 706.785156 77.527344 708.339844 87.519531 708.699219 M 134.78125 699.839844 L 134.78125 704.367188 C 133.386719 704.933594 132 705.46875 130.625 705.976562 L 116.289062 705.976562 C 117.535156 705.679688 118.777344 705.363281 120.015625 705.019531 C 124.835938 703.6875 129.738281 701.964844 134.78125 699.839844 M 119.730469 694.84375 C 124.71875 693.582031 129.71875 691.882812 134.78125 689.773438 L 134.78125 694.296875 C 130.078125 696.179688 125.417969 697.722656 120.761719 698.90625 C 102.011719 703.664062 82.816406 703.230469 56.714844 697.453125 C 51.085938 700.789062 45.476562 703.601562 39.851562 705.976562 L 27.792969 705.976562 C 36.699219 703.101562 45.496094 699.195312 54.328125 693.988281 C 56.726562 694.152344 59.726562 694.339844 63.136719 694.511719 C 85.777344 699.015625 102.996094 699.09375 119.730469 694.84375 M 66.457031 278.742188 L 85.3125 245.238281 C 89.875 243.679688 93.824219 242.101562 99.703125 240.59375 C 105.714844 239.054688 110.59375 242 110.601562 245.640625 C 110.625 256.734375 110.640625 267.832031 110.660156 278.925781 C 110.664062 282.5625 105.78125 285.523438 99.746094 287.070312 C 90.789062 289.363281 86.308594 291.828125 77.351562 294.121094 C 71.320312 295.664062 66.433594 292.714844 66.4375 289.074219 C 66.445312 285.628906 66.453125 282.183594 66.457031 278.742188 M 99.347656 430.636719 C 90.710938 433.289062 86.386719 436.128906 77.75 438.78125 C 71.929688 440.5625 67.222656 436.453125 67.226562 431.371094 C 67.25 415.882812 67.269531 400.394531 67.296875 384.910156 C 67.304688 379.828125 72.003906 375.703125 77.796875 373.925781 C 86.398438 371.289062 90.699219 368.457031 99.300781 365.816406 C 105.09375 364.042969 109.796875 368.152344 109.800781 373.226562 C 109.824219 388.703125 109.84375 404.175781 109.871094 419.652344 C 109.878906 424.726562 105.167969 428.851562 99.347656 430.636719 M 68.121094 513.640625 C 68.136719 498.816406 68.15625 483.992188 68.175781 469.167969 C 68.183594 463.640625 72.691406 459.15625 78.246094 457.261719 C 86.488281 454.453125 90.609375 451.429688 98.851562 448.621094 C 104.40625 446.722656 108.914062 451.195312 108.921875 456.714844 C 108.9375 471.03125 108.957031 485.347656 108.976562 499.667969 Z M 94.992188 637.324219 L 106.429688 618.257812 L 106.464844 646.820312 Z M 90.308594 645.128906 L 102.527344 655.242188 L 79.046875 663.902344 Z M 83.296875 639.328125 L 71.628906 658.765625 C 71.640625 649.082031 71.652344 639.386719 71.664062 629.703125 Z M 85.980469 564.519531 L 71.980469 552.933594 C 71.976562 552.316406 71.976562 551.703125 71.976562 551.085938 L 100.214844 540.792969 Z M 92.992188 570.324219 L 106.105469 548.464844 C 106.09375 558.390625 106.085938 568.316406 106.070312 578.242188 C 106.070312 579.140625 105.9375 580.011719 105.703125 580.84375 Z M 80.257812 614.792969 C 87.289062 612.207031 90.804688 609.425781 97.839844 606.84375 C 99.617188 606.1875 101.265625 606.359375 102.632812 607.09375 L 87.980469 631.519531 L 73.679688 619.683594 C 75.253906 617.476562 77.617188 615.761719 80.257812 614.792969 M 88.308594 578.128906 L 99.957031 587.769531 C 99.226562 588.1875 98.457031 588.550781 97.660156 588.839844 C 90.769531 591.34375 87.324219 594.039062 80.4375 596.539062 C 79.253906 596.96875 78.128906 597.027344 77.105469 596.796875 Z M 72.019531 587.78125 C 72.011719 580.0625 72.003906 572.34375 71.996094 564.628906 L 81.296875 572.328125 Z M 110.71875 318.113281 C 110.25 319.171875 109.980469 320.363281 109.980469 321.628906 L 109.980469 345.570312 C 108.394531 348.378906 104.550781 350.601562 100.046875 351.78125 C 91.25 354.089844 86.847656 356.5625 78.054688 358.871094 C 72.128906 360.421875 67.332031 357.082031 67.339844 352.953125 C 67.359375 340.371094 67.382812 327.789062 67.402344 315.207031 C 67.410156 311.078125 72.199219 307.722656 78.097656 306.175781 C 86.855469 303.878906 91.238281 301.417969 100 299.121094 C 105.898438 297.574219 110.6875 300.910156 110.695312 305.035156 C 110.703125 309.394531 110.710938 313.753906 110.71875 318.113281 M 512.046875 213.628906 C 507.925781 213.410156 503.269531 213.738281 497.996094 214.828125 C 497.195312 214.992188 496.414062 215.148438 495.652344 215.296875 C 499.425781 208.214844 503.019531 200.992188 506.421875 193.679688 C 508.671875 200.175781 510.554688 206.832031 512.046875 213.628906 M 150.953125 6.632812 C 193.242188 -23.324219 261.570312 -0.324219 276.484375 5.261719 C 291.179688 -4.765625 308.921875 -9.691406 329.503906 -9.34375 C 340.710938 -9.160156 351.003906 -7.71875 360.449219 -5.371094 C 364.84375 -7.300781 387.140625 -14.050781 413.773438 -14.050781 C 414.328125 -14.050781 414.882812 -14.046875 415.4375 -14.039062 C 455.257812 -13.617188 488.152344 1.746094 510.566406 30.382812 C 525.691406 49.710938 515.707031 96.769531 510.714844 116.101562 C 500.328125 156.320312 481.074219 199.417969 457.667969 235.074219 C 461.210938 237.679688 471.992188 241.984375 502.101562 235.769531 C 512.25 233.675781 518.351562 235.523438 520.246094 241.257812 C 523.90625 252.339844 503.710938 265.09375 492.519531 270.289062 C 482.558594 274.914062 466.675781 277.839844 452.90625 277.839844 C 446.304688 277.839844 440.199219 277.164062 435.453125 275.683594 C 433.207031 296.339844 428.429688 334.855469 425.644531 350.996094 C 420.441406 381.175781 406.988281 394.867188 376.015625 401.503906 C 370.742188 402.636719 365.949219 403.140625 361.59375 403.140625 C 331.917969 403.144531 322.519531 379.652344 318.671875 370.042969 C 313.976562 358.300781 312.347656 319.761719 312.675781 280.648438 C 302.023438 290.289062 288.667969 295.335938 273.394531 295.335938 C 267.097656 295.335938 260.472656 294.476562 253.710938 292.78125 C 251.753906 292.292969 234.59375 287.6875 234.824219 276.71875 C 235.03125 266.675781 249.359375 263.722656 254.753906 262.609375 C 273.710938 258.707031 274.9375 257.152344 280.828125 249.671875 C 282.023438 248.152344 283.425781 246.375 285.140625 244.34375 C 285.121094 244.128906 285.082031 243.914062 285.070312 243.699219 C 276.566406 243.46875 268.253906 241.203125 260.6875 237.140625 C 255.566406 242.589844 241.679688 257.589844 226.804688 275.480469 C 217.847656 286.25 209.238281 289.414062 202.21875 289.414062 C 199.355469 289.414062 196.753906 288.890625 194.503906 288.136719 C 175.253906 281.71875 156.964844 250.507812 140.136719 195.378906 C 127.351562 153.492188 119.253906 109.757812 118.542969 95.539062 C 116.429688 53.28125 127.332031 23.367188 150.953125 6.632812 M 157.820312 366.03125 L 157.820312 483.472656 C 153.457031 484.5625 149.121094 485.691406 144.820312 486.851562 L 144.820312 345.410156 C 148.683594 352.558594 153.023438 359.445312 157.820312 366.03125 M 177.820312 389.21875 L 177.820312 478.789062 C 173.121094 479.820312 168.453125 480.890625 163.820312 482.003906 L 163.820312 373.820312 C 168.183594 379.191406 172.859375 384.328125 177.820312 389.21875 M 197.820312 406.453125 L 197.820312 474.707031 C 193.121094 475.589844 188.457031 476.527344 183.820312 477.503906 L 183.820312 394.894531 C 188.289062 398.945312 192.957031 402.800781 197.820312 406.453125 M 217.820312 419.671875 L 217.820312 471.253906 C 213.125 471.992188 208.457031 472.773438 203.820312 473.601562 L 203.820312 410.796875 C 208.339844 413.933594 213.011719 416.890625 217.820312 419.671875 M 237.820312 429.835938 L 237.820312 468.414062 C 233.128906 469.003906 228.460938 469.648438 223.820312 470.335938 L 223.820312 423.019531 C 228.375 425.457031 233.046875 427.730469 237.820312 429.835938 M 257.820312 437.441406 L 257.820312 466.199219 C 253.128906 466.640625 248.464844 467.140625 243.820312 467.683594 L 243.820312 432.363281 C 248.398438 434.210938 253.066406 435.90625 257.820312 437.441406 M 277.820312 442.835938 L 277.820312 464.628906 C 273.132812 464.921875 268.464844 465.265625 263.820312 465.664062 L 263.820312 439.289062 C 268.417969 440.621094 273.085938 441.804688 277.820312 442.835938 M 297.820312 446.199219 L 297.820312 463.707031 C 293.132812 463.84375 288.464844 464.039062 283.820312 464.285156 L 283.820312 444.050781 C 288.429688 444.917969 293.097656 445.632812 297.820312 446.199219 M 317.820312 447.660156 L 317.820312 463.429688 C 316.777344 463.429688 315.734375 463.417969 314.691406 463.421875 C 311.054688 463.429688 307.433594 463.476562 303.820312 463.550781 L 303.820312 446.835938 C 308.441406 447.257812 313.109375 447.53125 317.820312 447.660156 M 337.820312 447.289062 L 337.820312 463.816406 C 333.171875 463.652344 328.503906 463.539062 323.820312 463.476562 L 323.820312 447.746094 C 328.527344 447.746094 333.191406 447.585938 337.820312 447.289062 M 357.820312 445.066406 L 357.820312 464.855469 C 353.171875 464.539062 348.503906 464.269531 343.820312 464.058594 L 343.820312 446.828125 C 348.539062 446.390625 353.203125 445.796875 357.820312 445.066406 M 377.820312 440.910156 L 377.820312 466.542969 C 373.171875 466.078125 368.507812 465.660156 363.820312 465.292969 L 363.820312 444.039062 C 368.550781 443.148438 373.214844 442.101562 377.820312 440.910156 M 397.820312 434.648438 L 397.820312 468.859375 C 393.175781 468.25 388.507812 467.679688 383.820312 467.167969 L 383.820312 439.261719 C 388.566406 437.878906 393.234375 436.339844 397.820312 434.648438 M 417.820312 426.050781 L 417.820312 471.804688 C 413.175781 471.046875 408.511719 470.335938 403.820312 469.675781 L 403.820312 432.324219 C 408.585938 430.394531 413.257812 428.304688 417.820312 426.050781 M 437.820312 414.730469 L 437.820312 475.363281 C 433.179688 474.464844 428.511719 473.613281 423.820312 472.804688 L 423.820312 422.972656 C 428.617188 420.402344 433.285156 417.648438 437.820312 414.730469 M 457.820312 400.046875 L 457.820312 479.535156 C 453.179688 478.496094 448.515625 477.5 443.820312 476.546875 L 443.820312 410.730469 C 448.660156 407.363281 453.332031 403.796875 457.820312 400.046875 M 480.820312 377.3125 L 480.820312 485.0625 C 475.203125 483.613281 469.53125 482.226562 463.820312 480.898438 L 463.820312 394.8125 C 469.875 389.316406 475.558594 383.476562 480.820312 377.3125 M 501.820312 347.097656 L 501.820312 490.804688 C 496.859375 489.375 491.859375 487.980469 486.820312 486.632812 L 486.820312 369.917969 C 492.386719 362.679688 497.40625 355.054688 501.820312 347.097656 M 323.191406 436.75 C 216.601562 436.75 130.191406 353.976562 130.191406 251.875 C 130.191406 246.472656 130.449219 241.132812 130.921875 235.847656 C 152.617188 291.535156 173.367188 304.792969 187.894531 309.640625 C 195.007812 312.011719 210.628906 315.097656 227.527344 304.824219 C 233.210938 309.242188 240.390625 312.675781 248.726562 314.761719 C 264.664062 318.746094 279.867188 318.972656 293.667969 315.664062 C 293.722656 317.351562 293.777344 319.007812 293.839844 320.605469 C 294.777344 343.902344 296.414062 362.152344 301.367188 375.515625 C 301.546875 376.007812 301.867188 376.980469 302.171875 377.925781 C 304.542969 385.183594 308.953125 398.691406 320.316406 409.414062 C 328.050781 416.714844 340.675781 424.308594 359.707031 424.308594 C 365.035156 424.308594 370.867188 423.714844 377.230469 422.351562 C 390.394531 419.53125 414.894531 414.285156 431.707031 390.351562 C 445.199219 371.140625 451.953125 343.296875 453.421875 300.492188 C 468.324219 300.40625 487.769531 297.546875 502.132812 290.875 C 505.910156 289.121094 509.589844 287.152344 513.089844 285.046875 C 496.769531 371.316406 417.960938 436.75 323.191406 436.75 M 124.078125 376.09375 C 124.148438 375.640625 124.191406 375.175781 124.191406 374.703125 L 124.191406 321.628906 C 124.191406 320.742188 124.058594 319.890625 123.820312 319.09375 L 123.820312 252.679688 L 124.125 252.679688 C 123.925781 256.054688 123.820312 259.453125 123.820312 262.875 C 123.820312 287.785156 129.160156 311.535156 138.820312 333.222656 L 138.820312 488.496094 C 135.929688 489.300781 133.054688 490.125 130.191406 490.957031 L 130.191406 440.628906 C 130.191406 437.574219 128.570312 434.921875 126.191406 433.589844 L 126.191406 381.628906 C 126.191406 379.472656 125.382812 377.527344 124.078125 376.09375 M 128.566406 654.671875 C 128.5625 653.246094 128.5625 651.796875 128.558594 650.316406 C 130.628906 649.699219 132.703125 648.996094 134.78125 648.226562 L 134.78125 652.691406 C 132.707031 653.425781 130.632812 654.082031 128.566406 654.671875 M 128.589844 665.175781 C 128.585938 663.765625 128.582031 662.304688 128.578125 660.804688 C 130.640625 660.160156 132.707031 659.433594 134.78125 658.636719 L 134.78125 663.117188 C 132.714844 663.875 130.648438 664.558594 128.589844 665.175781 M 134.78125 679.410156 L 134.78125 683.898438 C 132.765625 684.683594 130.757812 685.40625 128.753906 686.058594 C 128.730469 684.851562 128.710938 683.382812 128.691406 681.671875 C 130.714844 680.988281 132.742188 680.238281 134.78125 679.410156 M 128.640625 675.664062 C 128.628906 674.285156 128.621094 672.820312 128.613281 671.277344 C 130.664062 670.605469 132.71875 669.859375 134.78125 669.046875 L 134.78125 673.539062 C 132.730469 674.316406 130.683594 675.023438 128.640625 675.664062 M 181.550781 643.214844 L 168.667969 643.214844 C 165.671875 642.097656 162.972656 641.003906 160.664062 639.992188 C 158.847656 641.121094 157.039062 642.195312 155.242188 643.214844 L 146.34375 643.214844 C 150.632812 641.085938 154.96875 638.632812 159.378906 635.851562 L 160.332031 635.25 L 161.359375 635.714844 C 167.269531 638.378906 174.167969 640.972656 181.550781 643.214844 M 441.019531 631.617188 C 423.246094 658.464844 368.121094 625.6875 348.359375 616.960938 C 323.761719 637.28125 294.117188 640.128906 265.710938 624.960938 C 245.128906 653.335938 187.304688 637.894531 162.046875 626.484375 C 150.46875 633.878906 139.546875 638.949219 128.554688 641.984375 C 128.546875 603.992188 128.710938 553.953125 128.785156 533.261719 C 186.941406 519.796875 250.0625 510.746094 314.691406 510.746094 C 389.371094 510.746094 457.753906 521.390625 518.527344 536.796875 L 517.289062 643.214844 L 516.710938 643.214844 C 515.632812 642.355469 514.503906 641.421875 513.300781 640.386719 C 512.496094 641.417969 511.65625 642.355469 510.789062 643.214844 L 505.828125 643.214844 C 497.964844 643.214844 490.648438 644.433594 484.078125 646.832031 C 482.203125 647.519531 480.398438 648.292969 478.664062 649.136719 C 464.882812 645.488281 450.882812 637.074219 441.019531 631.617188 M 444.875 646.761719 C 444.148438 646.363281 443.441406 645.96875 442.75 645.589844 C 437.179688 652.738281 429.035156 655.460938 419.707031 655.460938 C 400.089844 655.464844 375.230469 643.417969 358.046875 635.089844 C 354.558594 633.402344 351.484375 631.910156 348.917969 630.753906 C 323.929688 650.652344 294.507812 653.550781 265.753906 638.960938 C 260.019531 646.015625 252.089844 650.25 243.0625 652.484375 C 241.300781 651.28125 239.464844 650.179688 237.542969 649.210938 C 248.394531 647.382812 257.640625 643.027344 263.472656 635.058594 L 264.546875 633.59375 L 266.144531 634.445312 C 294.195312 649.3125 323.007812 646.5625 347.269531 626.699219 L 348.261719 625.882812 L 349.433594 626.398438 C 352.292969 627.644531 355.804688 629.347656 359.875 631.320312 C 382.957031 642.503906 425.925781 663.324219 440.394531 641.695312 L 441.460938 640.101562 L 443.140625 641.019531 C 444.339844 641.675781 445.59375 642.375 446.902344 643.097656 C 453.667969 646.84375 461.605469 651.234375 469.78125 654.605469 C 468.546875 655.554688 467.363281 656.554688 466.238281 657.609375 C 458.390625 654.25 451 650.152344 444.875 646.761719 M 446.015625 657.996094 C 445.285156 657.59375 444.566406 657.203125 443.867188 656.824219 C 438.21875 664.015625 429.957031 666.753906 420.507812 666.757812 C 400.734375 666.757812 375.730469 654.761719 358.4375 646.46875 C 354.894531 644.765625 351.769531 643.269531 349.160156 642.101562 C 323.9375 662.011719 294.230469 664.902344 265.207031 650.289062 C 261.578125 654.710938 257.078125 658.023438 251.980469 660.425781 C 250.9375 659.210938 249.882812 658.105469 248.839844 657.121094 C 254.53125 654.710938 259.367188 651.214844 262.933594 646.382812 L 264.003906 644.9375 L 265.59375 645.777344 C 293.921875 660.664062 323.019531 657.921875 347.519531 638.046875 L 348.507812 637.25 L 349.671875 637.753906 C 352.574219 639.007812 356.132812 640.714844 360.25 642.691406 C 383.523438 653.855469 426.839844 674.632812 441.519531 652.933594 L 442.582031 651.367188 L 444.25 652.261719 C 445.453125 652.914062 446.714844 653.601562 448.027344 654.320312 C 452.371094 656.695312 457.195312 659.332031 462.257812 661.800781 C 461.335938 662.886719 460.453125 664.003906 459.632812 665.160156 C 454.695312 662.742188 450.078125 660.214844 446.015625 657.996094 M 454 736.625 C 453.210938 736.230469 452.441406 735.84375 451.6875 735.46875 C 445.492188 743.011719 436.4375 745.867188 426.128906 745.871094 C 420.59375 745.871094 414.691406 745.042969 408.675781 743.683594 L 408.675781 739.414062 C 425.515625 743.378906 441.152344 743.035156 449.378906 731.601562 L 450.414062 730.164062 L 452.007812 730.949219 C 453.25 731.5625 454.539062 732.210938 455.875 732.878906 C 457.980469 733.933594 460.199219 735.042969 462.496094 736.164062 L 465.171875 742.09375 C 461.234375 740.25 457.480469 738.367188 454 736.625 M 455.121094 747.847656 C 454.332031 747.457031 453.558594 747.078125 452.804688 746.703125 C 443.023438 758.539062 426.234375 758.898438 408.539062 754.8125 C 408.613281 753.414062 408.652344 751.996094 408.664062 750.566406 C 425.925781 754.699219 442.046875 754.480469 450.5 742.839844 L 451.535156 741.414062 L 453.113281 742.1875 C 454.355469 742.796875 455.644531 743.433594 456.976562 744.089844 C 460.585938 745.875 464.5 747.808594 468.601562 749.699219 L 471.203125 755.464844 C 465.472656 752.96875 460.027344 750.277344 455.121094 747.847656 M 456.285156 759.09375 C 455.480469 758.703125 454.691406 758.316406 453.921875 757.9375 C 443.660156 770.253906 425.824219 770.210938 407.265625 765.664062 C 407.515625 764.304688 407.726562 762.921875 407.910156 761.53125 C 425.859375 766.003906 442.808594 766.085938 451.625 754.078125 L 452.65625 752.671875 L 454.222656 753.429688 C 455.480469 754.039062 456.78125 754.671875 458.125 755.332031 C 463.132812 757.777344 468.730469 760.507812 474.605469 763.007812 L 477.125 768.589844 C 469.65625 765.625 462.535156 762.148438 456.285156 759.09375 M 457.40625 770.320312 C 456.601562 769.929688 455.808594 769.546875 455.035156 769.171875 C 444.035156 782.265625 424.488281 781.464844 404.597656 776.125 C 405.007812 774.8125 405.390625 773.476562 405.757812 772.125 C 424.894531 777.269531 443.339844 777.996094 452.746094 765.3125 L 453.773438 763.925781 L 455.332031 764.671875 C 456.585938 765.269531 457.886719 765.898438 459.226562 766.546875 C 465.589844 769.613281 472.886719 773.132812 480.503906 776.074219 L 482.929688 781.457031 C 473.765625 778.207031 464.957031 773.964844 457.40625 770.320312 M 262.382812 678.972656 L 263.9375 679.773438 C 293.101562 694.746094 323.046875 692.015625 348.257812 672.105469 L 349.230469 671.339844 L 350.371094 671.816406 C 353.382812 673.082031 357.0625 674.796875 361.324219 676.78125 C 386.890625 688.683594 429.683594 708.617188 444.882812 686.65625 L 445.933594 685.136719 L 447.570312 685.988281 C 448.640625 686.542969 449.757812 687.128906 450.90625 687.730469 C 450.726562 689.242188 450.621094 690.761719 450.585938 692.296875 C 450.210938 692.097656 449.835938 691.902344 449.46875 691.710938 C 448.703125 691.308594 447.953125 690.914062 447.21875 690.53125 C 441.359375 697.878906 432.769531 700.671875 422.953125 700.671875 C 402.703125 700.671875 377.207031 688.796875 359.550781 680.578125 C 355.855469 678.851562 352.597656 677.339844 349.875 676.160156 C 323.949219 696.109375 293.398438 698.972656 263.554688 684.269531 C 263.296875 684.578125 263.03125 684.871094 262.761719 685.167969 C 262.503906 683.289062 262.171875 681.488281 261.761719 679.785156 Z M 261.855469 669.039062 L 262.921875 667.628906 L 264.492188 668.4375 C 293.371094 683.386719 323.03125 680.660156 348.011719 660.753906 L 348.984375 659.976562 L 350.132812 660.464844 C 353.125 661.730469 356.777344 663.449219 361.007812 665.4375 C 386.308594 677.339844 428.664062 697.257812 443.761719 675.40625 L 444.820312 673.878906 L 446.464844 674.742188 C 447.679688 675.382812 448.957031 676.0625 450.277344 676.765625 C 451.167969 677.242188 452.082031 677.726562 453.007812 678.21875 C 452.558594 679.578125 452.179688 680.957031 451.851562 682.347656 C 450.632812 681.703125 449.445312 681.074219 448.304688 680.464844 C 447.554688 680.0625 446.816406 679.671875 446.097656 679.289062 C 428.238281 701.6875 385.171875 681.429688 359.222656 669.226562 C 355.558594 667.503906 352.335938 665.988281 349.632812 664.808594 C 323.9375 684.75 293.671875 687.621094 264.105469 672.941406 C 263.074219 674.183594 261.964844 675.320312 260.804688 676.390625 C 260.328125 674.886719 259.808594 673.441406 259.230469 672.089844 C 260.15625 671.136719 261.035156 670.125 261.855469 669.039062 M 454.917969 673.359375 C 452.175781 671.9375 449.578125 670.535156 447.171875 669.238281 C 446.425781 668.835938 445.695312 668.4375 444.984375 668.054688 C 427.304688 690.382812 384.574219 670.078125 358.820312 657.839844 C 355.222656 656.128906 352.050781 654.625 349.398438 653.453125 C 323.921875 673.390625 293.933594 676.273438 264.65625 661.617188 C 262.503906 664.226562 260.0625 666.4375 257.394531 668.3125 C 256.703125 667.027344 255.972656 665.820312 255.214844 664.6875 C 257.914062 662.769531 260.335938 660.46875 262.394531 657.710938 L 263.464844 656.285156 L 265.042969 657.109375 C 293.632812 672.039062 323.011719 669.300781 347.769531 649.398438 L 348.75 648.609375 L 349.90625 649.105469 C 352.847656 650.367188 356.449219 652.078125 360.617188 654.054688 C 384.078125 665.203125 427.742188 685.949219 442.644531 664.171875 L 443.703125 662.625 L 445.359375 663.503906 C 446.574219 664.152344 447.839844 664.835938 449.160156 665.546875 C 451.574219 666.851562 454.140625 668.234375 456.804688 669.625 C 456.125 670.839844 455.5 672.085938 454.917969 673.359375 M 408.675781 721.375 L 408.675781 717.113281 C 424.671875 720.75 439.355469 720.144531 447.128906 709.128906 L 448.171875 707.648438 L 449.789062 708.464844 C 450.539062 708.847656 451.3125 709.242188 452.101562 709.644531 C 452.472656 711.445312 452.941406 713.257812 453.507812 715.074219 C 452.914062 714.769531 452.328125 714.46875 451.75 714.171875 C 450.96875 713.773438 450.203125 713.378906 449.453125 712.996094 C 443.425781 720.449219 434.605469 723.269531 424.539062 723.269531 C 419.5 723.269531 414.148438 722.5625 408.675781 721.375 M 448.253906 720.367188 L 449.292969 718.90625 L 450.894531 719.707031 C 452.144531 720.332031 453.441406 720.988281 454.785156 721.667969 C 455.28125 721.917969 455.785156 722.175781 456.292969 722.429688 C 456.507812 722.90625 456.714844 723.382812 456.941406 723.855469 L 459.035156 728.496094 C 456.910156 727.445312 454.855469 726.402344 452.890625 725.40625 C 452.101562 725.003906 451.328125 724.613281 450.570312 724.230469 C 444.464844 731.730469 435.53125 734.570312 425.339844 734.570312 C 420.050781 734.570312 414.421875 733.804688 408.675781 732.53125 L 408.675781 728.261719 C 425.09375 732.066406 440.257812 731.59375 448.253906 720.367188 M 271.898438 706.457031 C 269.359375 706.785156 266.941406 707.277344 264.65625 707.953125 C 264.214844 707.753906 263.78125 707.546875 263.339844 707.339844 L 263.339844 702.679688 C 266.1875 704.101562 269.042969 705.359375 271.898438 706.457031 M 359.957031 691.960938 C 356.195312 690.222656 352.882812 688.699219 350.109375 687.511719 C 324.035156 707.410156 293.339844 710.316406 263.339844 695.757812 L 263.339844 693.5625 C 263.339844 692.703125 263.304688 691.878906 263.273438 691.046875 L 263.390625 691.105469 C 292.816406 706.105469 323.046875 703.390625 348.507812 683.457031 L 349.46875 682.703125 L 350.597656 683.171875 C 353.660156 684.441406 357.390625 686.164062 361.710938 688.15625 C 387.488281 700.042969 430.628906 719.9375 446.007812 697.886719 L 447.050781 696.386719 L 448.679688 697.222656 C 449.339844 697.558594 450.011719 697.910156 450.699219 698.265625 C 450.792969 699.910156 450.929688 701.554688 451.117188 703.203125 C 450.941406 703.109375 450.765625 703.019531 450.59375 702.929688 C 449.828125 702.53125 449.074219 702.140625 448.339844 701.757812 C 439.539062 712.734375 424.667969 713.609375 408.675781 710.214844 L 408.675781 705.976562 L 393.574219 705.976562 C 381.449219 701.867188 369.550781 696.382812 359.957031 691.960938 M 351.296875 705.976562 L 349.242188 705.976562 L 349.953125 705.425781 L 351.066406 705.878906 C 351.140625 705.910156 351.222656 705.945312 351.296875 705.976562 M 350.347656 698.863281 C 346.800781 701.546875 343.171875 703.914062 339.46875 705.976562 L 329.960938 705.976562 C 336.4375 703.203125 342.726562 699.484375 348.753906 694.808594 L 349.710938 694.0625 L 350.835938 694.527344 C 353.933594 695.800781 357.699219 697.519531 362.0625 699.511719 C 366.453125 701.519531 371.34375 703.753906 376.515625 705.976562 L 366.148438 705.976562 C 364.132812 705.066406 362.179688 704.175781 360.320312 703.324219 C 356.511719 701.585938 353.160156 700.050781 350.347656 698.863281 M 450.085938 785.753906 L 446.53125 785.753906 L 446.707031 787.628906 C 434.398438 793.421875 417.527344 791.152344 400.84375 786.207031 C 401.398438 784.945312 401.933594 783.652344 402.445312 782.328125 C 423.121094 788.417969 443.6875 790.15625 453.871094 776.550781 L 454.898438 775.179688 L 456.445312 775.917969 C 457.609375 776.46875 458.816406 777.046875 460.054688 777.636719 C 465.472656 780.230469 471.5625 783.140625 477.957031 785.753906 L 467.453125 785.753906 C 464.234375 784.28125 461.148438 782.804688 458.246094 781.417969 C 457.535156 781.078125 456.835938 780.742188 456.148438 780.417969 C 454.34375 782.550781 452.308594 784.316406 450.085938 785.753906 M 451.539062 839.460938 L 451.875 843.089844 L 439.324219 843.089844 C 443.800781 842.5625 447.925781 841.410156 451.539062 839.460938 M 450.484375 828.167969 L 450.902344 832.648438 C 435.058594 840.066406 411.976562 834.902344 391.082031 827.605469 L 391.082031 823.167969 C 412.214844 830.6875 435.664062 836.183594 450.484375 828.167969 M 449.433594 816.90625 L 449.851562 821.390625 C 434.289062 828.6875 411.667969 823.664062 391.082031 816.460938 L 391.082031 812.019531 C 411.90625 819.449219 434.890625 824.800781 449.433594 816.90625 M 395.980469 795.832031 C 396.675781 794.625 397.355469 793.378906 398.019531 792.097656 C 416.191406 797.964844 434.925781 801.179688 447.335938 794.390625 L 447.753906 798.882812 C 433.972656 805.367188 414.53125 801.882812 395.980469 795.832031 M 448.382812 805.652344 L 448.671875 808.707031 L 448.800781 810.128906 C 443.511719 812.613281 437.398438 813.664062 430.820312 813.664062 C 418.398438 813.664062 404.339844 809.964844 391.082031 805.3125 L 391.082031 803.511719 C 391.550781 802.832031 392.035156 802.117188 392.523438 801.386719 C 412.652344 808.453125 434.453125 813.242188 448.382812 805.652344 M 523.726562 277.710938 L 523.726562 317.089844 C 522.898438 318.375 522.410156 319.9375 522.410156 321.628906 L 522.410156 374.703125 C 522.410156 375.175781 522.457031 375.640625 522.527344 376.09375 C 521.175781 377.527344 520.335938 379.472656 520.335938 381.628906 L 520.335938 433.589844 C 517.875 434.921875 516.191406 437.574219 516.191406 440.628906 L 516.191406 493.703125 C 516.191406 494.199219 516.242188 494.679688 516.328125 495.152344 C 513.503906 494.277344 510.667969 493.414062 507.820312 492.5625 L 507.820312 335.246094 C 515.992188 317.503906 521.246094 298.332031 523.035156 278.253906 C 523.265625 278.074219 523.5 277.894531 523.726562 277.710938 M 536.824219 305.035156 C 536.832031 300.910156 541.757812 297.574219 547.828125 299.121094 C 556.832031 301.417969 561.339844 303.878906 570.34375 306.175781 C 576.414062 307.722656 581.339844 311.078125 581.34375 315.207031 C 581.367188 327.789062 581.390625 340.371094 581.410156 352.953125 C 581.417969 357.082031 576.484375 360.421875 570.390625 358.871094 C 561.347656 356.5625 556.824219 354.089844 547.78125 351.78125 C 542.664062 350.476562 538.375 347.902344 537.132812 344.671875 L 537.132812 321.628906 C 537.132812 320.800781 537.015625 320.003906 536.800781 319.253906 C 536.808594 314.511719 536.816406 309.773438 536.824219 305.035156 M 570.703125 438.78125 C 561.820312 436.128906 557.378906 433.289062 548.496094 430.636719 C 542.511719 428.851562 537.667969 424.726562 537.675781 419.652344 C 537.699219 404.175781 537.722656 388.703125 537.746094 373.226562 C 537.753906 368.152344 542.585938 364.042969 548.542969 365.816406 C 557.386719 368.457031 561.808594 371.289062 570.65625 373.925781 C 576.613281 375.703125 581.449219 379.828125 581.457031 384.910156 C 581.480469 400.394531 581.503906 415.882812 581.523438 431.371094 C 581.53125 436.453125 576.6875 440.5625 570.703125 438.78125 M 538.59375 499.667969 C 538.613281 485.347656 538.628906 471.03125 538.648438 456.714844 C 538.660156 451.195312 543.292969 446.722656 549.003906 448.621094 C 557.480469 451.429688 561.71875 454.453125 570.195312 457.261719 C 575.90625 459.15625 580.542969 463.640625 580.546875 469.167969 C 580.570312 483.992188 580.589844 498.816406 580.609375 513.640625 Z M 577.59375 630.703125 C 577.597656 634.839844 577.601562 638.984375 577.609375 643.125 L 566.976562 643.125 L 565.183594 640.328125 Z M 552.707031 638.324219 L 546.398438 643.214844 L 540.472656 643.214844 C 540.480469 635.230469 540.492188 627.246094 540.503906 619.257812 Z M 554.839844 571.324219 L 542.167969 581.15625 L 541.28125 581.84375 C 541.027344 581.011719 540.890625 580.140625 540.886719 579.242188 C 540.886719 578.332031 540.886719 577.417969 540.882812 576.503906 C 540.875 567.492188 540.859375 558.480469 540.851562 549.464844 Z M 562.324219 565.519531 L 547.136719 541.792969 L 577.257812 552.085938 C 577.257812 552.703125 577.257812 553.316406 577.257812 553.933594 Z M 571.785156 597.796875 C 571.761719 597.804688 571.738281 597.804688 571.714844 597.808594 C 570.644531 598.019531 569.46875 597.960938 568.234375 597.539062 C 560.886719 595.039062 557.210938 592.34375 549.863281 589.839844 C 549.011719 589.550781 548.191406 589.1875 547.410156 588.769531 L 559.835938 579.128906 L 571.75 597.746094 Z M 567.316406 573.328125 L 577.242188 565.628906 C 577.230469 572.972656 577.222656 580.316406 577.214844 587.660156 C 577.210938 588.035156 577.210938 588.40625 577.210938 588.78125 L 576.882812 588.269531 Z M 556.25 626.367188 L 553.441406 621.976562 L 544.554688 608.09375 C 545.980469 607.378906 547.6875 607.207031 549.527344 607.800781 C 549.574219 607.816406 549.621094 607.828125 549.671875 607.84375 C 555.179688 609.742188 558.671875 611.746094 563.109375 613.699219 C 564.710938 614.40625 566.433594 615.105469 568.421875 615.792969 C 571.246094 616.761719 573.761719 618.476562 575.445312 620.683594 L 560.1875 632.519531 Z M 547.5 736.679688 L 547.5 740.921875 C 546.902344 740.863281 546.304688 740.789062 545.707031 740.683594 L 543.503906 735.8125 C 544.855469 736.246094 546.171875 736.527344 547.5 736.679688 M 540.335938 728.816406 L 537.804688 723.226562 C 541.269531 724.976562 544.292969 725.722656 547.5 725.820312 L 547.5 730.039062 C 545.109375 729.984375 542.78125 729.617188 540.335938 728.816406 M 559.464844 724.253906 L 559.464844 724.886719 L 556.296875 724.886719 C 557.304688 724.699219 558.355469 724.484375 559.464844 724.253906 M 534.644531 716.25 L 533.769531 714.3125 L 541.539062 714.3125 C 544.875 715.078125 548.125 714.9375 552.035156 714.3125 L 559.464844 714.3125 L 559.464844 717.148438 C 549.246094 719.296875 543.054688 720.378906 534.644531 716.25 M 536.890625 263.894531 C 542.90625 254.800781 543.617188 246.5 542.753906 240.359375 C 544.347656 240.074219 546.179688 240.109375 548.128906 240.59375 C 551.164062 241.351562 553.695312 242.125 556.058594 242.90625 L 582.335938 289.058594 L 582.335938 289.074219 C 582.34375 292.714844 577.316406 295.664062 571.113281 294.121094 C 561.902344 291.828125 557.296875 289.363281 548.085938 287.070312 C 541.882812 285.523438 536.855469 282.5625 536.863281 278.925781 C 536.871094 273.914062 536.882812 268.90625 536.890625 263.894531 M 595.726562 553.320312 C 595.75 553.328125 595.773438 553.332031 595.796875 553.339844 L 595.726562 553.472656 Z M 596.726562 314.335938 L 613.703125 344.15625 L 613.703125 524.335938 C 609.914062 522.699219 606.066406 521.085938 602.191406 519.480469 L 602.191406 466.628906 C 602.191406 464.011719 600.957031 461.699219 599.058594 460.25 C 599.070312 460.070312 599.085938 459.886719 599.085938 459.703125 L 599.085938 406.628906 C 599.085938 404.472656 598.246094 402.527344 596.890625 401.09375 C 596.964844 400.640625 597.011719 400.175781 597.011719 399.703125 L 597.011719 346.628906 C 597.011719 345.875 596.910156 345.148438 596.726562 344.457031 Z M 619.703125 354.691406 L 632.324219 376.859375 C 632.78125 378.078125 633.234375 379.296875 633.703125 380.53125 L 633.703125 533.273438 C 629.105469 531.148438 624.441406 529.039062 619.703125 526.953125 Z M 639.703125 395.8125 C 643.960938 406.324219 648.621094 417.136719 653.703125 428.160156 L 653.703125 542.824219 C 649.117188 540.558594 644.445312 538.308594 639.703125 536.074219 Z M 659.703125 440.851562 C 664.074219 449.875 668.738281 459.011719 673.703125 468.222656 L 673.703125 553.003906 C 669.128906 550.601562 664.460938 548.203125 659.703125 545.8125 Z M 679.703125 479.121094 C 684.140625 487.007812 688.800781 494.941406 693.703125 502.882812 L 693.703125 563.832031 C 689.144531 561.289062 684.476562 558.738281 679.703125 556.183594 Z M 699.703125 512.421875 C 704.179688 519.410156 708.84375 526.398438 713.703125 533.371094 L 713.703125 575.324219 C 709.164062 572.636719 704.496094 569.929688 699.703125 567.210938 Z M 719.703125 541.832031 C 724.210938 548.078125 728.875 554.300781 733.703125 560.496094 L 733.703125 587.503906 C 729.195312 584.675781 724.523438 581.804688 719.703125 578.90625 Z M 535.746094 107.917969 C 542.457031 76.148438 545.035156 38.882812 528.25 17.4375 C 501.609375 -16.597656 462.882812 -34.882812 416.253906 -35.441406 C 393.398438 -35.726562 373.34375 -31.648438 361.191406 -28.078125 C 351.4375 -29.671875 341.054688 -30.5625 330.222656 -30.738281 C 309.132812 -31.082031 290.179688 -26.792969 273.695312 -17.957031 C 264.546875 -20.871094 251.707031 -24.414062 237.246094 -26.789062 C 196.445312 -33.488281 163.246094 -28.046875 138.574219 -10.617188 C 123.804688 -0.183594 112.746094 14.203125 105.703125 32.140625 C 98.609375 50.214844 95.652344 72.121094 96.910156 97.257812 C 97.152344 102.128906 98.117188 109.835938 99.726562 119.457031 L -173.019531 604.0625 L -14.625 799.980469 L -14.625 854.464844 L 29.417969 854.464844 L 111.902344 956.488281 C 110.242188 960.003906 108.816406 963.722656 107.679688 967.625 C 105.886719 973.777344 104.972656 980.421875 104.972656 987.371094 L 104.972656 1047.148438 L 238.21875 1047.148438 L 238.21875 1036.25 C 248.085938 1043.476562 260.636719 1047.148438 275.632812 1047.148438 L 291.304688 1047.148438 C 308.679688 1047.148438 322.730469 1042.417969 333.0625 1033.085938 C 333.851562 1032.371094 334.65625 1031.582031 335.464844 1030.738281 L 335.464844 1047.148438 L 481.925781 1047.148438 C 499.097656 1047.148438 513.082031 1042.535156 523.484375 1033.4375 C 531.527344 1026.402344 541.105469 1013.390625 541.105469 991.339844 L 541.105469 947.300781 C 541.105469 943.1875 540.851562 939.304688 540.34375 935.628906 L 603.777344 856.011719 L 633.382812 856.011719 L 633.382812 818.855469 L 651.089844 796.628906 L 668.59375 796.628906 L 668.59375 774.660156 L 812.507812 594.035156 Z M 535.746094 107.917969 "
       id="path2" />
    <path
       style=" stroke:none;fill-rule:nonzero;fill:rgb(20.391846%,40.783691%,57.255554%);fill-opacity:1;"
       d="M 432.386719 115.488281 C 431.199219 116.738281 428.699219 118.898438 425.296875 119.371094 C 424.859375 119.429688 424.410156 119.460938 423.964844 119.460938 C 418.941406 119.460938 414.605469 115.539062 414.246094 113 C 413.828125 109.929688 418.839844 107.601562 424 106.878906 C 425.132812 106.71875 426.253906 106.640625 427.332031 106.640625 C 431.796875 106.640625 434.753906 107.964844 435.050781 110.097656 C 435.242188 111.472656 434.195312 113.589844 432.386719 115.488281 M 444.652344 119.058594 C 445.539062 113.28125 446.378906 107.746094 446.484375 101.648438 C 431.925781 99.855469 415.214844 100.261719 408.621094 109.695312 C 395.789062 128.03125 420.851562 172.976562 431.554688 192.167969 C 434.304688 197.101562 436.289062 200.664062 437.207031 202.878906 C 438.21875 205.335938 439.320312 207.550781 440.464844 209.582031 C 447.824219 193.917969 445.925781 178.046875 444.074219 162.628906 C 443.15625 154.996094 442.207031 147.101562 442.453125 139.503906 C 442.703125 131.703125 443.695312 125.273438 444.652344 119.058594 "
       id="path4" />
    <path
       style=" stroke:none;fill-rule:nonzero;fill:rgb(20.391846%,40.783691%,57.255554%);fill-opacity:1;"
       d="M 442.625 233.660156 C 441.730469 232.382812 440.558594 230.914062 439.351562 229.40625 C 435.398438 224.46875 429.988281 217.710938 425.8125 207.582031 C 425.175781 206.03125 423.144531 202.390625 420.789062 198.171875 C 407.960938 175.167969 381.265625 127.292969 398.519531 102.628906 C 406.453125 91.292969 422.101562 86.746094 445.101562 89.089844 C 442.042969 80 434.378906 63.152344 420.222656 46.425781 C 403.796875 27.015625 374.6875 3.722656 329.300781 2.976562 C 306.214844 2.605469 287.324219 9.679688 273.125 24.019531 C 250.554688 46.816406 244.550781 82.703125 242.976562 101.90625 C 244.03125 101.320312 245.160156 100.714844 246.394531 100.089844 C 252.109375 97.191406 263.566406 92.136719 276.09375 90.84375 C 296.996094 88.679688 310.773438 98 314.902344 117.085938 C 325.925781 168.050781 315.769531 190.609375 308.355469 207.082031 C 306.984375 210.128906 305.6875 213.011719 304.652344 215.792969 L 303.730469 218.273438 C 301.546875 224.128906 299.53125 229.535156 298.367188 234.328125 C 299.664062 233.992188 300.980469 233.820312 302.316406 233.820312 C 305.945312 233.820312 308.894531 235.042969 310.84375 235.851562 C 317.066406 238.429688 322.261719 244.65625 324.394531 252.101562 C 324.738281 253.320312 324.992188 254.527344 325.15625 255.722656 C 325.34375 256.339844 325.4375 256.996094 325.421875 257.679688 C 325.027344 271.714844 324.894531 285.382812 324.996094 298.046875 C 325.578125 304.464844 325.8125 311.335938 325.617188 317.988281 C 325.578125 319.371094 325.539062 320.71875 325.5 322.046875 C 326.285156 343.773438 327.894531 359.902344 330.117188 365.464844 C 336.484375 381.378906 346.144531 395.300781 373.433594 389.453125 C 399.75 383.8125 409.113281 374.339844 413.5 348.898438 C 416.824219 329.628906 423.367188 275.113281 424.28125 263.496094 C 423.144531 240.308594 435.65625 235.667969 442.625 233.660156 "
       id="path6" />
    <path
       style=" stroke:none;fill-rule:nonzero;fill:rgb(20.391846%,40.783691%,57.255554%);fill-opacity:1;"
       d="M 428.902344 37.609375 C 448.535156 60.464844 458.167969 85.714844 458.964844 94.152344 C 459.085938 95.445312 458.992188 96.539062 458.757812 97.460938 C 459.070312 106.257812 457.945312 113.722656 456.832031 120.933594 C 455.929688 126.789062 455 132.84375 454.773438 139.902344 C 454.554688 146.5625 455.410156 153.652344 456.308594 161.160156 C 458.507812 179.449219 460.976562 200.074219 448.351562 220.925781 C 448.5625 221.1875 448.769531 221.449219 448.972656 221.703125 C 449.480469 222.335938 449.972656 222.957031 450.453125 223.566406 C 499.308594 146.683594 516.1875 57.566406 500.859375 37.980469 C 480.878906 12.445312 452.65625 -0.898438 416.976562 -1.6875 C 402.878906 -2 390.304688 -0.222656 381.113281 1.679688 C 402.5 11.117188 418.164062 25.105469 428.902344 37.609375 "
       id="path8" />
    <path
       style=" stroke:none;fill-rule:nonzero;fill:rgb(20.391846%,40.783691%,57.255554%);fill-opacity:1;"
       d="M 151.925781 191.78125 C 166.863281 240.71875 183.800781 271.574219 198.402344 276.445312 C 200.640625 277.191406 207.457031 279.46875 217.328125 267.601562 C 231.269531 250.828125 244.367188 236.554688 250.398438 230.097656 C 248.886719 228.804688 247.421875 227.433594 246.023438 225.972656 C 232.480469 211.839844 226.316406 192.265625 229.113281 172.269531 C 232.121094 150.753906 230.992188 131.75 230.390625 121.542969 C 230.222656 118.71875 230.101562 116.671875 230.105469 115.238281 C 230.015625 110.972656 229.367188 50.699219 264.367188 15.347656 C 264.671875 15.042969 264.992188 14.757812 265.300781 14.453125 C 243.863281 7.46875 190.507812 -6.308594 158.058594 16.707031 C 138.117188 30.847656 128.964844 57.164062 130.851562 94.921875 C 131.449219 106.859375 139 149.4375 151.925781 191.78125 "
       id="path10" />
    <path
       style=" stroke:none;fill-rule:nonzero;fill:rgb(20.391846%,40.783691%,57.255554%);fill-opacity:1;"
       d="M 297.195312 117.246094 C 296.78125 120.207031 292.09375 124.597656 286.464844 124.597656 C 285.972656 124.597656 285.476562 124.566406 284.988281 124.496094 C 281.734375 124.046875 278.445312 121.996094 276.195312 119.011719 C 275.398438 117.957031 274.101562 115.910156 274.363281 114.058594 C 274.738281 111.347656 278 109.722656 283.09375 109.722656 C 284.222656 109.722656 285.390625 109.808594 286.566406 109.972656 C 292.066406 110.738281 297.738281 113.339844 297.195312 117.246094 M 302.855469 119.691406 C 300.894531 110.613281 296.171875 105.335938 288.421875 103.5625 C 271.433594 99.667969 247.621094 112.429688 242.480469 116.988281 C 242.527344 118.019531 242.605469 119.324219 242.691406 120.8125 C 243.324219 131.449219 244.496094 151.246094 241.316406 173.976562 C 239.046875 190.210938 244.003906 206.054688 254.921875 217.441406 C 263.503906 226.398438 274.789062 231.355469 286.390625 231.390625 C 287.726562 225.921875 289.871094 220.164062 292.183594 213.96875 L 293.097656 211.503906 C 294.277344 208.328125 295.65625 205.265625 297.117188 202.023438 C 304.203125 186.28125 313.019531 166.691406 302.855469 119.691406 "
       id="path12" />
    <path
       style=" stroke:none;fill-rule:nonzero;fill:rgb(20.391846%,40.783691%,57.255554%);fill-opacity:1;"
       d="M 456.957031 265.429688 C 468.285156 264.898438 480.207031 262.417969 487.332031 259.109375 C 495.617188 255.261719 501.460938 250.976562 504.875 247.785156 C 504.78125 247.804688 504.691406 247.820312 504.597656 247.84375 C 479.277344 253.066406 461.34375 252.351562 451.289062 245.714844 C 450.660156 245.300781 450.089844 244.878906 449.566406 244.453125 C 448.722656 244.746094 447.851562 244.992188 446.953125 245.242188 C 441.261719 246.839844 435.878906 248.351562 436.582031 262.804688 C 438.078125 264.027344 444.4375 266.015625 456.957031 265.429688 "
       id="path14" />
    <path
       style=" stroke:none;fill-rule:nonzero;fill:rgb(20.391846%,40.783691%,57.255554%);fill-opacity:1;"
       d="M 306.125 247.238281 C 304.632812 246.621094 303.40625 246.148438 302.316406 246.148438 C 300.769531 246.148438 298.945312 247.308594 296.898438 249.597656 C 294.191406 252.625 292.234375 255.109375 290.511719 257.296875 C 282.988281 266.847656 279.542969 270.089844 257.238281 274.683594 C 252.628906 275.632812 249.972656 276.589844 248.476562 277.292969 C 250.265625 278.507812 253.3125 279.980469 256.703125 280.828125 C 262.488281 282.273438 268.105469 283.007812 273.394531 283.007812 C 289.472656 283.011719 302.378906 276.351562 311.757812 263.222656 C 313.621094 260.613281 313.046875 257.261719 312.542969 255.496094 C 311.472656 251.753906 308.832031 248.359375 306.125 247.238281 "
       id="path16" />
    <path
       style=" stroke:none;fill-rule:nonzero;fill:rgb(20.391846%,40.783691%,57.255554%);fill-opacity:1;"
       d="M 40.835938 772.414062 C 40.835938 776.296875 38.691406 778.230469 34.410156 778.230469 L 26.761719 778.230469 L 26.761719 745.027344 L 34.5625 745.027344 C 38.742188 745.027344 40.835938 747.226562 40.835938 751.609375 Z M 56.214844 730.800781 C 53.101562 728.253906 48.078125 726.976562 41.144531 726.976562 L 6.871094 726.976562 L 6.871094 833.464844 L 26.761719 833.464844 L 26.761719 796.28125 L 40.683594 796.28125 C 48.125 796.28125 53.355469 794.882812 56.363281 792.074219 C 59.371094 789.273438 60.878906 784.808594 60.878906 778.6875 L 60.878906 745.027344 C 60.878906 738.097656 59.320312 733.351562 56.214844 730.800781 "
       id="path18" />
    <path
       style=" stroke:none;fill-rule:nonzero;fill:rgb(20.391846%,40.783691%,57.255554%);fill-opacity:1;"
       d="M 138.21875 815.40625 L 138.21875 778.230469 L 112.976562 778.230469 L 112.976562 796.28125 L 119.09375 796.28125 L 119.09375 810.359375 C 119.09375 813.726562 117.359375 815.40625 113.894531 815.40625 L 110.222656 815.40625 C 106.75 815.40625 105.019531 813.675781 105.019531 810.207031 L 105.019531 750.386719 C 105.019531 748.652344 105.375 747.324219 106.089844 746.40625 C 106.804688 745.488281 108.128906 745.027344 110.070312 745.027344 L 132.710938 745.027344 L 130.722656 726.976562 L 105.019531 726.976562 C 98.183594 726.976562 93.160156 728.507812 89.949219 731.566406 C 86.738281 734.628906 85.128906 739.167969 85.128906 745.183594 L 85.128906 815.5625 C 85.128906 821.582031 86.738281 826.066406 89.949219 829.023438 C 93.160156 831.984375 98.183594 833.464844 105.019531 833.464844 L 119.246094 833.464844 C 123.019531 833.464844 126.132812 833.027344 128.578125 832.164062 C 131.03125 831.296875 132.964844 830.097656 134.394531 828.566406 C 135.824219 827.039062 136.816406 825.148438 137.375 822.90625 C 137.9375 820.664062 138.21875 818.164062 138.21875 815.40625 "
       id="path20" />
    <path
       style=" stroke:none;fill-rule:nonzero;fill:rgb(20.391846%,40.783691%,57.255554%);fill-opacity:1;"
       d="M 293.378906 778.230469 L 279.949219 778.230469 L 279.949219 750.234375 C 279.949219 748.292969 280.355469 746.945312 281.175781 746.175781 C 281.988281 745.414062 283.109375 745.03125 284.542969 745.03125 L 289.4375 745.03125 C 290.96875 745.03125 292.089844 745.386719 292.804688 746.101562 C 293.515625 746.816406 293.875 748.089844 293.875 749.925781 L 293.875 778.230469 Z M 313.113281 833.460938 L 313.609375 833.460938 L 313.609375 745.183594 C 313.609375 738.757812 312.15625 734.117188 309.25 731.257812 C 306.34375 728.40625 301.320312 726.976562 294.179688 726.976562 L 279.949219 726.976562 C 273.117188 726.976562 268.09375 728.484375 264.882812 731.492188 C 261.667969 734.5 260.0625 739.011719 260.0625 745.03125 L 260.0625 833.460938 L 279.949219 833.460938 L 279.949219 796.285156 L 293.875 796.285156 L 293.875 833.460938 Z M 313.113281 833.460938 "
       id="path22" />
    <path
       style=" stroke:none;fill-rule:nonzero;fill:rgb(20.391846%,40.783691%,57.255554%);fill-opacity:1;"
       d="M 370.082031 833.464844 L 370.578125 833.464844 L 370.578125 796.742188 C 372.210938 794.601562 374.046875 792 376.085938 788.941406 C 378.125 785.882812 380.039062 782.386719 381.824219 778.457031 C 383.609375 774.535156 385.113281 770.175781 386.339844 765.378906 C 387.5625 760.585938 388.175781 755.382812 388.175781 749.773438 L 388.175781 726.976562 L 368.285156 726.976562 L 368.285156 747.9375 C 368.285156 752.527344 367.953125 756.636719 367.289062 760.253906 C 366.625 763.875 365.835938 766.960938 364.917969 769.511719 C 364 772.0625 363.132812 774.074219 362.316406 775.554688 C 361.5 777.03125 360.941406 777.925781 360.632812 778.230469 C 360.328125 777.925781 359.765625 777.007812 358.953125 775.476562 C 358.132812 773.945312 357.269531 771.882812 356.351562 769.277344 C 355.433594 766.679688 354.640625 763.597656 353.980469 760.023438 C 353.3125 756.453125 352.984375 752.425781 352.984375 747.9375 L 352.984375 726.976562 L 333.09375 726.976562 L 333.09375 749.773438 C 333.09375 755.382812 333.707031 760.585938 334.929688 765.378906 C 336.15625 770.175781 337.660156 774.558594 339.445312 778.535156 C 341.226562 782.515625 343.140625 786.03125 345.183594 789.09375 C 347.222656 792.152344 349.058594 794.703125 350.691406 796.742188 L 350.691406 833.464844 Z M 370.082031 833.464844 "
       id="path24" />
    <path
       style=" stroke:none;fill-rule:nonzero;fill:rgb(20.391846%,40.783691%,57.255554%);fill-opacity:1;"
       d="M 210.78125 796.398438 C 210.78125 799.6875 209.875 802.234375 208.066406 804.042969 C 206.257812 805.851562 203.710938 806.753906 200.421875 806.753906 L 188.339844 806.753906 L 188.339844 693.3125 L 200.421875 693.3125 C 204.039062 693.3125 206.667969 694.097656 208.3125 695.660156 C 209.957031 697.222656 210.78125 699.890625 210.78125 703.671875 Z M 234.207031 671.738281 C 228.453125 666.722656 220.558594 664.214844 210.535156 664.214844 L 156.28125 664.214844 L 156.28125 835.855469 L 210.78125 835.855469 C 220.148438 835.855469 227.835938 833.265625 233.839844 828.085938 C 239.839844 822.910156 242.839844 815.796875 242.839844 806.753906 L 242.839844 693.5625 C 242.839844 684.03125 239.960938 676.753906 234.207031 671.738281 "
       id="path26" />
    <path
       style=" stroke:none;fill-rule:nonzero;fill:rgb(20.391846%,40.783691%,57.255554%);fill-opacity:1;"
       d="M 612.382812 693.097656 L 623.292969 693.097656 C 623.292969 693.160156 623.289062 693.230469 623.289062 693.289062 L 651.808594 693.289062 L 649.109375 664.367188 L 633.316406 664.367188 C 633.332031 664.285156 633.355469 664.203125 633.375 664.125 L 580.464844 664.125 L 580.464844 745.890625 L 568.5 745.890625 L 568.5 775.628906 L 580.464844 775.628906 L 580.464844 835.015625 L 612.382812 835.015625 L 612.382812 775.628906 L 647.597656 775.628906 L 647.597656 745.890625 L 612.382812 745.890625 Z M 612.382812 693.097656 "
       id="path28" />
    <path
       style=" stroke:none;fill-rule:nonzero;fill:rgb(20.391846%,40.783691%,57.255554%);fill-opacity:1;"
       d="M 540.113281 778.148438 L 507.066406 705.152344 C 505.257812 701.375 505.011719 698.457031 506.328125 696.398438 C 507.640625 694.34375 510.1875 693.3125 513.972656 693.3125 L 544.058594 693.3125 L 541.347656 664.214844 L 506.328125 664.214844 C 500.902344 664.214844 496.050781 665 491.777344 666.558594 C 487.5 668.125 483.925781 670.257812 481.050781 672.96875 C 478.171875 675.683594 475.953125 678.808594 474.390625 682.339844 C 472.828125 685.878906 472.050781 689.617188 472.050781 693.5625 C 472.050781 697.011719 472.335938 700.507812 472.914062 704.042969 C 473.488281 707.582031 474.675781 711.238281 476.488281 715.015625 L 512.988281 795.90625 C 514.628906 799.523438 514.835938 802.234375 513.601562 804.042969 C 512.371094 805.851562 509.941406 806.753906 506.328125 806.753906 L 470.078125 806.753906 L 472.789062 835.855469 L 515.453125 835.855469 C 526.304688 835.855469 534.355469 833.265625 539.621094 828.085938 C 544.878906 822.910156 547.511719 815.878906 547.511719 807.003906 C 547.511719 802.070312 546.773438 797.136719 545.292969 792.207031 C 543.8125 787.273438 542.085938 782.585938 540.113281 778.148438 "
       id="path30" />
  </g>
</svg>
