<?xml version="1.0" encoding="UTF-8" standalone="no"?>
<!-- Created with Inkscape (http://www.inkscape.org/) -->

<svg
   xmlns:dc="http://purl.org/dc/elements/1.1/"
   xmlns:cc="http://creativecommons.org/ns#"
   xmlns:rdf="http://www.w3.org/1999/02/22-rdf-syntax-ns#"
   xmlns:svg="http://www.w3.org/2000/svg"
   xmlns="http://www.w3.org/2000/svg"
   xmlns:sodipodi="http://sodipodi.sourceforge.net/DTD/sodipodi-0.dtd"
   xmlns:inkscape="http://www.inkscape.org/namespaces/inkscape"
   version="1.1"
   id="svg5860"
   xml:space="preserve"
   width="1488.4449"
   height="1390.7308"
   viewBox="0 0 1488.4449 1390.7308"
   sodipodi:docname="postgres90-ganesh.svg"
   inkscape:export-filename="/tmp/pg9.png"
   inkscape:export-xdpi="199.98047"
   inkscape:export-ydpi="199.98047"
   inkscape:version="0.92.2 5c3e80d, 2017-08-06"><metadata
     id="metadata5866"><rdf:RDF><cc:Work
         rdf:about=""><dc:format>image/svg+xml</dc:format><dc:type
           rdf:resource="http://purl.org/dc/dcmitype/StillImage" /><dc:title></dc:title></cc:Work></rdf:RDF></metadata><defs
     id="defs5864"><clipPath
       clipPathUnits="userSpaceOnUse"
       id="clipPath5878"><path
         d="M 0,1228.08 H 1228.08 V 0 H 0 Z"
         id="path5876"
         inkscape:connector-curvature="0" /></clipPath></defs><sodipodi:namedview
     pagecolor="#ffffff"
     bordercolor="#666666"
     borderopacity="1"
     objecttolerance="10"
     gridtolerance="10"
     guidetolerance="10"
     inkscape:pageopacity="0"
     inkscape:pageshadow="2"
     inkscape:window-width="1914"
     inkscape:window-height="1021"
     id="namedview5862"
     showgrid="false"
     inkscape:zoom="0.49101038"
     inkscape:cx="810.84521"
     inkscape:cy="683.93074"
     inkscape:window-x="0"
     inkscape:window-y="28"
     inkscape:window-maximized="0"
     inkscape:current-layer="g5868"
     inkscape:pagecheckerboard="true"
     fit-margin-top="0"
     fit-margin-left="0"
     fit-margin-right="0"
     fit-margin-bottom="0" /><g
     id="g5868"
     inkscape:groupmode="layer"
     inkscape:label="ganesh-white-front"
     transform="matrix(1.3333333,0,0,-1.3333333,-7.8747628,1525.5202)"><g
       id="g5872"><g
         id="g5874"
         clip-path="url(#clipPath5878)"><g
           id="g5880"
           transform="translate(25.9199,442.3203)"><path
             d="M 0,0 C 1.847,8.779 -12.009,11.188 -19.68,11.28 -20.24,5.199 -19.76,-1.92 -19.92,-8.4 -12.693,-8.104 -1.307,-6.211 0,0 m -5.76,142.08 c -1.672,-1.368 -2.831,-3.249 -4.32,-4.8 0.49,-4.692 -1.898,-9.811 -1.2,-13.921 0.426,-2.51 2.681,-4.308 3.6,-6.239 7.013,0.107 9.589,4.651 13.92,7.44 -0.292,3.852 1.646,7.365 1.2,10.56 -0.387,2.775 -2.782,4.518 -3.36,6.96 z m 14.16,2.88 c -1.691,0.958 -3.456,1.751 -5.28,2.88 -1.601,0.991 -3.495,3.088 -5.28,3.12 -3.135,0.057 -6.447,-3.835 -9.84,-4.32 -0.787,-1.854 -2.011,-3.269 -2.64,-5.281 4.812,1.829 9.117,4.164 13.92,6 3.373,-1.907 6.826,-3.733 10.32,-5.519 -0.297,1.142 -0.936,1.943 -1.2,3.12 m 26.4,432.96 c -3.238,-2.243 -7.301,-6.18 -10.32,-9.36 -0.827,-0.872 -3.137,-2.96 -3.12,-3.36 0.016,-0.37 2.601,-2.399 2.88,-2.64 3.105,-2.69 6.135,-5.763 8.64,-7.44 3.431,4.649 7.661,8.499 11.04,13.2 -2.772,3.468 -6.292,6.187 -9.12,9.6 m -4.32,3.36 c 0.767,0.767 2.95,3.628 3.6,3.6 0.066,-0.003 2.167,-2.143 2.4,-2.4 2.67,-2.94 4.654,-5.686 6.96,-8.16 0.014,-0.147 0.036,-0.284 0.24,-0.24 -2.907,5.493 -7.009,9.791 -10.08,15.12 -5.19,-5.531 -9.852,-12.867 -13.68,-18.96 3.15,3.68 6.958,7.437 10.56,11.04 M -19.68,684 c 12.271,-1.135 24.001,2.696 34.56,3.36 3.553,0.223 4.054,-0.946 6.24,-2.16 3.871,-2.149 8.604,-3.823 12,-5.52 2.11,-1.055 2.933,-2.659 4.56,-4.56 2.577,-3.011 4.889,-5.484 7.44,-8.4 1.14,-1.303 3.327,-3.992 4.32,-4.32 9.175,-3.029 17.01,-5.791 26.64,-9.6 1.88,-9.08 3.722,-18.198 5.76,-27.12 -7.587,-4.493 -15.62,-8.54 -23.04,-13.2 2.226,-8.894 4.425,-17.816 6.72,-26.64 -15.89,14.91 -31.093,30.507 -47.04,45.36 -0.889,0.617 0.317,-0.988 0.48,-1.2 6.936,-9.062 15.332,-17.736 21.36,-27.12 -12.227,-5.373 -24.689,-10.511 -36.24,-16.56 13.704,3.336 27.796,6.284 41.52,9.6 5.843,-6.077 11.015,-12.825 15.84,-19.92 -7.333,-13.387 -14.688,-26.752 -22.32,-39.84 -11.724,4.116 -23.457,9.502 -34.8,13.2 12.21,-7.47 24.833,-14.527 36.96,-22.08 5.105,-14.987 11.113,-33.166 16.56,-48.72 0.9,-2.57 2.455,-5.433 2.4,-7.44 -0.157,-5.725 -1.637,-13.397 -2.16,-19.44 -0.201,-2.321 0.052,-4.979 -0.48,-6.72 -0.456,-1.494 -6.014,-6.964 -7.2,-7.2 -1.778,-0.354 -3.375,0.229 -4.8,0 -7.457,-1.197 -9.092,-7.153 -14.16,-10.56 1.973,6.343 3.432,12.781 5.28,19.2 0.608,2.109 1.959,4.411 1.92,6.24 -0.033,1.55 -1.374,3.654 -2.16,5.76 -5.196,13.925 -9.99,28.498 -14.64,41.76 -9.378,5.494 -20.619,12.298 -30.72,18.48 -2.057,1.258 -8.527,6.529 -10.32,4.8 -1.563,-1.508 -0.319,-6.357 -0.72,-8.64 2.474,1.32 4.094,-0.432 6.72,-1.92 9.43,-5.342 19.596,-11.472 28.08,-16.56 3.438,-12.162 6.883,-25.002 10.32,-36.96 0.505,-1.756 1.868,-3.815 1.92,-5.04 0.114,-2.683 -1.12,-5.724 -1.68,-8.64 -1.75,-9.112 -2.819,-17.501 -5.28,-26.16 -4.785,13.294 -10.124,26.036 -17.52,36.72 -7.367,1.531 -13.637,6.386 -22.56,4.8 0.16,-3.681 -0.319,-7.999 0.24,-11.28 4.82,3.004 11.479,0.011 17.04,-0.48 3.794,-7.855 7.384,-15.128 11.28,-22.56 1.911,-3.645 4.628,-7.025 5.28,-11.52 0.69,-4.76 0.635,-9.692 1.2,-15.84 -4.486,6.308 -10.837,15.294 -15.6,22.08 -1.861,2.651 -3.279,5.545 -5.04,7.68 -1.115,1.351 -3.837,2.183 -6,3.36 -3.428,1.864 -5.424,3.479 -8.16,0.72 -0.549,-2.732 -0.089,-6.471 -0.24,-9.6 3.548,1.7 6.83,-1.734 10.32,-2.88 6.119,-8.258 13.451,-17.907 20.16,-26.64 2.032,-2.645 5.737,-6.23 6.48,-9.12 0.406,-1.58 0.217,-3.848 0.48,-6 0.626,-5.124 0.657,-9.729 -0.96,-14.4 -3.203,5.252 -6.906,11.093 -10.8,17.52 -1.64,2.707 -2.989,5.962 -5.52,8.64 -1.427,1.509 -6.066,6.018 -7.92,6.48 -4.046,1.006 -7.667,-0.742 -12.24,-0.24 v -10.8 c 2.384,0.736 5.05,1.19 7.44,1.92 8.286,-6.269 14.569,-16.786 21.12,-25.68 1.898,-2.576 6.175,-6.292 6.48,-9.12 0.192,-1.778 -0.863,-4.372 -1.2,-6.48 -1.117,-6.998 -1.718,-13.673 -3.36,-19.92 -2.4,6.706 -5.423,14.219 -8.4,22.32 -1.246,3.39 -2.033,7.63 -4.32,11.04 -1.276,1.903 -4.817,7.742 -6.72,8.64 -3.358,1.584 -7.155,0.625 -11.04,2.16 v -11.28 h 8.16 c 6.404,-16.076 13.306,-31.655 19.92,-47.52 -0.677,-4.603 -0.864,-9.697 -1.44,-14.4 -6.197,9.483 -12.525,18.835 -18.48,28.56 -2.683,-0.197 -5.659,-0.101 -8.16,-0.48 v -8.4 c 2.149,-0.891 4.397,-1.683 6.72,-2.4 6.262,-7.978 13.031,-15.449 19.2,-23.52 -0.265,-2.295 -0.867,-4.253 -1.2,-6.48 -2.208,2.541 -4.112,5.665 -6.48,8.88 -1.508,2.047 -4.65,7.476 -6.72,8.64 -3.334,1.875 -8.096,1.64 -11.52,3.36 v -5.52 c 1.573,-0.74 4.838,-0.217 6.96,-1.2 1.367,-0.634 3.01,-3.42 4.56,-5.28 3.629,-4.356 5.725,-6.469 9.12,-10.56 1.373,-1.655 3.896,-4.367 4.08,-5.76 0.213,-1.618 -0.538,-3.877 -0.72,-5.76 -0.198,-2.056 -0.397,-4.102 -0.72,-6 -4.931,4.029 -9.781,8.138 -14.4,12.48 -2.942,0.178 -6.113,0.126 -8.88,0.48 v -7.2 c 2.483,-0.571 5.687,0.744 8.4,0 1.183,-0.325 3.748,-3.268 5.28,-4.8 1.637,-1.638 4.047,-3.511 5.04,-5.28 1.232,-2.194 2.892,-7.769 3.12,-9.6 0.324,-2.61 -1.089,-5.799 -1.2,-8.16 -2.429,1.686 -3.686,7.127 -6.72,7.92 -4.218,1.102 -8.731,-0.804 -13.92,0 v -9.6 c 4.608,0.272 9.277,0.483 13.68,0.96 3.163,-3.717 5.636,-8.124 8.4,-12.24 C 1.202,226.558 0.909,221.571 0,217.2 c -2.697,3.463 -5.337,6.983 -7.92,10.56 -4.138,0.022 -7.843,0.477 -12,0.48 V 217.2 c 3.093,-0.556 7.517,2.216 9.36,1.2 4.056,-2.235 8.374,-6.438 12,-8.88 v -9.84 c -6.168,2.472 -12.99,4.29 -21.36,4.56 0.298,-1.782 -0.61,-4.77 0.48,-5.76 5.534,-1.346 11.535,-2.225 17.28,-3.36 1.223,-2.061 4.31,-3.655 4.8,-6.72 0.421,-2.63 -0.565,-5.581 -0.72,-8.64 -7.267,1.693 -14.638,3.282 -21.84,5.04 v -6.24 c 7.53,-1.83 15.099,-3.622 22.56,-5.52 -0.094,-2.386 -0.26,-4.7 -0.72,-6.721 -7.388,-0.291 -14.551,-0.808 -21.84,-1.199 v -7.44 c 3.86,-0.045 7.82,-0.199 11.76,-0.241 3.944,-0.041 8.493,0.457 12,-0.239 3.58,-0.71 6.626,-3.84 9.6,-4.56 0.87,-2.736 1.813,-5.517 2.88,-8.4 1.007,-2.722 3.06,-5.785 3.12,-8.4 0.041,-1.802 -0.97,-4.252 -1.44,-6.24 -0.478,-2.024 -1.224,-4.034 -1.68,-6.241 -4.256,-2.249 -9.509,-8.22 -14.4,-9.359 -6.808,-1.585 -14.108,-0.547 -21.84,-1.92 v -8.641 c 7.995,2.418 16.21,2.037 23.04,5.04 6.519,2.868 12.152,7.311 18.48,9.84 2.216,6.985 4.027,14.373 6.24,21.361 -2.025,2.998 -3.91,6.224 -6,9.6 -1.967,3.179 -3.695,7.14 -6,9.84 -1.849,2.165 -8.38,5.419 -9.12,8.16 -0.5,1.852 0,5.078 0,7.92 v 24.24 c 0,16.197 -1.32,33.396 0.72,47.76 4.712,33.189 9.12,66.229 13.68,99.36 2.574,18.7 0.651,40.236 1.44,59.28 0.044,1.054 -0.614,2.707 0.72,3.36 0.993,-8.521 3.336,-16.523 5.28,-24.24 2.072,-8.227 4.164,-16.151 6.24,-24 1.958,-7.399 7.036,-12.806 11.28,-18.72 8.833,-12.309 16.646,-23.741 24.96,-35.28 2.308,-3.203 4.197,-5.745 7.2,-7.92 14.652,-10.616 28.894,-20.747 44.64,-30.96 2.846,1.634 5.864,3.096 9.12,4.32 7.075,-16.39 4.998,-40.405 -1.92,-54.48 -7.167,-14.583 -19.537,-25.066 -32.64,-32.88 11.047,3.268 20.081,9.753 27.84,15.36 16.789,-28.528 33.287,-61.57 42.96,-98.88 4.906,-18.923 8.552,-41.526 6.48,-63.121 -2.142,-22.315 -9.012,-37.988 -20.16,-51.839 -3.157,-0.848 -5.525,-3.261 -8.16,-5.04 -41.317,-27.901 -97.839,-40.376 -166.32,-40.8 V -76.8 c 68.105,-0.588 125.399,9.643 168,34.56 7.801,-7.32 16.671,-14.849 23.76,-22.08 -24.372,-6.789 -42.512,-22.327 -56.64,-40.321 C 72.47,-159.06 59.461,-243.451 60,-340.32 c -25.996,-1.115 -53.412,-1.114 -79.92,-0.48"
             style="fill:#ffffff;fill-opacity:1;fill-rule:evenodd;stroke:none"
             id="path5882"
             inkscape:connector-curvature="0" /></g><g
           id="g5884"
           transform="translate(367.4399,1063.9199)"><path
             d="m 0,0 c -68.403,18.995 -141.464,39.133 -210.72,59.04 -4.644,1.335 -9.369,3.249 -13.92,4.08 -4.782,0.874 -10.46,0.609 -16.08,0.72 -5.336,0.106 -11.497,1.154 -15.84,0.72 -2.857,-0.286 -6.504,-2.409 -9.6,-3.6 -9.465,-3.64 -18.748,-7.506 -28.32,-10.8 -0.819,4.701 -2.922,8.118 -3.84,12.72 12.518,5.601 26.65,11.742 38.88,17.04 0.753,0.327 2.367,0.352 4.32,0.24 4.473,-0.256 10.099,-0.982 15.6,-1.44 5.746,-0.478 12.038,-0.553 16.08,-1.44 4.611,-1.01 9.364,-3.12 14.16,-4.8 C -140.585,48.425 -68.279,23.729 0,0"
             style="fill:#ffffff;fill-opacity:1;fill-rule:evenodd;stroke:none"
             id="path5886"
             inkscape:connector-curvature="0" /></g><g
           id="g5888"
           transform="translate(399.1201,993.1201)"><path
             d="m 0,0 c -3.214,-0.919 -6.549,0.913 -9.36,1.92 -90.863,32.542 -182.619,65.873 -274.08,98.4 -0.275,1.565 -0.445,3.235 -0.72,4.8 -7.211,3.269 -14.438,6.522 -21.36,10.08 7.024,1.158 12.886,6.15 19.44,6.96 3.041,0.376 6.462,-0.338 9.84,-0.48 3.38,-0.142 6.858,-0.15 10.08,-0.24 6.757,-0.188 12.566,-1.304 17.52,-2.88 10.924,-3.475 21.743,-6.074 32.16,-8.88 43.12,-11.617 85.531,-23.768 128.4,-35.76 21.428,-5.994 42.948,-11.161 62.88,-19.2 C -18.54,41.164 -12.102,27.728 -5.28,14.16 -3.092,9.808 0.031,5.223 0,0"
             style="fill:#ffffff;fill-opacity:1;fill-rule:evenodd;stroke:none"
             id="path5890"
             inkscape:connector-curvature="0" /></g><g
           id="g5892"
           transform="translate(117.1201,1084.0801)"><path
             d="m 0,0 c 91.296,-33.743 182.03,-68.049 273.36,-101.76 -10.89,-16.361 -22.693,-31.973 -34.32,-47.76 -1.927,-2.616 -3.819,-5.342 -5.76,-7.92 -2.804,-3.725 -5.21,-7.301 -8.4,-10.56 -6.202,-6.335 -9.894,-15.666 -16.32,-22.32 -69.058,54.218 -138.105,108.466 -207.12,162.72 0.228,1.614 2.032,2.419 2.16,4.32 0.098,1.47 -0.854,3.483 -1.2,5.52 C 1.491,-12.401 1.107,-5.746 0,-0.72 Z"
             style="fill:#ffffff;fill-opacity:1;fill-rule:evenodd;stroke:none"
             id="path5894"
             inkscape:connector-curvature="0" /></g><g
           id="g5896"
           transform="translate(110.6401,1049.7603)"><path
             d="m 0,0 c 0.194,-0.046 0.239,-0.241 0.48,-0.24 33.246,-27.551 66.74,-54.865 99.84,-82.56 33.137,-27.726 66.984,-54.565 99.84,-82.56 -32.028,-14.133 -63.743,-28.576 -96.24,-42.24 -3.406,2.776 -5.296,6.879 -7.68,10.56 -32.687,50.476 -65.563,101.852 -99.12,152.88 -1.954,2.972 -6.699,8.325 -6.96,11.04 -0.13,1.355 1.111,3.291 1.44,5.04 0.544,2.891 0.553,6.727 0.72,10.32 0.167,3.589 -0.52,7.843 0.24,10.8 0.539,2.095 6.173,5.65 7.44,6.96"
             style="fill:#ffffff;fill-opacity:1;fill-rule:evenodd;stroke:none"
             id="path5898"
             inkscape:connector-curvature="0" /></g><g
           id="g5900"
           transform="translate(94.7998,1002.96)"><path
             d="m 0,0 c 34.092,-51.588 68.809,-102.552 102.48,-154.56 -7.745,2.04 -14.981,6.331 -23.28,8.4 -8.468,2.111 -17.465,3.243 -26.4,5.04 -17.514,3.523 -35.435,6.984 -52.56,10.32 1.477,7.775 3.339,14.247 5.28,21.6 0.613,2.321 1.725,5.039 1.68,7.2 -0.052,2.487 -1.758,5.807 -2.64,8.88 -5.148,17.947 -9.685,34.589 -14.88,52.8 -0.883,3.097 -2.32,6.427 -2.16,9.12 0.145,2.443 1.752,5.2 2.88,7.92 3.092,7.457 6.699,16.16 9.6,23.28"
             style="fill:#ffffff;fill-opacity:1;fill-rule:evenodd;stroke:none"
             id="path5902"
             inkscape:connector-curvature="0" /></g><g
           id="g5904"
           transform="translate(765.8398,558.7197)"><path
             d="m 0,0 c 22.602,-17.746 50.815,-31.26 85.92,-35.76 39.498,-5.063 74.845,3.577 102.24,16.561 27.43,12.998 49.414,32.822 65.76,55.92 17.091,24.149 28.797,52.378 30.96,90.479 2.224,39.194 -9.087,72.561 -23.76,97.441 -14.991,25.418 -34.609,45.661 -60.24,61.44 -24.16,14.872 -56.692,27.301 -96.72,25.44 -39.476,-1.837 -68.785,-13.316 -93.12,-30 -40.41,-27.707 -68.66,-68.932 -76.32,-128.881 -14.221,2.019 -28.428,4.052 -42.48,6.24 V 138 c 12.131,-2.335 26.646,-4.23 39.12,-6.24 2.062,-0.332 3.972,-0.42 3.12,-3.36 -17.534,1.587 -36.576,5.024 -54,6.72 -0.666,-7.414 -1.854,-14.305 -2.4,-21.84 17.027,-1.396 35.23,-3.557 52.08,-5.04 2.328,-0.204 5.64,0.196 6.72,-1.679 -14.216,-0.057 -29.818,0.582 -44.4,0.96 0.679,-6.681 1.93,-12.791 2.64,-19.44 15.216,-0.19 31.355,1.302 45.6,0.48 0.342,-0.859 0.686,-1.715 0.72,-2.881 -9.851,-0.229 -19.731,-0.428 -29.28,-0.96 0.472,-4.807 0.699,-9.861 1.2,-14.639 11.467,-0.294 22.883,-0.638 34.08,-1.201 C -39.916,40.027 -22.866,17.955 0,0 m 50.16,-366 c -17.371,11.988 -34.881,23.84 -52.32,35.761 54.71,75.408 109.759,150.923 164.88,226.8 0.913,1.256 2.555,2.867 2.64,3.359 0.276,1.604 -6.186,7.41 -7.44,7.44 -1.631,0.039 -4.6,-1.329 -6.72,-1.92 -15.459,-4.308 -32.517,-7.32 -51.599,-8.16 -22.763,-1.002 -43.28,2.086 -61.681,6.72 -35.567,8.957 -65.791,25.223 -90.72,46.08 -24.458,20.464 -45.484,46.31 -60,76.801 -14.853,31.2 -24.816,66.206 -24,112.319 8.147,0.414 16.234,0.887 24.24,1.44 -0.661,9.819 -2.228,20.812 -3.12,31.2 -5.686,-0.713 -12.593,-2.286 -18.48,-3.6 9.537,64.275 39.83,111.267 79.2,146.401 20.108,17.944 42.913,32.642 69.36,43.679 23.101,9.641 49.632,17.083 80.4,18.48 58.985,2.679 104.81,-12.666 141.84,-34.32 34.003,-19.883 61.668,-47.516 82.32,-79.68 10.477,-16.314 19.431,-34.687 25.92,-55.199 6.495,-20.531 11.519,-43.847 11.52,-69.361 C 356.401,84.617 341.332,46.486 321.601,11.04 302.57,-23.146 278.94,-53.836 255.84,-85.199 187.056,-178.589 119.034,-272.775 50.64,-366 Z"
             style="fill:#ffffff;fill-opacity:1;fill-rule:evenodd;stroke:none"
             id="path5906"
             inkscape:connector-curvature="0" /></g><g
           id="g5908"
           transform="translate(79.9199,869.52)"><path
             d="m 0,0 c 1.914,-17.303 5.187,-35.766 6.72,-53.76 0.254,-2.977 0.496,-5.907 1.2,-7.92 1.36,-3.89 4.733,-7.705 7.44,-11.52 7.837,-11.042 16.401,-22.101 23.76,-32.88 8.45,-3.518 15.633,-6.223 24,-10.08 2.806,-1.294 5.468,-2.99 8.4,-3.36 2.658,-0.335 6.38,0.994 9.84,1.68 21.981,4.357 43.374,8.461 65.28,12.72 1.78,0.346 4.033,1.04 5.04,0.96 3.229,-0.257 5.662,-4.043 8.88,-4.8 -30.291,-14.989 -61.156,-29.404 -91.44,-44.4 -10.635,6.632 -22.11,15.396 -32.88,23.04 -3.657,2.595 -8.129,4.602 -11.04,7.44 -3.19,3.111 -6.129,8.79 -9.6,13.68 -6.683,9.417 -12.621,17.712 -19.2,26.88 -3.317,4.623 -7.367,8.931 -9.6,13.44 -1.586,3.203 -2.247,8.426 -3.36,12.72 -2.199,8.483 -3.914,15.167 -6.24,24.48 -0.881,3.525 -3.286,9.259 -2.88,12.24 0.23,1.685 2.868,3.7 4.32,5.28 3.244,3.529 6.084,6.314 9.36,9.84 1.658,1.784 3.05,4.066 5.04,4.56 C -4.996,0.728 -2.528,-0.075 0,0"
             style="fill:#ffffff;fill-opacity:1;fill-rule:evenodd;stroke:none"
             id="path5910"
             inkscape:connector-curvature="0" /></g><g
           id="g5912"
           transform="translate(621.1201,658.3203)"><path
             d="m 0,0 c 1.355,-11.604 3.524,-22.396 6.479,-32.4 -8.13,-1.003 -16.908,-1.572 -25.679,-2.16 -8.645,-0.58 -17.447,-1.761 -25.92,-1.68 -6.304,0.06 -12.635,2.077 -18.48,1.68 -2.592,-0.176 -5.378,-2.246 -7.44,-1.2 -29.915,-11.285 -63.42,-18.981 -97.92,-25.68 -1.453,-0.063 1.124,-0.521 0.24,-0.72 -30.555,-2.092 -63.897,-3.163 -91.92,0.24 -7.452,0.904 -13.805,2.027 -19.92,4.08 -17.147,5.756 -33.115,15.149 -48.24,23.52 -41.272,22.843 -79.751,48.062 -117.84,73.68 -0.586,7.734 -2.203,14.437 -4.08,20.88 56.003,-25.647 113.882,-52.694 170.4,-76.56 23.643,-2.687 45.736,1.99 65.28,5.76 0.521,0.643 3.217,1.142 5.28,1.68 12.319,3.213 24.206,6.603 36.24,11.04 1.781,0.656 4.085,2.118 5.52,2.16 2.217,0.064 6.469,-1.919 9.12,-2.88 8.609,-3.121 17.322,-6 29.28,-6 17.885,-0.001 32.458,4.731 50.16,6 1.828,3.448 5.168,5.657 8.4,8.64 6.685,6.169 13.417,12.429 20.4,18.72 6.507,5.862 13.355,12.405 20.16,18.96 2.237,2.155 4.785,5.25 6.72,6.24 1.539,0.788 3.885,1.066 5.76,1.68 12.702,4.159 25.836,8.761 40.32,11.28 0.581,-6.858 1.911,-12.968 2.4,-19.92 C 18.399,46.337 12.614,46.434 7.2,46.08 1.719,45.722 -3.363,43.333 -8.88,42.72 c 1.036,-2.88 1.092,-6.392 2.64,-9.6 0.311,-0.645 1.053,-0.999 1.44,-1.68 2.528,-4.451 2.591,-8.773 3.12,-15.6 0.204,-2.64 1.008,-5.937 0.72,-8.4 -0.348,-2.967 -3.237,-7.206 -4.8,-10.56 -1.859,-3.988 -3.73,-7.353 -5.04,-10.56 -0.046,-0.195 -0.241,-0.239 -0.24,-0.48 2.602,3.51 5.714,7.348 8.399,11.04 0.835,1.147 1.3,2.753 2.641,3.12"
             style="fill:#ffffff;fill-opacity:1;fill-rule:evenodd;stroke:none"
             id="path5914"
             inkscape:connector-curvature="0" /></g><g
           id="g5916"
           transform="translate(665.5195,711.6001)"><path
             d="m 0,0 c 17.081,-1.32 33.738,-3.063 50.641,-4.56 2.843,-25.076 6.32,-49.52 9.12,-74.64 -13.305,-1.348 -28.006,-0.094 -42,0 0.055,1.976 -0.536,3.304 -0.481,5.28 12.659,0.941 25.348,1.852 38.16,2.64 -0.229,3.931 -0.908,7.411 -1.2,11.28 -18.126,0.434 -36.559,0.56 -54.96,0.72 v 10.08 c 17.575,-0.345 35.082,-0.758 52.8,-0.96 v 8.64 c -22.134,2.266 -45.702,3.097 -68.159,5.04 0.91,4.529 2.289,8.591 3.119,13.2 21.586,-2.735 42.977,-5.664 64.32,-8.64 -0.253,4.227 -1.371,7.589 -1.679,11.76 -17.167,3.314 -34.998,5.962 -52.561,8.88 C -1.819,-7.621 -1.289,-3.431 0,0"
             style="fill:#ffffff;fill-opacity:1;fill-rule:evenodd;stroke:none"
             id="path5918"
             inkscape:connector-curvature="0" /></g><g
           id="g5920"
           transform="translate(587.52,349.6797)"><path
             d="m 0,0 c 17.663,-18.382 36.857,-38.057 55.68,-56.88 0.921,-0.921 3.811,-3.215 3.84,-3.599 0.064,-0.859 -3.785,-4.194 -4.32,-4.8 -1.707,-1.937 -3.137,-3.747 -4.08,-5.04 C 29.802,-49.397 9.245,-27.715 -12,-6.72 0.013,-20.906 11.684,-35.728 23.76,-50.159 c 3.962,-4.736 8.349,-9.201 11.52,-14.401 -1.718,-0.513 -3.69,-0.937 -6,-1.679 -1.739,-0.56 -4.293,-2.127 -5.76,-1.92 -1.587,0.223 -4.533,4.637 -6,6.239 -13.333,14.565 -28.042,30.648 -40.8,44.641 9.435,-13.606 18.867,-27.213 28.32,-40.8 -1.084,-2.757 -3.097,-4.584 -4.32,-7.2 -23.742,23.548 -47.387,47.626 -71.28,71.519 -6.774,6.775 -12.89,13.494 -18.48,21.601 -34.256,5.41 -65.857,14.38 -95.52,24.479 -14.648,4.988 -28.447,11.461 -42.24,17.76 -13.869,6.334 -27.715,12.608 -40.56,19.441 -13.015,6.922 -27.079,13.268 -37.68,22.32 -20.977,17.91 -39.853,40.538 -56.4,63.599 -4.173,5.816 -8.093,11.861 -11.76,18.241 -3.574,6.218 -7.446,12.811 -10.32,19.439 -1.755,4.048 -2.953,8.255 -4.56,12.24 -11.01,27.294 -25.186,51.691 -40.8,75.12 5.676,7.364 10.849,15.231 13.68,25.44 18.495,-10.989 36.713,-21.607 55.68,-32.399 2.621,-1.492 5.673,-2.908 7.92,-4.561 2.664,-1.959 4.998,-5.177 7.68,-7.68 18.059,-16.846 35.765,-36.528 50.4,-56.399 17.576,-23.865 33.551,-48.89 40.8,-81.12 -8.382,-4.819 -17.111,-9.29 -22.56,-17.04 14.416,10.291 34.92,17.935 59.52,14.399 21.044,-3.024 38.956,-12.752 53.04,-23.04 7.455,-5.445 12.594,-12.557 18.72,-19.439 6.176,-6.939 13.128,-11.72 21.84,-16.321 16.649,-8.792 37.125,-12.896 53.04,-23.04 17.143,-1.98 33.367,-3.987 50.88,-5.759 2.506,-0.254 5.209,0.084 7.44,-0.481 1.393,-0.352 3.392,-1.874 5.04,-2.88 C 5.275,43.425 17.404,35.995 27.84,29.28 26.616,23.464 25.345,17.695 24.24,11.761 12.786,19.826 2.041,28.602 -9.12,36.96 -14.275,29.798 -16.945,21.77 -21.6,13.44 -30.182,11.382 -38.182,8.742 -46.8,6.721 c 9.352,0.008 19.312,1.487 29.04,1.92 3.758,5.761 6.341,12.699 9.84,18.719 0.833,0.198 1.436,-0.764 1.92,-1.2 C 15.611,6.741 37.072,-14.801 58.32,-34.8 55.93,-38.409 53.701,-42.18 51.6,-46.079 34.207,-30.912 17.02,-15.54 0,0"
             style="fill:#ffffff;fill-opacity:1;fill-rule:evenodd;stroke:none"
             id="path5922"
             inkscape:connector-curvature="0" /></g><g
           id="g5924"
           transform="translate(677.2803,428.4004)"><path
             d="M 0,0 C 0.023,-4.504 -4.661,-4.3 -3.84,-9.601 -27.503,-1.742 -44.701,12.578 -66,22.8 c 0.966,4.713 1.726,9.634 2.64,14.4 C -39.81,27.23 -19.344,14.176 0,0"
             style="fill:#ffffff;fill-opacity:1;fill-rule:evenodd;stroke:none"
             id="path5926"
             inkscape:connector-curvature="0" /></g><g
           id="g5928"
           transform="translate(593.04,456.4805)"><path
             d="m 0,0 c 12.047,-3.713 18.737,-12.783 31.2,-16.08 0.614,-6.055 -4.779,-6.101 -4.32,-12 -5.883,1.396 -8.446,6.113 -13.2,8.64 1.239,-5.001 6.099,-6.381 8.88,-9.84 -0.916,-3.884 -6.124,-3.476 -9.6,-4.8 C 3.618,-26.623 -6.507,-19.947 -12,-8.641 -4.705,-9.506 2.092,-12.948 7.92,-16.08 9.685,-7.378 -2.2,-9.138 0,0"
             style="fill:#ffffff;fill-opacity:1;fill-rule:evenodd;stroke:none"
             id="path5930"
             inkscape:connector-curvature="0" /></g><g
           id="g5932"
           transform="translate(242.6401,147.3604)"><path
             d="m 0,0 c -0.174,-12.023 8.538,-22.352 14.88,-28.561 1.003,-0.982 2.325,-2.445 3.12,-2.16 C 14.587,-15.277 13.743,7.755 16.56,23.76 8.677,18.846 0.161,11.124 0,0 M 74.4,-19.2 C 76.915,-11.428 78.639,-2.774 78,6 76.974,20.092 68.113,29.269 55.68,31.92 64.044,17.004 69.616,-0.703 74.4,-19.2 m 0.48,-14.88 c 0.432,-0.608 1.265,-0.816 2.16,-0.96 -22.62,-2.596 -42.276,-7.439 -65.04,-7.44 -22.85,0 -40.866,6.798 -56.64,15.839 -28.527,16.352 -50.839,39.949 -71.76,64.321 -1.353,1.576 -2.72,3.68 -4.08,4.799 -1.616,1.332 -3.678,1.84 -5.04,3.121 -7.146,6.718 -7.464,22.654 -3.36,32.879 6.965,-8.631 13.912,-17.587 21.36,-26.16 2.472,-2.843 4.807,-6.16 7.68,-8.159 4.423,-3.08 9.745,-5.335 14.64,-7.92 4.821,-2.546 9.836,-4.816 14.88,-7.44 -17.038,20.227 -31.484,43.518 -39.36,74.4 -1.117,4.379 -3.006,9.463 -2.88,13.44 0.149,4.729 3.64,12.126 5.76,17.28 15.463,37.592 40.361,68.457 82.8,78.479 0.288,0.069 0.652,0.34 0.96,0.241 2.216,-0.716 5.908,-4.778 8.4,-6.96 13.817,-12.103 26.877,-23.611 41.52,-34.8 7.412,-5.664 13.731,-10.882 22.56,-14.16 12.332,-26.604 24.853,-55.115 34.8,-86.16 4.717,-14.723 9.114,-31.028 11.52,-48.96 3.303,-24.611 0.338,-50.935 -20.88,-55.68"
             style="fill:#ffffff;fill-opacity:1;fill-rule:evenodd;stroke:none"
             id="path5934"
             inkscape:connector-curvature="0" /></g><g
           id="g5936"
           transform="translate(296.8799,853.2002)"><path
             d="m 0,0 c 0.272,-0.046 0.133,-0.241 0,-0.24 -6.271,-9.177 -17.193,-26.891 -8.16,-40.08 -3.718,13.694 4.716,26.886 11.28,35.28 2.112,2.7 4.207,6.051 6.48,7.68 3.965,2.841 9.748,4.986 14.64,7.2 10.052,4.548 21.171,7.813 30.96,12.72 24.447,12.253 36.093,36.298 56.4,52.8 3.737,17.552 6.403,35.386 9.36,52.56 -0.012,-0.071 0.218,0.179 0.24,0.24 1.05,2.828 3.951,5.797 6,8.64 6.036,8.377 12.156,17.423 18,25.44 5.24,-1.56 10.75,-2.85 15.84,-4.56 0.409,-0.733 -0.614,-1.26 -0.96,-1.68 -7.463,-9.061 -16.518,-18.356 -24,-27.6 6.268,-5.158 13.729,-8.344 20.88,-12.96 1.243,-8.197 3.312,-15.568 4.56,-23.76 0.668,8.748 -0.023,18.216 0,27.12 -5.41,3.71 -11.347,6.892 -17.04,10.32 20.55,19.05 41.103,38.098 61.68,57.12 3.867,-1.973 6.911,-4.769 10.56,-6.96 -15.477,-15.243 -31.184,-30.256 -46.56,-45.6 20.057,17.383 40.272,34.607 60.24,52.08 3.02,-2.66 5.62,-5.74 8.64,-8.4 -20.597,-18.202 -41.861,-35.74 -62.4,-54 18.587,13.173 37.49,27.31 55.92,39.84 1.019,-3.701 1.76,-7.68 2.88,-11.28 -16.374,-13.546 -33.494,-26.346 -49.92,-39.84 12.985,7.895 26.258,15.502 39.12,23.52 2.501,-1.179 4.264,-3.096 6.48,-4.56 C 207.747,110.61 184.124,90.266 160.56,69.6 153.984,63.833 147.396,58.574 139.2,54.24 122.296,22.462 101.212,-6.912 78.48,-34.08 75.443,-37.71 71.961,-43.407 68.64,-45.36 65.162,-47.405 60.253,-48.375 56.16,-49.92 42.311,-55.149 27.728,-60.959 17.04,-69.6 -4.027,-53.868 -25.563,-38.603 -48.24,-24.48 -34.107,-14.373 -18.164,-6.076 0,0"
             style="fill:#ffffff;fill-opacity:1;fill-rule:evenodd;stroke:none"
             id="path5938"
             inkscape:connector-curvature="0" /></g><g
           id="g5940"
           transform="translate(342.7202,700.3203)"><path
             d="M 0,0 C 0.861,0.623 2.765,2.615 2.64,2.64 1.779,2.017 -0.125,0.025 0,0 m 239.52,114.72 c 30.506,14.054 60.856,28.262 91.2,42.48 1.508,-1.133 1.898,-3.382 3.119,-4.8 -2.648,-4.085 -6.247,-7.962 -9.359,-12.24 -1.003,-1.379 -1.748,-3.24 -2.88,-4.08 -2.378,-1.766 -6.599,-2.824 -9.841,-4.32 -22.086,-10.197 -45.953,-21.659 -67.679,-31.44 23.229,7.57 46.72,16.96 70.32,24.96 -3.887,-6.593 -7.837,-13.123 -11.28,-20.16 -17.29,-7.27 -34.632,-14.488 -52.08,-21.6 15.483,3.556 31.667,8.493 47.52,12.48 -1.915,-5.045 -4.297,-9.624 -6,-14.88 -29.509,-14.251 -58.951,-27.55 -88.8,-41.76 -4.12,-1.962 -8.284,-4.466 -12.48,-6 -7.071,-2.586 -15.38,-2.819 -20.88,-6.96 -0.591,-0.445 -1.12,-0.86 -1.68,-1.2 -2.856,-1.734 -6.227,-5.555 -9.36,-8.4 -13.274,-12.055 -28.512,-22.887 -43.44,-33.6 -2.92,-2.096 -5.882,-4.388 -8.88,-6.48 -3.011,-2.102 -6.084,-4.55 -9.12,-6.24 -4.246,-2.364 -9.435,-4.078 -14.4,-6 C 71.651,-40.115 59.255,-44.181 45.6,-48 c -2.718,-0.76 -5.541,-2.035 -7.92,-2.16 -4.201,-0.222 -9.89,1.814 -14.4,2.88 -32.129,7.594 -62.071,19.084 -90,30.48 -33.135,13.519 -64.775,27.063 -95.04,42.72 23.322,10.998 46.282,22.357 69.6,33.36 -5.23,4.29 -11.643,7.397 -17.52,11.04 -21.621,-4.419 -43.569,-8.172 -66.24,-12.72 -2.906,-0.583 -7.045,-2.227 -9.12,-1.92 -2.328,0.343 -5.514,5.304 -7.2,7.44 -6.548,8.294 -11.578,17.681 -16.56,27.12 2.493,-10.787 4.762,-21.798 8.64,-31.2 -6.459,2.102 -13.52,5.68 -20.4,8.16 -8.118,11.866 -17.309,24.279 -26.16,36.48 -1.219,1.68 -3.368,4.105 -3.6,5.76 -1.911,13.648 -3.105,28.154 -5.04,42.72 10.358,1.007 16.895,-2.681 24.24,-5.28 10.197,-3.609 19.723,-6.928 29.76,-10.56 4.842,-1.753 9.706,-3.327 14.16,-5.76 20.815,4.261 44.957,2.398 64.32,-1.44 6.471,-1.283 13.294,-2.532 18.72,-4.56 6.1,-2.281 12.287,-6.105 18.24,-9.6 40.546,-23.812 77.238,-54.005 112.56,-82.32 1.347,0.043 -0.834,-0.811 0,-0.96 C 29.876,29.556 32.998,27.317 36,24.96 24.964,18.635 13.432,12.808 4.56,4.32 c 5.193,4.317 11.691,7.394 18.48,10.32 6.525,2.811 13.672,6.156 20.88,7.68 10.327,2.182 21.31,2.289 31.44,2.64 31.322,1.084 48.423,20.761 70.8,30.96 -1.393,2.527 2.048,6.996 3.84,10.56 8.397,16.703 16.22,32.866 24.24,49.92 1.274,2.71 2.309,6.24 3.84,8.4 0.923,1.303 3.376,2.976 5.04,4.32 11.864,9.584 24.468,19.314 36,28.8 6.333,-3.347 11.907,-7.453 18.24,-10.8 -13.179,-9.461 -27.319,-17.962 -41.04,-26.88 2.348,-2.144 3.673,-5.951 6.24,-8.16 0.442,-0.381 1.334,-0.478 1.92,-0.96 2.231,-1.835 4.036,-4.375 6.48,-6.96 1.903,-2.014 5.796,-5.439 6.24,-7.2 0.481,-1.908 -0.301,-5.365 -0.48,-7.68 -0.585,-7.554 -1.189,-14.954 -1.68,-22.56 2.863,9.157 5.162,18.744 7.92,28.8 0.378,1.379 1.282,3.12 1.2,3.84 -0.151,1.326 -2.78,3.739 -4.08,5.04 -4.517,4.517 -9.425,9.395 -12.72,13.92 31.46,15.899 62.894,31.825 94.08,48 3.849,-3.671 7.014,-8.026 10.319,-12.24 -24.014,-13.185 -48.267,-26.132 -72.239,-39.36"
             style="fill:#ffffff;fill-opacity:1;fill-rule:evenodd;stroke:none"
             id="path5942"
             inkscape:connector-curvature="0" /></g><g
           id="g5944"
           transform="translate(274.3198,617.04)"><path
             d="m 0,0 c 22.354,-10.605 43.866,-24.135 70.32,-31.439 2.619,-4.352 5.291,-8.85 7.68,-13.681 2.234,-4.517 5.184,-9.872 3.84,-16.319 -6.287,-1.473 -12.797,-2.724 -18,-5.281 25.287,3.173 50.039,-0.063 70.08,-6.719 6.635,-2.205 13.582,-4.385 18.96,-7.441 7.95,-4.516 15.144,-9.995 22.08,-14.64 7.459,-4.995 15.37,-8.153 25.92,-10.56 17.027,-3.885 39.721,-3.075 55.2,-8.88 2.094,-0.785 4.096,-2.286 6.24,-2.88 4.672,-1.294 11.197,-0.508 16.8,-0.24 16.628,0.793 34.435,2.22 48.96,-1.68 8.753,-8.384 10.598,-29.534 5.28,-43.2 -5.786,0.934 -8.064,5.376 -13.68,6.481 1.947,2.372 3.033,5.606 5.76,7.199 -4.53,-1.509 -12.223,-2.047 -14.64,1.68 1.554,-4.127 0.586,-10.774 1.2,-15.839 -3.788,-1.293 -12.226,-3.44 -12.24,-7.441 -0.009,-2.395 3.167,-2.5 3.36,-4.32 -6.004,-0.487 -13.259,4.891 -16.56,-0.72 0.674,-2.832 4.191,-4.48 6.24,-6.48 0.693,-0.676 2.37,-4.407 3.84,-3.36 2.46,1.752 -4.95,5.67 -4.08,7.92 3.599,1.017 7.003,-1.496 10.08,-2.88 9.287,-4.176 19.014,-9.46 24,-17.28 -22.796,-1.305 -35.317,10.991 -47.76,21.36 -12.67,10.558 -25.243,20.972 -43.68,25.201 -19.352,-1.348 -40.813,-0.546 -60.96,-0.241 -2.925,0.044 -6.524,-0.34 -8.64,0.241 -1.371,0.376 -5.737,5.36 -6.96,6.479 -15.572,14.255 -35.111,28.185 -64.08,28.32 -7.91,0.037 -14.225,-1.203 -21.36,-2.88 C 55.069,-73.412 33.206,-31.032 0,0"
             style="fill:#ffffff;fill-opacity:1;fill-rule:evenodd;stroke:none"
             id="path5946"
             inkscape:connector-curvature="0" /></g><g
           id="g5948"
           transform="translate(517.6802,903.6001)"><path
             d="M 0,0 C 25.186,13.614 51.307,28.373 76.56,42.72 79.218,39.218 81.32,35.161 84,31.68 57.487,16.593 30.724,1.756 3.84,-12.96 26.973,-3.374 50.523,7.877 73.92,18 73.952,13.552 74.175,9.295 74.4,5.04 53.917,-6.077 32.614,-16.375 11.52,-26.88 c 12.339,3.965 27.94,9.287 41.76,14.16 1.682,0.594 4.616,2.267 5.76,2.16 2.211,-0.207 4.655,-5.098 6,-6.48 -30.031,-16.705 -59.68,-33.309 -89.76,-50.4 -4.165,-2.366 -8.427,-5.258 -12.72,-7.2 -6.252,-2.829 -14.379,-3.573 -18.96,-8.4 -1.728,-1.821 -2.945,-4.276 -4.56,-6.24 -11.167,-13.582 -23.87,-25.581 -36.72,-38.16 -13.051,-12.775 -27.128,-25.804 -42.48,-37.68 -0.992,-0.767 -2.879,-2.4 -2.88,-2.4 -1.023,-0.05 -5.877,4.832 -6.72,5.52 -15.721,12.821 -31.436,24.683 -47.04,37.2 5.984,9.976 17.052,15.528 28.56,20.4 3.814,1.615 7.913,3.768 11.76,4.56 4.768,0.982 8.984,1.251 12.96,2.4 26.907,7.779 41.762,29.185 64.8,41.52 8.04,20.12 16.597,39.722 24,60.48 11.481,10.359 22.304,21.375 34.08,31.44 5.357,-2.883 10.807,-5.673 16.32,-8.4 -11.148,-8.852 -22.674,-17.326 -34.08,-25.92 5.608,-7.415 13.26,-12.012 19.68,-18.96 v -26.64 c 1.663,6.953 2.838,14.366 4.32,21.84 0.417,2.103 1.741,5.412 1.44,7.2 -0.375,2.231 -6.345,6.238 -7.92,7.68 -3.051,2.793 -5.213,5.242 -8.16,7.44 C -2.787,16.626 24.157,32.323 50.4,48.72 53.656,45.492 57.725,41.811 60,38.4 39.893,25.707 20.095,12.705 0,0"
             style="fill:#ffffff;fill-opacity:1;fill-rule:evenodd;stroke:none"
             id="path5950"
             inkscape:connector-curvature="0" /></g><g
           id="g5952"
           transform="translate(586.7998,551.04)"><path
             d="M 0,0 C 7.579,4.021 15.838,9.442 23.76,13.92 V 33.84 C 36.188,30.028 48.611,26.211 61.2,22.561 63.865,17.671 66.873,12.359 69.84,7.44 70.141,6.942 71.167,6.38 70.561,5.76 61.109,8.55 51.465,11.145 41.76,13.68 51.951,10.031 62.281,6.521 72.72,3.12 75.996,-1.727 79.649,-7.075 83.28,-12 c 0.35,-0.474 1.663,-0.905 0.96,-1.68 -16.321,5.839 -32.932,11.387 -49.44,17.04 15.775,-7.308 33.148,-14.751 49.68,-22.08 4.843,-2.147 8.552,-3.787 11.28,-7.92 -2.179,-2.22 -4.141,-4.659 -6.72,-6.48 -19.583,7.537 -39.077,15.163 -58.56,22.8 12.229,-7.371 26.655,-14.625 39.6,-22.08 -0.296,-2.584 -0.562,-5.198 -0.96,-7.68 -24.981,8.487 -50.366,17.209 -75.6,25.68 -10.641,3.572 -21.752,6.607 -30.96,11.52 -1.578,0.842 -4.148,2.945 -5.76,3.12 -1.239,0.134 -3.843,-1.086 -6,-1.679 -25.647,-7.064 -54.652,-9.896 -84.72,-12.481 -4.543,-0.391 -10.043,-1.509 -13.92,-0.96 -2.272,0.321 -5.202,2.594 -7.68,3.84 -17.765,8.932 -37.804,15.002 -63.12,16.08 0.319,11.439 -2.064,21.456 -6.48,27.36 33.406,-0.677 63.865,1.329 94.32,4.56 4.301,0.456 8.775,1.683 12.72,1.44 2.697,-0.166 5.604,-1.227 8.4,-1.68 13.951,-2.259 32.111,-0.96 48.48,-0.96 3.258,0 6.516,-0.108 9.6,-0.48 2.784,-0.336 5.621,-1.71 8.16,-1.68 1.88,0.022 4.465,1.522 6.96,2.4 13.973,4.918 27.204,9.79 41.04,15.12 2.28,0.878 5.061,2.21 6.72,2.401 2.746,0.313 6.325,-0.443 9.36,-0.721 8.898,-0.815 18.33,-1.886 27.84,-2.4 2.246,-5.594 4.67,-11.009 6.96,-16.56 -12.26,2.22 -24.281,4.679 -36.48,6.96 -1.076,-5.817 -0.72,-9.967 -0.72,-17.04 0,-2.455 0.451,-5.734 0,-7.199 C 17.66,14.674 11.314,10.157 9.6,8.64 5.565,5.067 3.177,2.514 0,0"
             style="fill:#ffffff;fill-opacity:1;fill-rule:evenodd;stroke:none"
             id="path5954"
             inkscape:connector-curvature="0" /></g><g
           id="g5956"
           transform="translate(503.7598,298.5605)"><path
             d="m 0,0 c 17.696,-22.466 35.334,-44.985 53.04,-67.44 -2.762,-3.399 -6.248,-6.073 -9.6,-8.88 -18.286,23.393 -36.481,46.878 -54.96,70.08 13.26,-20.901 27.743,-41.858 40.32,-62.641 -4.205,-0.675 -8.342,-1.418 -12.24,-2.399 -13.803,18.116 -26.61,37.23 -40.32,55.439 7.76,-14.399 15.375,-28.944 23.28,-43.199 -1.709,-2.291 -3.411,-4.59 -5.52,-6.481 -20.49,26.272 -41.417,52.303 -62.16,78.72 -4.787,6.097 -9.696,11.666 -13.2,19.2 -33.957,12.123 -63.549,28.613 -93.12,45.121 -9.375,12.944 -16.394,28.246 -31.92,35.04 4.349,7.631 2.607,21.632 -0.48,29.28 26.753,-15.793 56.102,-30.166 86.88,-42.481 4.364,-1.746 9.293,-2.883 13.2,-5.04 1.627,-0.897 3.175,-2.622 4.8,-3.84 10.944,-8.204 24.639,-15.147 35.52,-23.519 10.488,-1.662 20.595,-4.427 31.2,-6.96 7.679,-1.835 15.659,-3.505 23.76,-5.28 2.644,-0.58 5.659,-0.747 7.92,-1.68 2.683,-1.107 6.576,-4.733 9.12,-6.721 8.884,-6.938 17.877,-14.263 26.4,-20.88 C 30.39,19.37 28.13,14.029 26.4,8.159 16.038,17.477 6.327,27.446 -3.84,36.96 -9.931,30.431 -13.306,22.764 -18.96,15.119 c -8.67,-1.169 -16.917,-2.762 -25.68,-3.84 7.238,-0.722 15.337,-0.972 23.52,-1.2 1.824,-0.05 4.265,-0.529 5.28,-0.239 1.985,0.566 5.108,6.941 6.24,8.639 2.169,3.252 3.967,6.017 5.76,9.121 C 16.242,5.042 35.309,-18.531 54.96,-41.521 52.575,-45.375 49.544,-48.584 47.04,-52.32 31.025,-35.216 15.89,-17.231 0,0"
             style="fill:#ffffff;fill-opacity:1;fill-rule:evenodd;stroke:none"
             id="path5958"
             inkscape:connector-curvature="0" /></g><g
           id="g5960"
           transform="translate(410.8799,227.5205)"><path
             d="m 0,0 c 9.365,-28.242 20.804,-59.015 30.72,-88.561 -4.66,-1.5 -8.458,-3.861 -13.2,-5.28 -10.399,31.04 -21.507,61.374 -31.92,92.401 5.895,-26.186 13.442,-52.799 19.68,-79.441 -4.674,0.688 -9.374,1.346 -14.16,1.921 -6.99,24.21 -14.603,47.796 -21.6,72 2.332,-17.349 5.69,-35.75 8.64,-53.28 -2.251,-2.07 -5.183,-3.457 -7.92,-5.04 -12.079,34.499 -24.212,68.77 -36.48,103.439 -2.931,8.283 -6.251,16.71 -7.44,26.881 -25.118,16.974 -49.322,34.939 -72,54.72 -5.585,4.872 -10.971,10.01 -16.32,15.359 -1.727,1.728 -3.226,4.065 -5.04,5.521 -2.487,1.996 -5.692,3.469 -8.4,5.28 -18.646,12.469 -34.746,27.666 -48.72,45.359 20.233,20.06 33.403,52.812 28.8,95.281 13.113,-22.911 32.746,-40.282 54,-55.68 2.906,-2.107 7.129,-4.222 9.12,-6.481 1.926,-2.183 3.032,-6.147 4.08,-9.359 4.871,-14.933 -1.059,-27.492 -11.52,-33.601 4.336,-0.095 9.748,1.964 14.4,1.68 3.607,-0.22 8.428,-3.27 11.52,-5.519 6.929,-5.04 11.627,-10.647 16.56,-17.52 2.353,-3.279 5.226,-6.747 6.72,-10.08 1.465,-3.269 2.067,-6.516 3.36,-9.36 7.587,-16.693 22.538,-28.74 35.52,-40.8 2.132,-1.981 4.252,-4.525 6.48,-6.24 2.25,-1.734 5.186,-2.982 7.68,-4.56 C -20.299,78.186 -2.982,67.026 15.12,56.64 23.801,42.841 32.776,29.335 41.76,15.84 37.895,10.265 33.91,4.81 29.52,-0.24 22.766,13.405 15.531,26.571 8.88,40.319 6.467,38.563 3.08,37.563 0.72,35.52 0.229,35.094 -0.06,34.241 -0.72,33.6 c -1.975,-1.92 -4.513,-3.246 -7.2,-5.281 -2.108,-1.595 -5.098,-4.981 -6.96,-5.279 -1.622,-0.261 -4.953,0.847 -6.96,1.199 -6.841,1.202 -13.705,2.562 -20.64,3.601 9.487,-4.113 19.769,-7.432 29.28,-11.521 6.757,4.284 12.378,9.702 18.96,14.16 12.05,-30.67 24.05,-61.39 36,-92.16 -3.459,-3.26 -8.541,-6.177 -12.24,-8.399 C 19.669,-46.731 9.833,-23.368 0,0"
             style="fill:#ffffff;fill-opacity:1;fill-rule:evenodd;stroke:none"
             id="path5962"
             inkscape:connector-curvature="0" /></g></g></g></g></svg>