<?xml version="1.0" encoding="UTF-8" standalone="no"?>
<!-- Created with Inkscape (http://www.inkscape.org/) -->

<svg
   xmlns:dc="http://purl.org/dc/elements/1.1/"
   xmlns:cc="http://creativecommons.org/ns#"
   xmlns:rdf="http://www.w3.org/1999/02/22-rdf-syntax-ns#"
   xmlns:svg="http://www.w3.org/2000/svg"
   xmlns="http://www.w3.org/2000/svg"
   xmlns:sodipodi="http://sodipodi.sourceforge.net/DTD/sodipodi-0.dtd"
   xmlns:inkscape="http://www.inkscape.org/namespaces/inkscape"
   width="352.77777mm"
   height="224.71945mm"
   viewBox="0 0 352.77777 224.71945"
   version="1.1"
   id="svg233"
   inkscape:version="0.92.2 5c3e80d, 2017-08-06"
   sodipodi:docname="draft_shirt_design_1.svg">
  <defs
     id="defs227" />
  <sodipodi:namedview
     id="base"
     pagecolor="#ffffff"
     bordercolor="#666666"
     borderopacity="1.0"
     inkscape:pageopacity="0.0"
     inkscape:pageshadow="2"
     inkscape:zoom="0.94662481"
     inkscape:cx="501.87063"
     inkscape:cy="424.66666"
     inkscape:document-units="mm"
     inkscape:current-layer="layer1"
     showgrid="false"
     fit-margin-top="0"
     fit-margin-left="0"
     fit-margin-right="0"
     fit-margin-bottom="0"
     inkscape:window-width="1914"
     inkscape:window-height="1021"
     inkscape:window-x="0"
     inkscape:window-y="28"
     inkscape:window-maximized="0" />
  <metadata
     id="metadata230">
    <rdf:RDF>
      <cc:Work
         rdf:about="">
        <dc:format>image/svg+xml</dc:format>
        <dc:type
           rdf:resource="http://purl.org/dc/dcmitype/StillImage" />
        <dc:title></dc:title>
      </cc:Work>
    </rdf:RDF>
  </metadata>
  <g
     inkscape:label="Layer 1"
     inkscape:groupmode="layer"
     id="layer1"
     transform="translate(-0.01368824,-0.04890553)">
    <path
       style="fill:#020202;stroke-width:0.26458332"
       d="M 176.40257,224.76835 H 0.01368824 V 112.40863 0.04890553 H 176.40257 352.79146 V 112.40863 224.76835 Z m -6.60325,-14.1266 0.98147,0.0155 1.1352,-0.4837 1.13519,-0.4837 0.75994,-0.83921 0.75994,-0.83922 0.38462,-1.41111 0.38463,-1.41111 0.002,-6.08542 0.002,-6.08542 h -1.5875 -1.5875 v 0.51727 0.51727 l -1.24977,-0.73738 -1.24975,-0.73737 -1.257,0.20398 -1.257,0.20398 -0.86147,0.56446 -0.86148,0.56446 -0.6786,1.11587 -0.67859,1.11587 -0.22858,1.52427 -0.22858,1.52426 0.43118,1.54004 0.43119,1.54004 1.15572,1.12017 1.15572,1.12017 1.36559,0.17079 1.36558,0.17079 1.36705,-0.71227 1.36704,-0.71227 -0.1847,1.63871 -0.18471,1.63871 -0.63241,0.46242 -0.6324,0.46243 h -1.15916 -1.15916 l -0.57788,-0.88195 -0.57787,-0.88194 h -1.54693 -1.54692 v 0.37029 0.3703 l 0.5059,0.97832 0.50591,0.97831 0.54908,0.4557 0.54909,0.4557 1.32625,0.47326 1.32627,0.47326 z m -0.0527,-8.45118 h -0.71302 l -0.98982,-0.8514 -0.98981,-0.8514 v -1.64859 -1.64859 l 0.98981,-0.8514 0.98982,-0.8514 h 0.71302 0.71302 l 1.03119,1.0312 1.0312,1.03119 v 1.289 1.289 l -1.0312,1.03119 -1.03119,1.0312 z m 88.92478,5.99202 0.60076,0.005 0.88098,-0.40141 0.88099,-0.4014 0.37033,-1.06235 0.37034,-1.06235 v -3.47513 -3.47514 h -0.88194 -0.88194 v 0.36519 0.36519 l -0.68237,-0.36519 -0.68236,-0.36519 h -0.5795 -0.57949 l -1.0312,1.0312 -1.0312,1.03119 v 0.89249 0.89248 l 0.39854,0.8747 0.39855,0.8747 1.02846,0.42601 1.02847,0.426 0.8886,-0.40488 0.8886,-0.40487 -0.11075,1.11366 -0.11074,1.11367 -0.63947,0.38835 -0.63946,0.38836 -0.6717,-0.81832 -0.6717,-0.81831 -0.88526,0.11276 -0.88527,0.11276 0.43949,0.87499 0.43949,0.87499 0.875,0.44272 0.87499,0.44273 0.60076,0.005 z m 0.16294,-5.28646 h -0.79898 l -0.42333,-0.42334 -0.42334,-0.42333 v -0.56445 -0.56444 l 0.42334,-0.42333 0.42333,-0.42334 h 0.79898 0.79897 l 0.37761,0.70556 0.3776,0.70555 -0.3776,0.70556 -0.37761,0.70556 z m -32.17794,2.23675 1.42813,-0.21827 0.10994,-0.0902 0.10995,-0.0902 -1.06302,-1.21071 -1.06301,-1.2107 0.84109,-1.66138 0.84109,-1.66136 0.23613,-1.88991 0.23613,-1.8899 -0.57922,-1.99243 -0.57922,-1.99243 -1.28475,-1.42207 -1.28476,-1.42208 -1.31461,-0.67066 -1.31461,-0.67066 -1.41872,-0.22686 -1.41871,-0.22687 -1.84691,0.44307 -1.8469,0.44306 -1.85166,1.80293 -1.85166,1.80292 -0.60014,2.08205 -0.60015,2.08205 0.21463,1.56589 0.21463,1.56589 0.65255,1.46734 0.65255,1.46734 1.37829,1.33453 1.37829,1.33453 1.73972,0.51755 1.73973,0.51755 h 0.93824 0.93823 l 1.73037,-0.52076 1.73036,-0.52076 0.68994,0.68994 0.68994,0.68993 z m -7.39132,-3.33023 -0.35278,-0.0255 -1.01624,-0.30428 -1.01625,-0.30428 -0.86664,-0.81192 -0.86664,-0.81193 -0.49836,-1.18961 -0.49837,-1.18961 v -1.29328 -1.29328 l 0.79375,-1.5534 0.79375,-1.5534 0.99601,-0.72621 0.99601,-0.72621 h 1.71215 1.71215 l 0.99601,0.72621 0.99601,0.72621 0.79375,1.5534 0.79375,1.5534 v 1.1713 1.17131 l -0.54112,1.29508 -0.54113,1.29509 -0.88426,-0.95364 -0.88427,-0.95364 -0.60308,0.0417 -0.60309,0.0417 -1.01516,0.22284 -1.01517,0.22285 1.27157,1.41111 1.27156,1.41111 0.008,0.22344 0.008,0.22344 -0.79375,0.21271 -0.79375,0.21272 -0.35278,-0.0255 z m -79.18516,3.2024 1.24816,0.008 1.57406,-0.79375 1.57406,-0.79375 0.79375,-1.57406 0.79375,-1.57405 -0.006,-1.60095 -0.006,-1.60094 -0.7894,-1.41111 -0.7894,-1.41111 -1.5726,-0.79375 -1.5726,-0.79375 h -1.22498 -1.22498 l -1.50919,0.73058 -1.50919,0.73059 -0.80499,1.29789 -0.80499,1.29788 v 2.11667 2.11667 l 0.8462,1.36457 0.84621,1.36457 1.44479,0.65615 1.44478,0.65616 1.24817,0.008 z m 0.15125,-2.81448 h -0.83091 l -0.98981,-0.8514 -0.98981,-0.8514 v -1.64859 -1.64859 l 0.98981,-0.8514 0.98981,-0.8514 h 0.83091 0.83092 l 0.9133,1.0854 0.91331,1.0854 v 1.18059 1.18059 l -0.91331,1.0854 -0.9133,1.0854 z m 11.04733,2.81448 0.80508,0.008 1.19996,-0.50138 1.19996,-0.50137 0.5526,-1.06861 0.5526,-1.0686 v -0.88287 -0.88286 l -0.38258,-0.83967 -0.38258,-0.83967 -1.91048,-0.93699 -1.91048,-0.93698 v -0.4898 -0.48981 l 0.48969,-0.4064 0.48968,-0.4064 0.92735,0.42253 0.92735,0.42253 0.51203,-0.67669 0.51202,-0.67668 0.0112,-0.28259 0.0112,-0.28258 -1.30613,-0.54574 -1.30613,-0.54573 -1.2139,0.19698 -1.21391,0.197 -0.81305,0.76382 -0.81306,0.76383 -0.22784,1.03733 -0.22783,1.03733 0.41788,1.00887 0.41789,1.00887 1.90832,0.90354 1.90831,0.90355 v 0.63956 0.63957 l -0.42333,0.42333 -0.42333,0.42334 h -0.58743 -0.58742 l -0.89168,-0.7014 -0.89168,-0.70139 -0.567,0.86537 -0.56702,0.86537 v 0.38244 0.38243 l 1.49931,0.68056 1.49931,0.68057 0.80508,0.008 z m 40.46992,-0.0246 1.05833,0.0313 1.20965,-0.61681 1.20964,-0.61682 0.72399,-0.98711 0.72399,-0.98711 -0.52252,-0.3304 -0.52253,-0.3304 -0.91546,-0.005 -0.91546,-0.005 -0.63852,0.70556 -0.63852,0.70556 -0.73907,-0.005 -0.73908,-0.005 -0.38816,-0.25918 -0.38816,-0.25918 -0.40559,-0.77056 -0.40559,-0.77056 v -0.55236 -0.55235 h 3.70417 3.70416 v -0.54934 -0.54934 l -0.38512,-1.52948 -0.38513,-1.52948 -1.14057,-1.10549 -1.14057,-1.10548 -1.73749,-0.18783 -1.7375,-0.18784 -1.2277,0.63811 -1.22768,0.63811 -0.78305,1.17237 -0.78304,1.17238 -0.23945,1.59676 -0.23945,1.59677 0.4075,1.3601 0.4075,1.3601 0.90179,1.07172 0.9018,1.07173 1.11727,0.32347 1.11728,0.32346 1.05834,0.0313 z m -0.17639,-7.72874 h -2.11667 v -0.36881 -0.36881 l 0.86591,-0.86591 0.86591,-0.86591 h 0.32124 0.32124 l 0.92952,0.73116 0.92951,0.73116 v 0.50356 0.50356 z m 12.65211,7.63521 1.5396,-0.14929 0.90804,-0.67795 0.90804,-0.67795 0.72736,-0.97421 0.72735,-0.97421 v -2.17899 -2.17899 l -0.70556,-0.9442 -0.70555,-0.9442 -1.73864,-0.81969 -1.73864,-0.81969 -0.819,-0.64297 -0.819,-0.64296 v -0.84821 -0.84821 l 0.87937,-0.57619 0.87938,-0.57618 0.85985,0.2158 0.85984,0.21581 0.52932,0.52932 0.52933,0.52933 0.79163,-1.11175 0.79164,-1.11175 -0.80052,-0.64822 -0.80052,-0.64822 -1.43389,-0.38611 -1.43389,-0.38611 -1.14276,0.21439 -1.14276,0.21438 -0.96048,0.75552 -0.96049,0.75551 -0.48641,1.16416 -0.48642,1.16416 0.001,1.15786 0.001,1.15786 0.67508,1.10712 0.67509,1.10711 2.05762,0.96259 2.05762,0.96259 0.61736,0.54261 0.61737,0.54261 v 1.15444 1.15444 l -0.93738,0.73734 -0.93738,0.73734 -0.73832,-0.21016 -0.73831,-0.21016 -1.00593,-1.07636 -1.00593,-1.07636 -1.03744,1.03744 -1.03744,1.03744 0.78092,0.99278 0.78092,0.99277 1.43883,0.67294 1.43884,0.67292 1.53961,-0.14929 z M 89.285748,204.66001 h 0.34724 l 0.83139,-1.85209 0.83137,-1.85208 0.39647,0.97014 0.39646,0.97014 0.34405,0.88194 0.34405,0.88195 h 0.3577 0.35771 l 1.52014,-3.02524 1.52016,-3.02524 1.39407,3.01111 1.39407,3.01111 0.44785,0.0142 0.447852,0.0141 0.83138,-1.85209 0.83138,-1.85208 0.36293,0.88195 0.36294,0.88194 0.37758,0.97014 0.37757,0.97014 h 0.36408 0.36408 l 1.4901,-3.00454 1.4901,-3.00453 1.50975,3.00453 1.50974,3.00454 h 0.35585 0.35585 l 0.83139,-1.85209 0.83137,-1.85208 0.43,1.05833 0.43,1.05834 0.31051,0.79375 0.31052,0.79375 h 0.35796 0.35797 l 1.59458,-3.175 1.59458,-3.175 h -1.03352 -1.03352 l -0.58678,1.76663 -0.58678,1.76662 -0.27118,-0.16761 -0.2712,-0.1676 -0.61067,-1.59902 -0.61067,-1.59902 h -0.45654 -0.45655 l -0.75881,1.76389 -0.7588,1.76389 h -0.13823 -0.13823 l -0.58587,-1.76389 -0.58587,-1.76389 h -1.88358 -1.88357 l -0.58678,1.76663 -0.58678,1.76662 -0.27119,-0.16761 -0.27119,-0.1676 -0.61067,-1.59902 -0.61067,-1.59902 h -0.47081 -0.47081 l -0.61068,1.59902 -0.61067,1.59902 -0.271192,0.1676 -0.27119,0.16761 -0.58678,-1.76662 -0.58678,-1.76663 h -1.88357 -1.88358 l -0.58678,1.76663 -0.58678,1.76662 -0.27118,-0.16761 -0.2712,-0.1676 -0.61067,-1.59902 -0.61067,-1.59902 h -0.47081 -0.47081 l -0.61067,1.59902 -0.61067,1.59902 -0.27119,0.1676 -0.27119,0.16761 -0.58678,-1.76662 -0.58678,-1.76663 h -1.01621 -1.0162 l 1.15103,2.38125 1.15103,2.38125 0.4351,0.79375 0.43511,0.79375 z m 29.437662,0 h 0.38805 l 0.42334,-0.42334 0.42333,-0.42333 v -0.25702 -0.25703 l -0.55367,-0.55366 -0.55366,-0.55367 -0.68106,0.36449 -0.68105,0.36449 v 0.4462 0.4462 l 0.42333,0.42333 0.42333,0.42334 z m 5.11528,0 h 1.76388 v -3.35139 -3.35139 l 1.6757,-7.9e-4 1.67569,-8e-4 1.20965,-0.61681 1.20964,-0.61681 0.73064,-0.99601 0.73063,-0.99601 v -2.19451 -2.1945 l -0.64486,-0.98419 -0.64486,-0.98418 -1.47181,-0.66825 -1.4718,-0.66825 -3.2632,-0.008 -3.26319,-0.007 v 8.81944 8.81945 z m 2.92011,-9.525 h -1.15623 v -2.64584 -2.64583 h 1.23473 1.23472 l 0.70555,0.70556 0.70556,0.70555 v 1.39111 1.39111 l -0.78405,0.54917 -0.78405,0.54917 z m 33.23961,9.525 h 1.5875 v -4.38629 -4.38629 l 0.97014,-0.11163 0.97013,-0.11163 0.1095,-1.32291 0.10948,-1.32292 h -1.07962 -1.07963 v -1.94028 -1.94027 h -1.5875 -1.5875 v 1.94027 1.94028 h -0.52917 -0.52917 v 1.41111 1.41111 h 0.52917 0.52917 v 4.40973 4.40972 z m 19.37156,0 h 1.55629 l 0.11941,-3.91241 0.1194,-3.91241 0.8687,-0.70274 0.8687,-0.70274 0.97898,0.14368 0.97899,0.14368 0.21576,-1.15008 0.21575,-1.15009 -0.23217,-0.37567 -0.23218,-0.37567 -0.77293,0.001 -0.77293,0.001 -1.14653,0.69905 -1.14653,0.69905 v -0.52398 -0.52398 h -1.5875 -1.5875 v 5.82083 5.82083 h 1.55629 z m 54.53538,0 h 4.23333 v -1.41111 -1.41111 h -2.46944 -2.46945 v -7.40834 -7.40833 h -1.76388 -1.76389 v 8.81944 8.81945 z m 6.52639,0 h 0.38805 l 0.42334,-0.42334 0.42333,-0.42333 v -0.25702 -0.25703 l -0.55367,-0.55366 -0.55366,-0.55367 -0.68106,0.36449 -0.68105,0.36449 v 0.4462 0.4462 l 0.42333,0.42333 0.42333,0.42334 z m 6.15252,-0.17103 1.21363,-0.15917 0.64974,-0.64974 0.64974,-0.64974 0.20125,-1.24013 0.20125,-1.24014 -0.88755,-1.03183 -0.88755,-1.03183 h -1.64859 -1.64859 l -0.8514,0.98981 -0.8514,0.98981 v 0.96016 0.96017 l 0.56692,0.80938 0.56691,0.80939 0.75601,0.32151 0.756,0.32151 z m -0.36975,-1.66589 -0.84884,0.10335 -0.43849,-0.43849 -0.4385,-0.4385 v -0.5918 -0.59181 l 0.50975,-0.42305 0.50975,-0.42306 0.77714,0.11528 0.77714,0.11528 0.387,0.61736 0.387,0.61736 -0.38655,0.61736 -0.38655,0.61736 z m 5.15334,1.83692 h 0.88194 v -1.78708 -1.78708 l 0.36519,-0.68237 0.36519,-0.68236 h 0.86954 0.86953 v -0.70556 -0.70555 h -0.55236 -0.55236 l -0.68236,0.36519 -0.68237,0.36519 v -0.36519 -0.36519 h -0.88194 -0.88194 v 3.175 3.175 z m -80.25694,-26.13485 0.17639,-8e-4 13.08948,-17.53575 13.08948,-17.53575 1.14419,-1.70101 1.1442,-1.70102 1.52068,-3.23787 1.52068,-3.23787 0.61005,-2.79254 0.61003,-2.79253 -0.19719,-3.0283 -0.19719,-3.0283 -0.80313,-2.44314 -0.80313,-2.44314 -1.63206,-2.49575 -1.63205,-2.49575 -1.89542,-1.85208 -1.89543,-1.85208 -0.19493,0.004 -0.19493,0.004 -2.04125,3.52153 -2.04125,3.52152 1.41182,1.86996 1.41183,1.86994 0.70097,1.58467 0.70097,1.58466 0.31336,1.99826 0.31336,1.99826 -0.29706,2.17212 -0.29705,2.17212 -1.04861,2.19715 -1.0486,2.19716 -1.80217,1.83081 -1.80215,1.83082 -1.99959,1.00463 -1.99958,1.00464 -1.86945,0.39697 -1.86944,0.39697 h -1.70937 -1.70936 l -2.24202,-0.6929 -2.24203,-0.6929 -1.67184,-1.06078 -1.67185,-1.06078 -1.60979,-1.68007 -1.60978,-1.68006 -1.06347,-2.16023 -1.06348,-2.16022 -0.27015,-1.99076 -0.27015,-1.99075 0.26445,-1.94877 0.26445,-1.94877 1.07049,-2.28757 1.07048,-2.28757 1.82311,-1.92768 1.82312,-1.92767 1.95256,-0.73055 1.95255,-0.73054 0.56299,0.14683 0.56298,0.14682 -1.06976,0.44611 -1.06977,0.4461 -1.31148,2.18051 -1.31149,2.18052 v 0.90591 0.90591 l 2.44293,1.45132 2.44292,1.45131 h 0.53487 0.53486 l 0.19451,-0.31472 0.19452,-0.31473 -1.72549,-2.22044 -1.72549,-2.22045 1.09276,-2.216 1.09276,-2.21599 0.0987,0.0988 0.0988,0.0988 -0.56914,2.00066 -0.56913,2.00065 1.4852,1.9251 1.48521,1.9251 0.41435,0.33096 0.41435,0.33095 3.50649,-1.10805 3.50649,-1.10805 -1.56621,-0.70041 -1.56622,-0.70042 -0.84187,-0.88264 -0.84187,-0.88264 -1.53706,-2.38125 -1.53707,-2.38125 h -0.36797 -0.36797 l 2.12882,-3.0868 2.12881,-3.08681 -0.22182,-1.32291 -0.22181,-1.32292 h -1.6867 -1.68669 l -2.76507,0.52834 -2.76506,0.52834 -2.82222,1.35527 -2.82222,1.35527 -2.73403,2.20197 -2.73403,2.20197 v 0.27183 0.27184 l -1.55113,2.36165 -1.55113,2.36164 -1.00651,3.07053 -1.00651,3.07059 0.0273,4.40973 0.0273,4.40972 0.91795,2.5876 0.91795,2.58759 1.17143,1.99852 1.17143,1.99851 2.46944,2.46944 2.46945,2.46945 2.11667,1.11523 2.11666,1.11524 2.11667,0.63378 2.11667,0.63379 3.70416,-0.0202 3.70417,-0.0202 1.4993,-0.54105 1.49931,-0.54105 v 0.14016 0.14015 l -9.54652,12.71861 -9.54652,12.71861 0.1162,0.34857 0.11619,0.34858 2.99213,2.08288 2.99213,2.08287 0.17639,-7.9e-4 z m 40.40466,-1.86663 0.54078,-0.20751 2.28144,-0.42037 2.28145,-0.42037 V 164.66459 153.7189 l 0.33045,0.33514 0.33044,0.33514 2.15652,8.64305 2.15652,8.64306 0.33921,1.2871 0.33921,1.28709 2.3773,-0.53553 2.37729,-0.53554 0.14835,-0.13556 0.14835,-0.13555 1.17707,-5.37851 1.17706,-5.3785 0.96764,-4.40973 0.96764,-4.40972 0.26855,8.46667 0.26854,8.46667 -0.13143,0.79375 -0.13143,0.79375 0.74483,-0.002 0.74483,-0.002 1.32292,-0.36739 1.32292,-0.36739 v -12.16727 -12.16702 l -3.39882,0.10096 -3.39882,0.10097 -2.13635,8.92026 -2.13635,8.92025 -0.2371,-0.45359 -0.2371,-0.45328 -2.22622,-8.55487 -2.22621,-8.55486 h -4.52512 -4.52514 v 15.0308 15.0308 z m -68.18591,-0.26033 0.97014,0.0396 v -14.81667 -14.81667 h -2.64017 -2.64016 l -0.0939,9.54108 -0.0939,9.54107 -5.06802,-9.54107 -5.06803,-9.54108 h -2.25211 -2.25212 v 12.83865 12.83864 l 0.48407,0.18576 0.48406,0.18575 1.62624,0.24387 1.62625,0.24387 0.0945,-8.58192 0.0946,-8.58191 4.96633,9.68695 4.96634,9.68695 1.91283,0.40378 1.91283,0.40377 z m -30.32756,-5.98448 1.68703,0.0268 1.16158,-0.48534 1.16158,-0.48534 1.13028,-1.36674 1.13027,-1.36675 0.53176,-1.76389 0.53175,-1.76388 0.19817,-2.64584 0.19816,-2.64583 -0.54686,-2.56808 -0.54686,-2.56809 -0.98694,-1.82909 -0.98694,-1.82909 -1.48414,-1.12659 -1.48414,-1.12659 -1.74916,-0.37512 -1.74916,-0.37514 -1.74927,0.51948 -1.74926,0.51948 -1.43202,1.55355 -1.43201,1.55355 -0.55279,1.86142 -0.55278,1.86142 v 3.57611 3.5761 l 0.55891,1.88204 0.55891,1.88204 0.84199,1.3338 0.84199,1.33381 1.24101,0.99022 1.24102,0.99023 1.15045,0.41723 1.15045,0.41723 1.68702,0.0268 z m -0.80508,-3.87739 -0.52917,-0.0211 -0.88194,-0.35065 -0.88195,-0.35064 -0.9607,-0.91868 -0.96071,-0.91869 -0.57826,-1.74097 -0.57826,-1.74098 0.13986,-3.40553 0.13986,-3.40553 0.65317,-1.09871 0.65318,-1.09871 0.97675,-0.57698 0.97675,-0.57699 h 1.03993 1.03993 l 1.16801,0.79375 1.16801,0.79375 0.73624,1.41111 0.73624,1.41111 v 4.05695 4.05694 l -0.63448,1.16213 -0.63449,1.16213 -1.1294,0.68864 -1.1294,0.68863 -0.52917,-0.021 z m 126.81438,3.90423 h 0.57874 l 1.53776,-0.38721 1.53777,-0.38721 0.57743,-2.35626 0.57743,-2.35625 0.24588,-0.38663 0.24588,-0.38662 3.175,-0.53661 3.175,-0.5366 0.21542,0.12935 0.2154,0.12935 0.60123,2.14274 0.60123,2.14275 0.59447,-0.17614 0.59448,-0.17615 0.97014,-0.23139 0.97013,-0.23138 -0.008,-0.22634 -0.008,-0.22634 -2.94652,-9.70139 -2.94653,-9.70139 -1.89607,-0.0969 -1.89607,-0.0969 -3.48621,11.38579 -3.4862,11.38579 -0.15917,0.44097 -0.15917,0.44097 z m 8.4071,-10.41422 -2.18546,0.24844 1.03686,-3.82475 1.03685,-3.82474 0.002,-0.33514 0.002,-0.33514 0.29775,0.33514 0.29775,0.33514 0.9955,3.43985 0.99549,3.43986 -0.14672,0.13644 -0.14672,0.13645 -2.18545,0.24845 z m -147.12773,7.55108 0.61736,0.0409 v -10.40694 -10.40695 l -1.322922,-2.6e-4 -1.32291,-2.7e-4 0.0768,2.91075 0.0768,2.91074 0.0114,7.29427 0.0114,7.29427 0.61736,0.16134 0.61736,0.16133 0.617362,0.0409 z m 160.16843,-1.80156 2.90309,-0.68119 1.03647,-0.59725 1.03646,-0.59725 0.81082,-1.62589 0.81084,-1.6259 0.35184,-2.48083 0.35185,-2.48083 -0.30412,-2.41266 -0.30411,-2.41266 -0.53324,-1.27296 -0.53321,-1.27295 -0.81095,-0.75552 -0.81096,-0.75552 h -3.63765 -3.63765 v 9.64259 9.6426 l 0.18371,0.1837 0.18371,0.18371 z m 0.87462,-3.25187 -1.32291,0.23398 v -6.35 -6.35 l 1.23961,-0.23255 1.23962,-0.23255 0.96524,0.46201 0.96525,0.46202 0.42105,1.23058 0.42106,1.23058 v 2.82223 2.82222 l -0.42106,1.20168 -0.42105,1.20168 -0.88195,0.63207 -0.88194,0.63208 z m -169.357892,3.30261 0.76919,0.0279 0.0172,-7.14375 0.0172,-7.14375 0.007,-0.79375 0.007,-0.79377 h 1.76389 1.76389 v -1.5875 -1.5875 h -4.7625 -4.7625 v 1.36567 1.36566 l 1.76389,0.23399 1.76389,0.23399 v 7.71956 7.71956 l 0.44097,0.17794 0.44097,0.17793 0.7692,0.0278 z m -5.32354,-1.03588 0.73732,0.005 -1.98036,-8.90764 -1.98036,-8.90764 -1.07433,-0.10578 -1.07433,-0.10579 -1.65138,7.53214 -1.65138,7.53213 v 0.5616 0.5616 l 0.55802,0.21413 0.55802,0.21413 h 0.30231 0.30231 l 0.23871,-1.59183 0.23872,-1.59184 0.32832,-0.20292 0.32833,-0.20292 1.72896,0.23779 1.72896,0.2378 0.41262,1.99793 0.41261,1.99794 0.39981,0.25918 0.3998,0.25918 0.73732,0.005 z m -3.25671,-7.45579 -0.30283,-0.0529 -0.97014,-0.14696 -0.97014,-0.14696 v -0.62329 -0.62329 l 0.40251,-2.08731 0.4025,-2.08731 0.24058,-0.27267 0.24059,-0.27267 0.43552,2.38934 0.43552,2.38934 0.19436,0.79375 0.19436,0.79375 z m 186.404802,6.39071 0.26458,-0.0121 3.3514,-0.78921 3.3514,-0.7892 0.11607,-0.81181 0.1161,-0.8118 -0.18084,-0.47129 -0.18085,-0.47127 -1.34636,0.28055 -1.34635,0.28055 -1.14652,0.20756 -1.14655,0.20757 v -2.24309 -2.2431 l 0.79375,-0.21271 0.79375,-0.21272 0.94131,-0.005 0.94128,-0.005 0.55801,-0.21413 0.55803,-0.21413 v -1.22506 -1.22506 l -2.29306,0.24557 -2.29307,0.24556 v -1.98137 -1.98138 h 2.46946 2.46944 v -1.43292 -1.43293 l -3.08682,0.0707 -3.08678,0.0707 -0.44098,0.16521 -0.44099,0.1652 v 8.42893 8.42892 l 0.26459,-0.0122 z M 74.069078,162.32668 h 1.03506 l 0.69133,-0.87888 0.69132,-0.87888 0.23723,-1.26453 0.23723,-1.26453 -0.41698,-0.50243 -0.41698,-0.50242 h -0.48597 -0.48597 v 0.82727 0.82726 l -0.73894,0.66874 -0.73894,0.66873 -0.82174,-0.95532 -0.82173,-0.95533 -0.24386,-1.95178 -0.24386,-1.95179 0.24127,-1.93114 0.24129,-1.93113 0.65921,-0.8029 0.65921,-0.80289 0.63946,0.38271 0.63946,0.38271 0.3377,1.11716 0.3377,1.11717 0.72064,-0.22078 0.72063,-0.22079 0.11094,-0.0965 0.11095,-0.0965 -0.24313,-1.29598 -0.24313,-1.29598 -0.83377,-0.99089 -0.83377,-0.99088 -0.76389,-0.19976 -0.76388,-0.19976 -1.13977,1.13977 -1.13977,1.13978 -0.43743,2.10455 -0.43744,2.10456 0.19376,2.64583 0.19377,2.64583 0.46745,1.29742 0.46744,1.29743 0.79142,0.90743 0.79142,0.90745 z m -5.80706,-1.41112 h 0.51501 l 0.10235,-7.05592 0.10236,-7.05591 -0.61736,2.6e-4 -0.61736,2.6e-4 v 7.05556 7.05555 h 0.515 z m 213.885692,-0.0149 0.61735,-0.0149 1.9403,-0.45061 1.94027,-0.45059 0.11387,-1.16665 0.11388,-1.16664 -0.81942,0.18956 -0.81944,0.18956 -1.14654,0.23594 -1.14652,0.23593 v -1.92716 -1.92716 l 0.79375,-0.21272 0.79375,-0.21272 0.97015,-0.005 0.97012,-0.005 v -1.05833 -1.05833 h -1.76387 -1.7639 v -1.56907 -1.56906 l 1.85208,-0.10663 1.85209,-0.10663 v -1.05834 -1.05833 l -2.55765,-0.10365 -2.55762,-0.10365 v 7.2474 7.2474 z m -216.076392,-0.3756 0.61736,0.0378 v -1.03456 -1.03455 l -0.61736,-0.16738 -0.61736,-0.16737 -0.97014,-0.2159 -0.97014,-0.2159 v -5.46133 -5.46134 h -0.52916 -0.52917 v 6.50563 6.50563 l 1.49931,0.33576 1.4993,0.33576 z m 221.987422,-0.89374 0.53115,-0.20382 0.22074,-1.38042 0.22072,-1.38043 0.21825,-0.11979 0.21826,-0.1198 0.96509,-0.23062 0.9651,-0.23062 0.2265,1.41657 0.22654,1.41656 h 0.31874 0.31877 l 0.19685,-0.51299 0.19688,-0.513 -0.98861,-5.52413 -0.98862,-5.52413 -0.46927,-0.18006 -0.46923,-0.18007 -0.13171,0.13178 -0.13169,0.13177 -1.0878,6.06555 -1.08784,6.06554 v 0.53797 0.53797 z m 2.32206,-5.41848 h -0.73657 l 0.0204,-0.79375 0.0204,-0.79375 0.26493,-1.41111 0.26493,-1.41111 0.21815,0.70556 0.21815,0.70555 0.23315,1.49931 0.23317,1.4993 h -0.73657 z m -232.528392,4.58611 h 0.33594 l 0.10503,-2.1753 0.10503,-2.1753 0.99076,-0.0421 0.99077,-0.0421 0.31482,-0.5094 0.31483,-0.5094 0.22951,-1.3585 0.22952,-1.3585 -0.22948,-1.53029 -0.22948,-1.53028 -0.4804,-0.3987 -0.48039,-0.39869 -1.26621,-0.20548 -1.2662,-0.20547 v 6.21977 6.21976 z m 1.24804,-6.35 h -0.5478 l -0.18882,-0.49206 -0.18883,-0.49207 0.11171,-1.36002 0.1117,-1.36001 h 0.69706 0.69706 l 0.33618,0.95592 0.33618,0.95593 -0.40832,0.89616 -0.40831,0.89615 z m -3.25968,5.94437 0.61736,0.0529 v -0.8442 -0.8442 l -0.55802,-0.21414 -0.55802,-0.21413 h -0.6767 -0.67671 v -1.5875 -1.5875 h 1.05834 1.05833 v -0.83785 -0.83784 l -1.05833,-0.21167 -1.05834,-0.21167 v -1.24354 -1.24354 h 1.25816 1.25815 l -0.11162,-0.97014 -0.11163,-0.97014 -1.49931,-0.10848 -1.4993,-0.10848 v 5.81769 5.81769 l 0.97014,0.14696 0.97014,0.14696 z M 295.08356,158.0934 h 0.87066 l 0.54917,-0.78405 0.54917,-0.78405 v -2.18936 -2.18936 l -0.55666,-0.55668 -0.55668,-0.55668 -0.69919,-0.37419 -0.69918,-0.3742 0.10932,-0.9192 0.10935,-0.91921 0.4359,-0.14311 0.43591,-0.14311 0.40944,0.89859 0.40941,0.8986 0.30121,-0.18615 0.30117,-0.18615 v -0.66813 -0.66814 l -0.40939,-0.89854 -0.40941,-0.89855 h -0.78211 -0.78214 l -0.35523,0.44097 -0.35523,0.44098 -0.23868,1.11695 -0.23865,1.11695 0.24537,1.30794 0.24538,1.30794 1.02073,0.57372 1.02077,0.57372 0.21846,0.84835 0.2185,0.84835 -0.34174,0.54177 -0.34174,0.54176 -0.42304,0.14101 -0.42301,0.14101 -0.37989,-1.08974 -0.37989,-1.08973 -0.3184,0.19679 -0.31843,0.19679 v 0.83816 0.83816 l 0.34404,0.90491 0.34406,0.90491 z M 52.220448,157.74057 h 0.37057 l -0.21849,-0.97014 -0.21848,-0.97014 -0.33719,-1.34588 -0.33718,-1.34587 0.41349,-1.25289 0.41349,-1.25289 -0.16915,-1.76036 -0.16915,-1.76037 -0.48914,-0.31836 -0.48915,-0.31837 -0.88194,0.0914 -0.88194,0.0914 -0.0976,5.20347 -0.0976,5.20348 h 0.36221 0.36221 v -2.14607 -2.14606 l 0.42504,0.14168 0.42505,0.14168 0.46985,1.91619 0.46985,1.91619 0.15236,0.44097 0.15237,0.44097 z m -1.67135,-6.76643 -0.79375,0.11273 v -1.23844 -1.23844 l 0.32095,-0.19835 0.32094,-0.19836 0.57999,0.22257 0.58,0.22257 -0.10719,1.10149 -0.10719,1.10149 z m 248.972922,6.06088 h 0.35277 l 0.009,-2.20487 0.009,-2.20486 0.67596,-2.98975 0.67599,-2.98975 -0.1324,-0.13238 -0.13237,-0.13238 -0.34319,0.21211 -0.34322,0.21211 -0.24257,1.76383 -0.2426,1.76382 -0.27892,-0.17238 -0.27893,-0.17238 -0.23746,-1.58362 -0.23749,-1.58361 -0.35586,-0.21994 -0.35587,-0.21994 -0.19934,0.19934 -0.19933,0.19934 0.75197,2.99822 0.75197,2.99822 v 2.12943 2.12944 z m -4.9381,-17.28611 h 0.64706 l 0.55245,-0.212 0.55245,-0.212 -1.27293,-1.55346 -1.27294,-1.55346 0.21135,-1.05676 0.21135,-1.05677 h -0.19077 -0.19076 l -0.63397,0.3393 -0.63399,0.33929 -0.43942,1.06091 -0.43945,1.06091 1.12625,1.42202 1.12625,1.42202 z m 4.38867,-0.88568 1.7436,-0.21498 0.29038,-0.17947 0.29038,-0.17946 -1.41663,-2.01956 -1.41663,-2.01956 v -1.12549 -1.1255 l -1.32292,0.61165 -1.32291,0.61166 -0.25919,0.35277 -0.25919,0.35278 -0.005,1.17836 -0.005,1.17836 0.97015,1.39671 0.97012,1.39671 1.74363,-0.21498 z m -241.051702,-0.53084 0.58082,0.005 1.09488,-1.247 1.09487,-1.24699 -10e-4,-0.4287 -10e-4,-0.4287 -0.69905,-1.14652 -0.69905,-1.14653 h -0.35796 -0.35796 l -0.01,1.14653 -0.01,1.14652 -1.05084,1.38886 -1.05083,1.38886 0.44329,0.28144 0.44328,0.28143 0.58082,0.005 z m 246.384542,-0.47023 1.91936,-0.34789 v -0.35375 -0.35374 l -2.29306,-2.37519 -2.29304,-2.37519 v -0.74892 -0.74891 l -1.05833,0.54728 -1.05834,0.54729 v 1.32774 1.32774 l 1.43203,1.95072 1.43201,1.95072 z m -249.716332,-0.25777 0.7768,0.0279 0.98709,-1.49931 0.98708,-1.4993 -0.10971,-1.32673 -0.10972,-1.32673 -1.37553,-0.70174 -1.37554,-0.70175 h -0.19044 -0.19045 v 1.29086 1.29086 l -1.41644,1.87608 -1.41646,1.87608 0.97548,0.21531 0.97548,0.2153 0.35278,0.11769 0.35278,0.11768 z m 253.037352,-0.69016 0.18584,-0.0125 2.2505,-1.37055 2.25049,-1.37053 -2.10664,-1.06344 -2.10664,-1.06343 -0.59396,-0.90647 -0.59394,-0.90646 -0.20672,-1.03364 -0.20672,-1.03364 -1.90082,0.93225 -1.90082,0.93225 v 1.06418 1.06418 l 2.37178,2.39011 2.37181,2.3901 0.18584,-0.0125 z m -258.210982,-0.38837 0.89483,0.0481 1.35853,-1.81969 1.35852,-1.81969 0.007,-0.38517 0.007,-0.38518 -0.0556,-1.0899 -0.0556,-1.0899 -0.89855,-0.4094 -0.89854,-0.40941 h -0.15981 -0.15979 v 0.74123 0.74124 l -2.30633,2.49105 -2.30633,2.49105 0.27785,0.26562 0.27786,0.26562 0.88195,0.15822 0.88194,0.15822 z m 222.225422,-0.17351 1.2464,-0.22482 0.1764,-0.16532 0.17637,-0.16532 -1.49929,-1.2968 -1.49931,-1.29681 v -1.655 -1.65501 l -0.5442,0.20883 -0.54419,0.20883 -0.69755,1.36733 -0.69757,1.36735 1.31828,1.76578 1.31826,1.76578 z m -226.814962,-0.86481 0.18585,0.028 2.33068,-2.38125 2.33068,-2.38125 0.17216,-0.98889 0.17216,-0.98889 -1.80675,-1.03627 -1.80675,-1.03627 -0.26458,-0.003 -0.26458,-0.003 v 1.01076 1.01076 l -0.70397,0.89494 -0.70396,0.89495 -1.97753,1.11605 -1.97752,1.11604 0.20605,0.20606 0.20606,0.20605 1.85807,1.15389 1.85807,1.15388 0.18586,0.028 z m 230.220792,0.028 h 0.78147 l 0.55491,-0.21294 0.55491,-0.21294 -1.40798,-2.00724 -1.40801,-2.00725 -0.005,-0.86662 -0.005,-0.86662 -0.29117,-0.45902 -0.29115,-0.45902 -0.93816,0.42745 -0.93816,0.42746 v 1.78058 1.78058 l 1.3063,1.33779 1.30633,1.33779 h 0.7815 z m -193.116562,-0.40082 0.24843,0.048 1.25088,-1.63822 1.25088,-1.63823 v -0.31957 -0.31957 l -0.53282,-1.03036 -0.53281,-1.03035 -0.70191,-0.37565 -0.7019,-0.37565 v 1.75968 1.75968 l -1.41749,1.13913 -1.4175,1.13913 0.27097,0.25873 0.27096,0.25873 0.88195,0.15822 0.88194,0.15822 z m 197.778042,-0.47457 1.64576,-0.24098 0.31411,-0.30272 0.31409,-0.30272 -2.18149,-2.27181 -2.18152,-2.27182 -0.20304,-1.25127 -0.20307,-1.25128 -1.19274,0.56878 -1.19274,0.56878 v 1.27519 1.27518 l 1.61743,2.22282 1.61745,2.22282 z M 77.189768,134.10446 h 0.93444 l 1.3378,-1.30632 1.33779,-1.30631 v -1.87742 -1.87741 l -0.90491,-0.34405 -0.90491,-0.34404 h -0.15343 -0.15342 v 1.17729 1.17729 l -1.43128,1.99876 -1.43128,1.99876 0.21738,0.35172 0.21737,0.35173 z m 206.201482,-0.35862 0.27337,0.006 2.53722,-1.27772 2.53722,-1.27773 -1.75228,-0.87663 -1.75226,-0.87664 -1.14654,-1.08985 -1.14652,-1.08984 -0.005,-0.90094 -0.005,-0.90093 -0.29192,-0.46026 -0.29191,-0.46026 -2.02666,0.81303 -2.02663,0.81305 0.16841,1.53884 0.16843,1.53884 2.24372,2.24768 2.24375,2.24768 0.27339,0.006 z m 30.21317,-0.34051 0.55787,-0.3075 0.69377,-0.51796 0.69379,-0.51797 -1.48847,-0.44595 -1.48847,-0.44595 -0.82748,-1.09041 -0.82749,-1.09041 -0.43365,-1.32291 -0.43365,-1.32292 h -0.16655 -0.16656 l -1.04082,0.53823 -1.04082,0.53822 v 1.34738 1.34737 l 0.61738,0.54879 0.61736,0.54879 2.08795,1.25035 2.08799,1.25034 z m -239.665042,-0.0425 0.7243,0.0361 1.48056,-2.09943 1.48056,-2.09943 v -1.41594 -1.41593 l -0.68237,-0.3652 -0.68236,-0.36519 h -0.55236 -0.55236 l -0.002,0.97014 -0.002,0.97014 -2.29214,2.43844 -2.29214,2.43843 0.1601,0.1601 0.1601,0.1601 1.16443,0.27577 1.16443,0.27578 0.7243,0.0361 z m -32.65069,-2.15859 1.94027,-1.06002 0.79375,-0.72721 0.79375,-0.7272 v -1.30905 -1.30904 l -0.86953,-0.56974 -0.86953,-0.56974 h -0.19325 -0.19325 l -0.82656,1.85208 -0.82656,1.85209 -0.6683,0.57276 -0.66829,0.57276 -1.34656,0.43254 -1.34655,0.43253 0.19735,0.19736 0.19735,0.19735 0.97282,0.61127 0.97281,0.61128 z m 27.70251,1.12994 0.36224,0.006 2.33646,-2.38125 2.33645,-2.38125 0.14486,-1.35694 0.14485,-1.35694 -1.9173,-0.84792 -1.91731,-0.84792 h -0.26379 -0.2638 l -0.22826,1.32291 -0.22825,1.32292 -0.78697,0.91801 -0.78697,0.91801 -1.86147,0.99525 -1.86146,0.99524 0.27447,0.27448 0.27448,0.27448 1.93977,1.06907 1.93976,1.06907 0.36224,0.006 z m 247.857942,-1.08682 0.57015,0.0349 1.27034,-1.63054 1.27034,-1.63054 -2.46044,-1.17914 -2.46043,-1.17914 -1.34713,-1.45894 -1.34715,-1.45893 -0.60521,1.58475 -0.60524,1.58476 0.40384,1.6038 0.40386,1.6038 0.61669,0.5581 0.61669,0.55811 1.55175,0.48707 1.55176,0.48708 0.57018,0.0349 z m -27.12869,-0.67399 0.25263,0.003 1.24669,-0.5945 1.24669,-0.59451 v -0.24159 -0.24159 l -1.60324,-0.44888 -1.60325,-0.44888 -0.99269,-1.20432 -0.99269,-1.20432 -0.41685,-1.39126 -0.41682,-1.39126 h -0.17976 -0.17973 l -1.04082,0.53823 -1.04082,0.53822 v 1.51695 1.51694 l 0.79375,0.72449 0.79375,0.72448 1.94027,1.09759 1.9403,1.09759 0.25259,0.003 z m -43.90885,-0.35986 1.49931,0.0104 v -0.21045 -0.21045 l -1.41112,-1.6031 -1.41111,-1.60311 v -1.53783 -1.53784 h -0.14753 -0.14754 l -0.57304,0.2199 -0.57305,0.2199 -0.67325,1.31968 -0.67325,1.31968 1.30564,1.80142 1.30563,1.80142 1.49931,0.0104 z M 35.560388,129.87113 h 0.21395 l 2.04125,-0.57274 2.04124,-0.57275 0.7142,-1.47535 0.71421,-1.47536 0.0479,-0.86232 0.0479,-0.86232 -0.57597,-1.31302 -0.57597,-1.31303 -1.50779,1.50779 -1.50779,1.50779 -2.19577,1.01371 -2.19578,1.01372 v 0.22733 0.22733 l 1.26222,1.47461 1.26221,1.47461 z m 214.043572,-0.006 0.70556,-0.005 0.46625,-0.29562 0.46625,-0.29563 -1.43639,-2.05051 -1.43639,-2.05051 v -1.52028 -1.52029 l -0.96296,0.36612 -0.96296,0.36611 -0.26636,0.41891 -0.26636,0.4189 -0.005,1.34564 -0.005,1.34564 1.4993,1.74099 1.49931,1.74099 0.70555,-0.005 z m 5.2213,-0.55485 2.18703,-0.23865 0.0826,-0.0653 0.0826,-0.0653 -2.81665,-3.06839 -2.81664,-3.0684 v -0.74129 -0.74129 l -0.79375,0.21272 -0.79375,0.21271 -0.26458,0.005 -0.26459,0.005 v 1.50307 1.50307 l 1.60533,2.39299 1.60533,2.39298 z m -191.965982,-0.16073 0.22754,0.0156 2.29296,-1.31112 2.29294,-1.31112 0.3833,-0.61375 0.38329,-0.61375 0.22457,-1.40442 0.22458,-1.40442 -1.31936,-0.55127 -1.31936,-0.55126 h -0.0875 -0.0875 l -0.43603,1.55733 -0.43602,1.55733 -1.04057,1.00031 -1.04056,1.00031 -1.65606,0.56152 -1.65607,0.56152 1.41112,0.74581 1.41111,0.7458 0.22754,0.0156 z m 44.235362,-0.34259 1.07122,0.005 1.33999,-1.79487 1.34,-1.79486 -0.43799,-1.0574 -0.438,-1.0574 -0.49912,-0.49913 -0.49912,-0.49912 h -0.50396 -0.50397 v 1.6923 1.69229 l -1.40847,1.37533 -1.40846,1.37533 0.43832,0.27836 0.43833,0.27837 1.07123,0.005 z m -4.0145,-0.37217 0.58451,0.0248 1.44396,-1.72465 1.44397,-1.72465 v -1.76198 -1.76198 l -0.79375,-0.21272 -0.79375,-0.21272 -0.44098,-0.005 -0.44097,-0.005 -0.0114,1.4993 -0.0114,1.49931 -1.39971,1.93567 -1.3997,1.93567 0.61733,0.24439 0.61734,0.2444 0.58451,0.0248 z m 155.58808,0.008 0.24481,0.0163 2.47078,-1.48639 2.4708,-1.48639 -2.16344,-1.15591 -2.16345,-1.15591 -0.96944,-0.92878 -0.96943,-0.92878 -0.22819,-1.35065 -0.22819,-1.35065 -2.2957,1.12937 -2.2957,1.12937 0.1991,1.23365 0.1991,1.23364 2.74206,2.54238 2.74208,2.54238 0.24481,0.0163 z m -159.347592,-0.40542 0.705562,0.0543 1.56186,-2.37391 1.56187,-2.37391 -0.0815,-1.40201 -0.0815,-1.40201 -0.42201,-0.26828 -0.42202,-0.26828 -0.61736,-0.005 -0.61736,-0.005 v 0.89907 0.89907 l -2.645832,2.71535 -2.64584,2.71534 v 0.24586 0.24585 l 1.49931,0.13504 1.4993,0.13505 z m 194.774342,0.0374 0.74655,0.0315 1.28746,-1.65251 1.28746,-1.65251 -0.27014,-0.22286 -0.27011,-0.22286 -1.5875,-0.66511 -1.5875,-0.66512 -1.41113,-0.94982 -1.4111,-0.94981 -0.87014,-0.93528 -0.87013,-0.93528 -0.78171,1.61968 -0.78169,1.61969 0.50178,1.6897 0.50181,1.68971 0.68117,0.61646 0.6812,0.61646 1.70357,0.46819 1.70357,0.46818 0.74658,0.0315 z m -200.073812,-1.02871 0.34497,0.002 2.74184,-2.72575 2.74183,-2.72576 -0.004,-1.06661 -0.004,-1.06661 -2.08752,-1.14652 -2.08752,-1.14653 h -0.20135 -0.20135 l -0.002,1.14653 -0.002,1.14652 -1.08012,1.15246 -1.08012,1.15245 -1.65228,0.86186 -1.65228,0.86185 -0.48027,0.32386 -0.48027,0.32385 2.42055,1.45227 2.42055,1.45227 0.34498,0.002 z m -35.87164,-0.37094 0.45666,0.0201 2.26244,-0.5683 2.26243,-0.56831 0.51534,-0.78651 0.51533,-0.7865 0.38505,-1.42997 0.38506,-1.42996 -0.71097,-1.65862 -0.71096,-1.65861 -1.88329,1.72122 -1.88328,1.72121 -2.3288,0.98975 -2.3288,0.98976 1.30356,1.71233 1.30356,1.71233 z m 262.419602,0.0104 0.40961,0.01 0.91331,-1.0854 0.91332,-1.0854 v -0.2848 -0.2848 l -4.26488,-1.83044 -4.26487,-1.83044 -0.50564,0.19403 -0.50562,0.19402 -0.20267,0.52817 -0.20267,0.52816 0.82801,1.08702 0.82804,1.08702 2.82223,1.38172 2.82223,1.38172 0.4096,0.01 z M 31.912408,125.28501 h 0.41777 l 2.81008,-1.35892 2.81007,-1.35893 0.94356,-1.23706 0.94355,-1.23707 -0.50858,-0.72611 -0.5086,-0.72612 -4.49772,1.93969 -4.49772,1.93967 -0.12452,0.12454 -0.12453,0.12452 0.95944,1.25789 0.95944,1.2579 z m 232.956212,-0.35902 0.0952,0.006 1.48656,-0.93842 1.48656,-0.93843 -1.9131,-0.65028 -1.91307,-0.65027 -0.80633,-0.75751 -0.80634,-0.7575 -0.59635,-1.62255 -0.59635,-1.62254 -0.20834,-0.249 -0.20834,-0.24901 -1.14446,0.72462 -1.14447,0.72462 v 1.49818 1.49818 l 0.61737,0.5524 0.61736,0.55239 2.46944,1.43632 2.46943,1.43632 0.0952,0.006 z m 65.16867,-0.35932 1.4111,-0.0122 0.70557,-0.42848 0.70556,-0.42847 4.20172,-4.30853 4.20174,-4.30853 -1.37951,0.21005 -1.37951,0.21005 -3.80347,2.77556 -3.80349,2.77555 h -0.54327 -0.54329 l -5.78554,-3.02233 -5.78556,-3.02234 -1.15658,1.31236 -1.15657,1.31236 -0.43574,0.61561 -0.43574,0.6156 4.27333,1.79993 4.27334,1.79992 h 0.27586 0.27588 l 2.23652,1.05806 2.23655,1.05805 1.4111,-0.0122 z m -240.065362,-2.34623 2.29314,-1.26285 0.97014,-0.90091 0.97014,-0.9009 v -1.33794 -1.33794 l -1.38483,-0.70649 -1.38483,-0.70648 -0.56336,1.69612 -0.56336,1.69611 -1.13862,1.08803 -1.13861,1.08803 -1.49931,0.44045 -1.4993,0.44046 v 0.2276 0.2276 l 1.32283,0.75598 1.32282,0.75599 z m 134.676262,1.30068 h 1.89687 l -0.7009,-0.97014 -0.7009,-0.97014 -1.58958,-1.54666 -1.58959,-1.54666 -0.23252,-1.69059 -0.23251,-1.69059 -0.67735,0.13045 -0.67735,0.13044 -0.31077,0.19207 -0.31078,0.19207 -0.183,1.15085 -0.183,1.15084 1.2274,2.29306 1.22739,2.29305 0.56986,0.44098 0.56985,0.44097 z m 4.04785,-0.006 0.25875,0.006 2.65167,-1.31208 2.65167,-1.31208 -0.001,-0.18723 -10e-4,-0.18722 -2.2585,-1.16779 -2.25851,-1.16779 -0.91519,-1.32062 -0.91497,-1.32062 v -1.27974 -1.27974 l -2.58043,1.05097 -2.58043,1.05097 0.22137,1.65885 0.22136,1.65884 2.62365,2.55172 2.62364,2.55171 0.25875,0.006 z m 69.81959,-0.20258 0.24929,-0.15406 1.07344,-1.35532 1.07344,-1.35532 -5.08696,-2.16757 -5.08696,-2.16756 h -0.33218 -0.33219 l -0.22688,0.90392 -0.22688,0.90393 1.05347,1.3301 1.05346,1.33011 3.26983,1.44292 3.26983,1.44292 z m -275.843792,-0.16662 1.3151,0.0224 1.8599,-0.87092 1.8599,-0.87092 3.52778,-1.39342 3.52778,-1.39342 1.32291,-0.56262 1.32292,-0.56262 -0.0136,-0.25985 -0.0135,-0.25984 -1.51542,-1.71945 -1.51542,-1.71945 -5.82389,3.04236 -5.82391,3.04237 h -0.49747 -0.49748 l -2.49576,-1.85208 -2.49577,-1.85209 -1.38375,-0.93189 -1.38376,-0.93189 -1.41111,-0.2379 -1.41111,-0.2379 4.40972,4.46298 4.40973,4.46298 0.70555,0.30042 0.70556,0.30042 1.3151,0.0224 z m 193.529572,-0.20657 0.11133,-0.0525 -1.08479,-1.92216 -1.0848,-1.92216 0.53249,-1.50924 0.53249,-1.50924 v -0.13204 -0.13203 h -1.38591 -1.38591 l -0.49912,0.49912 -0.49913,0.49912 -0.45276,1.09306 -0.45275,1.09305 0.93395,1.31824 0.93395,1.31824 0.45407,0.59202 0.45406,0.59202 1.39074,0.11354 1.39075,0.11353 z m 2.93052,0.22893 h 1.36786 v -0.20726 -0.20726 l -1.24471,-2.22576 -1.24471,-2.22576 0.23147,-1.44753 0.23147,-1.44754 h -0.73262 -0.73262 l -0.62148,1.97157 -0.62148,1.97157 0.99948,1.90898 0.99948,1.90899 z M 54.229878,122.11002 h 0.12311 l 3.28919,-1.53705 3.28919,-1.53704 0.97752,-1.2816 0.97753,-1.2816 -0.22226,-0.88553 -0.22225,-0.88552 h -0.31972 -0.31972 l -4.70064,1.99688 -4.70064,1.99687 -0.30524,0.26628 -0.30524,0.26628 1.15803,1.44101 1.15803,1.44102 z m 69.617642,-0.0102 0.53799,0.0102 2.51083,-2.55764 2.51084,-2.55764 0.22725,-1.61748 0.22725,-1.61747 -2.45017,-1.08222 -2.45016,-1.08221 -0.20374,0.75941 -0.20373,0.75941 -0.005,0.76668 -0.005,0.76669 -0.90725,1.0782 -0.90724,1.07819 -2.09137,1.11469 -2.09137,1.11469 v 0.25799 0.25799 l 2.38125,1.27013 2.38125,1.27013 0.538,0.0102 z m 3.81618,0.0102 h 1.86582 l 0.64616,-0.34582 0.64616,-0.34581 1.29307,-2.35246 1.29307,-2.35246 -0.2237,-1.3241 -0.22371,-1.32411 -0.74161,-0.19394 -0.7416,-0.19393 -0.24229,0.14974 -0.24229,0.14974 -0.23044,1.68129 -0.23045,1.6813 -2.367,2.38528 -2.367,2.38528 z m 141.57761,-0.0287 0.58735,0.0287 1.46507,-1.84007 1.46508,-1.84006 -2.90039,-1.37719 -2.90041,-1.37719 -1.52051,-1.56448 -1.52049,-1.56448 -0.49993,1.19649 -0.49993,1.19649 -0.23667,0.74568 -0.23667,0.74567 0.37566,1.39507 0.37565,1.39505 0.65646,0.8107 0.65645,0.81069 2.07297,0.6051 2.07296,0.60509 z m -135.9365,-0.32406 h 1.41699 l 1.09861,-2.02836 1.09861,-2.02836 -0.66827,-1.764 -0.66826,-1.764 -0.71545,-0.10734 -0.71544,-0.10733 0.17214,1.5273 0.17215,1.5273 -1.30403,2.37239 -1.30403,2.3724 z m 4.6297,-0.32906 1.39582,-0.20011 1.42139,-1.90908 1.42139,-1.90908 -0.79353,-1.44231 -0.79353,-1.44231 -1.65587,-0.1069 -1.65587,-0.10691 0.56846,1.66832 0.56845,1.66832 -0.93626,1.66558 -0.93627,1.66558 v 0.3245 0.32451 z m -54.838672,-0.72929 h 0.36506 l 2.39201,-0.66329 2.39201,-0.66328 0.5063,-0.65964 0.5063,-0.65963 0.50968,-1.65903 0.50967,-1.65903 -0.68159,-1.41073 -0.6816,-1.41074 v -0.40521 -0.40522 l -1.90932,1.74501 -1.90932,1.74501 -2.65514,1.16685 -2.65515,1.16685 1.47302,1.88604 1.47301,1.88604 z m 225.073802,-0.0219 2.12122,0.0219 5.09611,-5.10522 5.09611,-5.10522 -2.20345,0.66715 -2.20345,0.66715 -3.60037,2.69089 -3.60037,2.69089 -0.88434,-0.21923 -0.88437,-0.21922 -6.35,-3.37229 -6.35,-3.3723 -0.27403,-0.39394 -0.27406,-0.39394 -1.92225,2.11667 -1.92225,2.11666 -0.008,0.22872 -0.008,0.22872 3.96875,1.66715 3.96875,1.66716 2.64583,1.02584 2.64584,1.02585 1.4111,0.67237 1.4111,0.67237 2.12124,0.0219 z m -72.57454,-0.7133 0.45503,0.0296 1.40951,-0.71908 1.40952,-0.71909 -0.17976,-0.29086 -0.17976,-0.29086 -1.5626,-0.43749 -1.5626,-0.43751 -1.08803,-1.12256 -1.08803,-1.12256 -0.62165,-1.80352 -0.62166,-1.80351 -1.32291,0.5307 -1.32292,0.53069 v 1.84787 1.84787 l 0.74238,0.67204 0.74239,0.67203 2.16803,1.2933 2.16803,1.2933 0.45503,0.0296 z M 44.125258,119.28779 h 1.96409 l 6.50731,-2.67277 6.5073,-2.67277 1.84465,-0.72473 1.84464,-0.72473 -0.92076,-1.10042 -0.92077,-1.10041 -1.03282,-1.18243 -1.03281,-1.18244 -0.59662,0.51 -0.59662,0.51 -6.60174,3.40646 -6.60174,3.40646 h -0.43203 -0.43202 l -3.26497,-2.4865 -3.26497,-2.4865 -0.99015,-0.4861 -0.99016,-0.48609 -1.41111,-0.24081 -1.41111,-0.24082 4.93417,4.9773 4.93416,4.9773 z m 125.066192,-0.35278 h 0.50835 l -0.002,-1.32292 -0.002,-1.32291 -0.68315,1.03632 -0.68314,1.03633 0.17712,0.28659 0.17712,0.28659 h 0.50835 z m -52.29129,-0.36872 0.29342,0.016 2.17603,-1.26622 2.17602,-1.26622 0.97014,-0.91645 0.97014,-0.91644 v -1.64438 -1.64437 l -1.40847,-0.55327 -1.40847,-0.55326 -0.13271,0.23517 -0.1327,0.23517 -0.45468,1.41111 -0.45467,1.41111 -1.0125,1.26156 -1.01249,1.26156 -2.00687,0.63261 -2.00687,0.63261 1.57563,0.82391 1.57563,0.82392 0.29342,0.016 z m 71.20564,-1.67696 0.94956,-1.62587 -0.16601,-0.26861 -0.16601,-0.2686 -2.37562,-1.24836 -2.37562,-1.24835 -1.88821,-1.65177 -1.88823,-1.65176 -0.98648,1.20869 -0.98649,1.2087 0.26113,0.17983 0.26113,0.17984 1.4276,1.94027 1.42758,1.94028 0.6918,0.617 0.69179,0.617 2.08626,0.84878 2.08627,0.84879 z m 53.08854,0.31144 0.40981,-0.20604 1.47064,-1.85002 1.47064,-1.85003 -0.92758,-0.35267 -0.92758,-0.35266 -1.92219,-0.90934 -1.92219,-0.90935 -1.94343,-1.77618 -1.94342,-1.77618 -0.52685,1.26091 -0.52684,1.26091 v 0.33472 0.33471 l -0.36272,0.1209 -0.36271,0.12091 0.68199,2.06725 0.68199,2.06725 0.5665,0.57527 0.5665,0.57527 2.55381,0.73521 2.55381,0.7352 z m 33.72048,-1.52972 1.32196,-1.49854 -0.005,-0.17639 -0.005,-0.17639 -5.19718,-2.20498 -5.19721,-2.20498 -0.43424,1.2e-4 -0.43426,1.2e-4 -0.21309,0.84909 -0.21312,0.84908 0.35242,0.65022 0.3524,0.65022 1.00049,0.95018 1.00053,0.95017 3.175,1.43031 3.175,1.43031 1.32196,-1.49854 z m 50.76105,0.30804 0.22471,-1.10102 0.22223,-1.26952 0.22225,-1.26952 -2.03444,-0.93779 -2.03443,-0.9378 -1.49931,1.62408 -1.49932,1.62408 v 0.26896 0.26895 l 3.08682,1.4153 3.08681,1.41531 z m -295.264472,-1.83612 3.16825,-1.59119 -1.31043,-1.48269 -1.31043,-1.48269 -0.2511,-0.28313 -0.25111,-0.28314 -2.0331,0.89914 -2.0331,0.89913 0.24951,1.99694 0.2495,1.99695 0.17687,0.46093 0.17688,0.46094 z m 48.49259,1.61704 h 0.10277 l 3.63055,-1.75093 3.63054,-1.75092 0.98189,-1.22136 0.98189,-1.22137 -0.45272,-1.04116 -0.45273,-1.04115 -5.37986,2.3056 -5.37986,2.3056 v 0.31742 0.31742 l 1.11738,1.39042 1.11737,1.39043 z m 32.978432,0 h 0.67803 l 2.19954,-0.60778 2.19953,-0.60778 0.61456,-0.71514 0.61457,-0.71513 0.56171,-1.86829 0.56171,-1.8683 -0.33655,-0.42476 -0.33655,-0.42476 -0.42611,-1.32292 -0.42611,-1.32292 h -0.24598 -0.24599 l -1.41877,1.50767 -1.41877,1.50766 -2.69585,1.31456 -2.69586,1.31456 h -0.37453 -0.37454 v 0.39201 0.39202 l 1.44397,1.72465 1.44396,1.72465 z m 172.44368,-1.41139 1.91381,2.6e-4 5.22283,-5.18117 5.22284,-5.18118 -0.14642,-0.14643 -0.14644,-0.14643 -1.87495,0.62165 -1.87491,0.62166 -3.91589,2.76567 -3.91586,2.76568 h -0.29371 -0.29372 l -7.07929,-3.57349 -7.07933,-3.57349 -0.59661,-0.51936 -0.59661,-0.51936 -1.03282,1.18244 -1.03283,1.18242 -0.94261,1.1264 -0.94263,1.1264 0.63177,0.33319 0.6318,0.33319 5.5526,2.33278 5.5526,2.33277 h 0.32475 0.32475 l 2.23655,1.05805 2.23652,1.05806 z m 25.37982,2.6e-4 h 0.226 l 2.21986,-1.81797 2.21985,-1.81797 -0.36227,-0.36226 -0.36226,-0.36226 -2.16959,0.40347 -2.16958,0.40348 -0.15693,0.15692 -0.15692,0.15693 0.24291,1.61983 0.24292,1.61983 z m -3.94042,-0.70555 h 0.92967 l -0.147,-0.0998 -0.14698,-0.0998 -0.57618,-0.43835 -0.57616,-0.43835 -0.20651,0.53818 -0.2065,0.53817 z m -115.8736,-0.37501 0.26016,0.0222 0.83076,-1.32291 0.83077,-1.32292 0.39606,-0.74754 0.39606,-0.74753 -5.19042,-1.44826 -5.19041,-1.44826 -0.70629,0.72466 -0.70629,0.72467 1.99586,1.82391 1.99586,1.82391 2.41386,0.94791 2.41386,0.94791 0.26016,0.0222 z m -147.141652,-0.34528 0.22684,0.0147 0.21413,-0.55801 0.21413,-0.558 v -1.19915 -1.19915 l -0.79375,-0.19744 -0.79375,-0.19745 -1.54955,-0.0739 -1.54956,-0.0739 -0.10344,0.35277 -0.10344,0.35278 2.00577,1.66097 2.00578,1.66096 0.22684,0.0147 z m 25.53789,0.0147 h 1.72291 l 2.83673,-1.18435 2.83674,-1.18436 5.46805,-2.22469 5.46806,-2.22469 0.45968,-0.41462 0.45967,-0.41461 -1.83811,-2.17356 -1.83812,-2.17356 h -0.27643 -0.27644 l -0.20076,0.32484 -0.20076,0.32484 -7.21191,3.73211 -7.2119,3.73212 h -0.36868 -0.36867 l -3.77975,-2.69064 -3.77975,-2.69064 -1.92317,-0.66166 -1.92316,-0.66167 -0.11141,0.1114 -0.11141,0.11141 5.22285,5.18118 5.22284,5.18117 h 1.7229 z m 235.155642,-1.38692 0.21762,-1.25891 0.20492,-1.34594 0.20492,-1.34595 -2.30748,-1.0353 -2.30751,-1.03531 h -1.33636 -1.33636 l -0.95856,1.25674 -0.95856,1.25675 0.6521,0.7286 0.65212,0.72861 3.52776,1.65481 3.5278,1.65481 z m -256.745832,0.6814 h 0.94074 v -0.54158 -0.54158 l -0.79375,0.41298 -0.79375,0.41297 -0.14699,0.1286 -0.14699,0.12861 z m 198.683422,-0.35846 0.36352,0.006 1.29326,-1.67569 1.29326,-1.6757 -0.24567,-0.21935 -0.24567,-0.21935 -5.5231,-2.87786 -5.52309,-2.87786 -0.60754,1.59081 -0.60754,1.59082 0.55801,0.80084 0.55801,0.80084 0.63374,0.78341 0.63373,0.78342 3.52778,1.59216 3.52778,1.59216 0.36352,0.006 z m -195.693392,-0.70495 0.24376,-0.005 3.52778,-1.69931 3.52778,-1.6993 0.45794,-0.55708 0.45794,-0.55707 -1.11185,-1.26633 -1.11184,-1.26632 -1.28638,-5e-5 -1.28637,-4e-5 -2.2352,0.97018 -2.23521,0.97019 0.24263,2.29305 0.24264,2.29306 0.16131,0.26458 0.1613,0.26458 0.24377,-0.005 z m 257.297172,-0.66199 0.25228,-0.682 0.64021,-0.18231 0.64022,-0.1823 2.11666,-0.43519 2.11667,-0.43519 0.56354,-0.47783 0.56353,-0.47784 -0.43894,-2.55166 -0.43897,-2.55167 0.28845,-0.52917 0.28847,-0.52917 1.48228,-1.41111 1.48227,-1.411114 -1.46486,2.347834 -1.46487,2.34783 0.59706,1.53272 0.59706,1.53273 0.0893,0.11728 0.0893,0.11727 3.19119,-2.14575 3.19117,-2.14574 h 2.13021 2.13019 l -2.4e-4,-0.26458 -2.6e-4,-0.26459 -0.85323,-3.175004 -0.85323,-3.175 -0.22328,-3.35139 -0.22328,-3.35139 -0.17373,-0.91433 -0.17372,-0.91434 -4.48215,-0.44137 -4.48215,-0.44137 -2.20485,0.53067 -2.20488,0.53067 v -0.11273 -0.11272 l 2.32402,-1.27744 2.324,-1.27743 3.23225,0.20283 3.23223,0.20284 1.00738,0.1589 1.00734,0.1589 -0.21299,-0.55503 -0.21299,-0.55503 -2.91102,-4.20166 -2.91105,-4.20167 -2.33109,-0.70998 -2.33108,-0.70998 h -5.90563 -5.90564 l 0.76351,1.14653 0.76354,1.14652 0.519,1.16674 0.51904,1.16674 0.52797,5.35965 0.52798,5.35965 0.66643,3.70417 0.66646,3.70416 0.38129,4.967744 0.38126,4.96774 -0.23291,1.69944 -0.23294,1.69944 0.66196,0.48404 0.66199,0.48405 z m 12.18277,-16.726354 -1.528,0.74236 -1.38147,-1.15981 -1.38144,-1.15979 1.37515,-0.57458 1.37517,-0.57458 0.56052,0.19306 0.56054,0.19306 0.97378,0.79896 0.97374,0.79896 z m -2.74585,-3.43156 -1.20144,0.82072 1.31458,-1.36075 1.31458,-1.36074 1.06299,1.0184 1.06299,1.01841 -0.12494,0.12492 -0.12491,0.12493 -1.05121,-0.6033 -1.05119,-0.60331 z m 9.82268,20.174664 0.088,-0.23163 -0.26442,-3.175 -0.2644,-3.175 -2.16781,-0.10407 -2.16781,-0.10406 -2.9119,2.04434 -2.91187,2.04434 -0.30213,0.82976 -0.3021,0.82974 2.55958,-0.29274 2.5596,-0.29275 1.25923,0.0412 1.25924,0.0412 1.73937,0.88812 1.73937,0.88812 z m -218.96834,-0.0552 h 0.30535 l 3.63055,-1.72843 3.63054,-1.72842 1.14496,-1.42098 1.14497,-1.42099 -0.70376,-1.64179 -0.70375,-1.64179 -2.91065,1.5771 -2.91066,1.57709 -2.93121,1.46461 -2.93121,1.46461 1.46475,1.74949 1.46477,1.7495 z m -60.929562,-1.00468 0.82483,-0.77488 -0.22261,-1.49147 -0.22261,-1.49147 0.41413,-5.46806 0.41414,-5.468054 0.7223,-4.05695 0.72231,-4.05694 0.21257,-2.82222 0.21257,-2.82223 0.37638,-2.39715 0.37638,-2.39714 1.17631,-1.748 1.17631,-1.74798 -6.06156,0.005 -6.06156,0.005 -1.94028,0.61443 -1.94027,0.61443 -0.38401,0.24792 -0.38399,0.24793 -3.05559,4.38669 -3.05558,4.38673 v 0.13166 0.13165 l 4.24874,-0.28714 4.24874,-0.28714 2.44401,1.32007 2.44401,1.32006 -0.0802,0.0802 -0.0802,0.0802 -2.29098,-0.54393 -2.29099,-0.54394 -4.23333,0.43149 -4.23334,0.43148 -0.24108,0.22798 -0.24108,0.22797 -0.39257,4.29919 -0.39256,4.2992 -0.70434,2.57997 -0.70433,2.57997 -0.1851,0.617364 -0.18509,0.61736 h 2.25069 2.25069 l 3.12315,2.13118 3.12316,2.13117 0.29556,-0.45548 0.29555,-0.45548 0.39308,-1.27501 0.39308,-1.27501 -1.20807,-1.899984 -1.20808,-1.9 -0.29628,-0.52916 -0.29627,-0.52917 0.35004,0.35278 0.35005,0.35278 1.49411,1.65788 1.49411,1.657884 -0.438,2.71511 -0.43799,2.71511 0.565,0.41314 0.565,0.41313 2.84309,0.61096 2.8431,0.61095 v 0.92621 0.92622 z m -10.67412,-17.007274 -0.91613,0.65234 -1.39713,-0.71677 -1.39713,-0.71677 1.21027,-1.01037 1.21026,-1.01037 h 0.47181 0.47182 l 1.06578,0.55113 1.06578,0.55114 -0.4346,0.52366 -0.43461,0.52367 z m -1.98646,-3.70473 -0.92854,0.6084 0.80404,-1.08753 0.80405,-1.08753 h 0.15166 0.15167 l 1.26686,1.11232 1.26687,1.11232 -0.33835,-0.15354 -0.33834,-0.15347 -0.95569,-0.4797 -0.95569,-0.47969 z m 128.792792,19.428864 2.23552,-1.53049 0.72872,-0.23128 0.72872,-0.23129 v -0.28392 -0.28391 l -1.41834,-0.22681 -1.41833,-0.2268 -1.00813,0.52133 -1.00813,0.52132 -0.70467,1.11295 -0.70467,1.11295 0.1669,0.63822 0.1669,0.63823 z m -135.813132,0.87671 h 0.19391 l 1.12901,-0.58513 1.129,-0.58514 1.16844,-0.2646 1.16843,-0.2646 3.16096,0.43236 3.16096,0.43236 -0.18403,-0.37638 -0.18402,-0.37637 -0.19947,-0.52917 -0.19946,-0.52917 -2.94553,-2.02847 -2.94554,-2.02847 h -2.10074 -2.10074 l -0.21866,1.32292 -0.21866,1.32291 -0.004,2.02847 -0.004,2.02848 z m 230.875532,-0.23275 1.94028,-0.21672 2.99861,-2.74776 2.99861,-2.74775 2.82223,-2.86698 2.8222,-2.866984 -1.94026,0.2355 -1.94027,0.23549 -2.11667,1.17925 -2.11667,1.179254 -1.50128,1.01257 -1.50127,1.01257 0.15973,0.15974 0.15974,0.15973 -1.77434,1.2108 -1.77434,1.21081 -7.5933,-3.86742 -7.59331,-3.867414 -2.61096,-3.03544 -2.61095,-3.03544 -2.69221,0.46816 -2.69221,0.46816 -0.14485,0.14485 -0.14485,0.14485 0.2437,1.83706 0.24369,1.83706 0.84293,1.00175 0.84292,1.00177 7.66225,3.963414 7.66224,3.96341 3.70417,1.52121 3.70416,1.52121 z m -161.439572,-1.21893 0.66182,0.0406 3.21874,-1.28276 3.218742,-1.28275 7.67445,-3.83483 7.67444,-3.834824 1.38675,-1.25285 1.38675,-1.25284 0.24188,-1.93599 0.24189,-1.93599 -0.1699,-0.16989 -0.16989,-0.1699 -2.67047,-0.46438 -2.67046,-0.46438 -2.22939,2.75791 -2.22939,2.7579 -7.89649,4.10048 -7.896492,4.100474 -0.9041,-0.47533 -0.9041,-0.47533 -1.13907,-1.13198 -1.13907,-1.13197 -2.40756,-1.532024 -2.40756,-1.53201 -1.05834,-0.39729 -1.05833,-0.39728 -1.76389,-0.2285 -1.76389,-0.22851 2.29306,2.34674 2.29305,2.346734 3.46162,3.20702 3.46161,3.20702 1.30089,0.25309 1.30088,0.2531 z m 96.902742,0.0123 0.55067,0.0282 0.48673,-1.85208 0.48673,-1.85208 -0.0959,-0.88195 -0.0959,-0.88194 -0.41233,-0.38361 -0.41232,-0.3836 -1.86903,-0.40784 -1.86902,-0.40785 -1.59397,0.35722 -1.59398,0.35722 -2.1094,1.06482 -2.1094,1.06482 -0.20382,0.53115 -0.20383,0.53115 0.23344,0.23344 0.23344,0.23343 5.01362,1.31064 5.01361,1.31064 0.55067,0.0282 z m 92.53416,0.0282 h 0.12788 l 1.33172,-1.05833 1.33176,-1.05833 h -0.35719 -0.35719 l -1.10244,0.22048 -1.10244,0.22049 v 0.83785 0.83784 z m -126.03413,-0.70555 h 0.26981 l 0.22132,-0.69731 0.22132,-0.69731 1.25745,-1.0365 1.25745,-1.0365 1.49797,0.45083 1.49797,0.45082 -0.17359,-0.66378 -0.17358,-0.66377 -0.98176,-0.69908 -0.98175,-0.69907 -0.82749,0.002 -0.82748,0.002 -1.64286,1.40822 -1.64287,1.40822 0.37914,1.23534 0.37913,1.23534 h 0.26982 z m 123.72152,-1.12334 0.10832,-0.92478 3.41945,-0.82803 3.41944,-0.82802 0.10266,-1.05833 0.10263,-1.05834 -0.49336,-2.347014 -0.49335,-2.347 2.0664,-1.81893 2.06642,-1.81893 v 0.19358 0.19358 l -1.57906,2.46349 -1.57906,2.4635 0.68459,1.59706 0.68458,1.597054 h 0.16695 0.16695 l 3.38424,-2.294504 3.38423,-2.29451 2.47848,0.23035 2.47846,0.23034 -0.19913,-0.84625 -0.19915,-0.84626 -0.72167,-3.52778 -0.72168,-3.52778 -0.50792,-4.02528 -0.50795,-4.02528 -0.0905,-0.0841 -0.0905,-0.0841 -4.69101,-0.56872 -4.69104,-0.56871 -2.29822,0.53299 -2.29823,0.533 -0.41907,-0.005 -0.4191,-0.005 2.57514,-1.42808 2.57513,-1.42808 3.2457,0.20962 3.2457,0.20961 1.53479,0.19173 1.5348,0.19173 -1.15631,-1.70263 -1.15631,-1.70263 -2.40382,-3.3886 -2.40379,-3.38859 -2.984,-0.80191 -2.98397,-0.80191 -5.207,0.23691 -5.207,0.23691 -0.13062,0.13063 -0.13063,0.13062 0.52504,0.82436 0.52504,0.82436 0.36854,1.94028 0.36851,1.94028 0.21791,3.175 0.21791,3.175 0.83347,4.93888 0.83349,4.93889 0.4192,5.64445 0.41918,5.644444 -0.37261,2.29306 -0.37261,2.29306 1.12344,1.04724 1.12348,1.04725 0.10832,-0.92478 z m 11.45921,-17.587134 -0.27866,-0.0132 -1.40486,-1.20204 -1.40486,-1.20204 1.55776,-0.69742 1.55776,-0.69743 1.52279,1.04771 1.52281,1.04772 v 0.15227 0.15227 l -1.39706,0.71273 -1.39705,0.71272 z m 3.058,-3.17573 -0.16166,-0.014 -1.49836,-1.10673 -1.49837,-1.10672 -0.7947,0.71544 -0.79467,0.71545 -0.51869,0.29773 -0.51872,0.29773 1.22425,-1.47362 1.22426,-1.47361 0.19113,-0.006 0.19114,-0.006 1.55802,1.5875 1.558,1.5875 -0.16163,-0.014 z m -230.606152,20.399284 0.27216,-0.73218 -0.0958,-0.0937 -0.0958,-0.0937 -1.41111,-0.23258 -1.41111,-0.23257 1.23472,1.05847 1.23472,1.05846 z m 211.617982,0.39757 0.2235,0.031 0.25214,-2.35453 0.25215,-2.35453 0.15841,-0.41279 0.15838,-0.41278 -2.58043,-1.125104 -2.58046,-1.12509 -1.17184,0.0893 -1.17184,0.0893 -1.02687,1.16956 -1.0269,1.169564 v 0.27878 0.27878 l 0.61735,0.63439 0.61738,0.6344 3.52777,1.68937 3.52777,1.68938 z m 25.30414,-0.17542 0.12764,-0.10763 -0.25215,-3.52294 -0.25215,-3.522954 -2.21792,-0.23752 -2.21792,-0.23752 -2.68465,1.81158 -2.68465,1.811584 v 0.19372 0.19372 l 2.24258,-0.24016 2.24258,-0.24016 0.21212,0.81108 0.21209,0.81109 -0.38121,0.45933 -0.38121,0.45933 1.18972,0.005 1.18973,0.005 1.7639,0.828 1.76387,0.828 0.12763,-0.10763 z m -233.455662,-1.42909 1.09279,-1.09279 -0.37133,-2.4282 -0.37132,-2.428214 0.48818,-5.99722 0.48819,-5.99722 0.70514,-3.88056 0.70515,-3.88055 0.38862,-4.40973 0.38862,-4.40972 0.37113,-1.41111 0.37114,-1.41111 0.50858,-0.79375 0.50858,-0.79375 -0.27271,-0.006 -0.27272,-0.006 -5.22353,-0.22215 -5.22354,-0.22215 -2.96767,0.83239 -2.96767,0.8324 -3.40155,4.88343 -3.40155,4.88342 0.12748,0.11039 0.12748,0.11039 4.48443,-0.33842 4.48443,-0.33841 2.49891,1.34971 2.49891,1.34972 -0.33544,0.11181 -0.33544,0.11181 -2.1797,-0.56481 -2.17971,-0.56482 -4.85159,0.5976 -4.8516,0.5976 -0.42555,3.74129 -0.42555,3.74128 -0.86674,4.15076 -0.86675,4.15075 v 0.50768 0.50767 l 2.37092,-0.15673 2.37092,-0.15672 3.46823,2.36864 3.46824,2.368634 0.29049,-0.470024 0.29049,-0.47002 0.43904,-1.33031 0.43904,-1.3303 -1.39198,-2.0714 -1.39197,-2.0714 -0.3098,-0.52917 -0.30981,-0.52917 1.78366,1.48844 1.78366,1.48844 0.38999,0.46992 0.39,0.46992 -0.5731,2.909 -0.57311,2.908994 0.54001,0.54001 0.54,0.54001 2.82627,0.63001 2.82627,0.63001 0.39682,0.24525 0.39683,0.24525 v 0.76615 0.76614 z m -12.78522,-17.430424 -0.12563,-0.016 -1.5101,-0.79048 -1.5101,-0.79049 1.58157,-1.11479 1.58158,-1.1148 1.42424,0.59831 1.42425,0.5983 0.004,0.23494 0.004,0.23494 -1.37368,1.08798 -1.37369,1.08797 -0.12562,-0.016 z m -2.77146,-3.3522 -0.52917,0.28603 1.65364,-1.69544 1.65364,-1.69544 0.56769,0.47114 0.56769,0.47113 0.75173,1.08967 0.75173,1.08966 -0.85639,-0.74126 -0.8564,-0.74127 -0.45621,-0.25911 -0.45622,-0.25912 -1.13128,0.84899 -1.13129,0.84899 z m -5.76333,20.632404 0.82923,-0.31528 1.03842,-0.53699 1.03842,-0.53699 h 1.11905 1.11905 l -0.35535,-0.44097 -0.35535,-0.44097 0.31121,-0.82193 0.31121,-0.82193 2.38219,0.24801 2.38219,0.24801 -0.17639,-0.17184 -0.17639,-0.17184 -2.61845,-1.854364 -2.61846,-1.85437 -2.30869,0.23653 -2.30869,0.23654 -0.0559,0.0705 -0.0559,0.0705 -0.16534,3.586294 -0.16534,3.58628 z m 28.25376,-1.43778 3.79151,-1.76561 0.67246,-0.65713 0.67246,-0.657144 -1.02524,-1.23232 -1.02523,-1.23232 -1.19128,-0.24974 -1.19128,-0.24975 -2.51289,1.05081 -2.51289,1.05081 0.074,2.083654 0.074,2.08365 0.19145,0.77035 0.19144,0.77034 z m 82.019982,-0.89529 1.49931,-1.4435 1.30387,-0.22987 1.30386,-0.229864 0.40041,0.748184 0.40041,0.74818 0.19874,-0.19874 0.19874,-0.19873 -0.60928,-1.595374 -0.60927,-1.59537 h -0.33533 -0.33533 l -1.74658,0.88506 -1.74658,0.88507 -0.71113,1.393944 -0.71114,1.39394 v 0.44028 0.44029 z m 22.35063,0.23826 h 0.21381 l 1.2855,-1.01224 1.28548,-1.012254 1.801,-0.90809 1.80099,-0.90809 2.07957,0.49666 2.07955,0.49665 0.58543,0.0126 0.58543,0.0126 -0.44556,-1.68904 -0.44556,-1.68903 -0.98108,-1.57416 -0.98109,-1.57415 -0.10639,-0.12446 -0.10638,-0.12446 -2.2274,0.75317 -2.2274,0.75316 -1.12408,1.49325 -1.12409,1.49325 -1.08077,2.40884 -1.08078,2.408844 v 0.14351 0.1435 z m 73.05812,0 h 1.16417 v -0.49432 -0.49432 l -1.25489,-0.7404 -1.25488,-0.740414 h -0.33262 -0.33261 v 0.811394 0.81139 l 0.42333,0.42334 0.42334,0.42333 z M 97.683388,100.59056 h 0.96696 l 0.42333,-0.42334 0.42334,-0.423334 v -0.9922 -0.99221 l -1.49931,0.93384 -1.4993,0.93384 -0.12353,0.10545 -0.12351,0.10545 0.23253,0.376254 0.23254,0.37625 z m 153.198042,-0.730934 0.21913,0.0254 0.23415,-1.85208 0.23414,-1.85209 0.19213,-1.08675 0.19213,-1.08676 -2.54571,-1.13828 -2.54572,-1.13828 -3.19159,0.0702 -3.19161,0.0701 -0.66895,0.17494 -0.66895,0.17493 1.8803,1.93559 1.8803,1.93558 3.88056,1.87107 3.88055,1.87108 0.21914,0.0254 z m 10.16417,-0.75209 1.38747,-0.79852 -0.0645,-0.0439 -0.0646,-0.0439 -1.32292,0.16492 -1.32291,0.16491 v 0.6775 0.67749 z m -79.36423,-1.35836 0.60131,-1.92112 0.95962,-1.87807 0.95961,-1.87807 1.21561,-0.50318 1.21561,-0.50318 1.26094,-0.52212 1.26094,-0.52213 -1.52087,-1.94732 -1.52088,-1.94732 -0.18104,0.0137 -0.18104,0.0137 -1.94027,1.15648 -1.94028,1.15649 -0.82503,1.21103 -0.82504,1.21103 0.23058,3.70417 0.23058,3.70416 0.19917,0.6864 0.19917,0.68641 0.60131,-1.92113 z m -16.38128,1.43027 h 0.11631 l 0.5542,-1.90638 0.5542,-1.90638 v -0.35429 -0.35429 l -2.11664,-0.7148 -2.11664,-0.7148 -0.31447,0.59422 -0.31446,0.59422 -0.55467,1.33528 -0.55467,1.33528 1.03705,-0.61261 1.03705,-0.6126 0.96634,0.33985 0.96634,0.33984 0.31187,1.31873 0.31188,1.31873 z m 91.93927,-1.00868 0.25743,-0.69592 2.05081,-0.40939 2.05081,-0.40939 1.26689,-0.32432 1.26689,-0.32433 0.65279,-0.72131 0.65278,-0.72131 -0.58925,-3.60171 -0.58922,-3.6017 0.86902,-0.71449 0.86899,-0.71449 1.1297,-0.66732 1.12966,-0.66732 -1.6529,2.14809 -1.65294,2.14809 0.95269,2.457 0.95271,2.45698 3.62114,-2.42952 3.62114,-2.42952 h 2.48121 2.48118 v -0.66672 -0.66672 l -0.73797,-3.47842 -0.73798,-3.47842 -0.58912,-4.58611 -0.58912,-4.58611 -4.93469,-0.63932 -4.93472,-0.63932 -2.93198,0.67852 -2.93198,0.67853 0.28615,-0.27828 0.28615,-0.27828 2.28405,-1.28584 2.28406,-1.28583 5.0959,0.2524 5.0959,0.25241 -2.07531,-2.96083 -2.07534,-2.96083 -1.60047,-2.25597 -1.60046,-2.25597 -2.82223,-0.83745 -2.82221,-0.83745 -6.17361,0.0948 -6.17362,0.0948 -1.54262,-0.30291 -1.54262,-0.30291 1.06259,1.54443 1.0626,1.54442 0.40868,1.40432 0.40868,1.40432 0.51756,5.46806 0.51755,5.46805 0.69407,3.70417 0.69407,3.70417 0.35612,4.05694 0.35611,4.05694 0.51325,2.46945 0.51325,2.46944 0.24217,1.86341 0.24217,1.86341 0.908,0.71424 0.908,0.71423 z m 14.18412,-18.98595 -1.72595,0.87462 -1.58012,-1.35304 -1.58012,-1.35302 1.67691,-0.74567 1.67687,-0.74567 1.32173,0.96771 1.32172,0.96772 0.30748,0.25637 0.30744,0.25637 z m 1.98094,-2.59198 -0.16436,-0.009 -1.5875,-1.21705 -1.5875,-1.21706 -0.2881,-0.009 -0.28813,-0.009 -1.29617,0.97014 -1.29617,0.97014 1.16909,-1.49441 1.16909,-1.49441 0.26696,-0.16499 0.26694,-0.16499 1.9001,1.92399 1.90008,1.92398 -0.16433,-0.009 z m -180.305912,21.46608 0.12788,-0.35232 -0.30427,-0.27526 -0.30427,-0.27526 -1.14653,-0.21422 -1.14652,-0.21422 v 0.15914 0.15914 l 1.32291,0.68266 1.32292,0.68265 z m 9.845802,-0.1766 1.31521,-0.54912 3.03523,-1.52396 3.03524,-1.52396 1.45919,-1.74285 1.4592,-1.74285 -1.09894,-0.21979 -1.09895,-0.21979 -2.68993,-7.9e-4 -2.68993,-8e-4 -2.56074,1.12432 -2.56075,1.12433 0.15854,0.55224 0.15854,0.55224 0.24139,2.11667 0.2414,2.11667 0.14005,0.24336 0.14004,0.24337 1.31521,-0.54913 z m 176.55757,0.57563 0.26458,0.016 -0.003,-0.97014 -0.003,-0.97014 -0.22342,-2.86968 -0.22341,-2.86967 -2.41676,-0.23814 -2.41673,-0.23814 -3.51456,2.40226 -3.51454,2.40226 -0.19408,0.47213 -0.19404,0.47213 1.412,-0.20755 1.412,-0.20754 1.3792,-0.20201 1.37922,-0.20201 0.23206,0.73118 0.23207,0.73117 1.47553,0.016 1.47552,0.016 1.5875,0.85006 1.5875,0.85007 0.26459,0.016 z m -130.26319,-0.38251 0.17638,0.005 4.55658,-3.24295 4.55657,-3.24294 3.98109,-5.53793 3.98109,-5.53792 1.22418,-4.60194 1.22416,-4.60194 -0.35571,-1.32542 -0.35572,-1.3254 -1.63175,-1.6757 -1.63174,-1.67569 h -0.96742 -0.96741 l -0.19316,1.14652 -0.19316,1.14653 -0.68887,5.53128 -0.68887,5.53127 -3.11988,4.33892 -3.11988,4.33893 -3.21868,1.37569 -3.21868,1.37569 -8.22295,-1.59817 -8.22295,-1.59818 -1.41759,0.73188 -1.41758,0.73188 9.87778,4.85262 9.87778,4.85263 0.17639,0.005 z m -52.720462,-1.41081 0.82705,-0.83657 0.74702,-4.05695 0.74703,-4.05694 0.33204,-3.70417 0.33204,-3.70417 0.850482,-4.93888 0.85047,-4.93889 0.41575,-4.73353 0.41575,-4.73353 0.46473,-1.54418 0.46473,-1.54419 0.84849,-1.13062 0.84848,-1.13062 0.24089,-0.40938 0.24088,-0.40938 -1.85338,0.49832 -1.85338,0.49832 -5.820842,-0.22648 -5.82083,-0.22647 -2.99861,0.92439 -2.99861,0.92439 -3.43959,4.9102 -3.43958,4.91021 v 0.25163 0.25164 l 4.88803,-0.25309 4.88804,-0.25309 2.69669,1.48003 2.69668,1.48003 v 0.0996 0.0996 l -2.91041,-0.68451 -2.91042,-0.68451 -4.93889,0.59762 -4.93889,0.59761 -0.0904,0.0752 -0.0904,0.0752 -0.54189,4.20172 -0.54189,4.20171 -0.86699,4.15075 -0.867,4.15075 v 0.34717 0.34716 h 2.56033 2.56034 l 3.47602,2.32448 3.47601,2.32448 0.28843,-0.29601 0.28841,-0.29601 0.73079,-1.86514 0.73078,-1.86514 v -0.29364 -0.29363 l -1.41111,-1.77229 -1.41111,-1.77228 v -0.21768 -0.21768 l 1.87864,1.24734 1.87864,1.24735 -0.4152,2.01945 -0.41519,2.01945 -0.23532,1.5875 -0.23532,1.5875 0.82922,0.89076 0.82921,0.89077 3.22522,0.65473 3.22521,0.65474 0.22286,0.70218 0.22287,0.70218 z m -13.77816,-18.31809 -0.35277,-0.0122 -1.33477,-0.70447 -1.33477,-0.70447 0.17279,-0.27959 0.1728,-0.27958 1.3726,-0.95122 1.37261,-0.95122 1.68393,0.72182 1.68393,0.72182 -1.54178,1.22562 -1.54179,1.22563 -0.35278,-0.0122 z m -1.71177,-4.4789 -1.46053,1.14653 1.55318,-1.85208 1.55318,-1.85209 h 0.14394 0.14395 l 0.94736,1.11697 0.94736,1.11697 0.51372,0.73512 0.51371,0.73511 -1.31974,-1.14653 -1.31974,-1.14653 h -0.37793 -0.37793 z m -8.12098,23.19514 h 0.15482 l 1.84035,-0.93466 1.84036,-0.93466 1.31209,0.0498 1.31209,0.0497 0.38581,-0.72088 0.3858,-0.72088 1.6535,0.21737 1.65349,0.21737 0.97014,0.18173 0.97014,0.18172 v -0.35947 -0.35947 l -3.61598,-2.52012 -3.61597,-2.52012 -2.29305,0.22418 -2.29306,0.22417 -0.22129,0.24614 -0.22129,0.24613 -0.18639,3.61597 -0.18638,3.61597 z m 131.590592,-0.37983 0.0495,0.0271 9.63198,-4.68737 9.63199,-4.68736 -1.3003,-0.76719 -1.3003,-0.7672 -7.92044,1.59065 -7.92043,1.59065 -2.57742,-1.09471 -2.57742,-1.09471 -0.73487,-0.47899 -0.73487,-0.47899 -2.84729,-4.02928 -2.8473,-4.02928 -0.58353,-4.9088 -0.58353,-4.90881 -0.20092,-1.32292 -0.20092,-1.32292 h -0.40218 -0.40219 l -1.27363,0.86546 -1.27364,0.86546 -1.13029,2.00276 -1.13028,2.00276 0.96076,3.92276 0.96076,3.92275 0.32846,0.64186 0.32846,0.64187 3.66908,5.13006 3.66908,5.13007 4.33109,3.10865 4.33109,3.10866 0.0495,0.0271 z m 19.44147,-0.69948 4.32153,0.021 v -0.16064 -0.16063 l -2.45205,-1.45674 -2.45204,-1.45673 -0.1056,-1.71362 -0.10559,-1.71362 -4.86929,2.33785 -4.86928,2.33785 3.1054,0.97216 3.10539,0.97216 4.32153,0.021 z m -45.7877,-0.49905 0.27604,-0.17061 0.16699,-2.88454 0.16698,-2.88455 1.55447,-1.44674 1.55447,-1.44674 1.37899,-1.08719 1.37899,-1.08719 -0.25328,-0.40982 -0.25328,-0.40982 h -2.73398 -2.73398 l -0.60045,0.44098 -0.60045,0.44097 -0.91923,4.13061 -0.91924,4.13061 1.13046,1.42732 1.13045,1.42731 z m -49.43695,-0.89109 h 4.17049 l 1.7075,-0.5818 1.7075,-0.5818 -3.28326,-1.53486 -3.28326,-1.53487 h -0.12528 -0.12529 l -0.003,0.44097 -0.003,0.44098 -2.46326,1.41111 -2.46327,1.41111 -0.003,0.26458 -0.003,0.26458 h 4.17049 z m 69.54243,-0.40081 0.15875,0.048 -0.33514,-0.28405 -0.33514,-0.28404 -1.40348,-1.03008 -1.40347,-1.03007 0.79334,1.11414 0.79334,1.11414 0.78652,0.15194 0.78653,0.15193 z m 30.00375,-2.29108 0.17638,-0.95563 3.6967,-0.8272 3.6967,-0.8272 0.44118,-0.44118 0.44118,-0.44118 -0.64689,-3.79721 -0.64689,-3.79721 1.62429,-1.3221 1.62429,-1.3221 0.68508,-0.5198 0.68508,-0.51979 -0.31392,0.52916 -0.31392,0.52917 -1.65695,2.11666 -1.65696,2.11667 0.88217,2.20486 0.88216,2.20486 h 0.33168 0.33167 l 3.64741,-2.46944 3.64742,-2.46945 h 2.86946 2.86945 l -0.1823,-0.79375 -0.1823,-0.79375 -0.87255,-4.23333 -0.87256,-4.23333 -0.51181,-4.18814 -0.5118,-4.18813 -0.29215,-0.25341 -0.29214,-0.25341 -5.11528,-0.59188 -5.11527,-0.59188 -0.42723,0.006 -0.42723,0.006 -0.72462,0.77779 -0.72462,0.77779 0.11876,0.35628 0.11876,0.35629 -0.90747,0.76359 -0.90749,0.7636 -6.26309,2.91695 -6.2631,2.91695 -2.1408,6.68375 -2.1408,6.68373 0.16781,0.16781 0.1678,0.1678 2.09936,-0.41302 2.09936,-0.41302 1.09242,0.56491 1.09242,0.56491 h 0.19391 0.1939 v -1.46991 -1.4699 l 0.15823,0.15822 0.15822,0.15822 0.71847,4.04571 0.71848,4.04572 1.15177,0.98395 1.15178,0.98395 0.17639,-0.95563 z m 12.97863,-19.89641 -0.45502,-0.0105 -1.54416,-1.33491 -1.54415,-1.33491 1.78,-0.73974 1.78,-0.73973 1.61274,1.11504 1.61274,1.11503 0.004,0.25741 0.004,0.25741 -1.39706,0.71273 -1.39705,0.71273 -0.45503,-0.0105 z m 3.91817,-3.51725 h -0.18882 l -1.89423,-1.41328 -1.89422,-1.41328 -0.90352,0.81356 -0.90351,0.81356 -0.70256,0.51153 -0.70256,0.51152 1.52916,-1.85208 1.52916,-1.85209 h 0.24378 0.24379 l 1.91617,1.94028 1.91618,1.94028 z m 6.68157,22.27775 0.11866,-1.28747 -0.23852,-2.91042 -0.23852,-2.91042 -0.76208,-0.009 -0.76208,-0.009 -1.80559,-0.20276 -1.8056,-0.20278 -3.66246,2.552 -3.66246,2.55199 -0.59047,1.22314 -0.59047,1.22314 1.47242,-0.19664 1.47241,-0.19664 3.37707,-0.22942 3.37707,-0.22943 2.09098,1.06016 2.09099,1.06016 0.11865,-1.28748 z m -127.36424,0.6528 h 0.28357 l 1.08466,-1.14652 1.08466,-1.14653 0.65876,-4.04548 0.65876,-4.04547 0.22433,1.04686 0.22432,1.04687 0.0417,1.6169 0.0417,1.6169 0.23051,0.2305 0.23051,0.23051 1.19446,-0.73821 1.19445,-0.73821 2.3674,0.42131 2.3674,0.42131 0.70555,0.18168 0.70556,0.18167 -0.70515,-0.53692 -0.70516,-0.53692 -2.29345,-6.94944 -2.29346,-6.94944 -7.39867,-3.07913 -7.39866,-3.07913 -1.70928,-2.2537 -1.70927,-2.25371 -0.14263,-0.14262 -0.14262,-0.14263 -4.43818,0.46551 -4.43817,0.4655 -0.12819,0.20742 -0.12819,0.20742 -0.42075,3.69755 -0.42075,3.69754 -1.01996,5.08213 -1.01996,5.08212 v 0.47413 0.47412 h 2.73638 2.73639 l 3.93535,2.62968 3.93534,2.62968 0.92028,-2.2988 0.92027,-2.29881 -0.25348,-0.41907 -0.25349,-0.41906 -1.78227,-2.27878 -1.78227,-2.27878 0.52917,0.30502 0.52916,0.30501 1.5875,1.24028 1.5875,1.24027 0.28882,0.24619 0.2888,0.24618 -0.61913,3.79985 -0.61915,3.79984 0.72457,0.58671 0.72455,0.58671 3.39814,0.66815 3.39812,0.66814 v 0.98886 0.98884 z m -13.13527,-20.82982 -0.37747,-0.016 -1.55023,-0.81096 -1.55023,-0.81096 1.67522,-1.27913 1.67522,-1.27913 1.1946,0.49914 1.1946,0.49914 0.56547,0.31645 0.56547,0.31645 -1.50759,1.29044 -1.50759,1.29044 -0.37747,-0.016 z m -2.31775,-4.56683 -1.5875,1.19246 0.87502,-1.03887 0.87501,-1.03888 1.04942,-1.14977 1.04942,-1.14978 0.81374,0.97339 0.81374,0.97338 0.78204,1.05834 0.78204,1.05833 -1.5496,-1.31809 -1.54961,-1.31809 -0.38311,0.28256 -0.38311,0.28256 z m 65.84982,22.07978 0.40954,-3.08803 0.43471,-1.04947 0.43471,-1.04948 1.43468,-0.73192 1.43467,-0.73192 2.39538,0.20082 2.39538,0.20083 v -0.47 -0.46999 l -2.75805,-0.7442 -2.75806,-0.74421 h -0.93334 -0.93335 l -1.99783,4.01511 -1.99783,4.01512 1.01492,1.86768 1.01493,1.86769 z m -72.00222,1.49127 2.36441,-1.10644 4.62802,0.37161 4.62803,0.3716 0.10467,-0.098 0.10467,-0.098 -0.63384,-1.11581 -0.63384,-1.1158 -3.52778,-2.46384 -3.52777,-2.46384 -2.64584,0.22884 -2.64583,0.22883 -0.0428,0.0453 -0.0428,0.0453 -0.24682,4.13833 -0.24683,4.13834 z m 91.10447,1.11031 0.10901,0.01 -0.26607,-0.44097 -0.26608,-0.44097 -2.27429,-3.175 -2.27429,-3.175 -0.12629,-0.14699 -0.12628,-0.14699 v 0.73294 0.73295 l 2.55763,3.02028 2.55764,3.02028 z m -45.9408,-2.14235 0.3821,0.0354 2.7929,-1.2015 2.7929,-1.2015 2.95146,-4.09909 2.95146,-4.09909 0.53486,-4.23646 0.53487,-4.23647 -0.13494,-0.1332 -0.13494,-0.13321 -7.58472,1.53807 -7.58472,1.53807 -3.42873,1.08568 -3.42873,1.08567 -2.16575,-0.91155 -2.16575,-0.91155 -0.1289,0.1289 -0.1289,0.1289 2.04665,5.75527 2.04665,5.75527 2.46388,1.54192 2.46388,1.54191 2.27118,0.49656 2.27119,0.49656 z m 57.82623,-1.23076 0.35277,-0.10665 4.11604,-0.75744 4.11604,-0.75743 2.09896,-5.87629 2.09897,-5.87628 0.2442,-0.78505 0.24421,-0.78505 -2.24374,1.04997 -2.24374,1.04997 -3.64949,-1.22902 -3.64949,-1.22903 -6.48149,-1.41715 -6.48149,-1.41714 h -0.45983 -0.45982 l 0.45362,3.43958 0.45361,3.43958 0.0157,0.52917 0.0157,0.52917 2.48663,3.52777 2.48663,3.52778 0.59718,0.58605 0.5972,0.58606 2.46944,1.03904 2.46945,1.03904 0.35277,-0.10665 z m -34.03291,-2.16275 0.24311,-0.27523 0.95333,-2.64584 0.95332,-2.64583 0.64349,-0.78288 0.64349,-0.78289 1.53975,-0.35427 1.53975,-0.35427 2.2274,0.73245 2.2274,0.73244 0.20412,-0.20413 0.20412,-0.20412 -0.41395,-0.49878 -0.41395,-0.49879 -2.95724,-1.49945 -2.95723,-1.49946 -0.53476,0.2052 -0.53475,0.20521 -2.25414,2.98845 -2.25414,2.98844 0.34889,2.33449 0.34888,2.33449 z m -1.29501,-6.44884 h 0.12625 l 1.33777,-2.20487 1.33777,-2.20486 0.71414,-0.79375 0.71414,-0.79375 h 1.72175 1.72176 l 2.1245,1.44272 2.12449,1.44272 0.18331,-0.1833 0.1833,-0.18331 -2.19398,-3.38679 -2.19399,-3.3868 -0.67566,-0.3616 -0.67567,-0.36161 -0.69519,0.22064 -0.69519,0.22065 -2.2019,2.86541 -2.2019,2.8654 -0.42847,0.72586 -0.42848,0.72585 -0.0125,1.67569 -0.0125,1.6757 z m -31.64139,-6.83744 0.41124,-0.39451 10.19209,-15.71753 10.1921,-15.71753 -0.23163,-2.52695 -0.23161,-2.52694 -0.46227,-0.557 -0.46226,-0.55699 -0.46127,0.17701 -0.46127,0.177 -17.99424,14.85155 -17.99424,14.85155 -0.18376,0.29732 -0.18376,0.29733 6.61315,2.90588 6.61315,2.90586 2.11667,0.96423 2.11666,0.96423 z m 33.7955,-2.13421 1.95452,-2.79804 0.93219,-0.61151 0.93219,-0.61151 1.11661,0.53248 1.11661,0.53247 1.74279,2.86853 1.74279,2.86855 0.11436,-0.98995 0.11436,-0.98995 -0.9354,-2.3366 -0.93541,-2.3366 -1.04005,-1.31317 -1.04005,-1.31317 -1.0769,-0.23653 -1.0769,-0.23653 -1.13585,0.21309 -1.13586,0.21308 -1.46328,3.0842 -1.46328,3.08419 -0.20898,1.5875 -0.20898,1.5875 z m 50.05554,-1.43603 8.16549,-3.96817 -0.16825,-0.3086 -0.16825,-0.30861 -8.12203,-7.05805 -8.12203,-7.05804 -9.28915,-8.07287 -9.28915,-8.07286 -0.65544,0.66702 -0.65545,0.66702 -0.0757,2.64584 -0.0757,2.64583 4.68707,7.58472 4.68707,7.58472 5.12164,8.29028 5.12163,8.29028 0.33635,0.21983 0.33635,0.21982 z m -80.46993,2.64639 0.0882,-1.8e-4 1.76882,-0.6723 1.76882,-0.67231 7.39866,-1.46884 7.39866,-1.46884 0.077,-0.077 0.077,-0.077 -0.66017,-2.56651 -0.66017,-2.56651 1.87353,-6.53507 1.87354,-6.53507 -0.88147,-2.17386 -0.88147,-2.17386 -0.34881,-0.65557 -0.3488,-0.65557 -9.31575,13.97091 -9.31575,13.97092 v 0.1784 0.17841 z m 68.08611,-0.38138 0.26459,0.0288 v -0.2162 -0.21621 l -8.73125,-13.8648 -8.73125,-13.8648 -0.21642,0.23448 -0.21642,0.23448 -0.99119,2.57127 -0.99119,2.57128 1.77123,6.52367 1.77124,6.52367 -0.60672,2.54672 -0.60673,2.54672 0.0636,0.0793 0.0636,0.0793 7.29611,1.59395 7.29612,1.59395 1.15005,0.50283 1.15004,0.50284 0.26458,0.0288 z m -40.25817,-2.64591 0.30609,-0.18917 v -0.36556 -0.36555 l 1.30713,-2.60825 1.30712,-2.60826 1.77968,-0.50069 1.77968,-0.5007 1.17622,0.18833 1.17622,0.18833 1.55757,1.98408 1.55758,1.98407 0.47013,1.4097 0.47014,1.4097 0.63394,-2.58687 0.63395,-2.58687 -0.20315,-1.64505 -0.20314,-1.64505 -0.57989,-2.52969 -0.57988,-2.52968 -2.82686,-1.7993 -2.82686,-1.79929 -3.02805,1.73856 -3.02805,1.73855 -1.15924,4.00154 -1.15924,4.00153 0.56641,2.90238 0.5664,2.90239 z m 17.22431,-2.74509 1.74878,-1.63578 h 0.51625 0.51625 l 0.20548,-0.97014 0.20549,-0.97014 0.0351,-1.5875 0.0351,-1.5875 -1.62382,-4.52139 -1.62382,-4.52139 -0.3226,-0.59388 -0.3226,-0.59389 -2.66328,-1.57068 -2.66328,-1.57068 0.12833,-0.12834 0.12834,-0.12834 2.50661,1.06666 2.50662,1.06666 0.50116,-0.77875 0.50117,-0.77875 2.1046,-3.6364 2.10461,-3.6364 -0.17615,-0.67357 -0.17614,-0.67358 -0.46227,-0.38364 -0.46226,-0.38365 -4.5267,0.67992 -4.52669,0.67991 -0.097,-0.0814 -0.097,-0.0815 3.62477,-1.1226 3.62478,-1.12261 0.62099,-0.2503 0.62099,-0.25031 -1.61249,-2.46944 -1.61249,-2.46944 1.96164,2.04491 1.96163,2.04493 v -0.48075 -0.48075 l 2.11667,-1.01168 2.11667,-1.01167 -0.0149,-0.72889 -0.0149,-0.72888 -0.44368,-1.90026 -0.44368,-1.90025 -2.66663,-0.94123 -2.66663,-0.94123 -1.16287,-1.32444 -1.16287,-1.32444 -1.44451,-0.75373 -1.44451,-0.75373 -6.70278,-0.0451 -6.70278,-0.0451 -1.23472,0.61415 -1.23472,0.61414 -1.55355,1.59704 -1.55355,1.59704 -2.28058,0.80511 -2.28058,0.80512 -0.1279,0.36098 -0.12791,0.36099 -0.50321,2.19894 -0.50322,2.19894 2.08399,1.14569 2.08401,1.14568 v 0.56806 0.56806 l -0.52536,1.73176 -0.52534,1.73176 -0.004,0.13176 -0.004,0.13177 4.13825,-3.83593 4.13825,-3.83593 -1.84264,2.33986 -1.84263,2.33986 2.98609,1.34487 2.98609,1.34487 -0.12961,0.1296 -0.1296,0.12961 -3.06329,-0.72753 -3.0633,-0.72751 -0.41312,0.015 -0.41311,0.015 -1.34524,1.74448 -1.34523,1.74448 2.0161,3.62035 2.0161,3.62036 0.0782,0.10229 0.0782,0.10231 2.69971,-1.07245 2.69971,-1.07243 0.2554,10e-4 0.2554,0.001 -3.17764,1.90681 -3.17764,1.90682 -1.72249,5.2459 -1.7225,5.24589 0.25391,2.37094 0.25391,2.37094 h 1.15907 1.15906 l 0.97204,0.7646 0.97203,0.7646 -0.2189,-0.7646 -0.21891,-0.76473 -0.20437,-0.71882 -0.20437,-0.71881 1.4808,-4.13188 1.4808,-4.13188 0.31989,-0.39955 0.31989,-0.39955 3.4595,-2.11683 3.45949,-2.11682 3.49905,2.20048 3.49905,2.20049 1.24703,4.02006 1.24703,4.02005 0.19819,0.52917 0.19819,0.52917 -0.65147,1.90731 -0.65147,1.90731 v 0.16943 0.16944 z m -19.71825,-21.76958 -0.19858,-0.0255 -0.99747,-1.20077 -0.99747,-1.20076 0.97095,-0.89986 0.97096,-0.89985 1.17289,1.13681 1.17289,1.13681 -0.9478,0.98928 -0.94779,0.98928 -0.19858,-0.0255 z m 19.80075,-0.92103 -0.99095,0.94938 -0.94917,-0.99072 -0.94918,-0.99072 1.16835,-1.13241 1.16836,-1.13241 0.77177,0.82151 0.77177,0.82151 v 0.35223 0.35224 z m -17.7843,-2.22848 h -0.11193 l -1.1208,-1.12081 -1.12081,-1.1208 -0.75509,0.85622 -0.7551,0.85622 0.7983,-1.23472 0.7983,-1.23473 0.0802,-0.11298 0.0802,-0.11299 1.10929,1.61229 1.10928,1.6123 z m 18.61941,-0.35278 h -0.18067 l -0.58736,-0.89642 -0.58735,-0.89641 -0.76643,0.72002 -0.76644,0.72003 h -0.30784 -0.30785 l 1.02922,-1.07427 1.02922,-1.07427 0.47374,0.63329 0.47374,0.63331 0.33934,0.61736 0.33934,0.61736 z m -70.03768,22.50869 0.30027,-0.1073 18.80256,-14.76484 18.80255,-14.76484 0.0508,-1.00967 0.0508,-1.00968 0.24723,-1.64864 0.24723,-1.64864 -0.46991,0.16681 -0.46992,0.16682 -24.51805,9.10967 -24.51806,9.10967 -0.29962,0.26185 -0.29962,0.26184 1.71074,2.33916 1.71073,2.33916 3.52777,4.74756 3.52778,4.74757 0.64824,0.9054 0.64825,0.90539 z m 115.2316,-0.28369 h 0.0733 l 3.60281,-5.37986 3.6028,-5.37987 1.1145,-1.05833 1.1145,-1.05833 1.08794,-1.59627 1.08794,-1.59628 -23.51022,-9.23324 -23.51022,-9.23325 -0.65807,-0.24815 -0.65808,-0.24815 0.22765,0.71724 0.22764,0.71724 0.10567,1.95761 0.10567,1.95762 17.95647,14.84101 17.95648,14.84101 z m 12.02372,-1.83186 2.20486,0.068 v -0.20112 -0.20112 l -2.31378,-3.31865 -2.31379,-3.31865 -0.31573,-0.19513 -0.31573,-0.19513 -2.16679,3.22248 -2.16679,3.22248 0.29839,0.2974 0.29839,0.2974 2.29306,0.12705 2.29305,0.12704 z m -139.01526,-1.34621 1.69652,-0.003 1.82578,-0.21934 1.82578,-0.21935 -1.64939,-2.23254 -1.6494,-2.23254 -0.21346,-0.0145 -0.21348,-0.0145 -1.4042,2.02847 -1.4042,2.02848 -0.25523,0.44097 -0.25523,0.44097 1.69651,-0.003 z m -0.68473,-14.96708 1.32291,-0.47497 21.34306,-7.65598 21.34305,-7.65598 3.61597,-1.27951 3.61598,-1.27951 v -0.37818 -0.37819 l 2.02847,-1.00281 2.02847,-1.00281 -1.94028,-0.66873 -1.94027,-0.66873 -2.80943,0.23526 -2.80943,0.23527 -19.94474,5.55396 -19.94474,5.55396 -1.33834,0.55977 -1.33834,0.55977 -2.27763,4.80478 -2.27763,4.80478 v 0.30641 0.3064 z m 140.58194,0.11752 0.26458,0.036 v -0.32781 -0.3278 l -2.1625,-4.74399 -2.1625,-4.74399 -1.10118,-0.52512 -1.10117,-0.52511 -19.4023,-5.67509 -19.40229,-5.67509 -2.82223,-0.0698 -2.82222,-0.0698 -1.41111,0.63344 -1.41111,0.63343 1.69427,0.78853 1.69427,0.78852 0.44255,0.60523 0.44256,0.60522 24.4979,9.27861 24.49789,9.27861 z m -132.31327,-14.103 0.24298,0.0279 18.67719,-5.25408 18.67719,-5.25408 3.12844,-0.23372 3.12844,-0.23372 3.17257,1.25447 3.17258,1.25446 h 0.40515 0.40516 l 0.22542,-0.89817 0.22543,-0.89816 -0.1682,-0.27215 -0.16819,-0.27215 -3.47927,-1.48563 -3.47926,-1.48564 -3.33069,0.314677 -3.3307,0.314673 -18.34444,6.34591 -18.34445,6.34591 -0.52916,0.20085 -0.52917,0.20085 z m 122.84706,-0.35796 0.32338,0.033 -0.14699,-0.14423 -0.14699,-0.14423 -17.52331,-6.38438 -17.52332,-6.38437 -3.11418,-0.321296 -3.11419,-0.321294 -3.57123,1.59641 -3.57124,1.59641 0.35944,1.17114 0.35943,1.17114 1.7125,-0.68015 1.71249,-0.68015 1.67569,-0.66168 1.6757,-0.66168 2.7973,0.18297 2.79731,0.18297 17.48741,5.20818 17.48742,5.20818 0.32338,0.033 z"
       id="path216"
       inkscape:connector-curvature="0" />
  </g>
</svg>
