<?xml version="1.0" encoding="UTF-8" standalone="no"?>
<!-- Created with Inkscape (http://www.inkscape.org/) -->

<svg
   xmlns:dc="http://purl.org/dc/elements/1.1/"
   xmlns:cc="http://creativecommons.org/ns#"
   xmlns:rdf="http://www.w3.org/1999/02/22-rdf-syntax-ns#"
   xmlns:svg="http://www.w3.org/2000/svg"
   xmlns="http://www.w3.org/2000/svg"
   xmlns:sodipodi="http://sodipodi.sourceforge.net/DTD/sodipodi-0.dtd"
   xmlns:inkscape="http://www.inkscape.org/namespaces/inkscape"
   version="1.1"
   id="svg2"
   xml:space="preserve"
   width="329.33334"
   height="353.95999"
   viewBox="0 0 329.33334 353.95999"
   sodipodi:docname="postgres11_black.svg"
   inkscape:version="0.92.2 5c3e80d, 2017-08-06"><metadata
     id="metadata8"><rdf:RDF><cc:Work
         rdf:about=""><dc:format>image/svg+xml</dc:format><dc:type
           rdf:resource="http://purl.org/dc/dcmitype/StillImage" /><dc:title></dc:title></cc:Work></rdf:RDF></metadata><defs
     id="defs6" /><sodipodi:namedview
     pagecolor="#ffffff"
     bordercolor="#666666"
     borderopacity="1"
     objecttolerance="10"
     gridtolerance="10"
     guidetolerance="10"
     inkscape:pageopacity="0"
     inkscape:pageshadow="2"
     inkscape:window-width="1914"
     inkscape:window-height="1021"
     id="namedview4"
     showgrid="false"
     inkscape:zoom="2.3081705"
     inkscape:cx="164.66667"
     inkscape:cy="176.98"
     inkscape:window-x="0"
     inkscape:window-y="28"
     inkscape:window-maximized="0"
     inkscape:current-layer="g10" /><g
     id="g10"
     inkscape:groupmode="layer"
     inkscape:label="ink_ext_XXXXXX"
     transform="matrix(1.3333333,0,0,-1.3333333,0,353.96)"><g
       id="g12"
       transform="scale(0.1)"><path
         d="m 210.797,1404.84 128.379,18.75 c -0.375,2.59 -0.696,5.21 -1.067,7.81 l -128.453,-18.76 1.141,-7.8"
         style="fill:#231f20;fill-opacity:1;fill-rule:nonzero;stroke:none"
         id="path14"
         inkscape:connector-curvature="0" /><path
         d="m 2152.51,1688.42 122.81,17.94 -1.14,7.81 -122.76,-17.93 c 0.4,-2.6 0.73,-5.22 1.09,-7.82"
         style="fill:#231f20;fill-opacity:1;fill-rule:nonzero;stroke:none"
         id="path16"
         inkscape:connector-curvature="0" /><path
         d="m 512.203,2108.58 -103.89,77.41 -4.723,-6.33 103.949,-77.46 c 1.559,2.13 3.086,4.28 4.664,6.38"
         style="fill:#231f20;fill-opacity:1;fill-rule:nonzero;stroke:none"
         id="path18"
         inkscape:connector-curvature="0" /><path
         d="m 2132.55,1330.36 120.35,-30.44 1.92,7.66 -120.37,30.45 c -0.64,-2.56 -1.26,-5.12 -1.9,-7.67"
         style="fill:#231f20;fill-opacity:1;fill-rule:nonzero;stroke:none"
         id="path20"
         inkscape:connector-curvature="0" /><path
         d="m 330.449,1610.83 -129.57,6.73 -0.399,-7.89 129.637,-6.73 c 0.125,2.63 0.196,5.26 0.332,7.89"
         style="fill:#231f20;fill-opacity:1;fill-rule:nonzero;stroke:none"
         id="path22"
         inkscape:connector-curvature="0" /><path
         d="m 2227.02,1904.46 -2.64,7.45 -117.01,-41.49 c 0.9,-2.48 1.74,-4.97 2.61,-7.46 l 117.04,41.5"
         style="fill:#231f20;fill-opacity:1;fill-rule:nonzero;stroke:none"
         id="path24"
         inkscape:connector-curvature="0" /><path
         d="m 419.414,1955.99 -117.047,55.76 -3.383,-7.12 117.079,-55.77 c 1.117,2.37 2.207,4.77 3.351,7.13"
         style="fill:#231f20;fill-opacity:1;fill-rule:nonzero;stroke:none"
         id="path26"
         inkscape:connector-curvature="0" /><path
         d="m 2160.63,1602.44 123.91,6.34 -0.4,7.88 -123.98,-6.33 c 0.15,-2.63 0.34,-5.24 0.47,-7.89"
         style="fill:#231f20;fill-opacity:1;fill-rule:nonzero;stroke:none"
         id="path28"
         inkscape:connector-curvature="0" /><path
         d="m 2070.66,1957.55 c 1.16,-2.37 2.27,-4.75 3.4,-7.12 l 112.3,53.39 -3.38,7.13 -112.32,-53.4"
         style="fill:#231f20;fill-opacity:1;fill-rule:nonzero;stroke:none"
         id="path30"
         inkscape:connector-curvature="0" /><path
         d="m 383.047,1869.32 -122.164,43.44 -2.653,-7.44 122.168,-43.44 c 0.872,2.49 1.754,4.96 2.649,7.44"
         style="fill:#231f20;fill-opacity:1;fill-rule:nonzero;stroke:none"
         id="path32"
         inkscape:connector-curvature="0" /><path
         d="m 339.258,1696.2 -128.324,18.86 -1.153,-7.82 128.356,-18.86 c 0.363,2.61 0.734,5.22 1.121,7.82"
         style="fill:#231f20;fill-opacity:1;fill-rule:nonzero;stroke:none"
         id="path34"
         inkscape:connector-curvature="0" /><path
         d="m 2275.21,1411.75 -122.81,18.05 c -0.38,-2.61 -0.73,-5.22 -1.12,-7.81 l 122.78,-18.04 1.15,7.8"
         style="fill:#231f20;fill-opacity:1;fill-rule:nonzero;stroke:none"
         id="path36"
         inkscape:connector-curvature="0" /><path
         d="m 2081.9,2178.93 -4.69,6.33 -100.26,-74.55 c 1.59,-2.1 3.18,-4.19 4.76,-6.3 l 100.19,74.52"
         style="fill:#231f20;fill-opacity:1;fill-rule:nonzero;stroke:none"
         id="path38"
         inkscape:connector-curvature="0" /><path
         d="m 355.699,1340.15 -125.781,-31.68 1.934,-7.67 125.73,31.68 c -0.652,2.56 -1.254,5.12 -1.883,7.67"
         style="fill:#231f20;fill-opacity:1;fill-rule:nonzero;stroke:none"
         id="path40"
         inkscape:connector-curvature="0" /><path
         d="m 2176.18,2132.73 c 0.28,1.94 0.99,3.79 2.12,5.53 1.13,1.74 2.65,3.29 4.54,4.62 1.83,1.29 3.75,2.14 5.76,2.57 2.02,0.43 4,0.46 5.97,0.09 1.95,-0.37 3.81,-1.14 5.58,-2.31 1.76,-1.16 3.31,-2.69 4.64,-4.59 1.33,-1.88 2.25,-3.85 2.76,-5.92 0.5,-2.05 0.58,-4.04 0.25,-5.97 -0.34,-1.95 -1.05,-3.78 -2.13,-5.54 -1.08,-1.75 -2.54,-3.27 -4.36,-4.56 -1.9,-1.33 -3.87,-2.22 -5.91,-2.67 -2.05,-0.45 -4.02,-0.5 -5.92,-0.13 -1.91,0.35 -3.75,1.11 -5.51,2.27 -1.76,1.18 -3.32,2.7 -4.64,4.59 -1.39,1.97 -2.33,3.97 -2.83,6.02 -0.5,2.05 -0.61,4.06 -0.32,6 z m 35.89,26.41 c 0.96,1.48 2.2,2.75 3.72,3.82 1.58,1.11 3.24,1.89 4.98,2.31 1.75,0.41 3.46,0.48 5.14,0.19 1.67,-0.29 3.26,-0.92 4.75,-1.92 1.5,-0.98 2.81,-2.26 3.92,-3.85 1.07,-1.51 1.81,-3.13 2.22,-4.85 0.39,-1.7 0.45,-3.39 0.15,-5.07 -0.29,-1.66 -0.91,-3.3 -1.84,-4.85 -0.94,-1.57 -2.2,-2.9 -3.79,-4.02 -1.52,-1.07 -3.15,-1.79 -4.88,-2.16 -1.74,-0.36 -3.45,-0.39 -5.15,-0.06 -1.69,0.32 -3.29,0.94 -4.8,1.86 -1.51,0.94 -2.8,2.17 -3.87,3.69 -1.12,1.59 -1.87,3.25 -2.26,5.02 -0.39,1.77 -0.44,3.49 -0.15,5.17 0.29,1.66 0.91,3.24 1.86,4.72 z m -40.42,-43.83 c 2.14,-3.02 4.62,-5.58 7.45,-7.65 2.81,-2.06 5.81,-3.52 8.96,-4.38 3.14,-0.85 6.37,-1.01 9.68,-0.48 3.3,0.54 6.54,1.92 9.69,4.14 2.15,1.51 3.93,3.27 5.36,5.26 1.43,2 2.46,4.07 3.12,6.24 0.65,2.16 0.96,4.38 0.92,6.65 -0.06,2.28 -0.48,4.46 -1.29,6.54 l 0.19,0.13 c 3.15,-2.31 6.75,-3.49 10.82,-3.49 4.08,-0.02 7.93,1.27 11.59,3.85 2.79,1.95 4.92,4.25 6.4,6.9 1.49,2.65 2.37,5.42 2.65,8.31 0.28,2.89 -0.02,5.86 -0.9,8.92 -0.88,3.07 -2.28,5.95 -4.19,8.66 -1.95,2.79 -4.22,5.09 -6.78,6.92 -2.57,1.82 -5.29,3.1 -8.19,3.79 -2.9,0.69 -5.85,0.79 -8.85,0.29 -2.99,-0.51 -5.88,-1.74 -8.65,-3.7 -3.73,-2.61 -6.21,-5.8 -7.43,-9.55 -1.24,-3.75 -1.33,-7.52 -0.27,-11.3 l -0.18,-0.13 c -1.71,1.35 -3.61,2.45 -5.67,3.31 -2.07,0.86 -4.23,1.36 -6.51,1.5 -2.28,0.15 -4.59,-0.11 -6.95,-0.79 -2.36,-0.67 -4.64,-1.77 -6.86,-3.33 -3.15,-2.22 -5.54,-4.8 -7.16,-7.74 -1.61,-2.93 -2.56,-6.02 -2.82,-9.27 -0.25,-3.25 0.13,-6.58 1.15,-9.96 1.02,-3.4 2.59,-6.6 4.72,-9.64"
         style="fill:#231f20;fill-opacity:1;fill-rule:nonzero;stroke:none"
         id="path42"
         inkscape:connector-curvature="0" /><path
         d="m 2390.18,1557.45 -8.23,-6 11.77,-16.44 -68.12,5.07 -0.83,-11.08 81.75,-6.09 0.75,9.94 -17.09,24.6"
         style="fill:#231f20;fill-opacity:1;fill-rule:nonzero;stroke:none"
         id="path44"
         inkscape:connector-curvature="0" /><path
         d="m 2391.41,1462.59 c -2.35,-1.96 -5.25,-3.43 -8.68,-4.41 -3.44,-0.98 -7.14,-1.56 -11.11,-1.73 -3.95,-0.16 -7.67,-0.12 -11.13,0.14 -3.47,0.25 -7.15,0.76 -11.05,1.51 -3.88,0.76 -7.45,1.88 -10.65,3.35 -3.22,1.48 -5.85,3.36 -7.89,5.64 -2.03,2.28 -2.93,5.08 -2.69,8.39 0.26,3.39 1.57,6.08 3.91,8.07 2.36,1.99 5.24,3.46 8.64,4.41 3.39,0.94 7.07,1.5 11.04,1.67 3.95,0.17 7.67,0.12 11.14,-0.13 3.46,-0.26 7.14,-0.77 11.03,-1.52 3.89,-0.76 7.48,-1.85 10.74,-3.29 3.25,-1.44 5.9,-3.33 7.92,-5.65 2.05,-2.32 2.93,-5.16 2.67,-8.55 -0.24,-3.32 -1.53,-5.95 -3.89,-7.9 z m 2.31,29.43 c -3.72,2.56 -8.14,4.58 -13.31,6.05 -5.16,1.47 -10.7,2.42 -16.62,2.86 -6.01,0.45 -11.65,0.33 -16.92,-0.36 -5.28,-0.69 -9.96,-2.03 -14.01,-4.01 -4.05,-1.98 -7.33,-4.67 -9.83,-8.04 -2.49,-3.38 -3.92,-7.49 -4.28,-12.34 -0.36,-4.85 0.44,-9.1 2.41,-12.77 1.97,-3.68 4.83,-6.79 8.53,-9.35 3.72,-2.56 8.14,-4.57 13.26,-6.04 5.12,-1.46 10.68,-2.42 16.69,-2.87 5.92,-0.44 11.54,-0.31 16.85,0.37 5.33,0.69 10,2.03 14.06,4.01 4.06,1.98 7.33,4.64 9.83,7.98 2.49,3.33 3.93,7.42 4.29,12.28 0.36,4.85 -0.45,9.12 -2.41,12.83 -1.99,3.71 -4.83,6.85 -8.54,9.4"
         style="fill:#231f20;fill-opacity:1;fill-rule:nonzero;stroke:none"
         id="path46"
         inkscape:connector-curvature="0" /><path
         d="m 2328.93,1221.44 6.48,-19.15 -63.7,24.7 -4.02,-10.36 76.44,-29.64 3.6,9.3 -9.19,28.51 -9.61,-3.36"
         style="fill:#231f20;fill-opacity:1;fill-rule:nonzero;stroke:none"
         id="path48"
         inkscape:connector-curvature="0" /><path
         d="m 2308.27,1168.17 6.49,-19.16 -63.71,24.7 -4.02,-10.36 76.44,-29.64 3.6,9.3 -9.19,28.51 -9.61,-3.35"
         style="fill:#231f20;fill-opacity:1;fill-rule:nonzero;stroke:none"
         id="path50"
         inkscape:connector-curvature="0" /><path
         d="m 178.297,1803 10.516,-2.32 11.535,52.24 -9.844,2.18 -8.664,-39.24 -19.59,31.59 c -1.348,2.12 -2.73,4.17 -4.152,6.14 -1.422,1.98 -2.981,3.76 -4.692,5.36 -1.703,1.6 -3.566,2.99 -5.601,4.14 -2.035,1.16 -4.332,2.03 -6.903,2.59 -3.699,0.82 -7.125,0.85 -10.3,0.09 -3.168,-0.77 -5.954,-2.11 -8.356,-4.02 -2.41,-1.93 -4.433,-4.31 -6.094,-7.14 -1.64,-2.84 -2.839,-5.92 -3.574,-9.23 -0.746,-3.39 -0.914,-6.7 -0.527,-9.91 0.41,-3.21 1.312,-6.15 2.738,-8.84 1.418,-2.68 3.27,-5.06 5.543,-7.1 2.285,-2.04 4.871,-3.62 7.805,-4.75 l 4.164,10.36 c -3.922,1.57 -6.887,3.96 -8.903,7.18 -2.019,3.21 -2.582,6.85 -1.683,10.91 0.433,1.97 1.168,3.75 2.191,5.33 1.016,1.6 2.278,2.9 3.758,3.92 1.496,1.01 3.176,1.71 5.031,2.09 1.856,0.38 3.86,0.34 5.957,-0.13 3.399,-0.74 6.258,-2.28 8.594,-4.62 2.32,-2.33 4.473,-4.98 6.43,-7.94 L 178.297,1803"
         style="fill:#231f20;fill-opacity:1;fill-rule:nonzero;stroke:none"
         id="path52"
         inkscape:connector-curvature="0" /><path
         d="m 220.691,1177.2 c -1.312,-2.8 -3.328,-5.33 -6.023,-7.59 -2.703,-2.28 -5.824,-4.3 -9.363,-6.1 -3.532,-1.79 -6.926,-3.29 -10.188,-4.49 -3.262,-1.19 -6.82,-2.26 -10.676,-3.18 -3.855,-0.92 -7.562,-1.42 -11.128,-1.45 -3.567,-0.04 -6.754,0.59 -9.567,1.86 -2.808,1.27 -4.801,3.49 -5.976,6.69 -1.145,3.1 -1.051,6.04 0.277,8.8 1.332,2.75 3.359,5.27 6.09,7.59 2.726,2.33 5.851,4.38 9.386,6.17 3.54,1.8 6.938,3.29 10.2,4.5 3.257,1.19 6.812,2.26 10.668,3.17 3.863,0.93 7.55,1.4 11.097,1.38 3.543,-0.02 6.715,-0.64 9.508,-1.87 2.797,-1.23 4.77,-3.4 5.91,-6.51 1.172,-3.2 1.106,-6.18 -0.215,-8.97 z m 1.645,22.88 c -3.313,2.52 -7.195,4.17 -11.645,4.97 -4.441,0.79 -9.296,0.79 -14.558,0 -5.266,-0.78 -10.723,-2.22 -16.367,-4.29 -5.586,-2.06 -10.649,-4.5 -15.2,-7.32 -4.554,-2.83 -8.265,-5.99 -11.136,-9.46 -2.879,-3.49 -4.758,-7.27 -5.649,-11.34 -0.886,-4.07 -0.484,-8.38 1.188,-12.94 1.679,-4.57 4.183,-8.13 7.511,-10.7 3.325,-2.56 7.211,-4.24 11.661,-5.02 4.441,-0.8 9.316,-0.79 14.613,0 5.305,0.8 10.738,2.23 16.316,4.28 5.653,2.08 10.739,4.53 15.254,7.34 4.52,2.82 8.215,5.96 11.086,9.45 2.871,3.48 4.746,7.27 5.621,11.37 0.871,4.13 0.473,8.46 -1.207,13.03 -1.679,4.55 -4.172,8.1 -7.488,10.63"
         style="fill:#231f20;fill-opacity:1;fill-rule:nonzero;stroke:none"
         id="path54"
         inkscape:connector-curvature="0" /><path
         d="m 450.453,1767.24 -217.582,55.03 -3.547,-14.04 217.586,-55.02 3.543,14.03"
         style="fill:#231f20;fill-opacity:1;fill-rule:nonzero;stroke:none"
         id="path56"
         inkscape:connector-curvature="0" /><path
         d="m 2284.68,1512.61 -224.14,11.65 -0.75,-14.46 224.15,-11.64 0.74,14.45"
         style="fill:#231f20;fill-opacity:1;fill-rule:nonzero;stroke:none"
         id="path58"
         inkscape:connector-curvature="0" /><path
         d="m 256.852,1217.64 4.832,-13.64 211.519,75.01 -4.836,13.63 -211.515,-75"
         style="fill:#231f20;fill-opacity:1;fill-rule:nonzero;stroke:none"
         id="path60"
         inkscape:connector-curvature="0" /><path
         d="m 424.391,1524.96 -224.121,-11.46 0.742,-14.45 224.121,11.46 -0.742,14.45"
         style="fill:#231f20;fill-opacity:1;fill-rule:nonzero;stroke:none"
         id="path62"
         inkscape:connector-curvature="0" /><path
         d="m 2011.5,1278.36 211.48,-75.22 4.84,13.64 -211.47,75.21 -4.85,-13.63"
         style="fill:#231f20;fill-opacity:1;fill-rule:nonzero;stroke:none"
         id="path64"
         inkscape:connector-curvature="0" /><path
         d="m 2038.23,1752.53 217.62,54.84 -3.54,14.03 -217.61,-54.84 3.53,-14.03"
         style="fill:#231f20;fill-opacity:1;fill-rule:nonzero;stroke:none"
         id="path66"
         inkscape:connector-curvature="0" /><path
         d="m 1914.2,906.039 h 89.12 l -44.69,63.68 z m 147.44,-2.141 -37.46,-45.48 h -130.83 l -37.47,45.48 99.81,145.022 h 6.4 l 99.55,-145.022"
         style="fill:#231f20;fill-opacity:1;fill-rule:nonzero;stroke:none"
         id="path68"
         inkscape:connector-curvature="0" /><path
         d="m 276.02,996.48 36.39,52.44 h 123.891 v -47.61 h -102.75 l 56.453,-88.599 v 55.141 h 46.297 V 858.418 h -69.84 L 276.02,996.48"
         style="fill:#231f20;fill-opacity:1;fill-rule:nonzero;stroke:none"
         id="path70"
         inkscape:connector-curvature="0" /><path
         d="m 506.938,906.039 h 89.101 l -44.687,63.68 z m 147.433,-2.141 -37.461,-45.48 H 486.063 l -37.458,45.48 99.809,145.022 h 6.414 l 99.543,-145.022"
         style="fill:#231f20;fill-opacity:1;fill-rule:nonzero;stroke:none"
         id="path72"
         inkscape:connector-curvature="0" /><path
         d="m 771.836,858.418 h -72.777 l -29.172,36.652 v 153.85 h 101.949 v -47.61 h -55.66 v -19.54 h 55.66 v -40.692 h -55.66 v -35.039 h 55.66 v -47.621"
         style="fill:#231f20;fill-opacity:1;fill-rule:nonzero;stroke:none"
         id="path74"
         inkscape:connector-curvature="0" /><path
         d="m 783.609,858.418 v 4.273 l 26.762,43.348 h 69.031 l -74.386,101.151 23.281,41.73 h 95.519 v -47.61 h -55.121 l 68.239,-91.251 -36.661,-51.641 H 783.609"
         style="fill:#231f20;fill-opacity:1;fill-rule:nonzero;stroke:none"
         id="path76"
         inkscape:connector-curvature="0" /><path
         d="m 94.2188,2448.29 v 109.49 H 168.844 Z M 229.84,2654.72 H 0 V 2070.7 c 26.4727,65.9 58.0508,129.21 94.2188,189.44 v 177.81 H 197.703 l 97.488,143.25 -65.351,73.52"
         style="fill:#231f20;fill-opacity:1;fill-rule:nonzero;stroke:none"
         id="path78"
         inkscape:connector-curvature="0" /><path
         d="m 2467.75,2372.05 -138.89,185.73 h 112.19 v 96.94 h -243.29 l 1.48,-84.97 151.4,-205.87 h -140.5 l -54.48,-88.24 v -8.71 h 231.76 c 29.93,-49.19 56.83,-100.42 80.33,-153.5 v 258.62"
         style="fill:#231f20;fill-opacity:1;fill-rule:nonzero;stroke:none"
         id="path80"
         inkscape:connector-curvature="0" /><path
         d="m 889.941,2557.78 v 96.94 H 649.246 l -1.125,-84.97 151.406,-205.87 H 659.008 l -54.457,-88.24 v -8.71 h 237.461 l 74.613,105.12 -138.883,185.73 h 112.199"
         style="fill:#231f20;fill-opacity:1;fill-rule:nonzero;stroke:none"
         id="path82"
         inkscape:connector-curvature="0" /><path
         d="m 932.422,2557.78 h 92.038 v -336.76 l 94.23,75.12 v 261.64 h 87.14 v 96.94 H 932.422 v -96.94"
         style="fill:#231f20;fill-opacity:1;fill-rule:nonzero;stroke:none"
         id="path84"
         inkscape:connector-curvature="0" /><path
         d="m 1225.98,2547.97 184.09,-281.04 h 142.15 v 222.77 h -94.23 v -112.2 l -114.92,180.28 h 209.15 v 96.94 h -326.08 l -0.16,-106.75"
         style="fill:#231f20;fill-opacity:1;fill-rule:nonzero;stroke:none"
         id="path86"
         inkscape:connector-curvature="0" /><path
         d="m 1694.9,2456.47 44.12,55.55 43.58,-55.55 z m 203.16,9.8 -143.25,188.45 h -8.16 l -54.47,-72.98 v 72.98 h -94.22 v -387.79 h 94.22 v 107.84 l 167.75,-205.33 75.17,70.8 -124.73,155.23 87.69,70.8"
         style="fill:#231f20;fill-opacity:1;fill-rule:nonzero;stroke:none"
         id="path88"
         inkscape:connector-curvature="0" /><path
         d="m 2018.43,2363.88 v 71.35 h 113.28 v 82.79 h -113.28 v 39.76 h 113.28 v 96.94 H 1924.2 v -313.17 l 59.36,-74.62 h 128.5 l 58.91,96.95 h -152.54"
         style="fill:#231f20;fill-opacity:1;fill-rule:nonzero;stroke:none"
         id="path90"
         inkscape:connector-curvature="0" /><path
         d="m 451.008,2544.03 45.453,1.77 V 2401.49 L 472.82,2363.04 H 323.691 Z m -40.344,110.69 -203.152,-295.2 76.242,-92.59 h 259.641 l 58.941,93.61 v 292.92 l -191.672,1.26"
         style="fill:#231f20;fill-opacity:1;fill-rule:nonzero;stroke:none"
         id="path92"
         inkscape:connector-curvature="0" /><path
         d="m 1789.53,858.328 h 73.94 l -27.66,35.262 v 107.72 h 42.81 v 47.61 H 1744.3 v -47.61 h 45.23 V 858.328"
         style="fill:#231f20;fill-opacity:1;fill-rule:nonzero;stroke:none"
         id="path94"
         inkscape:connector-curvature="0" /><path
         d="m 628.035,299.238 92.793,-116.629 h 231.567 v 151.52 H 775.32 V 445.668 H 952.395 V 575.051 H 775.32 v 62.16 H 952.395 V 788.75 H 628.035 V 299.238"
         style="fill:#231f20;fill-opacity:1;fill-rule:nonzero;stroke:none"
         id="path96"
         inkscape:connector-curvature="0" /><path
         d="M 1389.16,673.648 1281.88,464.391 1113.3,798.102 991.129,797.48 992.422,695.102 1269.94,182.609 h 22.14 l 280.95,512.493 0.86,48.367 c -31.65,-30.789 -75.27,-50.828 -134.66,-63.59 -17.53,-3.699 -34.28,-5.719 -50.07,-6.231"
         style="fill:#231f20;fill-opacity:1;fill-rule:nonzero;stroke:none"
         id="path98"
         inkscape:connector-curvature="0" /><path
         d="m 1623.23,299.238 92.8,-116.629 h 231.56 v 151.52 h -177.08 v 111.539 h 177.08 v 129.383 h -177.08 v 62.16 h 177.08 V 788.75 H 1623.23 V 299.238"
         style="fill:#231f20;fill-opacity:1;fill-rule:nonzero;stroke:none"
         id="path100"
         inkscape:connector-curvature="0" /><path
         d="M 2322.15,779.551 V 579.32 l -82.81,98.418 -93.4,111.012 h -173.68 v -10.23 l 57.03,-67.25 V 488.34 182.609 h 147.28 v 350.75 L 2322.15,361.391 V 161.328 l 147.28,7.113 V 782.93 l 0.59,-0.02 v 252.84 C 2430.13,944.609 2380.4,858.762 2322.15,779.551"
         style="fill:#231f20;fill-opacity:1;fill-rule:nonzero;stroke:none"
         id="path102"
         inkscape:connector-curvature="0" /><path
         d="M 151.074,796.84 C 92.0156,879.879 42.2813,969.988 3.1875,1065.57 V 788.75 782.91 299.238 L 95.9961,182.609 H 327.559 v 151.52 H 150.48 V 445.668 H 327.559 V 575.051 H 150.48 v 62.16 h 133.997 43.082 V 788.75 H 156.988 c -1.961,2.699 -3.976,5.371 -5.914,8.09"
         style="fill:#231f20;fill-opacity:1;fill-rule:nonzero;stroke:none"
         id="path104"
         inkscape:connector-curvature="0" /><path
         d="M 546.34,788.75 H 399.047 V 149.391 L 539.633,0 650.016,111.5 546.34,236.23 v 552.52"
         style="fill:#231f20;fill-opacity:1;fill-rule:nonzero;stroke:none"
         id="path106"
         inkscape:connector-curvature="0" /><path
         d="m 1381.7,695.551 c -108.84,0 -143.29,86.148 -157.38,121.398 -20.67,51.66 -25.15,244.751 -20.43,413.231 0.34,12.24 10.39,21.99 22.57,21.99 0.21,0 0.42,0 0.65,0 12.46,-0.37 22.31,-10.76 21.94,-23.22 -5.25,-187.64 2.16,-357.552 17.22,-395.22 23.36,-58.378 58.78,-109.421 158.86,-87.98 96.48,20.668 130.81,55.418 146.88,148.699 12.3,71.27 36.64,274.201 39.63,314.281 0.95,12.45 11.82,21.78 24.21,20.87 12.48,-0.95 21.8,-11.82 20.86,-24.24 -3.12,-41.75 -27.37,-244.501 -40.16,-318.59 -19.08,-110.668 -68.41,-160.852 -181.97,-185.25 -19.35,-4.09 -36.92,-5.969 -52.88,-5.969"
         style="fill:#231f20;fill-opacity:1;fill-rule:nonzero;stroke:none"
         id="path108"
         inkscape:connector-curvature="0" /><path
         d="m 797.305,1112.58 c -10.508,0 -20.02,1.91 -28.285,4.63 -70.575,23.57 -137.641,138 -199.348,340.14 -46.883,153.59 -76.586,313.96 -79.18,366.09 -7.742,154.96 32.246,264.64 118.844,326 72.578,51.4 174.309,67.04 302.266,46.41 93.388,-15.03 165.348,-44.21 168.378,-45.42 11.56,-4.73 17.1,-17.91 12.37,-29.46 -4.72,-11.54 -17.91,-17.08 -29.46,-12.38 -3.31,1.34 -276.867,110.73 -427.507,3.91 -73.117,-51.86 -106.668,-148.35 -99.754,-286.79 2.187,-43.78 29.883,-199.9 77.277,-355.15 54.75,-179.45 116.895,-292.59 170.418,-310.44 8.196,-2.76 33.199,-11.1 69.379,32.42 69.504,83.61 133.371,150.4 134.012,151.06 8.633,8.97 22.915,9.28 31.955,0.66 9.01,-8.64 9.31,-22.94 0.68,-31.95 -0.63,-0.66 -63.448,-66.31 -131.905,-148.66 -32.836,-39.47 -64.382,-51.07 -90.14,-51.07"
         style="fill:#231f20;fill-opacity:1;fill-rule:nonzero;stroke:none"
         id="path110"
         inkscape:connector-curvature="0" /><path
         d="m 1706.53,1288.63 c -4.32,0 -8.73,1.29 -12.58,3.89 -10.37,6.97 -13.08,21 -6.15,31.37 194.29,288.25 262.78,636.22 204.52,710.62 -73.23,93.6 -176.7,142.55 -307.56,145.43 -96.77,2.13 -174.17,-22.6 -186.92,-26.96 -1.05,-0.53 -2.18,-0.96 -3.33,-1.34 -13.69,-4.29 -24.24,3.24 -28.21,12.06 -4.7,10.41 -0.85,22.74 8.94,28.65 8.46,5.1 97.48,34.06 203.86,32.87 146.02,-1.53 266.66,-57.86 348.81,-162.87 20.41,-26.04 30.27,-68.7 29.38,-126.74 -0.81,-52.87 -10.79,-117.73 -28.81,-187.55 -39.38,-152.42 -113.44,-316.23 -203.17,-449.45 -4.37,-6.46 -11.5,-9.98 -18.78,-9.98"
         style="fill:#231f20;fill-opacity:1;fill-rule:nonzero;stroke:none"
         id="path112"
         inkscape:connector-curvature="0" /><path
         d="m 1656.67,1210.12 c 5.48,-4.48 28.8,-11.78 74.68,-9.63 41.53,1.95 85.26,11.05 111.38,23.16 30.4,14.12 51.8,29.86 64.35,41.56 -0.38,-0.07 -0.68,-0.15 -1.01,-0.21 -92.86,-19.15 -158.62,-16.55 -195.5,7.81 -2.3,1.49 -4.37,3.07 -6.31,4.63 -3.1,-1.09 -6.29,-1.97 -9.57,-2.91 -20.88,-5.87 -40.59,-11.42 -38.02,-64.41 z M 1716.5,1155 c -33.55,0 -63.72,4.72 -81.73,15.55 -19.06,11.38 -22.67,26.96 -23.18,35.2 -4.91,86.67 41.5,103.8 67.19,111.24 -3.25,4.69 -7.55,10.07 -12,15.63 -14.47,18.08 -34.28,42.86 -49.62,80 -2.35,5.69 -9.79,19.03 -18.41,34.52 -47.03,84.34 -144.92,259.86 -81.64,350.28 29.07,41.59 86.47,58.25 170.8,49.7 -11.21,33.29 -39.33,95.07 -91.26,156.42 -60.22,71.16 -166.94,156.57 -333.36,159.31 -84.57,1.41 -153.93,-24.58 -205.99,-77.19 C 940.461,1967.7 944.691,1753.97 944.77,1751.8 c 0.312,-12.44 -9.532,-22.83 -22.004,-23.17 -12.489,-0.38 -22.856,9.51 -23.18,22.01 -0.25,9.54 -4.668,235.25 125.604,366.85 61.06,61.67 141.32,92.09 238.85,90.54 181.54,-2.98 298.39,-95.28 364.47,-172.15 71.97,-83.83 107.3,-176.42 110.21,-207.34 2.35,-24.82 -16.73,-29.53 -18.91,-29.97 l -8.15,-0.16 c -103.11,16.48 -142.6,-5.5 -157.54,-26.87 -47.06,-67.25 44.85,-232.04 84.1,-302.42 10.08,-18.07 17.38,-31.14 20.73,-39.26 12.83,-31.17 29.62,-52.16 43.13,-69 12.03,-15 22.4,-28.01 26.24,-43.45 2,-3.27 27.24,-37.32 168.6,-8.14 37.16,7.69 59.55,0.9 66.5,-20.15 13.44,-40.62 -60.61,-87.38 -101.64,-106.45 -36.56,-16.93 -94.79,-27.67 -145.28,-27.67"
         style="fill:#231f20;fill-opacity:1;fill-rule:nonzero;stroke:none"
         id="path114"
         inkscape:connector-curvature="0" /><path
         d="m 966.938,1157.04 c 6.546,-4.5 17.726,-9.9 30.132,-12.98 21.24,-5.31 41.82,-8.03 61.2,-8.03 58.99,0 106.3,24.44 140.69,72.56 6.83,9.57 4.74,21.84 2.88,28.34 -3.93,13.72 -13.61,26.15 -23.55,30.26 -5.45,2.29 -9.95,4.01 -13.92,4.01 -5.71,0 -12.37,-4.26 -19.88,-12.65 -9.93,-11.07 -17.12,-20.18 -23.45,-28.24 -27.58,-35 -40.21,-46.89 -121.993,-63.73 -16.906,-3.48 -26.637,-6.97 -32.109,-9.54 z m 91.332,-66.18 v 0 c -23.06,0 -47.35,3.17 -72.161,9.37 -7.164,1.76 -70.097,18.67 -69.254,58.88 0.782,36.82 53.301,47.65 73.083,51.71 69.512,14.32 74.002,20.03 95.612,47.45 6.4,8.13 14.37,18.25 25.25,30.42 16.42,18.38 34.44,27.69 53.57,27.69 13.27,0 24.08,-4.48 31.22,-7.42 22.85,-9.45 41.88,-32.32 49.69,-59.59 7.08,-24.7 3.68,-48.5 -9.55,-67.04 -42.74,-59.83 -104.12,-91.47 -177.46,-91.47"
         style="fill:#231f20;fill-opacity:1;fill-rule:nonzero;stroke:none"
         id="path116"
         inkscape:connector-curvature="0" /><path
         d="m 944.938,1744.81 c 0.175,-3.78 0.457,-8.58 0.777,-14.04 2.32,-38.98 6.625,-111.59 -5.035,-194.93 -8.325,-59.56 9.847,-117.63 49.855,-159.39 31.475,-32.83 72.865,-51.01 115.425,-51.13 4.88,20.07 12.76,41.19 21.23,63.91 l 3.36,9.01 c 4.32,11.62 9.37,22.85 14.73,34.75 25.98,57.75 58.3,129.56 21.05,301.9 -7.21,33.28 -24.51,52.62 -52.95,59.13 -62.28,14.27 -149.591,-32.52 -168.442,-49.21 z m 179.442,-492.84 c -10.97,0 -20.61,8 -22.31,19.18 -0.46,2.99 -0.79,6.01 -0.97,9.04 -53.11,1.45 -104.264,24.41 -143.19,64.99 -49.656,51.82 -72.242,123.59 -61.992,196.9 11.035,78.93 6.902,148.6 4.687,186.03 -0.617,10.46 -1.07,18 -1.035,23.28 0.039,6.88 0.176,25.17 59.727,55.37 20.957,10.61 62.983,29.15 108.913,33.91 76.6,7.92 127.15,-26.23 142.29,-96.24 40.4,-186.88 3.17,-269.6 -24.01,-329.98 -5.03,-11.19 -9.8,-21.77 -13.58,-31.95 l -3.36,-9.03 c -14.25,-38.17 -26.53,-71.13 -22.81,-95.48 1.89,-12.31 -6.55,-23.85 -18.91,-25.76 -1.16,-0.18 -2.31,-0.26 -3.45,-0.26"
         style="fill:#231f20;fill-opacity:1;fill-rule:nonzero;stroke:none"
         id="path118"
         inkscape:connector-curvature="0" /><path
         d="m 1069.31,1754.5 c -1.05,-7.4 13.53,-27.14 32.53,-29.77 18.98,-2.66 35.22,12.77 36.26,20.15 1.03,7.39 -13.53,15.52 -32.55,18.19 -18.99,2.63 -35.23,-1.25 -36.24,-8.57 v 0"
         style="fill:#231f20;fill-opacity:1;fill-rule:nonzero;stroke:none"
         id="path120"
         inkscape:connector-curvature="0" /><path
         d="m 1076.82,1753.01 c 0.96,-4.68 11.86,-18.85 26.06,-20.84 1.12,-0.15 2.23,-0.23 3.35,-0.23 12.77,0 22.67,9.71 24.26,13.55 -1.64,2.41 -10.35,7.92 -25.99,10.1 -3.63,0.53 -7.2,0.77 -10.65,0.77 -9.87,0 -15.41,-2.11 -17.03,-3.35 z m 29.41,-36.11 c -1.82,0 -3.64,0.11 -5.41,0.34 -11.95,1.69 -24.01,9.19 -32.26,20.11 -2.91,3.88 -7.67,11.37 -6.71,18.17 1.36,9.95 13.34,15.91 32,15.91 4.13,0 8.43,-0.3 12.73,-0.93 20.18,-2.79 40.99,-12.34 38.98,-26.65 -1.52,-10.86 -18.7,-26.95 -39.33,-26.95"
         style="fill:#231f20;fill-opacity:1;fill-rule:nonzero;stroke:none"
         id="path122"
         inkscape:connector-curvature="0" /><path
         d="m 1647.31,1769.54 c 1.02,-7.38 -13.54,-27.11 -32.54,-29.75 -19.01,-2.65 -35.25,12.74 -36.28,20.14 -1,7.41 13.55,15.53 32.55,18.2 19.01,2.65 35.24,-1.22 36.27,-8.59 v 0"
         style="fill:#231f20;fill-opacity:1;fill-rule:nonzero;stroke:none"
         id="path124"
         inkscape:connector-curvature="0" /><path
         d="m 1622.72,1775.19 c -3.61,0 -7.35,-0.26 -11.16,-0.8 -19.85,-2.76 -29.8,-10.65 -29.34,-13.94 0.61,-4.41 12.55,-17.2 28.18,-17.2 1.28,0 2.58,0.1 3.83,0.25 10.2,1.42 17.93,8.11 21.59,11.97 5.71,6.03 8.04,11.65 7.76,13.56 -0.34,2.47 -7.2,6.16 -20.86,6.16 z m -12.32,-39.46 c -18.45,-0.03 -34.34,14.37 -35.63,23.7 -1.53,11.22 16.82,19.79 35.76,22.43 4.13,0.58 8.25,0.86 12.19,0.86 16.37,0 27.25,-4.84 28.34,-12.67 0.7,-5.03 -3.14,-12.81 -9.76,-19.76 -4.36,-4.58 -13.52,-12.5 -26.03,-14.24 -1.61,-0.21 -3.24,-0.32 -4.87,-0.32"
         style="fill:#231f20;fill-opacity:1;fill-rule:nonzero;stroke:none"
         id="path126"
         inkscape:connector-curvature="0" /><path
         d="m 1674.69,1343.65 c -4.31,0 -8.7,1.25 -12.55,3.81 -10.35,6.99 -13.17,20.98 -6.21,31.37 44.15,65.93 36.02,133.39 28.18,198.61 -3.36,28.01 -6.82,56.96 -5.94,84.79 0.91,28.61 4.59,52.18 8.08,74.97 4.13,26.87 8.03,52.25 6.41,82.28 -0.64,12.47 8.88,23.11 21.37,23.78 12.44,0.67 23.1,-8.87 23.77,-21.34 1.87,-34.72 -2.61,-63.65 -6.86,-91.6 -3.3,-21.45 -6.74,-43.68 -7.54,-69.55 -0.85,-24.41 2.29,-50.41 5.59,-77.92 8.42,-69.99 17.95,-149.32 -35.54,-229.17 -4.31,-6.49 -11.49,-10.03 -18.76,-10.03"
         style="fill:#231f20;fill-opacity:1;fill-rule:nonzero;stroke:none"
         id="path128"
         inkscape:connector-curvature="0" /><path
         d="m 2142.2,2087.61 -7.42,12.43 -160.44,-95.68 c 0.9,-4.98 1.66,-10.17 2.31,-15.47 l 165.55,98.72"
         style="fill:#231f20;fill-opacity:1;fill-rule:nonzero;stroke:none"
         id="path130"
         inkscape:connector-curvature="0" /><path
         d="m 350.648,2100.81 -7.421,-12.42 142.277,-85.01 c 1.371,4.83 2.855,9.55 4.383,14.24 l -139.239,83.19"
         style="fill:#231f20;fill-opacity:1;fill-rule:nonzero;stroke:none"
         id="path132"
         inkscape:connector-curvature="0" /></g></g></svg>