<?xml version="1.0" encoding="utf-8"?>
<!-- Generator: Adobe Illustrator 16.0.0, SVG Export Plug-In . SVG Version: 6.00 Build 0)  -->
<!DOCTYPE svg PUBLIC "-//W3C//DTD SVG 1.1//EN" "http://www.w3.org/Graphics/SVG/1.1/DTD/svg11.dtd">
<svg version="1.1" id="Layer_1" xmlns="http://www.w3.org/2000/svg" xmlns:xlink="http://www.w3.org/1999/xlink" x="0px" y="0px"
	 width="274.676px" height="274.676px" viewBox="0 0 274.676 274.676" enable-background="new 0 0 274.676 274.676"
	 xml:space="preserve">
<g>
	<circle fill="#9A3820" cx="137.338" cy="137.338" r="134.338"/>
</g>
<g>
	<path fill="#FFFFFF" d="M137.337,3c74.192,0,134.339,60.145,134.339,134.338c0,74.191-60.146,134.338-134.339,134.338
		S3,211.529,3,137.338C3,63.145,63.145,3,137.337,3 M137.337,0c-36.684,0-71.172,14.286-97.112,40.225S0,100.653,0,137.338
		c0,36.684,14.286,71.172,40.225,97.112c25.939,25.939,60.428,40.226,97.112,40.226c36.684,0,71.173-14.286,97.113-40.226
		c25.939-25.94,40.226-60.429,40.226-97.112c0-36.685-14.286-71.173-40.226-97.113C208.51,14.286,174.021,0,137.337,0L137.337,0z"/>
</g>
<g>
	<polygon fill="#FFFFFF" points="181.92,196.261 198.781,212.978 196.7,214.843 	"/>
</g>
<g>
	<polygon fill="#FFFFFF" points="140.013,109.048 143.16,62.284 146.802,62.673 	"/>
</g>
<g>
	<polygon fill="#FFFFFF" points="133.252,103.395 124.688,73.061 128.263,72.275 	"/>
</g>
<g>
	<polygon fill-rule="evenodd" clip-rule="evenodd" fill="#FF8300" points="159.052,206.989 181.533,214.489 184.994,200.451 
		213.062,204.842 191.994,181.451 228.957,181.312 204.153,162.748 237.329,160.451 205.423,147.051 253.324,130.517 
		203.996,126.45 218.328,112.784 199.328,109.118 212.663,83.784 171.996,89.118 164.014,75.121 141.259,108.464 120.403,58.944 
		113.996,84.451 86.774,71.173 93.329,105.118 55.502,97.089 76.688,122.777 47.516,123.842 74.81,139.265 21.24,145.205 
		68.029,155.988 39.259,176.202 73.995,181.118 60.328,200.784 82.995,196.784 88.653,221.31 108.504,204.126 116.663,219.117 
		129.507,209.376 147.329,223.117 	"/>
</g>
<g>
	<g>
		<path fill="#FFFFFF" d="M82.944,229.134c-4.812,0-6.091-2.182-7.163-4.817c-1.15-2.829-2.277-5.851-3.054-7.984
			c-2.671-1.206-3.736-3.389-2.852-5.894c0.844-2.39,2.813-5.583,4.788-7.766c0.156-0.172,0.326-0.338,0.518-0.505
			c1.45-4.854,5.036-8.274,8.981-8.539c3.69-0.233,7.398,2.326,9.558,6.473h2.771c2.285-3.969,6.245-6.606,9.978-6.606
			c0.746,0,1.475,0.104,2.166,0.308c2.605,0.775,4.777,3.11,5.889,6.299h3.165c2.18-4.797,6.775-7.893,10.872-7.212
			c2.896,0.493,5.436,2.832,6.826,6.273c0.339,0.281,0.659,0.596,0.956,0.938h2.591c2.381-4.519,6.855-7.317,10.779-6.631
			c2.842,0.482,5.396,2.753,6.856,6.088c0.175,0.169,0.345,0.349,0.514,0.543h1.186c0.161-0.47,0.346-0.925,0.55-1.358
			c1.359-2.86,3.592-4.81,6.125-5.351c4.081-0.88,8.685,2.013,11.064,6.709h2.891c2.351-4.358,6.387-7.256,10.163-7.256
			c0.571,0,1.135,0.064,1.675,0.192c3.047,0.718,5.603,3.61,6.739,7.595c1.33,0.449,2.417,1.134,3.236,2.04
			c1.976,2.185,3.944,5.378,4.787,7.766c0.406,1.146,0.392,2.179-0.043,3.065c-0.487,0.995-1.502,1.782-3.019,2.34l-0.147,0.386
			c-0.278,1.159-0.762,2.346-1.409,3.437c-0.134,0.32-0.314,0.714-0.491,1.086c-0.253,0.53-0.476,1.045-0.688,1.537
			c-0.911,2.11-1.699,3.934-3.897,4.756c-0.997,0.371-2.258,0.552-3.854,0.552c-0.001,0-0.001,0-0.001,0
			c-1.343,0-2.678-0.124-3.856-0.233c-0.339-0.032-0.661-0.062-0.96-0.086c-2.316-0.188-3.031-0.646-3.23-0.833l-0.186-0.175
			l-0.041-0.252c-0.001-0.006-0.096-0.592-0.368-1.713c-0.181-0.741-0.407-0.854-1.091-0.854l-0.312,0.005
			c-0.174,0-0.34-0.007-0.499-0.013c-0.554-0.026-0.938-0.12-1.44,0.495c-0.786,0.959-1.32,2.105-1.325,2.117l-0.062,0.108
			c-0.623,0.912-1.068,0.976-3.209,1.28l-0.558,0.08c-1.471,0.273-3.155,0.415-4.976,0.415c-1.511,0-3.032-0.1-4.4-0.288
			c-2.315-0.319-2.654-0.581-2.856-0.891l-0.187-0.285l0.037-0.163c-0.107-0.451-0.413-1.707-0.631-2.312
			c-0.05-0.137-0.082-0.173-0.083-0.174c-0.084-0.044-0.489-0.058-0.848-0.07l-0.487-0.019c-0.242-0.012-0.456-0.028-0.648-0.043
			c-0.208-0.017-0.388-0.031-0.548-0.031c-0.262,0-0.394,0-0.725,0.459c-0.662,0.925-1.174,2.172-1.179,2.185l-0.097,0.169
			c-0.787,1.041-2.482,1.217-4.123,1.387c-0.471,0.049-0.932,0.097-1.345,0.165c-0.483,0.08-1.119,0.119-1.943,0.119
			c-1.264,0-2.745-0.092-4.053-0.173c-0.607-0.037-1.173-0.072-1.652-0.094c-2.288-0.107-2.892-0.862-3.045-1.183l-0.045-0.119
			c-0.001-0.002-0.25-0.882-0.533-1.824c-0.205-0.681-0.341-0.687-0.706-0.701c-0.71-0.029-1.577-0.029-2.441,0
			c-0.339,0.107-0.979,1.452-1.288,2.098c-0.107,0.227-0.213,0.447-0.315,0.651c-0.465,0.827-1.795,1.576-8.435,1.677
			c-6.099,0.097-7.637-1.019-7.876-1.234l-0.196-0.177l-0.042-0.261c-0.002-0.014-0.212-1.305-0.608-2.182
			c-0.133-0.294-0.354-0.559-1.582-0.559c-0.204,0-0.419,0.007-0.645,0.017c-1.269,0.057-1.375,0.284-1.63,0.834
			c-0.39,0.842-0.79,1.976-0.794,1.987c-0.503,1.211-2.112,1.531-8.215,1.671c-4.999,0.114-7.054-0.48-7.537-0.652l-0.044-0.016
			c-0.611-0.16-0.785-0.74-1.003-1.466c-0.082-0.274-0.184-0.613-0.327-1.024c-0.359-1.026-0.603-1.206-1.631-1.206l-0.417,0.004
			l-0.779-0.01c-0.505,0-0.57,0-0.85,0.591c-0.455,0.955-0.878,2.336-1.039,2.885l-0.125,0.426l-0.433,0.095
			c-0.972,0.213-3.664,0.728-7.676,0.911C83.508,229.127,83.22,229.134,82.944,229.134z M84.661,195.107
			c-0.134,0-0.266,0.005-0.4,0.014c-3.321,0.222-6.491,3.379-7.706,7.676l-0.064,0.227l-0.182,0.149
			c-0.186,0.151-0.37,0.317-0.539,0.504c-1.826,2.018-3.712,5.071-4.486,7.26c-0.657,1.861,0.122,3.255,2.315,4.144l0.308,0.125
			l0.114,0.312c0.773,2.132,1.947,5.291,3.145,8.236c1.047,2.574,2.005,4.076,6.578,3.865c3.41-0.155,5.821-0.554,6.997-0.788
			c0.219-0.708,0.59-1.828,0.994-2.676c0.573-1.208,1.24-1.444,2.2-1.444l0.779,0.01l0.417-0.004c1.676,0,2.473,0.578,3.042,2.208
			c0.152,0.437,0.26,0.797,0.348,1.088c0.057,0.188,0.119,0.396,0.166,0.521c0.425,0.14,2.336,0.659,6.952,0.549
			c1.592-0.037,6.438-0.147,6.858-0.72c-0.002-0.002,0.408-1.165,0.829-2.074c0.563-1.211,1.273-1.624,2.921-1.698
			c0.25-0.01,0.486-0.017,0.71-0.017c1.135,0,2.374,0.171,2.944,1.438c0.343,0.758,0.56,1.709,0.659,2.212
			c0.512,0.233,2.258,0.83,6.679,0.762c6.286-0.096,7.079-0.818,7.149-0.9c0.071-0.148,0.172-0.36,0.275-0.576
			c0.682-1.43,1.387-2.908,2.586-2.949c0.904-0.031,1.811-0.031,2.555,0c1.097,0.046,1.717,0.574,2.075,1.766
			c0.211,0.701,0.403,1.369,0.49,1.673c0.145,0.099,0.608,0.335,1.77,0.389c0.485,0.022,1.06,0.058,1.677,0.096
			c2.061,0.129,4.604,0.247,5.658,0.071c0.44-0.073,0.933-0.125,1.437-0.177c1.152-0.12,2.576-0.268,3.035-0.745
			c0.151-0.354,0.651-1.472,1.303-2.381c0.562-0.779,1.104-1.082,1.938-1.082c0.194,0,0.411,0.016,0.664,0.035
			c0.179,0.015,0.377,0.03,0.602,0.04l0.47,0.019c1.042,0.036,1.864,0.065,2.285,1.231c0.227,0.629,0.517,1.795,0.649,2.346
			c0.24,0.07,0.751,0.188,1.785,0.331c2.837,0.39,6.358,0.355,8.929-0.121l0.59-0.085c1.847-0.264,1.93-0.275,2.153-0.597
			c0.131-0.272,0.691-1.394,1.496-2.376c0.76-0.93,1.55-1.055,2.222-1.055c0.141,0,0.286,0.006,0.436,0.012
			c0.141,0.006,0.287,0.012,0.439,0.012l0.312-0.004c1.422,0,2.206,0.615,2.543,1.994c0.163,0.67,0.266,1.157,0.324,1.46
			c0.271,0.094,0.913,0.273,2.171,0.376c0.305,0.025,0.632,0.056,0.977,0.088c1.146,0.105,2.444,0.227,3.718,0.227h0.001
			c1.416,0,2.506-0.149,3.332-0.457c1.602-0.599,2.208-2.004,3.048-3.948c0.219-0.508,0.448-1.04,0.71-1.588
			c0.171-0.357,0.344-0.737,0.514-1.124c0.614-1.045,1.042-2.095,1.313-3.202l0.422-1.127l0.34-0.112
			c1.31-0.433,2.146-1.003,2.485-1.697c0.254-0.52,0.246-1.144-0.024-1.908c-0.772-2.188-2.659-5.241-4.487-7.263
			c-0.712-0.787-1.705-1.371-2.95-1.734l-0.409-0.119l-0.105-0.413c-0.937-3.651-3.138-6.302-5.744-6.915
			c-0.429-0.102-0.877-0.153-1.332-0.153c-3.343,0-6.977,2.751-9.043,6.846l-0.207,0.41h-4.746l-0.201-0.431
			c-1.995-4.268-6.104-7.069-9.606-6.311c-2.078,0.442-3.932,2.094-5.089,4.528c-0.248,0.526-0.464,1.092-0.64,1.681l-0.159,0.532
			h-2.992l-0.225-0.277c-0.238-0.294-0.473-0.548-0.719-0.775l-0.117-0.108l-0.062-0.147c-1.248-2.942-3.414-4.939-5.794-5.343
			c-3.443-0.597-7.361,2.056-9.396,6.231l-0.205,0.42h-4.228l-0.225-0.281c-0.333-0.419-0.705-0.791-1.105-1.105l-0.161-0.127
			l-0.074-0.191c-1.181-3.049-3.332-5.114-5.754-5.527c-0.316-0.052-0.643-0.079-0.969-0.079c-3.269,0-6.833,2.881-8.473,6.85
			l-0.191,0.462h-5.251l-0.161-0.53c-0.902-2.977-2.792-5.156-5.056-5.829c-0.552-0.164-1.138-0.247-1.74-0.247
			c-3.319,0-6.888,2.497-8.879,6.213l-0.211,0.394H92.79l-0.204-0.422C90.808,197.488,87.697,195.107,84.661,195.107z"/>
	</g>
	<g>
		<g>
			<path fill="#9A3820" d="M72.742,214.04c0,0,1.802,5.129,3.731,9.87c1.17,2.878,2.402,4.551,7.304,4.331
				c4.101-0.185,6.784-0.723,7.55-0.894c0.154-0.527,0.596-1.976,1.081-2.995c0.6-1.266,1.075-0.98,2.56-1.012
				c1.487-0.032,2.024,0.347,2.498,1.706c0.475,1.361,0.507,1.962,0.854,2.024c0.023,0.006,0.043,0.014,0.064,0.023
				c0.361,0.128,2.323,0.722,7.27,0.609c5.535-0.126,7.21-0.411,7.527-1.17c0,0,0.411-1.169,0.821-2.053
				c0.411-0.888,0.822-1.204,2.276-1.266c1.454-0.063,2.497,0,2.939,0.979c0.444,0.979,0.666,2.37,0.666,2.37
				s1.265,1.139,7.365,1.045c6.103-0.096,7.493-0.76,7.778-1.265c0.633-1.264,1.359-3.13,2.246-3.162
				c0.885-0.031,1.771-0.031,2.498,0c0.727,0.032,1.105,0.285,1.391,1.231c0.285,0.95,0.536,1.834,0.536,1.834
				s0.317,0.664,2.404,0.76c2.085,0.096,5.786,0.441,7.492,0.159c1.708-0.285,4.206-0.221,4.995-1.265c0,0,0.539-1.33,1.265-2.342
				c0.728-1.013,1.171-0.759,2.562-0.695c1.392,0.063,1.802-0.031,2.087,0.76c0.285,0.789,0.695,2.561,0.695,2.561
				s0,0.003-0.002,0.005c-0.011,0.038,0.019,0.276,2.342,0.597c2.529,0.348,6.102,0.441,9.168-0.126
				c2.625-0.381,2.782-0.349,3.256-1.046c0,0,0.57-1.232,1.425-2.275c0.854-1.043,1.611-0.728,2.688-0.759
				c1.074-0.033,1.674,0.253,1.96,1.423c0.284,1.169,0.38,1.771,0.38,1.771s0.474,0.443,2.78,0.633
				c2.31,0.189,5.977,0.696,8.349-0.189c2.371-0.888,2.876-3.193,4.172-5.914c1.296-2.719,2.688-6.644,2.688-6.644L72.742,214.04z"
				/>
		</g>
		<g>
			<path fill="#FF8300" d="M163.195,226.191c0.002-0.002,0.002-0.005,0.002-0.005S163.197,226.189,163.195,226.191z"/>
		</g>
	</g>
	<g>
		<g>
			<path fill="#9A3820" d="M204.793,210.564c-0.758-2.148-2.613-5.278-4.637-7.515c-2.022-2.236-5.395-2.326-5.395-2.326H80.612
				c0,0-3.372,0.09-5.396,2.326s-3.878,5.366-4.637,7.515c-0.758,2.146-0.253,5.276,6.829,5.994h34.752
				c0.144-0.043,0.304-0.068,0.481-0.074c1.308-0.042,2.572-0.253,3.164-1.055c0.589-0.802,2.901-1.178,4.13-0.084
				c0.739,0.658,0.6,1.184,2.691,1.213h10.672c0,0,10.287,0.007,22.695-0.033c0.105-0.021,0.22-0.037,0.344-0.041
				c1.306-0.042,2.571-0.253,3.162-1.055s2.901-1.178,4.13-0.084c0.592,0.527,0.621,0.972,1.686,1.139
				c14.521-0.079,29.209-0.245,32.566-0.583C204.963,215.187,205.554,212.711,204.793,210.564z"/>
		</g>
	</g>
	<g>
		<path fill="#9A3820" d="M75.587,209.449c0,0-2.58,0.593-2.993,2.656c-0.252,1.267,1.265,3.288,4.89,3.627
			c3.625,0.337,5.144-0.717,7.292-0.505c2.151,0.208,6.577,0.293,8.518-0.212c1.937-0.508,1.727-0.677,3.624-0.168
			c1.897,0.507,4.848,0.38,9.527,0.295c4.68-0.083,7.124,0,8.98-0.759c1.854-0.759,3.415-0.338,5.1,0.083
			c1.687,0.422,7.082,0.549,11.213,0.549s5.648-0.346,6.239-0.597c0.591-0.254,0.703-0.011,1.308,0.175
			c1.517,0.466,6.492,0.8,9.905,0.761c3.416-0.043,7.043-0.381,9.527-1.016c2.487-0.63,2.993-0.714,5.142-0.039
			c2.152,0.674,9.15,0.76,12.944,0.716c3.793-0.042,6.196-1.517,8.221-1.182c2.024,0.337,7.586,0.929,12.771,0.886
			c5.187-0.041,5.354-2.53,4.723-3.962c-0.634-1.434-3.5-3.202-9.401-3.752c-5.902-0.548-9.148-0.337-12.393,1.308
			c-3.247,1.642-3.712,0.674-7.927,0.127c-4.216-0.549-9.736-1.477-12.729,0.125c-2.994,1.602-2.109,1.012-4.005-0.041
			c-1.898-1.054-14.629-1.222-17.115,0.168c-2.487,1.392-2.024,1.263-4.554-0.423c-2.529-1.685-12.396-0.566-15.849,0.508
			c-1.897,0.589-1.983,0.547-4.385-0.508c-2.404-1.054-14.965,0.211-17.453,1.308c-2.487,1.096-4.468-1.559-4.468-1.559
			L75.587,209.449z"/>
	</g>
	<g>
		<defs>
			<path id="SVGID_1_" d="M75.292,205.777L76.599,207c0,0,14.249,0.336,17.748-1.559c0.656-0.357,1.18-11.005-6.872-11.888
				C79.425,192.664,74.915,199.96,75.292,205.777z"/>
		</defs>
		<clipPath id="SVGID_2_">
			<use xlink:href="#SVGID_1_"  overflow="visible"/>
		</clipPath>
		<g clip-path="url(#SVGID_2_)">
			<g>
				<g>
					<g>
						<path fill="#FFC289" d="M94.293,206.027c0.404,6.05-3.645,10.691-8.658,11.026c-5.013,0.334-9.53-3.814-9.935-9.863
							c-0.403-6.051,3.523-12.232,8.536-12.565C89.25,194.289,93.891,199.978,94.293,206.027z"/>
					</g>
					<g>
						<path fill="#9A3820" d="M85.072,217.446c-5.165,0-9.353-4.398-9.744-10.23c-0.2-3.005,0.638-6.16,2.299-8.659
							c1.709-2.571,4.109-4.14,6.585-4.305c5.076-0.343,10.024,5.293,10.455,11.751c0.403,6.041-3.553,11.06-9.006,11.424
							C85.463,217.439,85.267,217.446,85.072,217.446z M84.661,194.984c-0.132,0-0.266,0.005-0.399,0.014
							c-2.242,0.148-4.433,1.597-6.012,3.973c-1.572,2.364-2.365,5.352-2.175,8.195c0.377,5.638,4.549,9.835,9.537,9.515
							c5.035-0.336,8.685-5.005,8.31-10.629C93.528,200.156,89.201,194.984,84.661,194.984z"/>
					</g>
				</g>
				<g>
					<g>
						<path fill="none" d="M75.681,205.909c0.027-0.835,0.131-1.664,0.304-2.473C75.816,204.098,75.639,205.015,75.681,205.909z"/>
					</g>
				</g>
			</g>
		</g>
	</g>
	<g>
		<defs>
			<path id="SVGID_3_" d="M95.273,205.312c0,0,0.423-0.041,1.475,0.423c1.056,0.464,1.33,0.56,2.857,0.701
				c1.527,0.144,11.898,0.312,14.765-0.532c0.042-7.799-2.782-14.374-8.937-13.913C99.279,192.456,95.316,200.171,95.273,205.312z"
				/>
		</defs>
		<clipPath id="SVGID_4_">
			<use xlink:href="#SVGID_3_"  overflow="visible"/>
		</clipPath>
		<g clip-path="url(#SVGID_4_)">
			<g>
				<g>
					<g>
						<path fill="#FFC289" d="M113.642,208.596c-1.684,5.668-6.961,8.537-11.658,7.144c-4.698-1.397-7.419-6.72-5.736-12.391
							c1.684-5.669,7.373-9.99,12.069-8.593C113.015,196.15,115.326,202.926,113.642,208.596z"/>
					</g>
					<g>
						<path fill="#9A3820" d="M104.385,216.461c-0.85,0-1.694-0.122-2.508-0.363c-5.052-1.503-7.682-7.149-5.988-12.855
							c1.52-5.116,6.167-9.125,10.579-9.125c0.672,0,1.331,0.095,1.955,0.28c2.317,0.688,4.249,2.709,5.299,5.545
							c1.015,2.741,1.116,5.934,0.277,8.76C112.622,213.343,108.757,216.461,104.385,216.461z M106.469,194.865
							c-4.1,0-8.432,3.772-9.862,8.59c-1.575,5.304,0.834,10.543,5.484,11.926c0.745,0.221,1.517,0.333,2.295,0.333
							c4.039,0,7.615-2.903,8.898-7.225c0.794-2.674,0.699-5.694-0.261-8.287c-0.968-2.613-2.722-4.468-4.812-5.088
							C107.655,194.948,107.069,194.865,106.469,194.865z"/>
					</g>
				</g>
			</g>
		</g>
	</g>
	<g>
		<defs>
			<path id="SVGID_5_" d="M137.768,205.312c0,0,0.42-0.041,1.475,0.423c1.056,0.464,1.329,0.56,2.857,0.701
				c1.527,0.144,11.897,0.312,14.763-0.532c0.043-7.799-2.782-14.374-8.936-13.913C141.772,192.456,137.809,200.171,137.768,205.312
				z"/>
		</defs>
		<clipPath id="SVGID_6_">
			<use xlink:href="#SVGID_5_"  overflow="visible"/>
		</clipPath>
		<g clip-path="url(#SVGID_6_)">
			<g>
				<g>
					<g>
						<path fill="#FFC289" d="M156.478,207.548c-0.989,5.833-5.883,9.315-10.712,8.498c-4.834-0.82-8.18-5.779-7.19-11.609
							c0.989-5.832,6.116-10.806,10.947-9.985C154.354,195.271,157.465,201.72,156.478,207.548z"/>
					</g>
					<g>
						<path fill="#9A3820" d="M147.172,216.538c-0.49,0-0.984-0.042-1.469-0.124c-5.199-0.882-8.492-6.171-7.496-12.04
							c0.955-5.63,5.65-10.386,10.254-10.386c0.378,0,0.756,0.032,1.124,0.095c4.86,0.824,8.32,7.271,7.261,13.527
							C155.969,212.783,151.9,216.538,147.172,216.538z M148.461,194.736c-4.262,0-8.619,4.471-9.518,9.763
							c-0.926,5.456,2.099,10.366,6.885,11.179c0.443,0.074,0.896,0.112,1.344,0.112c4.362,0,8.121-3.492,8.938-8.305
							c0.994-5.87-2.175-11.907-6.649-12.666C149.133,194.764,148.797,194.736,148.461,194.736z"/>
					</g>
				</g>
				<g>
					<g>
						<path fill="none" d="M138.846,203.217c0.217-0.787,0.501-1.55,0.852-2.276C139.386,201.526,139.01,202.358,138.846,203.217z"
							/>
					</g>
				</g>
			</g>
		</g>
	</g>
	<g>
		<defs>
			<path id="SVGID_7_" d="M116.942,205.312c0,0,2.192,1.181,4.216,1.181c2.023,0,7.082-0.463,8.895-0.547
				c1.813-0.084,3.087,0.294,4.342,0c0.717-0.168,1.138-0.421,1.433-0.592c0.298-0.168,1.519-13.193-8.135-13.363
				C118.038,191.823,116.521,197.852,116.942,205.312z"/>
		</defs>
		<clipPath id="SVGID_8_">
			<use xlink:href="#SVGID_7_"  overflow="visible"/>
		</clipPath>
		<g clip-path="url(#SVGID_8_)">
			<g>
				<g>
					<g>
						<path fill="#FFC289" d="M135.122,206.597c-0.961,5.661-5.715,9.043-10.407,8.246c-4.69-0.797-7.938-5.615-6.976-11.277
							c0.963-5.662,5.944-10.491,10.636-9.69C133.065,194.67,136.085,200.935,135.122,206.597z"/>
					</g>
					<g>
						<path fill="#9A3820" d="M126.086,215.332c-0.479,0-0.96-0.041-1.433-0.121c-5.053-0.858-8.251-6.001-7.282-11.708
							c0.93-5.469,5.495-10.089,9.968-10.089c0.37,0,0.739,0.031,1.099,0.093c2.317,0.393,4.417,2.117,5.763,4.732
							c1.3,2.527,1.77,5.596,1.289,8.42C134.638,211.685,130.682,215.332,126.086,215.332z M127.339,194.161
							c-4.131,0-8.358,4.336-9.231,9.467c-0.899,5.294,2.03,10.059,6.67,10.847c0.431,0.073,0.872,0.11,1.308,0.11
							c4.23,0,7.876-3.386,8.668-8.051c0.453-2.668,0.01-5.566-1.218-7.952c-1.236-2.404-3.141-3.985-5.224-4.339
							C127.994,194.189,127.666,194.161,127.339,194.161z"/>
					</g>
				</g>
				<g>
					<g>
						<path fill="none" d="M118.002,202.38c0.209-0.764,0.489-1.504,0.827-2.209C118.526,200.741,118.164,201.549,118.002,202.38z"
							/>
					</g>
				</g>
			</g>
		</g>
	</g>
	<g>
		<defs>
			<path id="SVGID_9_" d="M158.17,205.028c0,0,1.402,0.631,2.825,1.012c1.422,0.378,3.023,0.633,7.893-0.062
				c4.902-0.697,5.597-0.759,6.608-1.108c1.013-0.349,1.896-4.425,0.694-7.586c-1.199-3.163-6.132-5.407-11.096-4.428
				C160.131,193.836,158.013,200.633,158.17,205.028z"/>
		</defs>
		<clipPath id="SVGID_10_">
			<use xlink:href="#SVGID_9_"  overflow="visible"/>
		</clipPath>
		<g clip-path="url(#SVGID_10_)">
			<g>
				<g>
					<g>
						<path fill="#FFC289" d="M176.149,203.693c1.198,5.617-1.969,10.515-6.624,11.508c-4.652,0.991-9.45-2.284-10.649-7.898
							c-1.196-5.617,1.647-11.945,6.3-12.938C169.829,193.37,174.951,198.076,176.149,203.693z"/>
					</g>
					<g>
						<path fill="#9A3820" d="M167.859,215.751c-4.452,0-8.296-3.442-9.349-8.37c-1.277-5.996,1.862-12.374,6.587-13.381
							c0.44-0.095,0.896-0.143,1.353-0.143c4.402,0,8.917,4.378,10.064,9.758c1.199,5.619-1.837,10.869-6.911,11.951
							C169.03,215.688,168.443,215.751,167.859,215.751z M166.45,194.605c-0.404,0-0.808,0.042-1.196,0.125
							c-4.342,0.926-7.208,6.882-6.013,12.494c0.979,4.58,4.522,7.778,8.618,7.778c0.531,0,1.066-0.056,1.588-0.167
							c4.664-0.995,7.448-5.855,6.337-11.064C174.724,198.803,170.45,194.605,166.45,194.605z"/>
					</g>
				</g>
				<g>
					<g>
						<path fill="none" d="M158.684,206.103c-0.088-0.786-0.103-1.578-0.048-2.359C158.562,204.387,158.526,205.271,158.684,206.103
							z"/>
					</g>
				</g>
			</g>
		</g>
	</g>
	<g>
		<defs>
			<path id="SVGID_11_" d="M176.93,204.808c0,0,4.384,0.757,7.672,1.601s11.129,3.204,12.562-4.216
				c1.435-7.421-3.159-11.804-11.297-11.128C177.731,191.74,176.045,200.171,176.93,204.808z"/>
		</defs>
		<clipPath id="SVGID_12_">
			<use xlink:href="#SVGID_11_"  overflow="visible"/>
		</clipPath>
		<g clip-path="url(#SVGID_12_)">
			<g>
				<g>
					<g>
						<path fill="#FFC289" d="M196.57,208.606c-1.479,6.276-6.777,9.794-11.668,8.642c-4.892-1.152-7.928-6.718-6.449-12.996
							s7.134-11.398,12.024-10.248C195.369,195.156,198.049,202.328,196.57,208.606z"/>
					</g>
					<g>
						<path fill="#9A3820" d="M186.771,217.839c-0.658,0-1.315-0.076-1.955-0.228c-5.256-1.237-8.211-7.144-6.727-13.445
							c1.389-5.899,6.311-10.698,10.971-10.698c0.511,0,1.017,0.058,1.503,0.172c4.916,1.159,7.953,8.333,6.37,15.053
							C195.665,214.077,191.486,217.839,186.771,217.839z M189.061,194.215c-4.334,0-8.93,4.541-10.244,10.123
							c-1.388,5.894,1.323,11.404,6.172,12.547c0.583,0.137,1.183,0.207,1.783,0.207c4.366,0,8.246-3.524,9.436-8.571
							c1.492-6.339-1.279-13.084-5.815-14.153C189.962,194.267,189.514,194.215,189.061,194.215z"/>
					</g>
				</g>
				<g>
					<g>
						<path fill="none" d="M178.829,202.941c0.281-0.841,0.636-1.655,1.053-2.426C179.514,201.138,179.064,202.021,178.829,202.941z
							"/>
					</g>
				</g>
			</g>
		</g>
	</g>
	<g>
		<g opacity="0.5">
			<path fill="#AD998B" d="M159.277,208.983c-2.052,1.061-1.509,0.486-3.214-0.459c-1.898-1.054-14.629-1.222-17.115,0.168
				c-2.487,1.392-2.024,1.263-4.554-0.423c-2.529-1.685-12.396-0.566-15.849,0.508c-0.254,0.078-0.475,0.146-0.673,0.2
				c-0.145,1.22-0.297,3.456,0.254,5.014c0.802,0.07,1.585,0.272,2.399,0.476c1.687,0.422,7.082,0.549,11.213,0.549
				s5.648-0.346,6.239-0.597c0.591-0.254,0.703-0.011,1.308,0.175c1.517,0.466,6.492,0.8,9.905,0.761
				c3.416-0.043,7.043-0.381,9.527-1.016c0.256-0.063,0.49-0.122,0.706-0.176C159.776,212.538,159.502,210.312,159.277,208.983z"/>
		</g>
		<g opacity="0.5">
			<path fill="#AD998B" d="M202.519,210.758c-0.634-1.434-3.5-3.202-9.401-3.752c-5.902-0.548-9.148-0.337-12.393,1.308
				c-3.247,1.642-3.712,0.674-7.927,0.127c-3.632-0.474-7.842-1.287-10.96-0.464c-0.633,1.582-0.736,3.902-0.52,5.855
				c0.743-0.031,1.419,0.112,2.541,0.468c2.152,0.674,9.15,0.76,12.944,0.716c3.793-0.042,6.196-1.517,8.221-1.182
				c2.024,0.337,7.586,0.929,12.771,0.886C202.982,214.679,203.15,212.189,202.519,210.758z"/>
		</g>
	</g>
	<g>
		<g>
			<path fill="#FF9D42" d="M97.367,212.202c0.211-1.543,0.942-3.003,0.942-3.003l2.435,0.369l2.762-0.894l3.328,1.299l3.412-1.101
				l2.191,1.219l1.786-0.082c0,0,0.858-0.735,0.65,0.811c-0.569,4.223-7.713,2.735-9.743,2.818c-2.03,0.08-6.658,0.349-6.901-0.301
				C97.985,212.688,97.146,213.809,97.367,212.202z"/>
		</g>
		<g>
			<path fill="#9A3820" d="M109.312,214.2c-0.931,0-1.821-0.062-2.606-0.118c-0.552-0.039-1.031-0.073-1.392-0.073l-0.812,0.03
				c-0.948,0.041-2.246,0.097-3.396,0.097c-2.491,0-3.07-0.244-3.228-0.667c-0.007,0.015-0.042,0.019-0.077,0.022
				c-0.277,0.028-0.508-0.021-0.66-0.193c-0.186-0.214-0.229-0.546-0.146-1.146c0.217-1.586,0.947-3.058,0.979-3.119l0.122-0.243
				l2.616,0.396l2.805-0.907l3.328,1.299l3.439-1.109l2.241,1.246l1.566-0.072c0.22-0.147,0.726-0.262,0.979,0.026
				c0.2,0.229,0.253,0.6,0.173,1.202C114.794,214.2,110.667,214.2,109.312,214.2z M105.313,213.262c0.375,0,0.872,0.034,1.444,0.075
				c0.773,0.055,1.649,0.116,2.554,0.116c3.294,0,4.944-0.853,5.191-2.683c0.036-0.27,0.033-0.429,0.022-0.519
				c-0.023,0.015-0.045,0.03-0.059,0.042l-0.098,0.083l-2.02,0.093l-2.142-1.191l-3.384,1.092l-3.328-1.299l-2.719,0.88
				l-2.245-0.341c-0.208,0.468-0.643,1.542-0.793,2.643c-0.037,0.268-0.037,0.417-0.03,0.497c0.006-0.001,0.012-0.002,0.018-0.002
				c0.385-0.041,0.719,0.1,0.854,0.459c0.014-0.012,0.371,0.182,2.527,0.182c1.134,0,2.422-0.056,3.363-0.097L105.313,213.262z"/>
		</g>
	</g>
	<g>
		<defs>
			<path id="SVGID_13_" d="M74.407,214.84c0,0,2.909,1.686,7.42,0.675c3.119-0.715,3.836,0,6.913-0.127
				c3.078-0.126,4.172-0.126,5.692-0.718c1.517-0.588,2.149-13.151-6.534-15.723C79.212,196.377,69.475,209.57,74.407,214.84z"/>
		</defs>
		<clipPath id="SVGID_14_">
			<use xlink:href="#SVGID_13_"  overflow="visible"/>
		</clipPath>
		<g clip-path="url(#SVGID_14_)">
			<g>
				<g>
					<g>
						<path fill="#FFC289" d="M94.263,212.184c0,6.449-4.627,11.086-9.971,11.086c-5.342,0-9.842-4.722-9.842-11.171
							c0-6.447,4.605-12.73,9.948-12.73S94.263,205.734,94.263,212.184z"/>
					</g>
					<g>
						<path fill="#9A3820" d="M84.292,223.644c-5.729,0-10.216-5.071-10.216-11.545c0-6.858,4.919-13.104,10.322-13.104
							c5.359,0,10.239,6.287,10.239,13.189C94.636,218.609,90.092,223.644,84.292,223.644z M84.397,199.742
							c-5.011,0-9.575,5.89-9.575,12.356c0,6.055,4.159,10.797,9.469,10.797c5.382,0,9.598-4.705,9.598-10.712
							C93.889,205.672,89.365,199.742,84.397,199.742z"/>
					</g>
				</g>
				<g>
					<g>
						<path fill="none" d="M74.518,210.739c0.088-0.887,0.259-1.758,0.501-2.604C74.789,208.828,74.537,209.786,74.518,210.739z"/>
					</g>
				</g>
			</g>
		</g>
	</g>
	<g>
		<defs>
			<path id="SVGID_15_" d="M96.918,214.848c0,0,4.027,0.582,8.767,0.33c4.618-0.253,7.969-0.007,9.74-0.794
				c1.074-3.95-0.254-16.341-9.55-16.532C96.581,197.662,95.231,211.166,96.918,214.848z"/>
		</defs>
		<clipPath id="SVGID_16_">
			<use xlink:href="#SVGID_15_"  overflow="visible"/>
		</clipPath>
		<g clip-path="url(#SVGID_16_)">
			<g>
				<g>
					<g>
						<path fill="#FFC289" d="M115.381,212.264c-0.642,6.03-4.333,10.431-9.355,10.438c-5.024,0.009-9.006-4.601-9.016-10.662
							l0.083-1.543l1.784,1.786l2.923-1.055l3.492,1.947l4.709-1.622l3.002,0.649l2.274-1.868
							C115.278,210.334,115.44,211.712,115.381,212.264z"/>
					</g>
					<g>
						<path fill="#9A3820" d="M106.011,223.075c-5.247,0-9.365-4.848-9.375-11.035l0.128-2.401l2.209,2.212l2.86-1.032l3.495,1.948
							l4.65-1.602l2.928,0.634l2.663-2.188l0.08,0.679c0.017,0.146,0.166,1.437,0.103,2.014c-0.674,6.335-4.674,10.765-9.727,10.771
							H106.011z M97.421,211.354l-0.038,0.706c0.01,5.748,3.8,10.268,8.628,10.268v0.374l0.014-0.374
							c4.731-0.006,8.342-4.066,8.984-10.104c0.027-0.251,0-0.732-0.034-1.157l-1.874,1.539l-3.077-0.665l-4.769,1.643l-3.489-1.946
							l-2.987,1.078L97.421,211.354z"/>
					</g>
				</g>
				<g>
					<g>
						<path fill="none" d="M96.814,210.935c0.081-0.833,0.24-1.653,0.468-2.448C97.068,209.136,96.833,210.042,96.814,210.935z"/>
					</g>
				</g>
			</g>
		</g>
	</g>
	<g>
		<defs>
			<path id="SVGID_17_" d="M116.605,214.427c0.025,0.641,1.139-0.742,1.728-0.514c2.193,0.843,6.703,1.138,10.118,1.096
				c3.415-0.041,7.039-0.035,9.526-0.67c0.101-0.023,0.196-0.047,0.29-0.072c0,0,2.704-15.995-8.342-16.415
				C118.881,197.428,116.354,207.814,116.605,214.427z"/>
		</defs>
		<clipPath id="SVGID_18_">
			<use xlink:href="#SVGID_17_"  overflow="visible"/>
		</clipPath>
		<g clip-path="url(#SVGID_18_)">
			<g>
				<g>
					<path fill="#FFC289" d="M137.912,211.078c0.961,6.378-2.925,11.652-8.208,12.447c-5.282,0.796-10.438-3.204-11.397-9.581
						c-0.96-6.376,2.658-13.272,7.941-14.068C131.532,199.081,136.952,204.701,137.912,211.078z"/>
				</g>
				<g>
					<path fill="#9A3820" d="M128.365,224c-5.171,0-9.557-4.206-10.428-10c-1.021-6.78,2.914-13.688,8.255-14.493
						c0.351-0.053,0.709-0.08,1.067-0.08c5.028,0,10.077,5.311,11.022,11.596c0.471,3.123-0.177,6.171-1.823,8.584
						c-1.609,2.357-3.988,3.881-6.699,4.288C129.298,223.965,128.829,224,128.365,224z M127.259,200.175
						c-0.32,0-0.642,0.023-0.956,0.07c-4.955,0.747-8.59,7.25-7.627,13.644c0.816,5.426,4.891,9.363,9.689,9.363
						c0.427,0,0.858-0.032,1.283-0.096c2.503-0.377,4.703-1.787,6.193-3.972c1.54-2.256,2.145-5.115,1.702-8.051
						C136.648,205.193,131.939,200.175,127.259,200.175z"/>
				</g>
			</g>
			<g>
				<g>
					<path fill="none" d="M118.172,212.591c-0.046-0.889-0.007-1.777,0.105-2.649C118.155,210.659,118.051,211.646,118.172,212.591z
						"/>
				</g>
			</g>
		</g>
	</g>
	<g>
		<defs>
			<path id="SVGID_19_" d="M137.346,214.427c0.022,0.641,1.335-0.019,1.939,0.167c1.517,0.466,6.492,0.8,9.905,0.761
				c3.416-0.043,7.043-0.381,9.527-1.016c0.101-0.023,0.196-0.047,0.289-0.072c0,0,2.704-15.995-8.339-16.415
				C139.621,197.428,137.093,207.814,137.346,214.427z"/>
		</defs>
		<clipPath id="SVGID_20_">
			<use xlink:href="#SVGID_19_"  overflow="visible"/>
		</clipPath>
		<g clip-path="url(#SVGID_20_)">
			<g>
				<g>
					<path fill="#FFC289" d="M158.785,210.923c0.896,6.387-3.039,11.622-8.33,12.364c-5.29,0.745-10.404-3.301-11.303-9.688
						s2.788-13.25,8.079-13.993C152.523,198.862,157.886,204.536,158.785,210.923z"/>
				</g>
				<g>
					<path fill="#9A3820" d="M149.201,223.749c-5.214,0-9.596-4.247-10.419-10.099c-0.445-3.166,0.197-6.573,1.763-9.349
						c1.61-2.854,4.028-4.7,6.635-5.066c0.327-0.046,0.662-0.069,0.996-0.069c5.058,0,10.086,5.36,10.979,11.705
						c0.438,3.127-0.238,6.169-1.908,8.564c-1.632,2.342-4.025,3.841-6.74,4.222C150.075,223.718,149.636,223.749,149.201,223.749z
						 M148.176,199.913c-0.299,0-0.599,0.021-0.893,0.062c-2.374,0.333-4.592,2.044-6.087,4.693
						c-1.486,2.636-2.097,5.871-1.674,8.878c0.771,5.479,4.841,9.455,9.679,9.455c0.399,0,0.804-0.029,1.202-0.085
						c2.506-0.352,4.719-1.74,6.23-3.909c1.562-2.24,2.194-5.093,1.781-8.033C157.57,204.979,152.882,199.913,148.176,199.913z"/>
				</g>
			</g>
			<g>
				<g>
					<path fill="none" d="M139.03,212.239c-0.036-0.888,0.011-1.774,0.134-2.645C139.033,210.311,138.918,211.296,139.03,212.239z"
						/>
				</g>
			</g>
		</g>
	</g>
	<g>
		<defs>
			<path id="SVGID_21_" d="M182.136,214.165c0,0,1.539-0.538,2.889-0.331c1.371,0.213,7.754,0.966,11.171,0.924
				c3.414-0.044,4.975-0.339,5.901-1.184c0.928-0.842,2.528-14.037-6.829-15.638C185.908,196.332,178.91,210.243,182.136,214.165z"
				/>
		</defs>
		<clipPath id="SVGID_22_">
			<use xlink:href="#SVGID_21_"  overflow="visible"/>
		</clipPath>
		<g clip-path="url(#SVGID_22_)">
			<g>
				<g>
					<g>
						<path fill="#FFC289" d="M201.592,213.189c-0.248,6.446-4.962,10.907-10.198,10.703c-5.237-0.205-9.467-5.092-9.217-11.537
							c0.248-6.445,5.004-12.546,10.24-12.344C197.656,200.213,201.842,206.747,201.592,213.189z"/>
					</g>
					<g>
						<path fill="#9A3820" d="M191.738,224.273c-0.119,0-0.239-0.003-0.359-0.008c-5.62-0.22-9.826-5.458-9.575-11.925
							c0.264-6.886,5.259-12.947,10.628-12.702c2.577,0.099,5.107,1.707,6.94,4.412c1.772,2.614,2.718,5.95,2.593,9.153
							C201.727,219.411,197.234,224.273,191.738,224.273z M192.163,200.381c-4.789,0-9.371,5.714-9.613,11.989
							c-0.234,6.048,3.656,10.945,8.858,11.149c5.233,0.166,9.582-4.415,9.811-10.345c0.118-3.047-0.78-6.22-2.465-8.705
							c-1.699-2.506-4.014-3.995-6.352-4.085L192.163,200.381z"/>
					</g>
				</g>
				<g>
					<g>
						<path fill="none" d="M182.295,210.999c0.12-0.882,0.32-1.745,0.591-2.583C182.635,209.098,182.351,210.049,182.295,210.999z"
							/>
					</g>
				</g>
			</g>
		</g>
	</g>
	<g>
		<defs>
			<path id="SVGID_23_" d="M160.7,213.121c0.024,0.643,1.095,0.617,1.686,0.844c2.191,0.843,6.786,1.086,10.202,1.044
				c3.414-0.041,5.815,0.221,9.548-0.844c0.098-0.027,0.286-0.42,0.38-0.442c0,0,2.592-15.451-8.452-15.871
				C163.018,197.428,160.447,206.509,160.7,213.121z"/>
		</defs>
		<clipPath id="SVGID_24_">
			<use xlink:href="#SVGID_23_"  overflow="visible"/>
		</clipPath>
		<g clip-path="url(#SVGID_24_)">
			<g>
				<g>
					<path fill="#FFC289" d="M180.877,215.027c-1.09,6.356-6.432,10.143-11.701,9.24c-5.265-0.902-8.903-6.319-7.812-12.674
						c1.091-6.355,6.692-11.768,11.958-10.864C178.588,201.631,181.966,208.671,180.877,215.027z"/>
				</g>
				<g>
					<path fill="#9A3820" d="M170.729,224.773c-0.54,0-1.084-0.046-1.617-0.138c-2.689-0.461-5.013-2.045-6.542-4.461
						c-1.552-2.451-2.111-5.521-1.575-8.645c1.049-6.11,6.157-11.273,11.156-11.273c0.415,0,0.829,0.035,1.233,0.104
						c2.587,0.442,4.931,2.375,6.431,5.301c1.45,2.831,1.972,6.268,1.43,9.429C180.283,220.701,175.86,224.773,170.729,224.773z
						 M172.151,201.004c-4.657,0-9.429,4.879-10.42,10.653c-0.505,2.939,0.018,5.823,1.471,8.118
						c1.414,2.234,3.559,3.699,6.037,4.124c0.491,0.084,0.992,0.127,1.49,0.127c4.767,0,8.879-3.812,9.779-9.062
						c0.515-3.005,0.02-6.271-1.359-8.961c-1.391-2.715-3.538-4.502-5.892-4.905C172.896,201.036,172.523,201.004,172.151,201.004z"
						/>
				</g>
			</g>
			<g>
				<g>
					<path fill="none" d="M161.661,210.265c0.235-0.858,0.551-1.69,0.933-2.481C162.253,208.425,161.842,209.33,161.661,210.265z"/>
				</g>
			</g>
		</g>
	</g>
</g>
<g id="_x31_3_1_">
	<g>
		<g>
			<g>
				<path fill="#FF8300" d="M104.396,210.781c-0.063,0-0.127-0.025-0.173-0.075c-4.764-5.121-11.986-14.826-16.664-25.326
					c-5.605-12.583-6.035-22.983-1.242-30.076c2.264-3.351,6.185-5.196,11.041-5.196c1.222,0,2.501,0.119,3.803,0.354
					c7.693,1.392,12.36,8.926,11.393,14.731c-0.77,4.619-3.539,8.156-6.47,11.901c-5.943,7.592-12.089,15.442-1.483,33.33
					c0.062,0.104,0.035,0.238-0.062,0.311C104.495,210.767,104.445,210.781,104.396,210.781z"/>
			</g>
			<g>
				<path fill="#FFFFFF" d="M97.357,150.344c1.198,0,2.455,0.115,3.761,0.351c7.435,1.345,12.164,8.68,11.201,14.459
					c-2.332,13.984-23.783,18.643-7.924,45.392c-9.469-10.179-28.893-38.816-17.883-55.108
					C88.711,152.182,92.56,150.344,97.357,150.344 M97.358,149.871L97.358,149.871c-4.938,0-8.929,1.882-11.237,5.301
					c-4.841,7.163-4.419,17.643,1.222,30.304c4.689,10.527,11.931,20.258,16.707,25.392c0.093,0.1,0.219,0.151,0.347,0.151
					c0.099,0,0.199-0.031,0.284-0.095c0.193-0.145,0.247-0.412,0.124-0.62c-10.523-17.749-4.428-25.534,1.466-33.064
					c2.951-3.769,5.737-7.329,6.518-12.008c0.986-5.915-3.759-13.588-11.583-15.003C99.887,149.991,98.594,149.871,97.358,149.871
					L97.358,149.871z"/>
			</g>
		</g>
	</g>
	<g>
		<path fill="#FFFFFF" d="M103.438,151.688c2.525,0.862,5.566,4.614,6.529,9.875c1.277,6.988-5.384,9.558-8.275,13.486
			c-3.724,5.055-5.54,11.864-5.89,15.249c0,0-9.286-12.407-9.476-25.771C86.238,158.188,90.761,147.354,103.438,151.688z"/>
	</g>
	<g>
		<path fill="#FF8300" d="M92.988,152.204c3.338-2.903,9.729-1.969,12.827,1.188c2.903,2.958,3.123,7.001,2.286,9.7
			c-1.512,4.872-5.072,5.864-8.657,10.015c-3.587,4.148-3.997,9.572-3.997,9.572s-4.135-5.314,0.203-15.584
			c1.829-4.329-3.859-2.932-3.424,3.231C92.345,171.979,83.808,160.195,92.988,152.204z"/>
	</g>
	<g>
		<path fill="#FFFFFF" d="M95.654,151.188c4.157-2.839,12.641,0.63,10.891,8.674c-1.314,6.047-6.965,7.324-10.75,13.932
			c0,0-1.146-1.446,0.673-6.593c0.438-1.237,1.322-2.297,1.689-3.726c0.907-3.523-4.635-4.004-6.043,1.632
			C91.842,166.199,88.869,155.821,95.654,151.188z"/>
	</g>
</g>
<g>
	<g>
		<path fill="#FFFFFF" d="M16.12,117.84l-4.72-2.485l4.596-20.051c0.485-2.119,1.153-3.656,2.002-4.614
			c0.849-0.956,1.872-1.297,3.068-1.023c0.205,0.048,0.417,0.104,0.635,0.173c0.219,0.068,0.457,0.167,0.714,0.298l9.389,4.96
			c3.104,1.682,4.077,5.054,2.917,10.112l-2.292,10l7.17,3.802l-2.303,10.051l-18.816-9.979l2.304-10.051l6.926,3.691l1.739-7.589
			l-9.286-4.935L16.12,117.84z"/>
	</g>
	<g>
		<path fill="#FFFFFF" d="M40.412,96.355L27.148,83.127c-2.475-2.52-2.417-6.027,0.174-10.524l6.356-11.032
			c1.086-1.884,2.175-3.157,3.267-3.823c1.093-0.667,2.17-0.694,3.234-0.082c0.182,0.106,0.367,0.223,0.556,0.353
			s0.388,0.293,0.595,0.495L54.595,71.74c1.261,1.253,1.867,2.767,1.817,4.539c-0.05,1.772-0.714,3.769-1.992,5.986l-6.356,11.032
			c-2.206,3.828-4.388,5.121-6.546,3.878C41.185,96.982,40.815,96.71,40.412,96.355z M49.401,80.648L36.229,67.473l-3.887,6.747
			l13.173,13.176L49.401,80.648z"/>
	</g>
	<g>
		<path fill="#FFFFFF" d="M65.691,29.618l2.513,4.706L56.307,45.4l2.057,3.908c2.606-1.421,4.806-2.546,6.597-3.376
			c1.791-0.829,3.266-1.434,4.42-1.815c1.155-0.381,2.024-0.591,2.609-0.633c0.585-0.04,0.974,0.042,1.164,0.247l0.107,0.116
			l3.73,7.094c1.604,3.06,0.544,6.321-3.178,9.788l-13.86,12.907l-2.513-4.707l11.936-11.113l-2.303-4.325
			c-2.256,1.334-4.256,2.429-5.999,3.284c-1.743,0.858-3.218,1.512-4.426,1.965c-1.207,0.453-2.172,0.717-2.894,0.791
			c-0.723,0.074-1.179,0.007-1.37-0.198l-3.664-6.868c-1.675-3.136-0.64-6.451,3.108-9.939L65.691,29.618z"/>
	</g>
	<g>
		<path fill="#FFFFFF" d="M73.748,32.381l-1.202-5.196l23.436-12.402l1.202,5.197l-7.161,3.79l5.339,23.363l-9.114,4.823
			l-5.339-23.363L73.748,32.381z"/>
	</g>
	<g>
		<path fill="#FFFFFF" d="M118.844,34.428l0.641-13.333l10.073-2.201l-0.63,13.384c-0.078,1.777-0.79,3.242-2.136,4.397
			c-1.345,1.156-3.269,2.007-5.769,2.553l-12.438,2.719c-4.317,0.943-6.742,0.199-7.273-2.234c-0.082-0.377-0.128-0.833-0.138-1.371
			l0.865-18.713c0.199-3.525,2.834-5.843,7.905-6.95l20.097-4.391l-0.236,5.329l-17.68,3.863l-0.889,18.61L118.844,34.428z"/>
	</g>
	<g>
		<path fill="#FFFFFF" d="M140.963,9.549l20.504,1.649c2.167,0.175,3.785,0.613,4.855,1.315c1.068,0.701,1.555,1.665,1.456,2.888
			c-0.017,0.209-0.043,0.427-0.079,0.652c-0.036,0.227-0.1,0.476-0.191,0.75l-3.55,10.007c-0.861,2.393-2.788,3.821-5.781,4.284
			l1.334,8.341l-10.225-0.823l-1.417-7.977l-3.724-0.3l-2.726,7.645l-10.278-0.828l7.155-20.061l10.278,0.828l-2.652,7.386
			l7.762,0.625l3.54-9.901l-18.038-1.452L140.963,9.549z"/>
	</g>
	<g>
		<path fill="#FFFFFF" d="M194.515,33.778l-3.255,4.307l-11.917-4.771l-4.759,6.368l15.092,6.042l-3.188,4.278l-17.387-6.961
			c-4.103-1.643-5.691-3.619-4.766-5.931c0.144-0.358,0.362-0.763,0.655-1.212l11.22-15.002c2.144-2.806,5.625-3.245,10.443-1.315
			l17.387,6.96l-3.186,4.278l-15.092-6.041l-3.167,4.229L194.515,33.778z"/>
	</g>
	<g>
		<path fill="#FFFFFF" d="M233.045,50.317l-4.275,3.19l-12.738-10.097l-3.555,2.62c1.796,2.363,3.238,4.368,4.329,6.016
			c1.088,1.646,1.908,3.013,2.458,4.097s0.889,1.912,1.018,2.484c0.129,0.571,0.106,0.969-0.068,1.188l-0.098,0.123l-6.453,4.755
			c-2.785,2.044-6.17,1.487-10.154-1.672l-14.843-11.765l4.274-3.19l12.781,10.13l3.931-2.927c-1.658-2.03-3.042-3.842-4.149-5.437
			c-1.109-1.595-1.978-2.954-2.606-4.08c-0.63-1.126-1.036-2.04-1.216-2.743c-0.182-0.703-0.186-1.164-0.011-1.384l6.24-4.654
			c2.849-2.127,6.28-1.601,10.294,1.58L233.045,50.317z"/>
	</g>
	<g>
		<path fill="#FFFFFF" d="M255.152,86.203l-28.336,7.454l-5.112-8.955l23.181-6.086l-1.304-2.284l5.155-1.369L255.152,86.203z"/>
	</g>
	<g>
		<path fill="#FFFFFF" d="M263.39,113.339c1.236,4.134,0.661,6.557-1.725,7.271c-0.202,0.061-0.414,0.114-0.638,0.163
			c-0.224,0.048-0.48,0.079-0.768,0.093l-7.681,0.209c-0.589-0.008-1.848-1.252-3.778-3.73c-1.931-2.479-4.294-6.375-7.091-11.689
			l-4.747,0.101l4.656,15.576l-5.331,0.166l-7.61-25.454l13.178-0.37c0.288-0.014,0.711,0.207,1.269,0.663s1.284,1.264,2.18,2.425
			c0.896,1.158,1.98,2.737,3.257,4.736c1.273,1.998,2.768,4.516,4.482,7.556l4.248-0.117l-4.657-15.576l5.331-0.166L263.39,113.339z
			"/>
	</g>
</g>
<g>
	<g>
		<path fill="#FFFFFF" d="M39.534,191.921l6.287,10.375c0.665,1.096,1.013,2.021,1.047,2.775c0.033,0.752-0.26,1.316-0.879,1.693
			c-0.104,0.062-0.219,0.125-0.34,0.186c-0.12,0.062-0.262,0.117-0.423,0.168l-3.045,0.902c-0.308,0.09-0.569,0.15-0.78,0.182
			s-0.414,0.033-0.612,0.008c-0.197-0.025-0.398-0.078-0.604-0.16c-0.206-0.08-0.449-0.193-0.73-0.336
			c-0.116,0.287-0.235,0.529-0.358,0.725c-0.124,0.195-0.309,0.369-0.556,0.52c-0.23,0.139-0.5,0.252-0.808,0.344l-3.114,0.906
			c-1.006,0.297-1.96,0.18-2.861-0.352c-0.902-0.529-1.744-1.439-2.526-2.73l-6.288-10.375l12.062-3.502l3.152,5.201l-2.163,0.621
			l2.38,3.928l3.672-1.064l-5.531-9.129L39.534,191.921z M35.357,203.884l-2.38-3.926l-3.864,1.107l2.38,3.928L35.357,203.884z"/>
	</g>
	<g>
		<path fill="#FFFFFF" d="M50.077,207.536l7.93,9.18c0.838,0.971,1.336,1.824,1.495,2.562s-0.036,1.344-0.583,1.816
			c-0.094,0.08-0.196,0.162-0.304,0.242c-0.109,0.08-0.239,0.158-0.391,0.234l-5.634,2.734c-1.351,0.648-2.752,0.451-4.201-0.594
			l-2.893,4.057l-3.954-4.578l2.708-3.938l-1.44-1.668l-4.31,2.082l-3.976-4.602l11.311-5.463l3.974,4.602l-4.17,2.004l3.001,3.475
			l5.585-2.693l-6.977-8.076L50.077,207.536z"/>
	</g>
	<g>
		<path fill="#FFFFFF" d="M68.462,233.532l-2.61,1.822l-5.812-4.852l-3.831,2.701l7.358,6.145L61,241.165l-8.478-7.078
			c-2-1.67-2.53-3.068-1.589-4.195c0.146-0.176,0.342-0.361,0.588-0.561l9.031-6.363c1.714-1.182,3.747-0.793,6.097,1.168
			l8.479,7.078l-2.568,1.816l-7.359-6.143l-2.548,1.793L68.462,233.532z"/>
	</g>
	<g>
		<path fill="#FFFFFF" d="M80.275,237.185l-4.428,4.344l3.958,2.328l3.308-3.236l5.241,3.084l-8.959,8.803l-5.241-3.084l3.413-3.355
			l-3.957-2.328l-3.414,3.354l-5.242-3.082l10.095-9.936c1.499-1.445,3.567-1.393,6.206,0.16l10.454,6.152l-2.237,2.211
			L80.275,237.185z"/>
	</g>
	<g>
		<path fill="#FFFFFF" d="M93.967,240.628l5.686,2.156l-4.194,5.809l8.371-4.225l5.715,2.168l-1.833,2.557l-1.74-0.66l-6.287,3.189
			l-0.267,8.924l-5.655-2.145l0.134-7.615l-4.341,6.02l-5.686-2.156L93.967,240.628z"/>
	</g>
	<g>
		<path fill="#FFFFFF" d="M119.872,251.048l1.151-2.926l15.532,1.803l-1.152,2.928l-4.746-0.553l-5.21,13.139l-6.041-0.701
			l5.211-13.137L119.872,251.048z"/>
	</g>
	<g>
		<path fill="#FFFFFF" d="M149.39,248.841l6.075-0.279l-3.697,16.879l-6.074,0.279l1.667-7.654l-4.587,0.211l-1.666,7.654
			l-6.075,0.277l3.697-16.877l6.074-0.279l-1.333,6.117l4.586-0.211L149.39,248.841z"/>
	</g>
	<g>
		<path fill="#FFFFFF" d="M157.472,247.538l11.851-2.592c1.252-0.273,2.241-0.305,2.966-0.094c0.723,0.213,1.163,0.674,1.317,1.379
			c0.026,0.123,0.049,0.25,0.067,0.383c0.019,0.135,0.025,0.285,0.021,0.457l-0.282,6.254c-0.076,1.5-0.917,2.635-2.526,3.41
			l2.188,4.477l-5.911,1.293l-2.17-4.258l-2.151,0.473l-0.226,4.779l-5.939,1.301l0.59-12.547l5.939-1.299l-0.227,4.621l4.486-0.98
			l0.296-6.193l-10.427,2.279L157.472,247.538z"/>
	</g>
	<g>
		<path fill="#FFFFFF" d="M177.396,256.661l-1.362-10.963c-0.236-2.068,1.064-3.678,3.901-4.828l6.958-2.818
			c1.189-0.482,2.157-0.68,2.908-0.594c0.748,0.088,1.259,0.467,1.53,1.137c0.047,0.115,0.091,0.238,0.133,0.365
			c0.04,0.129,0.072,0.277,0.096,0.447l1.363,10.963c0.131,1.041-0.137,1.963-0.803,2.77c-0.666,0.805-1.7,1.492-3.099,2.059
			l-6.959,2.82c-2.416,0.979-3.898,0.787-4.45-0.574C177.528,257.233,177.456,256.974,177.396,256.661z M187.276,252.626
			l-1.339-10.906l-4.257,1.725l1.341,10.904L187.276,252.626z"/>
	</g>
	<g>
		<path fill="#FFFFFF" d="M206.969,225.894l4.073,13.566c0.304,1.004,0.194,1.959-0.328,2.863c-0.522,0.906-1.426,1.756-2.71,2.549
			l-6.39,3.945c-2.218,1.369-3.712,1.43-4.483,0.18c-0.118-0.195-0.234-0.439-0.345-0.736l-4.072-13.564l5.174-3.195l4.057,13.539
			l3.907-2.412l-4.057-13.539L206.969,225.894z"/>
	</g>
	<g>
		<path fill="#FFFFFF" d="M222.479,229.694l-3.474-7.064l4.571-4.01l3.494,7.088c0.466,0.939,0.517,1.898,0.152,2.879
			s-1.114,1.967-2.25,2.963l-5.645,4.951c-1.958,1.719-3.422,2.027-4.391,0.922c-0.149-0.17-0.304-0.393-0.462-0.668l-4.893-9.904
			c-0.903-1.877-0.205-3.824,2.098-5.844l9.118-7.998l1.398,2.816l-8.022,7.039l4.852,9.857L222.479,229.694z"/>
	</g>
	<g>
		<path fill="#FFFFFF" d="M228.482,202.681l3.84-4.715l10.123,14.004l-3.839,4.715l-4.599-6.344l-2.898,3.561l4.596,6.344
			l-3.838,4.717l-10.123-14.004l3.839-4.717l3.673,5.072l2.899-3.561L228.482,202.681z"/>
	</g>
	<g>
		<path fill="#FFFFFF" d="M243.749,198.581l-3.233,5.148l-7.557-8.152l3.235-5.15L243.749,198.581z M244.734,199.638l3.218,3.451
			l-3.233,5.148l-3.22-3.449L244.734,199.638z"/>
	</g>
</g>
<g>
	<path fill="#FFFFFF" d="M126.182,133.901c-2.54,6.701-10.028,10.076-16.731,7.538l-6.065-2.298
		c-6.703-2.54-10.078-10.031-7.538-16.731l5.361-14.157c2.539-6.702,10.03-10.077,16.732-7.538l6.067,2.298
		c6.701,2.538,10.075,10.029,7.537,16.73L126.182,133.901z"/>
</g>
<g>
	<path fill="#FFFFFF" d="M168.597,149.073c-0.175,2.826-2.783,4.963-5.827,4.774l-0.862-0.054c-3.044-0.188-5.37-2.63-5.193-5.456
		l1.199-19.38c0.173-2.824,2.784-4.963,5.825-4.773l0.864,0.053c3.042,0.188,5.368,2.633,5.194,5.457L168.597,149.073z"/>
</g>
<g>
	<path fill="#FFFFFF" d="M175.381,153.977c1.938,2.036,1.718,5.391-0.491,7.492l-0.625,0.597c-2.21,2.102-5.572,2.154-7.508,0.117
		l-8.572-9.484c-1.938-2.036-1.718-5.391,0.491-7.494l0.626-0.594c2.209-2.104,5.571-2.155,7.51-0.118L175.381,153.977z"/>
</g>
<g>
	<g>
		<path fill="#9A3820" d="M170.325,165.599C170.324,165.599,170.324,165.599,170.325,165.599c-1.919-0.001-3.681-0.743-4.962-2.091
			l-8.604-9.521c-0.913-0.959-1.52-2.202-1.73-3.573c-0.201-0.728-0.281-1.467-0.232-2.2l1.198-19.375
			c0.236-3.847,3.726-6.82,7.863-6.573l0.862,0.053c4.098,0.253,7.234,3.616,6.995,7.494l-1,16.134l6.093,6.741
			c2.63,2.766,2.379,7.345-0.594,10.174l-0.624,0.595C174.137,164.838,172.268,165.599,170.325,165.599z M163.365,126.095
			c-1.88,0-3.433,1.309-3.534,2.98l-1.199,19.382c-0.021,0.329,0.02,0.664,0.119,0.999l0.065,0.301
			c0.082,0.62,0.346,1.18,0.761,1.617l8.605,9.521c0.516,0.542,1.288,0.86,2.142,0.86h0.001c0.951,0,1.882-0.385,2.614-1.082
			l0.624-0.596c1.438-1.368,1.63-3.511,0.425-4.776l-7.21-7.977l1.1-17.749c0.109-1.762-1.413-3.297-3.394-3.42l-0.863-0.053
			C163.534,126.098,163.448,126.095,163.365,126.095z"/>
		<path fill="#FFFFFF" d="M170.325,165.87L170.325,165.87c-1.994-0.001-3.826-0.773-5.158-2.176l-8.609-9.525
			c-0.955-1.003-1.578-2.289-1.797-3.714c-0.204-0.731-0.286-1.502-0.235-2.259l1.198-19.374c0.245-3.992,3.854-7.099,8.15-6.827
			l0.862,0.053c4.246,0.262,7.498,3.753,7.249,7.781l-0.993,16.021l6.017,6.656c2.743,2.885,2.473,7.62-0.608,10.552l-0.623,0.595
			C174.273,165.082,172.337,165.87,170.325,165.87z M163.378,122.523c-3.771,0-6.895,2.782-7.113,6.333l-1.198,19.375
			c-0.046,0.698,0.028,1.408,0.224,2.111c0.209,1.346,0.782,2.531,1.665,3.459l8.609,9.525c1.225,1.288,2.917,2,4.76,2.001v0.271
			l0.001-0.271c1.872,0,3.676-0.734,5.078-2.067l0.623-0.595c2.864-2.726,3.127-7.118,0.585-9.791l-6.174-6.831l1.007-16.247
			c0.229-3.729-2.794-6.962-6.741-7.207l-0.862-0.053C163.686,122.527,163.531,122.523,163.378,122.523z M170.325,162.026
			c-0.915,0-1.768-0.345-2.339-0.945l-8.61-9.525c-0.451-0.475-0.739-1.086-0.828-1.764l-0.062-0.278
			c-0.104-0.349-0.148-0.717-0.125-1.074l1.199-19.381c0.11-1.814,1.781-3.235,3.805-3.235c0.088,0,0.179,0.003,0.271,0.009
			l0.864,0.053c2.13,0.132,3.767,1.795,3.647,3.707l-1.093,17.636l7.134,7.892c0.633,0.664,0.936,1.573,0.848,2.556
			c-0.086,0.969-0.543,1.892-1.287,2.599l-0.623,0.596C172.343,161.615,171.348,162.026,170.325,162.026z M163.365,126.366
			c-1.737,0-3.171,1.197-3.264,2.726l-1.199,19.382c-0.02,0.295,0.018,0.599,0.108,0.905l0.07,0.32
			c0.079,0.585,0.316,1.092,0.692,1.488l8.61,9.525c0.465,0.488,1.174,0.771,1.94,0.771c0.884,0,1.746-0.357,2.429-1.007
			l0.623-0.596c0.648-0.616,1.047-1.417,1.121-2.255c0.073-0.824-0.177-1.583-0.705-2.138l-7.291-8.066l0.007-0.114l1.1-17.749
			c0.1-1.613-1.309-3.019-3.14-3.133l-0.863-0.053C163.524,126.369,163.443,126.366,163.365,126.366z"/>
	</g>
</g>
<g>
	<g>
		<g>
			<path fill="#28334E" d="M126.418,127.389c0,0,8.744,2.767,17.039,5.392c8.373,2.652,13.531-0.002,16.49-2.967l-31.172-9.867
				L126.418,127.389z"/>
		</g>
	</g>
</g>
<g>
	<path fill="#FFFFFF" d="M125.476,158.703h-0.558l-0.136-0.516l-0.448,0.044l0.301-0.157c-0.902,0.036-1.714,0.053-2.496,0.053
		c-5.286,0-10.047-0.846-17.568-3.12c-3.572-1.079-13.222-4.774-15.903-7.513c-3.583-3.662,0.238-7.598,1.676-9.078
		c1.071-1.103,2.136-2.207,3.201-3.314c0.67-0.696,1.691-1.176,2.773-1.326c-1.769-3.445-2.001-7.42-0.611-11.086l5.362-14.158
		c2.025-5.346,7.255-8.907,12.984-8.848c0.63-3.141,1.085-6.351,1.351-9.55l0.031-0.375l0.326-0.19
		c2.981-1.739,6.393-2.584,9.85-2.423l0.713,0.034l-0.024,0.713c-0.122,3.651-0.437,7.118-0.937,10.317l4.034,1.247
		c0.501-3.191,0.842-6.692,1.015-10.421l0.047-1.013l0.943,0.373c3.776,1.496,6.964,4.274,8.973,7.822l0.116,0.205l-0.026,0.233
		c-0.456,4.018-1.104,8.247-1.927,12.569l-0.141,0.748c-0.81,4.161-2.289,9.752-2.994,11.929c-0.64,1.977-1.246,3.867-1.831,5.688
		c-2.186,6.803-4.074,12.679-6.172,18.47l-0.299,0.81c0.276,0.628,0.405,1.271,0.375,1.877l-0.034,0.692
		c2.201,1.909,3.271,3.746,3.135,5.365c0.365-0.175,0.721-0.347,1.059-0.512c0.485-0.818,1.302-1.237,2.736-1.421l0.101-0.014
		l0.627,0.097l0.094,0.535c0.093,0.608-0.153,0.749-2.474,1.886c-0.005,0.011-0.01,0.021-0.015,0.033
		c-0.475,1.131-1.146,2.097-4.524,2.447c-0.683,0.338-1.512,0.609-2.467,0.809l-0.07,0.028L125.476,158.703z M97.037,135.174
		c-0.943,0-1.904,0.365-2.45,0.932c-1.066,1.109-2.133,2.216-3.206,3.319c-3.037,3.127-3.524,5.172-1.68,7.057
		c2.268,2.315,11.289,5.931,15.288,7.139c7.372,2.23,12.02,3.06,17.149,3.06c1.392,0,2.889-0.056,4.838-0.179
		c0.519-0.24,1.113-0.518,1.733-0.81c0.171-0.207,0.289-0.424,0.358-0.659c0.358-1.218-0.647-2.892-2.832-4.716l-0.277-0.231
		l0.069-1.408c0.022-0.446-0.102-0.943-0.357-1.438l-0.147-0.284l0.513-1.387c2.088-5.765,3.972-11.629,6.154-18.419
		c0.585-1.821,1.192-3.712,1.833-5.69c0.677-2.092,2.162-7.713,2.949-11.76l0.14-0.738c0.8-4.207,1.433-8.319,1.884-12.23
		c-1.68-2.87-4.203-5.174-7.193-6.582c-0.206,3.714-0.58,7.197-1.113,10.366l-0.137,0.816l-6.824-2.11l0.103-0.623
		c0.514-3.098,0.847-6.466,0.992-10.024c-0.019,0-0.038,0-0.057,0c-2.775,0-5.518,0.711-7.955,2.061
		c-0.293,3.335-0.786,6.677-1.467,9.942l-0.127,0.611l-0.624-0.037c-5.306-0.303-10.297,2.938-12.174,7.893l-5.362,14.158
		c-1.376,3.632-0.974,7.602,1.105,10.893l0.82,1.298l-1.523-0.193C97.323,135.182,97.18,135.174,97.037,135.174z"/>
</g>
<g>
	<path fill="#9A3820" d="M131.134,89.07c-0.165,3.56-0.508,7.469-1.157,11.325l-5.43-1.679c0.612-3.694,0.913-7.397,1.028-10.847
		c-3.387-0.16-6.651,0.691-9.451,2.325c-0.264,3.166-0.731,6.614-1.486,10.235c-5.514-0.323-10.834,2.922-12.894,8.359
		l-5.362,14.158c-1.503,3.965-0.933,8.207,1.171,11.536c-1.235-0.156-2.665,0.269-3.487,1.122c-1.065,1.108-2.132,2.214-3.203,3.316
		c-2.264,2.331-4.42,5.266-1.679,8.067c2.549,2.604,12.146,6.284,15.596,7.326c10.377,3.139,14.962,3.38,22.442,2.897
		c7.159-0.462,2.907-3.063,7.241-3.62c0.431,0.066-9.306,4.567-8.979,4.383c2.337-0.472,3.881-1.385,4.279-2.737
		c0.466-1.581-0.71-3.512-3.062-5.476l0.052-1.048c0.029-0.603-0.141-1.232-0.438-1.807c0.135-0.363,0.271-0.727,0.403-1.091
		c2.652-7.322,4.96-14.754,7.995-24.134c0.676-2.088,2.164-7.693,2.972-11.844c0.049-0.252,0.095-0.496,0.141-0.746
		c0.875-4.602,1.494-8.782,1.918-12.516C137.852,93.235,134.855,90.544,131.134,89.07z"/>
</g>
<g>
	<g>
		<g>
			<path fill="#FF8300" d="M168.354,124.728c0,0-2.129-0.691-4.77-1.529c-1.257,3.25-3.09,6.071-3.975,9.119
				c-1.586,5.464,0.137,9.934-1.48,14.936c0,0-10.748,11.113-5.014,13.241c1.353,0.501,2.497,0.633,3.454,0.549
				C170.179,131.63,168.354,124.728,168.354,124.728z"/>
		</g>
	</g>
</g>
<g>
	<g>
		<g>
			<path fill="#D1D5D8" d="M144.529,184.116c0.002-0.005,0.002-0.009,0.002-0.009C144.53,184.109,144.529,184.113,144.529,184.116z"
				/>
		</g>
	</g>
	<g>
		<g>
			<path fill="#D1D5D8" d="M137.324,166.25l-5.287,12.176c-1.531,3.328,0.371,7.403,3.697,8.935
				c0.213,0.098,0.429,0.182,0.646,0.255c2.428-5.188,5.252-11.468,8.448-19.048C144.829,168.567,136.995,166.146,137.324,166.25z"
				/>
		</g>
	</g>
</g>
<g>
	<g>
		<g>
			<path fill="#FF8300" d="M166.774,126.237c-3.604,1.37-8.026,3.021-13.115,4.85c-7.837-10.036-14.896-17.379-16.685-19.206
				c-1.035,2.742-2.125,5.478-3.235,8.147c2.723,2.921,7.124,7.812,11.97,13.869c-6.478,2.25-13.713,4.668-21.481,7.113
				c-2.163,4.439-3.669,7.349-3.874,7.795l-1.049,2.056c11.72-3.554,22.456-7.154,31.504-10.345
				c2.551,3.446,5.104,7.122,7.498,10.923c1.148-3.121,2.241-6.244,3.325-9.456c-0.99-1.453-1.994-2.881-2.998-4.274
				c1.776-0.647,3.458-1.269,5.033-1.857C164.67,132.787,165.692,129.603,166.774,126.237z"/>
		</g>
	</g>
</g>
<g>
	<g>
		<path fill="#FF8300" d="M104.848,146.835L104.848,146.835l-0.195,0.633L104.848,146.835z"/>
	</g>
</g>
<g>
	<g>
		<path fill="#9A3820" d="M172.799,163.674c-0.178,0.317-0.582,0.434-0.903,0.257l-4.084-2.161c-0.318-0.175-0.436-0.579-0.26-0.9
			l7.584-13.348c0.175-0.319,0.582-0.436,0.901-0.259l4.085,2.159c0.319,0.177,0.436,0.583,0.26,0.902L172.799,163.674z"/>
	</g>
</g>
<g>
	<g>
		<path fill="#F5B054" d="M125.287,135.304l-2.665-2.166c-0.283-0.229-0.703-0.186-0.933,0.097l-0.424,0.522l0.33,0.785l1.411,3.35
			l0.222,0.522c0.045,0.108,0.08,0.221,0.118,0.331l2.038-2.509C125.614,135.954,125.57,135.533,125.287,135.304z"/>
	</g>
</g>
<g>
	<g>
		<g>
			<path fill="#FDCF56" d="M123.818,136.214c0.23-0.285,0.184-0.701-0.103-0.932c-0.286-0.229-0.703-0.182-0.932,0.104l-0.547,0.682
				l0.586,1.39L123.818,136.214z"/>
		</g>
	</g>
</g>
<g>
	<g>
		<path fill="#F3F4F6" d="M144.527,184.118c0.002-0.007,0.004-0.011,0.004-0.011C144.531,184.111,144.529,184.113,144.527,184.118z"
			/>
	</g>
	<g>
		<path fill="#FFFFFF" d="M168.37,121.279c-6.112-1.611-13.426-3.722-20.616-6.25c-1.55-0.545-2.982-1.286-4.312-2.179
			c-1.911-1.281-3.604-2.88-5.104-4.688c-6.849,19.24-17.414,39.404-17.984,40.642l-11.269,22.138
			c-1.531,3.328-0.611,7.261,2.714,8.792c0.273,0.124,0.546,0.23,0.824,0.315c3.129,0.965,7.428-0.395,8.834-3.45l6.713-13.148
			c4.12,1.207,5.979,1.791,9.154,2.798l-5.287,12.176c-1.531,3.328,0.371,7.403,3.697,8.935c0.272,0.124,0.547,0.229,0.823,0.315
			c3.127,0.967,6.562-0.509,7.97-3.558c-0.056,0.105-0.563,1.021,6.689-15.22C158.474,152.646,162.365,139.901,168.37,121.279z"/>
	</g>
</g>
<g>
	<g>
		<g>
			<path fill="#FFFFFF" d="M115.969,146.436c-1.628-0.503-3.028-1.693-3.741-3.386l-4.101-9.725
				c-2.246-5.33,0.062-11.5,5.252-14.051l16.518-8.116c2.959-1.454,6.536-0.234,7.99,2.724c1.452,2.958,0.233,6.536-2.726,7.989
				l-15.662,7.696l3.729,8.847c1.279,3.036-0.146,6.538-3.184,7.817C118.699,146.799,117.263,146.835,115.969,146.436z"/>
		</g>
	</g>
</g>
<g>
	<g>
		<g>
			<path fill="#FFFFFF" d="M114.655,125.373l16.249-7.838c1.314-0.633,3.538-1.478,4.939-1.877l1.78-0.505
				c0.229-0.064,0.441-0.162,0.638-0.281c-0.095-0.334-0.218-0.665-0.375-0.989c-1.454-2.958-5.031-4.178-7.99-2.724l-16.518,8.116
				c-5.19,2.55-7.498,8.721-5.252,14.051l4.101,9.725c0.713,1.692,2.113,2.883,3.741,3.386c1.186,0.365,2.488,0.359,3.732-0.076
				l-6.504-17.351C112.686,127.644,113.342,126.007,114.655,125.373z"/>
		</g>
	</g>
</g>
<g>
	<path fill="#FFFFFF" d="M175.958,163.172c-1.265,2.532-4.069,3.698-6.271,2.6l-3.32-1.653c-2.202-1.097-2.962-4.041-1.699-6.573
		l1.332-2.678c1.263-2.532,4.071-3.696,6.272-2.6l3.32,1.654c2.201,1.097,2.961,4.04,1.7,6.574L175.958,163.172z"/>
</g>
<g>
	<g>
		<path fill="#9A3820" d="M171.457,168.107c-0.925,0-1.81-0.208-2.628-0.615l-3.319-1.654c-1.571-0.782-2.692-2.198-3.153-3.987
			c-0.436-1.689-0.227-3.523,0.591-5.163l1.33-2.676c1.236-2.479,3.68-4.079,6.225-4.079c0.925,0,1.809,0.207,2.626,0.614
			l3.321,1.655c3.145,1.566,4.294,5.671,2.562,9.15l-1.334,2.677C176.441,166.507,173.999,168.107,171.457,168.107z
			 M170.502,153.776c-1.084,0-2.201,0.784-2.783,1.948l-1.33,2.676c-0.405,0.812-0.516,1.695-0.311,2.488
			c0.18,0.695,0.586,1.23,1.145,1.509l3.322,1.654c1.225,0.61,2.938-0.222,3.694-1.738l1.332-2.675
			c0.787-1.58,0.412-3.374-0.836-3.996l-3.321-1.655C171.134,153.848,170.826,153.776,170.502,153.776z"/>
		<path fill="#FFFFFF" d="M171.457,168.379c-0.966,0-1.891-0.217-2.749-0.644l-3.319-1.654c-1.644-0.819-2.814-2.297-3.295-4.163
			c-0.452-1.754-0.235-3.654,0.61-5.352l1.33-2.676c1.282-2.569,3.82-4.229,6.468-4.229c0.967,0,1.891,0.217,2.747,0.643
			l3.321,1.655c3.278,1.634,4.482,5.901,2.685,9.515l-1.334,2.677C176.639,166.719,174.102,168.379,171.457,168.379z
			 M170.502,150.204c-2.443,0-4.791,1.542-5.981,3.929l-1.33,2.676c-0.788,1.58-0.991,3.347-0.571,4.975
			c0.44,1.711,1.511,3.064,3.012,3.812l3.319,1.654c0.782,0.39,1.626,0.587,2.507,0.587c2.44,0,4.787-1.542,5.979-3.928l1.333-2.677
			c1.665-3.345,0.57-7.287-2.44-8.786l-3.321-1.655C172.227,150.401,171.384,150.204,170.502,150.204z M171.429,164.524
			L171.429,164.524c-0.36,0-0.698-0.077-1.005-0.229l-3.322-1.654c-0.63-0.314-1.087-0.912-1.286-1.685
			c-0.221-0.855-0.104-1.806,0.33-2.677l1.33-2.676c0.628-1.255,1.844-2.099,3.026-2.099c0.366,0,0.714,0.081,1.033,0.239
			l3.321,1.655c1.382,0.689,1.812,2.646,0.958,4.36l-1.332,2.675C173.858,163.685,172.631,164.524,171.429,164.524z
			 M170.502,154.048c-0.981,0-2.003,0.723-2.541,1.798l-1.329,2.676c-0.376,0.754-0.479,1.57-0.291,2.299
			c0.159,0.618,0.516,1.092,1.003,1.334l3.322,1.654c0.23,0.115,0.487,0.174,0.763,0.174c0.986,0,2.042-0.736,2.568-1.79
			l1.331-2.675c0.722-1.447,0.401-3.076-0.714-3.632l-3.321-1.655C171.05,154.109,170.784,154.048,170.502,154.048z"/>
	</g>
</g>
<g>
	<g>
		<path fill="#9A3820" d="M138.338,108.164c1.5,1.808,3.192,3.407,5.104,4.688c1.33,0.893,2.763,1.633,4.312,2.179
			c7.19,2.528,14.504,4.638,20.616,6.25c-6.005,18.622-9.896,31.366-17.153,47.619c-6.28,14.063-6.742,15.262-6.717,15.262
			c0.005,0,0.02-0.028,0.027-0.042c-1.119,2.423-3.517,3.851-6.021,3.851c-0.649,0-1.305-0.096-1.948-0.293
			c-0.276-0.087-0.551-0.191-0.823-0.315c-3.326-1.531-5.229-5.606-3.697-8.935l5.287-12.176c-3.175-1.007-5.034-1.591-9.154-2.798
			l-6.713,13.148c-1.105,2.402-3.998,3.758-6.706,3.758c-0.736,0-1.458-0.1-2.128-0.308c-0.278-0.085-0.551-0.191-0.824-0.315
			c-3.325-1.531-4.245-5.464-2.714-8.792l11.269-22.138c0.161-0.352,1.135-2.24,2.597-5.194c-0.625,1.135-1.618,2.078-2.905,2.62
			c-0.266,0.111-0.537,0.197-0.807,0.27c-0.004,0.001-0.008,0.001-0.011,0.001c-0.149,0.041-0.3,0.073-0.45,0.1
			c-0.013,0.003-0.025,0.004-0.037,0.007c-0.142,0.025-0.284,0.045-0.426,0.059c-0.024,0.003-0.05,0.005-0.074,0.006
			c-0.132,0.012-0.263,0.021-0.393,0.024c-0.008,0-0.017,0-0.025,0c-0.026,0-0.054,0-0.082,0c-0.005,0-0.009,0-0.013,0
			c-0.117-0.002-0.234-0.002-0.35-0.009c-0.06-0.005-0.118-0.012-0.179-0.016c-0.097-0.009-0.194-0.017-0.293-0.03
			c-0.086-0.013-0.172-0.03-0.259-0.045c-0.07-0.015-0.141-0.023-0.21-0.039c-0.158-0.035-0.315-0.075-0.469-0.123
			c-1.628-0.503-3.028-1.693-3.741-3.386l-4.101-9.725c-2.246-5.33,0.062-11.5,5.252-14.051l16.518-8.116
			c0.169-0.083,0.341-0.155,0.514-0.222c0.055-0.021,0.109-0.039,0.164-0.057c0.121-0.042,0.242-0.08,0.363-0.114
			c0.063-0.017,0.125-0.035,0.189-0.05c0.119-0.027,0.238-0.053,0.357-0.074c0.061-0.01,0.12-0.022,0.183-0.033
			c0.146-0.02,0.295-0.037,0.445-0.046c0.037-0.002,0.071-0.006,0.108-0.008c0.095-0.005,0.189-0.007,0.282-0.007
			c0.069,0,0.139,0.001,0.206,0.003c0.071,0.002,0.143,0.009,0.214,0.014c0.102,0.007,0.203,0.015,0.305,0.027
			c0.08,0.01,0.161,0.021,0.24,0.035c0.092,0.014,0.181,0.031,0.27,0.051c0.084,0.016,0.168,0.034,0.248,0.055
			c0.084,0.021,0.168,0.047,0.249,0.071c0.169,0.05,0.332,0.107,0.494,0.173c0.062,0.022,0.122,0.045,0.184,0.071
			c0.098,0.042,0.189,0.089,0.283,0.135c0.059,0.03,0.115,0.058,0.173,0.088c0.093,0.051,0.185,0.105,0.277,0.161
			c0.052,0.031,0.103,0.063,0.153,0.098c0.092,0.061,0.186,0.122,0.277,0.189c0.035,0.026,0.068,0.055,0.104,0.082
			c0.217,0.168,0.425,0.349,0.618,0.547C137.327,110.953,137.844,109.555,138.338,108.164 M123.163,143.181
			c2.324-4.711,5.783-11.914,9.223-19.946l-12.887,6.333l3.729,8.847C123.897,140.004,123.819,141.721,123.163,143.181
			 M138.338,104.321c-0.224,0-0.448,0.019-0.673,0.059c-1.36,0.242-2.486,1.196-2.948,2.498c-0.009,0.023-0.019,0.047-0.026,0.071
			c-0.055-0.013-0.11-0.024-0.166-0.037c-0.146-0.031-0.304-0.061-0.465-0.085c-0.1-0.016-0.227-0.035-0.352-0.05
			c-0.011-0.001-0.022-0.003-0.033-0.004c-0.16-0.02-0.322-0.034-0.482-0.044l-0.055-0.004c-0.109-0.008-0.219-0.015-0.327-0.018
			c-0.092-0.003-0.198-0.005-0.308-0.005c-0.162,0-0.327,0.004-0.488,0.012c-0.046,0.004-0.102,0.007-0.156,0.012
			c-0.004,0-0.008,0-0.011,0c-0.236,0.016-0.479,0.042-0.724,0.077c-0.122,0.019-0.218,0.035-0.312,0.053
			c-0.181,0.031-0.377,0.071-0.57,0.118c-0.097,0.022-0.188,0.047-0.279,0.071c-0.015,0.004-0.055,0.014-0.07,0.02
			c-0.191,0.054-0.38,0.113-0.569,0.178c-0.011,0.004-0.022,0.008-0.032,0.012c-0.091,0.031-0.173,0.059-0.254,0.089
			c-0.308,0.118-0.583,0.238-0.843,0.366l-16.511,8.113c-7.016,3.446-10.134,11.787-7.099,18.992l4.101,9.726
			c1.128,2.677,3.368,4.705,6.147,5.563c0.154,0.049,0.313,0.094,0.476,0.135l-9.649,18.958c-0.022,0.045-0.044,0.092-0.065,0.137
			c-2.508,5.448-0.487,11.549,4.599,13.891c0.423,0.195,0.86,0.362,1.3,0.499c1.024,0.314,2.122,0.476,3.259,0.476
			c4.417,0,8.485-2.372,10.16-5.912l5.23-10.245c0.703,0.212,1.341,0.407,1.954,0.594l-3.569,8.224
			c-1.172,2.573-1.168,5.495,0.007,8.225c1.089,2.529,3.128,4.631,5.595,5.766c0.428,0.195,0.86,0.362,1.295,0.494
			c1,0.312,2.036,0.468,3.083,0.468c4.07,0,7.805-2.388,9.511-6.084c0.081-0.174,0.147-0.351,0.199-0.527
			c0.32-0.773,1.581-3.698,6.509-14.737c6.678-14.949,10.461-26.722,15.698-43.015c0.52-1.619,1.054-3.28,1.605-4.991
			c0.323-1.005,0.22-2.098-0.285-3.025c-0.508-0.925-1.373-1.603-2.394-1.872c-7.416-1.955-14.253-4.027-20.321-6.16
			c-1.179-0.413-2.338-1.001-3.446-1.743c-1.508-1.011-2.95-2.341-4.287-3.95C140.558,104.821,139.47,104.321,138.338,104.321
			L138.338,104.321z"/>
		<path fill="#FFFFFF" d="M138.506,192.085c-1.077,0-2.142-0.162-3.164-0.48c-0.43-0.131-0.877-0.301-1.326-0.506
			c-2.528-1.163-4.616-3.315-5.731-5.905c-1.207-2.803-1.208-5.802-0.004-8.444l3.446-7.94l-1.446-0.439l-5.127,10.043
			c-1.713,3.622-5.895,6.061-10.402,6.061c-1.161,0-2.285-0.164-3.338-0.488c-0.458-0.143-0.907-0.314-1.334-0.512
			c-5.224-2.405-7.302-8.665-4.731-14.25l0.069-0.145l9.499-18.663c-0.055-0.017-0.11-0.033-0.165-0.05
			c-2.854-0.882-5.156-2.966-6.315-5.717l-4.101-9.726c-3.09-7.336,0.085-15.832,7.229-19.341l16.511-8.113
			c0.267-0.131,0.549-0.255,0.865-0.376c0.086-0.032,0.17-0.062,0.264-0.093c0.226-0.079,0.419-0.139,0.615-0.194l0.073-0.02
			c0.094-0.025,0.188-0.051,0.288-0.074c0.197-0.048,0.4-0.089,0.586-0.122c0.091-0.018,0.19-0.034,0.316-0.053
			c0.253-0.036,0.503-0.063,0.746-0.08l0.107-0.008c0.384-0.022,0.647-0.019,0.883-0.012c0.111,0.003,0.225,0.01,0.339,0.018
			c0.217,0.014,0.384,0.029,0.55,0.049c0.161,0.02,0.292,0.039,0.395,0.055c0.142,0.021,0.283,0.048,0.416,0.075
			c0.533-1.318,1.704-2.273,3.099-2.521c0.235-0.042,0.479-0.063,0.721-0.063c1.228,0,2.381,0.542,3.166,1.486
			c1.321,1.591,2.744,2.902,4.229,3.898c1.094,0.732,2.232,1.309,3.385,1.712c6.053,2.128,12.883,4.198,20.301,6.154
			c1.086,0.286,2.021,1.016,2.562,2.003c0.539,0.989,0.65,2.169,0.306,3.239c-0.552,1.711-1.086,3.372-1.605,4.991
			c-5.245,16.317-9.028,28.088-15.708,43.042c-4.882,10.937-6.172,13.924-6.506,14.73c-0.047,0.164-0.119,0.354-0.204,0.538
			C146.513,189.635,142.683,192.085,138.506,192.085z M130.003,167.719l2.463,0.748l-3.69,8.503
			c-1.142,2.506-1.138,5.349,0.007,8.009c1.063,2.469,3.053,4.52,5.459,5.627c0.427,0.194,0.852,0.356,1.261,0.48
			c0.972,0.303,1.981,0.456,3.004,0.456c3.966,0,7.603-2.326,9.265-5.926c0.075-0.162,0.137-0.326,0.185-0.49
			c0.346-0.838,1.638-3.83,6.521-14.771c6.669-14.928,10.448-26.687,15.68-42.961c0.528-1.646,1.062-3.306,1.614-5.017
			c0.299-0.929,0.202-1.954-0.266-2.813c-0.47-0.856-1.281-1.49-2.225-1.739c-7.432-1.959-14.275-4.034-20.342-6.167
			c-1.195-0.419-2.375-1.016-3.508-1.773c-1.528-1.025-2.99-2.372-4.345-4.002c-0.815-0.982-2.139-1.458-3.373-1.235
			c-1.262,0.225-2.312,1.114-2.74,2.322l-0.082,0.23l-0.264,0.014l-0.107-0.024c-0.191-0.041-0.345-0.07-0.501-0.094
			c-0.099-0.016-0.222-0.034-0.343-0.049c-0.188-0.022-0.346-0.036-0.501-0.046c-0.162-0.012-0.268-0.018-0.372-0.021
			c-0.223-0.008-0.511-0.007-0.774,0.007l-0.144,0.011c-0.249,0.016-0.485,0.042-0.723,0.076c-0.115,0.018-0.208,0.033-0.298,0.05
			c-0.181,0.031-0.371,0.07-0.558,0.116c-0.096,0.022-0.185,0.046-0.273,0.069l-0.141-0.242l0.073,0.261
			c-0.187,0.052-0.37,0.11-0.555,0.173c-0.121,0.042-0.201,0.07-0.279,0.099c-0.297,0.114-0.565,0.231-0.818,0.355l-16.511,8.113
			c-6.886,3.383-9.947,11.572-6.968,18.644l4.101,9.726c1.097,2.604,3.276,4.575,5.978,5.41c0.151,0.048,0.305,0.091,0.462,0.131
			l0.329,0.083l-9.844,19.346c-2.463,5.352-0.502,11.295,4.446,13.573c0.406,0.188,0.833,0.351,1.267,0.486
			c1.001,0.308,2.071,0.463,3.178,0.463c4.301,0,8.286-2.313,9.915-5.757L130.003,167.719z M138.506,188.24
			c-0.686,0-1.368-0.103-2.027-0.305c-0.293-0.093-0.58-0.202-0.856-0.328c-3.627-1.67-5.381-5.927-3.832-9.295l5.166-11.895
			c-2.927-0.928-4.764-1.504-8.647-2.643l-6.61,12.948c-1.24,2.695-4.384,3.906-6.948,3.906c-0.782,0-1.525-0.107-2.208-0.32
			c-0.275-0.084-0.555-0.191-0.855-0.327c-3.322-1.529-4.545-5.464-2.849-9.152l11.273-22.147c0.065-0.144,0.289-0.586,0.638-1.279
			c0.248-0.49,0.558-1.106,0.923-1.836c-0.456,0.372-0.966,0.68-1.523,0.914c-0.25,0.104-0.524,0.196-0.842,0.281l-0.042,0.01
			c-0.147,0.039-0.294,0.07-0.442,0.097c-0.185,0.033-0.335,0.054-0.484,0.067c-0.025,0.004-0.058,0.006-0.089,0.007
			c-0.124,0.012-0.26,0.021-0.395,0.025l-0.21-0.001c-0.095-0.002-0.19-0.003-0.284-0.009l-0.18-0.016
			c-0.138-0.012-0.225-0.02-0.312-0.032l-0.363-0.063c-0.043-0.008-0.085-0.015-0.128-0.024c-0.165-0.037-0.33-0.079-0.49-0.129
			c-1.768-0.546-3.193-1.836-3.911-3.539l-4.101-9.725c-2.301-5.461,0.063-11.786,5.382-14.399l16.518-8.116
			c0.176-0.087,0.355-0.162,0.536-0.231l0.147-0.052c0.151-0.053,0.278-0.092,0.405-0.127l0.2-0.053
			c0.125-0.028,0.248-0.055,0.371-0.077l0.187-0.033c0.16-0.022,0.315-0.039,0.472-0.049l0.111-0.009
			c0.1-0.005,0.199-0.007,0.297-0.007l0.437,0.017c0.107,0.007,0.214,0.016,0.32,0.029c0.086,0.011,0.17,0.022,0.253,0.036
			c0.094,0.015,0.188,0.033,0.283,0.054c0.082,0.016,0.173,0.035,0.258,0.057c0.072,0.017,0.147,0.04,0.222,0.062
			c0.213,0.063,0.385,0.124,0.556,0.192c0.057,0.021,0.122,0.045,0.188,0.073c0.079,0.034,0.154,0.071,0.23,0.108l0.245,0.125
			c0.101,0.056,0.196,0.111,0.292,0.169c0.056,0.034,0.11,0.068,0.166,0.105c0.12,0.08,0.203,0.135,0.284,0.194l0.065,0.051
			c0.146,0.115,0.273,0.219,0.387,0.319c0.508-1.344,0.965-2.589,1.394-3.796l0.16-0.45l0.305,0.367
			c1.555,1.875,3.253,3.434,5.046,4.636c1.354,0.909,2.784,1.632,4.251,2.148c6.141,2.159,13.07,4.259,20.596,6.243l0.276,0.073
			l-1.681,5.224c-5.207,16.203-8.969,27.91-15.57,42.695c-6.058,13.564-6.661,15.071-6.702,15.21l-0.051-0.016l0.062,0.028
			C143.648,186.667,141.188,188.24,138.506,188.24z M128.031,163.129l0.215,0.062c4.165,1.221,6.005,1.8,9.16,2.8l0.286,0.091
			l-0.119,0.276l-5.287,12.176c-1.405,3.053,0.261,7.061,3.562,8.58c0.256,0.116,0.522,0.218,0.791,0.303
			c0.606,0.186,1.235,0.28,1.867,0.28c2.472,0,4.738-1.448,5.774-3.691l-0.001-0.001l0.001,0.001
			c0.001-0.001,0.001-0.001,0.001-0.001l0.014,0.006c0.229-0.731,1.439-3.5,6.674-15.223c6.59-14.759,10.349-26.454,15.55-42.641
			l1.506-4.679c-7.433-1.966-14.282-4.045-20.36-6.183c-1.511-0.532-2.982-1.275-4.374-2.209c-1.719-1.152-3.351-2.623-4.855-4.377
			c-0.425,1.187-0.879,2.416-1.383,3.743l-0.151,0.397l-0.297-0.304c-0.172-0.176-0.364-0.347-0.59-0.522l0.062-0.296l-0.16,0.219
			c-0.074-0.054-0.15-0.104-0.225-0.154c-0.092-0.062-0.139-0.091-0.187-0.12c-0.09-0.054-0.178-0.106-0.268-0.156l-0.23-0.116
			c-0.065-0.033-0.132-0.066-0.201-0.095c-0.058-0.024-0.113-0.045-0.17-0.066c-0.163-0.066-0.317-0.121-0.479-0.167
			c-0.104-0.032-0.17-0.052-0.236-0.068c-0.079-0.021-0.156-0.037-0.234-0.052c-0.091-0.02-0.174-0.036-0.26-0.049
			c-0.079-0.013-0.157-0.024-0.233-0.034c-0.095-0.011-0.191-0.019-0.289-0.026l-0.401-0.016c-0.088,0-0.178,0.002-0.267,0.007
			l-0.124-0.263l0.018,0.271c-0.144,0.009-0.286,0.025-0.426,0.044l-0.174,0.032c-0.112,0.02-0.227,0.044-0.342,0.071l-0.133,0.035
			c-0.159,0.044-0.275,0.08-0.39,0.12l-0.159,0.055c-0.163,0.062-0.327,0.131-0.489,0.211l-16.518,8.116
			c-5.062,2.487-7.312,8.506-5.122,13.702l4.101,9.725c0.655,1.556,1.957,2.733,3.571,3.232c0.147,0.046,0.297,0.084,0.447,0.117
			l0.45,0.08c0.077,0.011,0.155,0.018,0.232,0.024l0.155,0.014c0.146,0.011,0.233,0.012,0.32,0.013l0.169,0.001
			c0.142-0.003,0.268-0.012,0.394-0.023l0.098,0.265l-0.026-0.27c0.134-0.014,0.27-0.032,0.404-0.056
			c0.18-0.032,0.322-0.062,0.463-0.102l0.072-0.01c0.234-0.07,0.487-0.154,0.712-0.249c1.188-0.5,2.147-1.365,2.773-2.501
			l0.48,0.251c-0.83,1.678-1.503,3.012-1.959,3.916c-0.345,0.684-0.565,1.12-0.634,1.271l-11.273,22.147
			c-1.563,3.398-0.454,7.023,2.585,8.423c0.277,0.126,0.537,0.225,0.79,0.302c0.633,0.197,1.321,0.296,2.049,0.296
			c2.828,0,5.484-1.48,6.459-3.6L128.031,163.129z M123.406,143.301l-0.491-0.231c0.649-1.444,0.672-3.103,0.063-4.55l-3.829-9.083
			l13.773-6.769l-0.288,0.673C129.938,129.641,126.833,136.355,123.406,143.301z M119.848,129.698l3.63,8.61
			c0.352,0.837,0.512,1.738,0.479,2.636c2.894-5.939,5.542-11.693,7.89-17.143L119.848,129.698z"/>
	</g>
</g>
<g>
	<g>
		<path fill="#9A3820" d="M126.07,142.289c-0.317,0.181-0.722,0.07-0.905-0.244l-0.096-5.196c-0.181-0.317-0.071-0.725,0.245-0.905
			l3.812-1.995c0.315-0.182,0.725-0.072,0.906,0.244l2.382,3.959c0.181,0.315,0.072,0.726-0.245,0.906L126.07,142.289z"/>
	</g>
</g>
<g>
	<path fill="#9A3820" d="M136.987,113.472c0,0,6.408,9.544-9.818,14.121l-1.21,4.947c0,0,11.773,0.396,16.094-2.218
		c8.948-5.414,8.201-13.289,7.167-15.628c-1.035-2.339-3.237-1.003-3.237-1.003l-1.951-0.639l-2.771-0.145L136.987,113.472z"/>
</g>
<g>
	<g>
		<g>
			<polygon fill="#FFFFFF" points="158.796,56.596 144.082,58.202 124.017,51.78 111.979,58.202 105.532,80.423 112.869,112.882 
				120.191,123.833 137.292,111.612 143.949,114.581 144.614,118.574 133.864,124.576 130.516,124.199 139.673,129.448 
				152.003,124.16 141.908,140.769 142.475,148.909 154.291,153.175 164.295,148.72 171.298,140.562 180.351,124.3 189.623,126.769 
				197.399,121.8 185.374,118.696 193.681,103.556 202.58,80.083 200.072,70.161 195.936,63.34 183.727,57.048 168.159,58.202 			
				"/>
		</g>
		<g>
			<g id="g3275_1_">
				<g>
					<path fill="#9A3820" d="M143.57,85.014c-0.105,0.49,0.779,1.884,2.039,2.15c1.261,0.268,2.422-0.689,2.526-1.179
						s-0.833-1.105-2.097-1.375C144.777,84.345,143.672,84.528,143.57,85.014L143.57,85.014z"/>
				</g>
				<g>
					<path fill="#9A3820" d="M145.866,87.71c-0.121-0.008-0.243-0.024-0.36-0.049c-0.795-0.169-1.568-0.73-2.067-1.501
						c-0.177-0.272-0.459-0.797-0.363-1.25c0.138-0.66,0.971-1.003,2.221-0.915c0.276,0.02,0.562,0.061,0.849,0.122
						c1.339,0.283,2.689,1.024,2.486,1.973C148.478,86.811,147.25,87.808,145.866,87.71z M144.066,85.149
						c0.042,0.317,0.705,1.319,1.649,1.521c0.073,0.014,0.147,0.026,0.222,0.03c0.858,0.063,1.566-0.543,1.691-0.791
						c-0.098-0.17-0.656-0.582-1.694-0.802c-0.24-0.052-0.479-0.085-0.71-0.102C144.562,84.958,144.181,85.073,144.066,85.149z"/>
				</g>
				<g>
					<path fill="#9A3820" d="M182.389,86.757c0.031,0.5-1.038,1.752-2.324,1.84c-1.287,0.085-2.302-1.023-2.338-1.523
						c-0.03-0.5,0.985-0.977,2.269-1.064C181.283,85.922,182.354,86.257,182.389,86.757L182.389,86.757z"/>
				</g>
				<g>
					<path fill="#9A3820" d="M179.751,88.847c-1.235-0.085-2.232-1.127-2.274-1.758c-0.05-0.759,1.222-1.247,2.504-1.334
						c0.28-0.018,0.556-0.016,0.82,0.002c1.099,0.077,1.804,0.454,1.839,0.984c0.023,0.34-0.271,0.843-0.748,1.278
						c-0.313,0.286-0.964,0.773-1.812,0.83C179.971,88.855,179.862,88.855,179.751,88.847z M180.766,86.26
						c-0.241-0.017-0.496-0.017-0.752,0.001c-1.345,0.09-2.049,0.572-2.034,0.795c0.021,0.297,0.761,1.213,1.808,1.286
						c0.087,0.006,0.175,0.006,0.258,0.002c0.69-0.045,1.241-0.458,1.505-0.7c0.412-0.376,0.594-0.743,0.585-0.871
						C182.123,86.605,181.681,86.326,180.766,86.26z"/>
				</g>
			</g>
		</g>
	</g>
	<g>
		<path fill="#9A3820" d="M203.957,77.101c0.335-3.887-0.123-6.793-1.367-8.636c-5.006-7.429-12.825-11.781-22.606-12.579
			c-6.719-0.552-12.528,0.765-13.665,1.17c-2.281-0.742-4.785-1.275-7.536-1.517c-4.473-0.39-8.475,0.268-11.962,1.954
			c-1.404-0.727-5.357-2.655-10.332-4.073c-8.375-2.387-15.288-2.146-20.538,0.71c-6.265,3.41-9.8,10.414-10.509,20.816
			c-0.235,3.499,0.479,14.437,2.393,25.058c2.521,13.976,6.094,22.143,10.616,24.274c0.53,0.246,1.15,0.449,1.852,0.533
			c1.719,0.204,3.915-0.321,6.419-2.696c4.072-3.867,7.825-7.072,9.304-8.316c2.142,1.792,4.711,2.893,7.419,3.16
			c0,0.055,0.005,0.109,0.006,0.163c-0.454,0.468-0.833,0.883-1.152,1.234c-1.579,1.735-1.908,2.097-6.636,2.725
			c-1.344,0.178-4.915,0.654-5.146,3.119c-0.246,2.691,3.892,4.124,4.364,4.277c1.632,0.533,3.246,0.862,4.793,0.973
			c2.794,0.197,5.377-0.311,7.665-1.482c-0.496,0.945-1.024,1.75-1.625,2.664c-0.867,1.322-1.851,2.82-3.044,5.174
			c-2.996,5.915-4.74,10.841,2.168,15.888c2.769,2.022,5.677,3.037,8.685,3.037c1.371,0,2.764-0.211,4.173-0.635
			c9.734-2.918,17.531-15.406,20.397-23.088c0.79-2.118,1.361-2.948,1.614-3.241c0.194-0.021,0.382-0.085,0.558-0.17
			c1.077,0.359,2.404,0.584,3.836,0.686c3.384,0.24,7.339-0.201,9.871-1.164c2.841-1.082,8.026-3.865,7.319-6.65
			c-0.365-1.444-1.834-2.006-4.361-1.668c-7.507,1.003-10.085-0.242-10.911-0.944c6.374-8.357,11.86-18.616,15.115-28.319
			C202.674,84.941,203.65,80.641,203.957,77.101z M124.63,119.912c-2.759,2.618-4.361,1.865-4.886,1.616
			c-3.431-1.616-6.684-9.655-8.919-22.065c-1.938-10.734-2.552-21.372-2.352-24.311c0.632-9.295,3.634-15.467,8.925-18.352
			c8.621-4.697,21.3,0.242,26.325,2.567c-0.472,0.348-0.936,0.712-1.383,1.104c-9.358,8.203-10.137,23.352-10.166,23.994
			c0,0,0,0,0,0.002c-0.025,0.351-0.031,0.84-0.039,1.512c-0.03,2.52-0.084,7.209-1.2,12.448c-1.006,4.732,0.078,9.51,2.973,13.181
			C132.292,112.972,128.605,116.139,124.63,119.912z M136.49,109.981c-2.481-2.992-3.426-6.97-2.583-10.923
			c1.178-5.53,1.236-10.419,1.265-13.043c0.006-0.366,0.009-0.689,0.015-0.944c1.343-1.029,7.421-3.75,11.527-2.496
			c1.873,0.57,2.941,1.95,3.266,4.215c1.678,11.728-0.831,16.39-2.848,20.136c-0.416,0.773-0.808,1.501-1.151,2.259l-0.269,0.589
			c-0.676,1.482-1.306,2.86-1.729,4.183C141.133,113.747,138.443,112.332,136.49,109.981z M139.887,126.419
			c-1.299-0.092-2.667-0.373-4.063-0.829c-0.817-0.267-1.542-0.682-1.959-1.014c0.379-0.146,1.048-0.334,2.197-0.486
			c5.563-0.739,6.466-1.477,8.481-3.691c0.464-0.511,0.988-1.088,1.706-1.782c0.543-0.527,1.01-0.78,1.395-0.752
			c0.265,0.018,0.559,0.155,0.912,0.334c0.647,0.323,1.238,1.201,1.435,2.141c0.094,0.445,0.176,1.276-0.328,1.886
			C147.129,125.287,143.84,126.699,139.887,126.419z M174.89,129.812c-2.526,6.773-9.696,18.467-18.177,21.012
			c-3.467,1.039-6.694,0.422-9.861-1.892c-4.671-3.412-4.021-5.886-1.134-11.583c1.105-2.184,2.034-3.596,2.852-4.844
			c1.412-2.152,2.633-4.013,3.899-8.409c0.068-0.239,0.078-0.481,0.047-0.713c0.565-1.058,0.729-2.327,0.446-3.671
			c-0.394-1.867-1.561-3.489-3.046-4.231c-0.467-0.231-1.17-0.583-2.06-0.646c-0.326-0.022-0.651-0.004-0.975,0.054
			c0.37-1.158,0.953-2.45,1.595-3.855l0.268-0.591c0.302-0.665,0.673-1.35,1.062-2.077c2.108-3.917,5-9.285,3.18-22.004
			c-0.682-4.766-3.907-7.295-9.079-7.129c-3.103,0.1-6.008,1.144-7.463,1.755c-0.315,0.133-0.602,0.261-0.871,0.389
			c0.72-4.692,2.819-13.409,8.769-18.619c3.739-3.278,8.513-4.69,14.177-4.193c11.141,0.976,17.888,7.209,21.588,12.267
			c3.188,4.36,4.778,8.634,5.371,10.918c-5.611-0.975-9.539-0.131-11.686,2.52c-4.672,5.758,1.054,17.991,3.805,23.869
			c0.506,1.081,0.938,2.008,1.071,2.402c0.852,2.562,2.061,4.316,2.944,5.599c0.271,0.394,0.534,0.774,0.73,1.105
			c-1.757,0.375-4.95,1.302-5.034,7.136c-0.003,0.213,0.023,0.503,0.123,0.825C176.553,126.054,175.736,127.542,174.89,129.812z
			 M183.938,99.809c0.187,3.819,0.376,7.753-1.704,11.474c-0.245-0.52-0.479-1.08-0.685-1.701c-0.185-0.559-0.612-1.471-1.201-2.73
			c-2.296-4.905-7.674-16.389-4.199-20.671c1.033-1.278,3.516-2.486,9.447-1.32c-0.132,1.497-0.435,2.844-0.755,4.25
			c-0.341,1.512-0.7,3.073-0.896,4.986C183.754,95.958,183.848,97.917,183.938,99.809z M197.33,121.809
			c0.022-0.001,0.044-0.005,0.069-0.008c-0.897,0.723-2.405,1.677-4.509,2.48c-1.81,0.686-4.786,1.088-7.578,1.022
			c-3.087-0.075-4.615-0.674-4.962-1.002c0.082-3.564,1.43-3.842,2.855-4.136c0.226-0.047,0.444-0.09,0.655-0.149
			c0.122,0.114,0.255,0.23,0.402,0.339C186.62,122.165,191.016,122.65,197.33,121.809z M184.443,114.896
			c-0.106-0.159-0.217-0.318-0.33-0.482c-0.047-0.067-0.095-0.14-0.143-0.208c3.463-4.903,3.225-10.014,3.004-14.546
			c-0.089-1.86-0.178-3.617-0.004-5.251c0.175-1.73,0.513-3.204,0.835-4.625c0.396-1.753,0.804-3.569,0.881-5.738
			c0.074-0.222,0.115-0.488,0.108-0.81c-0.047-2.085-1.975-8.461-6.4-14.422c-2.422-3.259-6.026-6.97-11.115-9.661
			c2.294-0.31,5.41-0.527,8.868-0.204c8.757,0.816,15.461,4.587,19.925,11.211C203.501,75.244,197.794,96.853,184.443,114.896z"/>
		<path fill="#FFFFFF" d="M153.521,155c-3.062,0-6.038-1.04-8.845-3.09c-7.079-5.172-5.305-10.197-2.25-16.229
			c1.197-2.361,2.183-3.864,3.053-5.189c0.443-0.676,0.84-1.279,1.213-1.92c-2.146,0.938-4.511,1.325-7.039,1.146
			c-1.563-0.111-3.198-0.443-4.857-0.985c-0.493-0.16-4.816-1.648-4.55-4.56c0.251-2.682,3.977-3.177,5.379-3.363
			c4.63-0.615,4.911-0.924,6.472-2.639c0.263-0.289,0.565-0.621,0.917-0.99c-2.534-0.327-4.938-1.369-6.987-3.031
			c-1.554,1.311-5.208,4.447-9.119,8.16c-1.966,1.865-3.96,2.811-5.926,2.811c-0.245,0-0.482-0.015-0.711-0.042
			c-0.657-0.079-1.308-0.266-1.934-0.556c-4.609-2.172-8.232-10.406-10.769-24.472c-1.916-10.631-2.633-21.604-2.396-25.124
			c0.716-10.502,4.299-17.58,10.65-21.036c5.291-2.878,12.334-3.128,20.742-0.732c4.838,1.379,8.708,3.234,10.262,4.031
			c3.496-1.661,7.534-2.312,11.981-1.921c2.599,0.228,5.124,0.732,7.51,1.5c1.275-0.425,5.434-1.288,10.359-1.288
			c1.127,0,2.248,0.045,3.331,0.134c9.867,0.805,17.754,5.196,22.809,12.698c1.278,1.893,1.754,4.857,1.413,8.811
			c-0.309,3.562-1.29,7.883-2.838,12.497c-3.216,9.588-8.674,19.843-14.992,28.181c0.679,0.469,2.207,1.1,5.504,1.1
			c1.458,0,3.138-0.125,4.991-0.373c2.69-0.359,4.258,0.278,4.66,1.871c0.753,2.965-4.351,5.776-7.485,6.971
			c-2.053,0.78-5.079,1.246-8.097,1.246c-0.646,0-1.282-0.022-1.891-0.065c-1.476-0.104-2.753-0.328-3.801-0.665
			c-0.146,0.062-0.29,0.106-0.431,0.132c-0.243,0.31-0.775,1.133-1.503,3.083c-2.885,7.733-10.745,20.307-20.573,23.253
			C156.347,154.782,154.916,155,153.521,155z M147.976,127.335l-0.397,0.757c-0.504,0.96-1.029,1.761-1.639,2.687
			c-0.868,1.325-1.846,2.814-3.028,5.148c-2.938,5.799-4.649,10.625,2.086,15.546c3.946,2.883,8.226,3.685,12.619,2.361
			c9.639-2.89,17.374-15.292,20.222-22.923c0.798-2.141,1.385-3.001,1.663-3.323l0.069-0.081l0.105-0.012
			c0.147-0.017,0.305-0.064,0.47-0.145l0.1-0.048l0.104,0.035c1.008,0.336,2.312,0.568,3.77,0.672
			c0.596,0.042,1.219,0.063,1.852,0.063c2.955,0,5.91-0.452,7.903-1.211c3.211-1.223,7.766-3.917,7.153-6.33
			c-0.329-1.301-1.681-1.785-4.062-1.466c-1.878,0.25-3.581,0.378-5.063,0.378c-3.661,0-5.315-0.753-6.06-1.384l-0.196-0.167
			l0.156-0.205c6.354-8.331,11.848-18.624,15.074-28.241c1.534-4.573,2.506-8.851,2.811-12.371c0.33-3.826-0.114-6.673-1.321-8.461
			c-4.96-7.361-12.707-11.669-22.404-12.46c-1.068-0.088-2.174-0.132-3.286-0.132c-5.467,0-9.548,1.032-10.266,1.287l-0.087,0.031
			l-0.088-0.029c-2.372-0.771-4.888-1.277-7.476-1.504c-4.4-0.381-8.387,0.267-11.82,1.928l-0.122,0.059l-0.121-0.062
			c-1.452-0.751-5.36-2.65-10.281-4.053c-8.262-2.354-15.172-2.122-20.334,0.688c-6.177,3.362-9.665,10.292-10.368,20.596
			c-0.235,3.493,0.48,14.402,2.389,24.991c2.504,13.884,6.024,21.985,10.465,24.078c0.573,0.266,1.168,0.437,1.768,0.508
			c0.208,0.025,0.424,0.039,0.647,0.039c1.823,0,3.691-0.896,5.553-2.662c4.074-3.868,7.872-7.112,9.315-8.327l0.175-0.146
			l0.174,0.146c2.11,1.766,4.625,2.837,7.271,3.098l0.245,0.024l0.008,0.516l-0.079,0.081c-0.451,0.465-0.828,0.878-1.146,1.228
			c-1.661,1.826-2.122,2.189-6.8,2.812c-1.286,0.17-4.701,0.623-4.912,2.875c-0.231,2.533,3.998,3.935,4.178,3.994
			c1.618,0.528,3.209,0.852,4.729,0.96c2.729,0.194,5.267-0.299,7.521-1.453L147.976,127.335z M153.527,151.582
			c-2.36,0-4.596-0.795-6.836-2.432c-4.817-3.52-4.116-6.2-1.216-11.925c1.1-2.171,2.023-3.581,2.838-4.825
			c1.43-2.18,2.64-4.023,3.895-8.379c0.054-0.189,0.067-0.392,0.039-0.602l-0.012-0.087l0.041-0.077
			c0.542-1.014,0.688-2.22,0.42-3.487c-0.377-1.789-1.488-3.339-2.901-4.045c-0.459-0.227-1.131-0.56-1.958-0.618
			c-0.299-0.021-0.604-0.003-0.907,0.05l-0.443,0.079l0.137-0.428c0.363-1.135,0.919-2.378,1.606-3.885l0.268-0.59
			c0.287-0.633,0.634-1.279,1.001-1.963l0.069-0.13c2.093-3.888,4.958-9.209,3.15-21.837c-0.657-4.597-3.79-7.054-8.802-6.896
			c-3.052,0.098-5.926,1.128-7.366,1.734c-0.312,0.131-0.595,0.258-0.86,0.384l-0.462,0.218l0.078-0.504
			c0.729-4.756,2.85-13.521,8.857-18.782c3.789-3.322,8.651-4.761,14.379-4.259c11.24,0.984,18.05,7.273,21.783,12.376
			c3.68,5.033,5.075,9.7,5.415,11.011l0.105,0.407l-0.415-0.072c-5.481-0.953-9.357-0.134-11.428,2.423
			c-4.565,5.626,1.111,17.754,3.84,23.583c0.568,1.214,0.95,2.04,1.082,2.43c0.84,2.525,2.036,4.261,2.909,5.529
			c0.284,0.411,0.543,0.787,0.742,1.124l0.192,0.325l-0.369,0.079c-1.417,0.303-4.735,1.012-4.819,6.875
			c-0.003,0.167,0.015,0.431,0.11,0.741l0.05,0.159l-0.12,0.116c-0.837,0.81-1.646,2.284-2.477,4.508
			c-2.544,6.821-9.776,18.604-18.353,21.177C155.686,151.414,154.588,151.582,153.527,151.582z M152.795,123.435
			c0.023,0.254,0.002,0.501-0.065,0.736c-1.278,4.436-2.509,6.311-3.933,8.482c-0.837,1.276-1.751,2.673-2.837,4.817
			c-2.869,5.663-3.47,7.939,1.052,11.242c3.107,2.27,6.226,2.87,9.623,1.851c8.388-2.518,15.493-14.123,18.001-20.847
			c0.833-2.234,1.628-3.701,2.492-4.593c-0.078-0.309-0.093-0.572-0.091-0.749c0.084-5.796,3.268-6.934,4.873-7.313
			c-0.153-0.237-0.33-0.493-0.514-0.759c-0.901-1.308-2.123-3.081-2.986-5.678c-0.131-0.39-0.603-1.397-1.06-2.373
			c-2.774-5.928-8.548-18.264-3.77-24.154c2.149-2.653,6.034-3.565,11.523-2.686c-0.477-1.677-1.907-5.895-5.217-10.421
			c-3.667-5.012-10.355-11.19-21.393-12.157c-5.578-0.484-10.299,0.905-13.975,4.127c-5.676,4.971-7.812,13.182-8.6,17.958
			c0.134-0.06,0.272-0.12,0.418-0.181c1.477-0.62,4.421-1.675,7.56-1.776c5.334-0.174,8.655,2.459,9.356,7.361
			c1.833,12.805-1.081,18.217-3.208,22.169l-0.071,0.132c-0.362,0.676-0.704,1.314-0.984,1.931l-0.268,0.59
			c-0.599,1.312-1.096,2.42-1.447,3.42c0.199-0.014,0.4-0.015,0.599-0.001c0.934,0.066,1.663,0.427,2.146,0.666
			c1.573,0.787,2.795,2.479,3.206,4.426C153.515,121.019,153.364,122.323,152.795,123.435z M140.856,126.725
			c-0.325,0-0.654-0.012-0.989-0.035c-1.312-0.093-2.701-0.376-4.128-0.841c-0.892-0.292-1.641-0.739-2.044-1.061l-0.37-0.295
			l0.441-0.17c0.537-0.206,1.297-0.375,2.26-0.502c5.467-0.726,6.35-1.444,8.316-3.605c0.468-0.516,0.995-1.096,1.718-1.794
			c0.576-0.559,1.075-0.831,1.526-0.831l0.076,0.003c0.321,0.022,0.65,0.178,1.016,0.363c0.728,0.363,1.362,1.298,1.577,2.327
			c0.104,0.49,0.19,1.417-0.385,2.115C147.496,125.27,144.463,126.725,140.856,126.725z M134.469,124.667
			c0.377,0.232,0.875,0.482,1.438,0.666c1.385,0.452,2.73,0.726,3.999,0.816c3.855,0.271,7.073-1.106,9.547-4.096
			c0.431-0.521,0.355-1.262,0.271-1.657c-0.177-0.849-0.72-1.67-1.29-1.955c-0.302-0.153-0.59-0.292-0.81-0.307l-0.038-0.272v0.271
			c-0.206,0-0.571,0.118-1.149,0.678c-0.71,0.686-1.23,1.26-1.69,1.766c-2.071,2.276-2.995,3.03-8.649,3.782
			C135.37,124.455,134.844,124.565,134.469,124.667z M185.916,125.581c-0.204,0-0.407-0.002-0.61-0.007
			c-3.243-0.079-4.758-0.713-5.142-1.076l-0.087-0.083l0.002-0.121c0.087-3.78,1.604-4.092,3.072-4.395l0.07-0.015
			c0.194-0.04,0.384-0.079,0.566-0.13l0.146-0.041l0.111,0.104c0.115,0.107,0.24,0.216,0.379,0.319
			c1.558,1.197,4.073,1.802,7.48,1.802h0.001c1.594,0,3.407-0.134,5.388-0.398l0.961-0.128l-0.686,0.6
			c-0.681,0.549-2.182,1.606-4.582,2.522C191.282,125.18,188.573,125.581,185.916,125.581z M180.626,124.17
			c0.397,0.258,1.792,0.791,4.693,0.861c2.774,0.067,5.701-0.333,7.476-1.004c1.613-0.616,2.805-1.295,3.603-1.83
			c-1.621,0.188-3.134,0.283-4.491,0.283h-0.001c-3.53,0-6.156-0.643-7.807-1.911c-0.109-0.081-0.213-0.167-0.311-0.254
			c-0.149,0.037-0.301,0.068-0.456,0.101l-0.071,0.015C181.905,120.709,180.731,120.952,180.626,124.17z M120.959,122.092
			c-0.659,0-1.113-0.216-1.332-0.319c-3.513-1.655-6.819-9.769-9.07-22.263c-1.941-10.755-2.556-21.425-2.355-24.377
			c0.638-9.392,3.688-15.64,9.065-18.572c2.423-1.32,5.354-1.989,8.713-1.989c6.982,0,14.184,2.85,17.856,4.549l0.415,0.192
			l-0.368,0.272c-0.521,0.384-0.967,0.741-1.365,1.09c-9.255,8.113-10.045,23.166-10.074,23.802
			c-0.025,0.355-0.031,0.863-0.038,1.505c-0.031,2.546-0.088,7.25-1.207,12.501c-0.984,4.631,0.08,9.354,2.92,12.956l0.162,0.206
			l-0.2,0.169c-1.436,1.212-5.214,4.447-9.267,8.294C123.429,121.425,122.132,122.092,120.959,122.092z M125.982,55.114
			c-3.267,0-6.111,0.647-8.454,1.923c-5.204,2.837-8.159,8.938-8.784,18.132c-0.199,2.928,0.415,13.533,2.348,24.244
			c2.219,12.318,5.414,20.289,8.768,21.869c0.197,0.094,0.563,0.268,1.1,0.268c1.029,0,2.201-0.618,3.484-1.835
			c3.888-3.69,7.524-6.819,9.091-8.146c-2.819-3.702-3.863-8.497-2.864-13.198c1.108-5.2,1.164-9.868,1.194-12.376
			c0.008-0.696,0.014-1.186,0.04-1.547c0.029-0.642,0.831-15.917,10.258-24.181c0.312-0.274,0.653-0.552,1.034-0.844
			C139.457,57.729,132.607,55.114,125.982,55.114z M184.433,115.366l-0.215-0.32c-0.105-0.157-0.215-0.316-0.327-0.479l-0.252-0.362
			l0.11-0.156c3.419-4.841,3.172-9.907,2.955-14.376l-0.006-0.104c-0.087-1.833-0.17-3.564,0.003-5.188
			c0.173-1.717,0.504-3.176,0.824-4.587l0.016-0.069c0.393-1.733,0.798-3.525,0.874-5.688l0.015-0.076
			c0.068-0.205,0.1-0.446,0.094-0.718c-0.046-2.056-1.955-8.351-6.347-14.266c-3.048-4.102-6.757-7.326-11.024-9.583l-0.747-0.396
			l0.838-0.113c2.985-0.402,6.049-0.474,8.93-0.205c8.843,0.824,15.613,4.636,20.124,11.33c1.762,2.611,1.191,9.409-1.488,17.742
			c-3.003,9.337-8.027,19.035-14.147,27.305L184.433,115.366z M184.301,114.207l0.035,0.052c0.039,0.056,0.078,0.112,0.116,0.168
			c13.438-18.318,18.612-39.344,15.396-44.114c-4.416-6.553-11.053-10.285-19.726-11.093c-2.573-0.241-5.298-0.206-7.975,0.099
			c4.028,2.269,7.546,5.406,10.465,9.334c4.464,6.013,6.406,12.461,6.454,14.578c0.007,0.318-0.03,0.608-0.11,0.863
			c-0.082,2.196-0.49,4.003-0.886,5.751l-0.016,0.069c-0.316,1.395-0.644,2.837-0.814,4.523c-0.168,1.583-0.086,3.295,0,5.106
			l0.005,0.104C187.465,104.157,187.714,109.262,184.301,114.207z M144.177,114.244l-0.213-0.016
			c-2.953-0.218-5.681-1.665-7.683-4.073c-2.536-3.058-3.498-7.123-2.64-11.153c1.179-5.533,1.231-10.384,1.259-12.99l0.018-1.077
			l0.104-0.079c1.067-0.818,5.404-2.875,9.308-2.875c0.905,0,1.734,0.113,2.464,0.335c1.984,0.604,3.114,2.055,3.455,4.436
			c1.69,11.818-0.843,16.523-2.877,20.303c-0.412,0.765-0.801,1.488-1.144,2.243l-0.269,0.589c-0.677,1.484-1.303,2.855-1.717,4.153
			L144.177,114.244z M135.455,85.21l-0.012,0.809c-0.028,2.624-0.081,7.51-1.271,13.096c-0.824,3.866,0.097,7.764,2.526,10.693
			c1.858,2.237,4.37,3.602,7.093,3.861c0.423-1.266,1.024-2.584,1.659-3.976l0.282-0.62c0.351-0.771,0.743-1.502,1.159-2.275
			c1.998-3.71,4.483-8.329,2.818-19.969c-0.308-2.151-1.314-3.458-3.076-3.995c-0.678-0.207-1.454-0.312-2.306-0.312
			C140.672,82.523,136.636,84.38,135.455,85.21z M182.214,111.875l-0.225-0.477c-0.28-0.594-0.508-1.16-0.697-1.731
			c-0.176-0.534-0.588-1.414-1.157-2.632l-0.032-0.068c-2.319-4.955-7.744-16.544-4.164-20.957c1.519-1.875,4.845-2.371,9.711-1.416
			l0.239,0.047l-0.021,0.243c-0.137,1.545-0.454,2.938-0.761,4.286l-0.03,0.132c-0.33,1.465-0.672,2.981-0.861,4.822
			c-0.189,1.843-0.096,3.79-0.006,5.672c0.188,3.848,0.383,7.826-1.738,11.619L182.214,111.875z M181.32,84.659
			c-2.351,0-4.065,0.585-4.96,1.691c-3.366,4.149,1.958,15.523,4.231,20.38l0.034,0.074c0.578,1.235,0.995,2.127,1.182,2.691
			c0.128,0.389,0.275,0.775,0.446,1.171c1.771-3.517,1.59-7.24,1.414-10.846c-0.092-1.902-0.187-3.87,0.008-5.754
			c0.192-1.873,0.537-3.404,0.871-4.885l0.03-0.133c0.287-1.259,0.583-2.557,0.727-3.97
			C183.824,84.801,182.485,84.659,181.32,84.659z"/>
	</g>
</g>
<g>
	<path fill="#9A3820" d="M120.543,146.367c0.565-0.264,4.176-2.558,3.349-6.771c-0.828-4.213,0.527-4.475,0.527-4.475
		s1.562,0.654,1.978,2.498c0.412,1.843,2.311,7.882-3.369,10.892c-4.21,2.229-6.885,2.105-8.991,0.978"/>
</g>
<g>
	<path fill="#FF8300" d="M87.415,94.195"/>
</g>
<g>
	<g>
		<g>
			<path fill="#FF8300" d="M170.906,67.147l-11.947,2.699l-6.831-3.802l-6.113,2.524l-7.619-4.393l0.096-0.623
				c0.423-2.743,1.405-6.755,3.682-10.292c1.982-3.323,4.577-6.367,7.488-8.775c3.137-2.597,6.643-4.452,9.874-5.223
				c1.14-0.272,2.244-0.411,3.282-0.411c0.562,0,1.11,0.041,1.63,0.122l-0.001,0.932l0.154-0.907
				c4.245,0.722,8.833,4.36,12.273,9.732c2.041,3.185,3.585,6.874,4.468,10.669c0.57,2.445,0.875,4.981,0.906,7.535l0.006,0.459
				l-5.677,4.377L170.906,67.147z"/>
		</g>
		<g>
			<path fill="#FFFFFF" d="M162.817,39.772c0.515,0,1.012,0.037,1.488,0.111c0.047,0.01,0.095,0.014,0.141,0.022
				c3.879,0.66,8.306,4.095,11.653,9.322c1.889,2.948,3.437,6.469,4.346,10.381c0.541,2.319,0.852,4.777,0.883,7.338l-4.735,3.651
				l-5.452-4.446l-12.041,2.72l-6.912-3.847l-6.105,2.521l-6.682-3.852c0.477-3.088,1.521-6.789,3.546-9.934
				c2.059-3.45,4.604-6.333,7.302-8.564c3.133-2.594,6.476-4.315,9.501-5.037C160.818,39.902,161.849,39.772,162.817,39.772
				 M162.817,37.933c-1.109,0-2.286,0.146-3.496,0.436c-3.414,0.815-6.957,2.686-10.247,5.41c-2.982,2.468-5.643,5.584-7.692,9.012
				c-2.351,3.666-3.364,7.798-3.8,10.623l-0.192,1.246l1.092,0.629l6.682,3.852l0.784,0.452l0.837-0.346l5.284-2.183l6.137,3.416
				l0.614,0.342l0.686-0.155l11.167-2.523l4.758,3.88l1.131,0.922l1.155-0.891l4.735-3.651l0.729-0.561l-0.012-0.918
				c-0.032-2.621-0.345-5.223-0.931-7.733c-0.905-3.895-2.492-7.684-4.589-10.956c-3.577-5.586-8.397-9.378-12.894-10.143
				c-0.022-0.004-0.06-0.01-0.099-0.015l-0.013-0.003l-0.056-0.009C164.022,37.977,163.426,37.933,162.817,37.933L162.817,37.933z"
				/>
		</g>
	</g>
	<g>
		<g>
			<path fill="#FFC289" d="M170.99,66.792l-11.98,2.707l-6.86-3.818l-6.11,2.523l-7.286-4.2l0.062-0.401
				c0.418-2.712,1.388-6.676,3.633-10.164c1.969-3.301,4.539-6.315,7.422-8.701c3.099-2.565,6.558-4.397,9.741-5.157
				c1.115-0.267,2.193-0.402,3.206-0.402c0.545,0,1.076,0.04,1.579,0.118l0.149,0.024c4.155,0.708,8.661,4.291,12.053,9.586
				c2.021,3.153,3.55,6.807,4.424,10.566c0.564,2.422,0.867,4.934,0.897,7.465l0.004,0.296l-5.342,4.118L170.99,66.792z"/>
		</g>
		<g>
			<path fill="#9A3820" d="M162.817,39.772c0.515,0,1.012,0.037,1.488,0.111c0.047,0.01,0.095,0.014,0.141,0.022
				c3.879,0.66,8.306,4.095,11.653,9.322c1.889,2.948,3.437,6.469,4.346,10.381c0.541,2.319,0.852,4.777,0.883,7.338l-4.735,3.651
				l-5.452-4.446l-12.041,2.72l-6.912-3.847l-6.105,2.521l-6.682-3.852c0.477-3.088,1.521-6.789,3.546-9.934
				c2.059-3.45,4.604-6.333,7.302-8.564c3.133-2.594,6.476-4.315,9.501-5.037C160.818,39.902,161.849,39.772,162.817,39.772
				 M162.817,38.588c-1.059,0-2.184,0.141-3.344,0.418c-3.27,0.781-6.814,2.655-9.981,5.277c-2.934,2.428-5.549,5.495-7.563,8.87
				c-2.279,3.541-3.271,7.592-3.699,10.36l-0.124,0.802l0.703,0.405l6.682,3.852l0.505,0.291l0.539-0.223l5.577-2.303l6.412,3.569
				l0.396,0.22l0.441-0.1l11.479-2.593l5.005,4.082l0.729,0.594l0.744-0.574l4.735-3.651l0.468-0.361l-0.007-0.592
				c-0.031-2.573-0.339-5.128-0.914-7.592c-0.889-3.824-2.445-7.542-4.502-10.751c-3.479-5.433-8.135-9.116-12.451-9.851
				l-0.096-0.014l-0.035-0.008l-0.027-0.003C163.955,38.63,163.393,38.588,162.817,38.588L162.817,38.588z"/>
		</g>
	</g>
</g>
<g>
	<path fill="#FFFFFF" d="M106.62,140.059c-3.732-1.492-9.007-4.63-10.48-6.595l0.386-0.289c1.404,1.871,6.675,4.997,10.274,6.437
		L106.62,140.059z"/>
</g>
<g>
	<g>
		<path fill="#FF8300" d="M243.462,149.671l6.112,1.799l2.659-3.92l0.678,4.907l7.729,2.28l-7.242,1.244l0.635,4.622l-3.927-4.062
			l-4.506,0.775l2.164-3.19L243.462,149.671z"/>
	</g>
</g>
<g>
	<g>
		<polygon fill="#FF8300" points="16.354,166.107 23.603,164.329 24.557,159.273 27.914,163.275 35.854,161.333 30.704,166.602 
			34.826,171.511 27.888,169.479 21.368,176.143 22.901,168.021 		"/>
	</g>
</g>
<g>
	<g>
		<polygon fill="#FF8300" points="68.703,89.283 73.008,86.199 76.588,87.883 75.571,84.369 80.283,80.991 74.715,81.448 
			73.466,77.13 71.677,81.7 64.641,82.275 70.39,84.973 		"/>
	</g>
</g>
</svg>
