<?xml version="1.0" encoding="utf-8"?>
<!-- Generator: Adobe Illustrator 16.0.0, SVG Export Plug-In . SVG Version: 6.00 Build 0)  -->
<!DOCTYPE svg PUBLIC "-//W3C//DTD SVG 1.1//EN" "http://www.w3.org/Graphics/SVG/1.1/DTD/svg11.dtd">
<svg version="1.1" id="Layer_1" xmlns="http://www.w3.org/2000/svg" xmlns:xlink="http://www.w3.org/1999/xlink" x="0px" y="0px"
	 width="274.676px" height="274.676px" viewBox="0 0 274.676 274.676" enable-background="new 0 0 274.676 274.676"
	 xml:space="preserve">
<g>
	<polygon points="181.681,243.444 183.021,254.349 187.276,252.626 185.938,241.72 	"/>
	<polygon points="32.978,199.958 29.114,201.065 31.494,204.993 35.357,203.884 	"/>
	<polygon points="49.401,80.648 36.229,67.473 32.342,74.22 45.515,87.396 	"/>
	<path d="M137.337,3C63.145,3,3,63.145,3,137.338c0,74.191,60.145,134.338,134.337,134.338s134.339-60.146,134.339-134.338
		C271.676,63.145,211.529,3,137.337,3z M248.736,74.963l6.416,11.24l-28.336,7.454l-5.112-8.955l23.181-6.086l-1.304-2.284
		L248.736,74.963z M218.203,38.553l14.842,11.765l-4.275,3.19l-12.738-10.097l-3.555,2.62c1.796,2.363,3.238,4.368,4.329,6.016
		c1.088,1.646,1.908,3.013,2.458,4.097s0.889,1.912,1.018,2.484c0.129,0.571,0.106,0.969-0.068,1.188l-0.098,0.123l-6.453,4.755
		c-2.785,2.044-6.17,1.487-10.154-1.672l-14.843-11.765l4.274-3.19l12.781,10.13l3.931-2.927c-1.658-2.03-3.042-3.842-4.149-5.437
		c-1.109-1.595-1.978-2.954-2.606-4.08c-0.63-1.126-1.036-2.04-1.216-2.743c-0.182-0.703-0.186-1.164-0.011-1.384l6.24-4.654
		C210.758,34.846,214.189,35.372,218.203,38.553z M102.039,19.629c0.199-3.525,2.834-5.843,7.905-6.95l20.097-4.391l-0.236,5.329
		l-17.68,3.863l-0.889,18.61l7.607-1.662l0.641-13.333l10.073-2.201l-0.63,13.384c-0.078,1.777-0.79,3.242-2.136,4.397
		c-1.345,1.156-3.269,2.007-5.769,2.553l-12.438,2.719c-4.317,0.943-6.742,0.199-7.273-2.234c-0.082-0.377-0.128-0.833-0.138-1.371
		L102.039,19.629z M95.981,14.783l1.202,5.197l-7.161,3.79l5.339,23.363l-9.114,4.823l-5.339-23.363l-7.161,3.789l-1.202-5.196
		L95.981,14.783z M76.588,87.883l-3.58-1.685l-4.305,3.084l1.687-4.31l-5.749-2.698l7.036-0.576l1.789-4.569l1.249,4.317
		l5.568-0.457l-4.712,3.378L76.588,87.883z M51.831,42.524l13.86-12.907l2.513,4.706L56.307,45.4l2.057,3.908
		c2.606-1.421,4.806-2.546,6.597-3.376c1.791-0.829,3.266-1.434,4.42-1.815c1.155-0.381,2.024-0.591,2.609-0.633
		c0.585-0.04,0.974,0.042,1.164,0.247l0.107,0.116l3.73,7.094c1.604,3.06,0.544,6.321-3.178,9.788l-13.86,12.907l-2.513-4.707
		l11.936-11.113l-2.303-4.325c-2.256,1.334-4.256,2.429-5.999,3.284c-1.743,0.858-3.218,1.512-4.426,1.965
		c-1.207,0.453-2.172,0.717-2.894,0.791c-0.723,0.074-1.179,0.007-1.37-0.198l-3.664-6.868
		C47.047,49.328,48.083,46.013,51.831,42.524z M27.322,72.603l6.356-11.032c1.086-1.884,2.175-3.157,3.267-3.823
		c1.093-0.667,2.17-0.694,3.234-0.082c0.182,0.106,0.367,0.223,0.556,0.353s0.388,0.293,0.595,0.495L54.595,71.74
		c1.261,1.253,1.867,2.767,1.817,4.539c-0.05,1.772-0.714,3.769-1.992,5.986l-6.356,11.032c-2.206,3.828-4.388,5.121-6.546,3.878
		c-0.334-0.193-0.703-0.466-1.106-0.82L27.148,83.127C24.673,80.607,24.731,77.1,27.322,72.603z M11.4,115.354l4.596-20.051
		c0.485-2.119,1.153-3.656,2.002-4.614c0.849-0.956,1.872-1.297,3.068-1.023c0.205,0.048,0.417,0.104,0.635,0.173
		c0.219,0.068,0.457,0.167,0.714,0.298l9.389,4.96c3.104,1.682,4.077,5.054,2.917,10.112l-2.292,10l7.17,3.802l-2.303,10.051
		l-18.816-9.979l2.304-10.051l6.926,3.691l1.739-7.589l-9.286-4.935l-4.043,17.64L11.4,115.354z M16.354,166.107l7.249-1.778
		l0.954-5.056l3.357,4.002l7.939-1.942l-5.149,5.269l4.122,4.909l-6.938-2.032l-6.52,6.664l1.533-8.121L16.354,166.107z
		 M31.758,209.856c-0.902-0.529-1.744-1.439-2.526-2.73l-6.288-10.375l12.062-3.502l3.152,5.201l-2.163,0.621l2.38,3.928
		l3.672-1.064l-5.531-9.129l3.018-0.885l6.287,10.375c0.665,1.096,1.013,2.021,1.047,2.775c0.033,0.752-0.26,1.316-0.879,1.693
		c-0.104,0.062-0.219,0.125-0.34,0.186c-0.12,0.062-0.262,0.117-0.423,0.168l-3.045,0.902c-0.308,0.09-0.569,0.15-0.78,0.182
		s-0.414,0.033-0.612,0.008c-0.197-0.025-0.398-0.078-0.604-0.16c-0.206-0.08-0.449-0.193-0.73-0.336
		c-0.116,0.287-0.235,0.529-0.358,0.725c-0.124,0.195-0.309,0.369-0.556,0.52c-0.23,0.139-0.5,0.252-0.808,0.344l-3.114,0.906
		C33.613,210.505,32.659,210.388,31.758,209.856z M45.497,227.769l-3.954-4.578l2.708-3.938l-1.44-1.668l-4.31,2.082l-3.976-4.602
		l11.311-5.463l3.974,4.602l-4.17,2.004l3.001,3.475l5.585-2.693l-6.977-8.076l2.828-1.377l7.93,9.18
		c0.838,0.971,1.336,1.824,1.495,2.562s-0.036,1.344-0.583,1.816c-0.094,0.08-0.196,0.162-0.304,0.242
		c-0.109,0.08-0.239,0.158-0.391,0.234l-5.634,2.734c-1.351,0.648-2.752,0.451-4.201-0.594L45.497,227.769z M61,241.165
		l-8.478-7.078c-2-1.67-2.53-3.068-1.589-4.195c0.146-0.176,0.342-0.361,0.588-0.561l9.031-6.363
		c1.714-1.182,3.747-0.793,6.097,1.168l8.479,7.078l-2.568,1.816l-7.359-6.143l-2.548,1.793l5.811,4.852l-2.61,1.822l-5.812-4.852
		l-3.831,2.701l7.358,6.145L61,241.165z M74.153,249.423l3.413-3.355l-3.957-2.328l-3.414,3.354l-5.242-3.082l10.095-9.936
		c1.499-1.445,3.567-1.393,6.206,0.16l10.454,6.152l-2.237,2.211l-9.197-5.414l-4.428,4.344l3.958,2.328l3.308-3.236l5.241,3.084
		l-8.959,8.803L74.153,249.423z M107.711,249.093l-1.74-0.66l-6.287,3.189l-0.267,8.924l-5.655-2.145l0.134-7.615l-4.341,6.02
		l-5.686-2.156l10.098-14.021l5.686,2.156l-4.194,5.809l8.371-4.225l5.715,2.168L107.711,249.093z M125.447,265.438l-6.041-0.701
		l5.211-13.137l-4.745-0.553l1.151-2.926l15.532,1.803l-1.152,2.928l-4.746-0.553L125.447,265.438z M151.768,265.44l-6.074,0.279
		l1.667-7.654l-4.587,0.211l-1.666,7.654l-6.075,0.277l3.697-16.877l6.074-0.279l-1.333,6.117l4.586-0.211l1.333-6.117l6.075-0.279
		L151.768,265.44z M173.411,253.325c-0.076,1.5-0.917,2.635-2.526,3.41l2.188,4.477l-5.911,1.293l-2.17-4.258l-2.151,0.473
		l-0.226,4.779l-5.939,1.301l0.59-12.547l5.939-1.299l-0.227,4.621l4.486-0.98l0.296-6.193l-10.427,2.279l0.139-3.143l11.851-2.592
		c1.252-0.273,2.241-0.305,2.966-0.094c0.723,0.213,1.163,0.674,1.317,1.379c0.026,0.123,0.049,0.25,0.067,0.383
		c0.019,0.135,0.025,0.285,0.021,0.457L173.411,253.325z M174.812,227.524c-1.471,0.273-3.155,0.415-4.976,0.415
		c-1.511,0-3.032-0.1-4.4-0.288c-2.315-0.319-2.654-0.581-2.856-0.891l-0.187-0.285l0.037-0.163
		c-0.107-0.451-0.413-1.707-0.631-2.312c-0.05-0.137-0.082-0.173-0.083-0.174c-0.084-0.044-0.489-0.058-0.848-0.07l-0.487-0.019
		c-0.242-0.012-0.456-0.028-0.648-0.043c-0.208-0.017-0.388-0.031-0.548-0.031c-0.262,0-0.394,0-0.725,0.459
		c-0.662,0.925-1.174,2.172-1.179,2.185l-0.097,0.169c-0.787,1.041-2.482,1.217-4.123,1.387c-0.471,0.049-0.932,0.097-1.345,0.165
		c-0.483,0.08-1.119,0.119-1.943,0.119c-1.264,0-2.745-0.092-4.053-0.173c-0.607-0.037-1.173-0.072-1.652-0.094
		c-2.288-0.107-2.892-0.862-3.045-1.183l-0.045-0.119c-0.001-0.002-0.25-0.882-0.533-1.824c-0.205-0.681-0.341-0.687-0.706-0.701
		c-0.71-0.029-1.577-0.029-2.441,0c-0.339,0.107-0.979,1.452-1.288,2.098c-0.107,0.227-0.213,0.447-0.315,0.651
		c-0.465,0.827-1.795,1.576-8.435,1.677c-6.099,0.097-7.637-1.019-7.876-1.234l-0.196-0.177l-0.042-0.261
		c-0.002-0.014-0.212-1.305-0.608-2.182c-0.133-0.294-0.354-0.559-1.582-0.559c-0.204,0-0.419,0.007-0.645,0.017
		c-1.269,0.057-1.375,0.284-1.63,0.834c-0.39,0.842-0.79,1.976-0.794,1.987c-0.503,1.211-2.112,1.531-8.215,1.671
		c-4.999,0.114-7.054-0.48-7.537-0.652l-0.044-0.016c-0.611-0.16-0.785-0.74-1.003-1.466c-0.082-0.274-0.184-0.613-0.327-1.024
		c-0.359-1.026-0.603-1.206-1.631-1.206l-0.417,0.004l-0.779-0.01c-0.505,0-0.57,0-0.85,0.591c-0.455,0.955-0.878,2.336-1.039,2.885
		l-0.125,0.426l-0.433,0.095c-0.972,0.213-3.664,0.728-7.676,0.911c-0.303,0.014-0.591,0.021-0.867,0.021
		c-4.812,0-6.091-2.182-7.163-4.817c-1.15-2.829-2.277-5.851-3.054-7.984c-2.671-1.206-3.736-3.389-2.852-5.894
		c0.844-2.39,2.813-5.583,4.788-7.766c0.156-0.172,0.326-0.338,0.518-0.505c0.494-1.652,1.239-3.134,2.158-4.386l-17.011,3.002
		l13.667-19.666l-34.736-4.916l28.771-20.214L21.24,145.205l53.569-5.94l-27.294-15.423l29.172-1.064L55.502,97.089l37.827,8.029
		l-6.555-33.945l18.461,9.005c-0.12-2.319-0.139-4.149-0.065-5.25c0.716-10.502,4.299-17.58,10.65-21.036
		c5.291-2.878,12.334-3.128,20.742-0.732c1.388,0.396,2.682,0.83,3.878,1.268c0.289-0.551,0.597-1.1,0.941-1.637
		c2.05-3.428,4.71-6.544,7.692-9.012c2.443-2.023,5.026-3.573,7.593-4.572l-7.381-0.594l-1.417-7.977l-3.724-0.3l-2.726,7.645
		l-10.278-0.828l7.155-20.061l10.278,0.828l-2.652,7.386l7.762,0.625l3.54-9.901l-18.038-1.452l1.776-5.029l20.504,1.649
		c2.167,0.175,3.785,0.613,4.855,1.315c1.068,0.701,1.555,1.665,1.456,2.888c-0.017,0.209-0.043,0.427-0.079,0.652
		c-0.036,0.227-0.1,0.476-0.191,0.75l-3.55,10.007c-0.861,2.393-2.788,3.821-5.781,4.284l1.163,7.271
		c1.203-0.287,2.374-0.433,3.478-0.433c0.438,0,0.867,0.031,1.286,0.077c0.034-0.294,0.11-0.594,0.232-0.899
		c0.144-0.358,0.362-0.763,0.655-1.212l11.22-15.002c2.144-2.806,5.625-3.245,10.443-1.315l17.387,6.96l-3.186,4.278l-15.092-6.041
		l-3.167,4.229l11.918,4.771l-3.255,4.307l-11.917-4.771l-4.759,6.368l15.092,6.042l-3.188,4.278l-10.607-4.247
		c0.615,0.781,1.208,1.605,1.768,2.479c1.471,2.295,2.685,4.848,3.594,7.511c9.288,1.061,16.731,5.383,21.572,12.567
		c1.278,1.893,1.754,4.857,1.413,8.811c-0.205,2.363-0.712,5.065-1.478,7.96l9.913-1.3l-13.335,25.333l19,3.667l-14.332,13.666
		l49.328,4.066l-47.901,16.534l31.906,13.4l-33.176,2.297l24.804,18.563l-36.963,0.14l21.068,23.391l-11.412-1.785l-0.705-0.11
		c0.409,0.47,0.817,0.971,1.213,1.505c1.433,1.937,2.705,4.189,3.34,5.987c0.406,1.146,0.392,2.179-0.043,3.065
		c-0.487,0.995-1.502,1.782-3.019,2.34l-0.147,0.386c-0.278,1.159-0.762,2.346-1.409,3.437c-0.134,0.32-0.314,0.714-0.491,1.086
		c-0.253,0.53-0.476,1.045-0.688,1.537c-0.911,2.11-1.699,3.934-3.897,4.756c-0.997,0.371-2.258,0.552-3.854,0.552
		c-0.001,0-0.001,0-0.001,0c-1.343,0-2.678-0.124-3.856-0.233c-0.339-0.032-0.661-0.062-0.96-0.086
		c-2.316-0.188-3.031-0.646-3.23-0.833l-0.186-0.175l-0.041-0.252c-0.001-0.006-0.096-0.592-0.368-1.713
		c-0.181-0.741-0.407-0.854-1.091-0.854l-0.312,0.005c-0.174,0-0.34-0.007-0.499-0.013c-0.554-0.026-0.938-0.12-1.44,0.495
		c-0.786,0.959-1.32,2.105-1.325,2.117l-0.062,0.108c-0.623,0.912-1.068,0.976-3.209,1.28L174.812,227.524z M243.749,198.581
		l-3.233,5.148l-7.557-8.152l3.235-5.15L243.749,198.581z M192.121,253.14c-0.666,0.805-1.7,1.492-3.099,2.059l-6.959,2.82
		c-2.416,0.979-3.898,0.787-4.45-0.574c-0.085-0.211-0.157-0.471-0.217-0.783l-1.362-10.963c-0.236-2.068,1.064-3.678,3.901-4.828
		l6.958-2.818c1.189-0.482,2.157-0.68,2.908-0.594c0.748,0.088,1.259,0.467,1.53,1.137c0.047,0.115,0.091,0.238,0.133,0.365
		c0.04,0.129,0.072,0.277,0.096,0.447l1.363,10.963C193.055,251.411,192.787,252.333,192.121,253.14z M210.714,242.323
		c-0.522,0.906-1.426,1.756-2.71,2.549l-6.39,3.945c-2.218,1.369-3.712,1.43-4.483,0.18c-0.118-0.195-0.234-0.439-0.345-0.736
		l-4.072-13.564l5.174-3.195l4.057,13.539l3.907-2.412l-4.057-13.539l5.174-3.195l4.073,13.566
		C211.346,240.464,211.236,241.419,210.714,242.323z M227.223,228.587c-0.364,0.98-1.114,1.967-2.25,2.963l-5.645,4.951
		c-1.958,1.719-3.422,2.027-4.391,0.922c-0.149-0.17-0.304-0.393-0.462-0.668l-4.893-9.904c-0.903-1.877-0.205-3.824,2.098-5.844
		l9.118-7.998l1.398,2.816l-8.022,7.039l4.852,9.857l3.452-3.027l-3.474-7.064l4.571-4.01l3.494,7.088
		C227.536,226.647,227.587,227.606,227.223,228.587z M238.606,216.685l-4.599-6.344l-2.898,3.561l4.596,6.344l-3.838,4.717
		l-10.123-14.004l3.839-4.717l3.673,5.072l2.899-3.561l-3.673-5.072l3.84-4.715l10.123,14.004L238.606,216.685z M244.719,208.237
		l-3.22-3.449l3.235-5.15l3.218,3.451L244.719,208.237z M254.032,160.604l-3.927-4.062l-4.506,0.775l2.164-3.19l-4.302-4.456
		l6.112,1.799l2.659-3.92l0.678,4.907l7.729,2.28l-7.242,1.244L254.032,160.604z M261.665,120.609
		c-0.202,0.061-0.414,0.114-0.638,0.163c-0.224,0.048-0.48,0.079-0.768,0.093l-7.681,0.209c-0.589-0.008-1.848-1.252-3.778-3.73
		c-1.931-2.479-4.294-6.375-7.091-11.689l-4.747,0.101l4.656,15.576l-5.331,0.166l-7.61-25.454l13.178-0.37
		c0.288-0.014,0.711,0.207,1.269,0.663s1.284,1.264,2.18,2.425c0.896,1.158,1.98,2.737,3.257,4.736
		c1.273,1.998,2.768,4.516,4.482,7.556l4.248-0.117l-4.657-15.576l5.331-0.166l5.425,18.146
		C264.626,117.473,264.051,119.896,261.665,120.609z"/>
	<path d="M182.073,222.582c1.074-0.033,1.674,0.253,1.96,1.423c0.284,1.169,0.38,1.771,0.38,1.771s0.474,0.443,2.78,0.633
		c2.31,0.189,5.977,0.696,8.349-0.189c2.371-0.888,2.876-3.193,4.172-5.914c0.795-1.668,1.625-3.786,2.148-5.177
		c3.293-1.093,3.512-2.923,2.931-4.563c-0.435-1.233-1.238-2.788-2.22-4.313c-0.729-1.133-1.555-2.248-2.417-3.201
		c-0.086-0.096-0.178-0.182-0.269-0.269c-0.785-0.76-1.724-1.24-2.585-1.542c-0.151-0.053-0.301-0.102-0.446-0.145
		c-0.283-1.102-0.679-2.138-1.177-3.069c-1.202-2.242-2.981-3.882-5.116-4.386c-0.486-0.114-0.992-0.172-1.503-0.172
		c-2.346,0-4.758,1.218-6.752,3.179c-0.016,0.015-0.029,0.031-0.045,0.047c-0.987,0.979-1.87,2.142-2.591,3.429
		c-0.109,0.197-0.213,0.399-0.315,0.602h-2.537h-0.055h-1.226c-0.488-1.043-1.105-2.006-1.807-2.867
		c-1.971-2.419-4.645-3.999-7.283-3.999c-0.457,0-0.912,0.048-1.353,0.143c-2.938,0.626-5.26,3.328-6.291,6.724h-0.162h-1.916
		h-0.317h-0.145c-0.099-0.287-0.208-0.567-0.324-0.843c-1.284-3.038-3.593-5.329-6.357-5.798c-0.368-0.062-0.746-0.095-1.124-0.095
		c-3.558,0-7.163,2.846-9.062,6.735h-0.746h-2.665h-0.105h-0.727c-0.116-0.419-0.25-0.831-0.405-1.234
		c-0.165-0.427-0.343-0.848-0.55-1.25c-1.346-2.615-3.446-4.34-5.763-4.732c-0.36-0.062-0.729-0.093-1.099-0.093
		c-3.688,0-7.432,3.143-9.157,7.31h-1.168h-3.094c-0.026-0.136-0.048-0.274-0.076-0.408c-0.042-0.124-0.075-0.251-0.12-0.373
		c-1.05-2.836-2.982-4.856-5.299-5.545c-0.625-0.186-1.283-0.28-1.955-0.28c-2.454,0-4.978,1.242-6.999,3.223
		c0.027,0.146,0.059,0.293,0.089,0.44c0.03,0.143,0.062,0.287,0.095,0.432c1.932-2.044,4.411-3.347,6.814-3.347
		c0.6,0,1.187,0.083,1.742,0.249c2.09,0.62,3.843,2.475,4.812,5.088c0.063,0.171,0.112,0.348,0.168,0.521
		c0.092,0.287,0.174,0.577,0.245,0.872c0.097,0.399,0.174,0.804,0.233,1.213c0.154,1.07,0.181,2.163,0.076,3.242
		c-0.98,0.188-2.407,0.312-3.982,0.389c-1.307,0.064-2.71,0.097-4.057,0.108c-1.055,0.008-2.062,0.005-2.958-0.008
		c0.287,0.573,0.59,1.156,0.915,1.753c0.003,0.005,0.006,0.011,0.009,0.016c0.007,0.013,0.013,0.025,0.02,0.038
		c0.093,0.17,0.185,0.339,0.281,0.51c0.095,0.17,0.198,0.346,0.296,0.518l2.553,0.996l3.384-1.092l1.581,0.879l0.562,0.312
		l2.02-0.093l0.098-0.083c0.014-0.012,0.036-0.027,0.059-0.042c0.006,0.048,0.008,0.12,0.005,0.214l-1.623,1.333l-0.256-0.056
		l-2.671-0.578l-4.65,1.602l-3.495-1.948l-1.819,0.656l-1.041,0.376l-0.931-0.933c0.173-0.562,0.368-1.038,0.488-1.308l2.245,0.341
		l1.596-0.517l0.305-0.099c-0.027-0.031-0.055-0.062-0.082-0.095c-0.062-0.07-0.123-0.14-0.185-0.212
		c-0.09-0.104-0.176-0.2-0.267-0.307c-0.062-0.072-0.127-0.152-0.189-0.226c-0.537-0.634-1.091-1.309-1.659-2.021
		c-0.294-0.014-0.542-0.027-0.688-0.041c-1.398-0.13-1.752-0.225-2.612-0.595c-0.079-0.034-0.156-0.067-0.245-0.106
		c-0.212-0.094-0.393-0.162-0.555-0.22c0.074-0.68,0.208-1.369,0.413-2.06c0.128-0.431,0.286-0.849,0.458-1.26
		c-0.084-0.118-0.167-0.23-0.252-0.35c-0.058-0.082-0.117-0.167-0.175-0.25c-0.027-0.038-0.054-0.077-0.08-0.115
		c-0.147-0.209-0.294-0.423-0.442-0.636c-0.028-0.04-0.056-0.08-0.084-0.121h-1.61H93.25c-1.904-3.938-5.435-6.715-9.039-6.472
		c-2.154,0.144-4.25,1.352-5.884,3.355c-0.244,0.3-0.479,0.615-0.701,0.949c-0.784,1.18-1.377,2.509-1.772,3.896
		c-0.112,0.092-0.222,0.187-0.329,0.288c-0.105,0.1-0.21,0.2-0.309,0.31c-2.024,2.236-3.878,5.366-4.637,7.515
		c-0.573,1.621-0.42,3.802,2.738,5.082c0.684,1.887,1.891,5.154,3.156,8.264c1.17,2.878,2.402,4.551,7.304,4.331
		c4.101-0.185,6.784-0.723,7.55-0.894c0.154-0.527,0.596-1.976,1.081-2.995c0.6-1.266,1.075-0.98,2.56-1.012
		c1.487-0.032,2.024,0.347,2.498,1.706c0.475,1.361,0.507,1.962,0.854,2.024c0.023,0.006,0.043,0.014,0.064,0.023
		c0.361,0.128,2.323,0.722,7.27,0.609c5.535-0.126,7.21-0.411,7.527-1.17c0,0,0.411-1.169,0.821-2.053
		c0.411-0.888,0.822-1.204,2.276-1.266c1.454-0.063,2.497,0,2.939,0.979c0.444,0.979,0.666,2.37,0.666,2.37s1.265,1.139,7.365,1.045
		c6.103-0.096,7.493-0.76,7.778-1.265c0.633-1.264,1.359-3.13,2.246-3.162c0.885-0.031,1.771-0.031,2.498,0
		c0.727,0.032,1.105,0.285,1.391,1.231c0.285,0.95,0.536,1.834,0.536,1.834s0.317,0.664,2.404,0.76
		c2.085,0.096,5.786,0.441,7.492,0.159c1.708-0.285,4.206-0.221,4.995-1.265c0,0,0.539-1.33,1.265-2.342
		c0.728-1.013,1.171-0.759,2.562-0.695c1.392,0.063,1.802-0.031,2.087,0.76c0.285,0.789,0.695,2.561,0.695,2.561
		s0,0.003-0.002,0.005c-0.011,0.038,0.019,0.276,2.342,0.597c2.529,0.348,6.102,0.441,9.168-0.126
		c2.625-0.381,2.782-0.349,3.256-1.046c0,0,0.57-1.232,1.425-2.275C180.239,222.298,180.997,222.613,182.073,222.582z M76.85,201.78
		c0.356-0.994,0.825-1.944,1.4-2.81c0.387-0.582,0.812-1.106,1.264-1.572c1.393-1.434,3.056-2.288,4.749-2.4
		c0.133-0.009,0.267-0.014,0.399-0.014c3.075,0,6.048,2.376,7.771,5.739c0.146,0.283,0.28,0.575,0.407,0.872
		c0.257,0.604,0.472,1.231,0.645,1.879c0.188,0.708,0.322,1.437,0.394,2.18c-0.192,0.077-0.403,0.149-0.631,0.218
		c-0.966-2.118-2.373-3.921-4.024-5.148c-1.466-1.09-3.12-1.729-4.824-1.729c-0.295,0-0.587,0.026-0.878,0.062
		c-0.998,0.125-1.969,0.455-2.887,0.958c-0.129,0.072-0.256,0.151-0.384,0.228c-0.324,0.198-0.64,0.418-0.948,0.657
		c-1.2,0.932-2.262,2.159-3.111,3.588c0.042-0.297,0.092-0.592,0.153-0.885c0.039-0.188,0.078-0.374,0.125-0.56
		C76.575,202.616,76.701,202.194,76.85,201.78z M98.78,212.715l2.987-1.078l2.951,1.646l0.538,0.3l0.842-0.29l3.927-1.353
		l3.077,0.665l0.012-0.01l1.065-0.875l0.59-0.485l0.206-0.169c0.018,0.214,0.033,0.442,0.041,0.648
		c0.007,0.202,0.007,0.384-0.006,0.509c-0.062,0.586-0.161,1.146-0.277,1.693c-0.054,0.252-0.111,0.5-0.175,0.742
		c-0.091,0.021-0.193,0.037-0.29,0.056c-1.77,0.346-4.405,0.277-7.777,0.427c-0.269,0.013-0.527,0.021-0.805,0.036
		c-1.371,0.073-2.678,0.075-3.85,0.042c-1.795-0.049-3.259-0.181-4.108-0.273c-0.077-0.32-0.141-0.646-0.192-0.979
		c-0.016-0.104-0.026-0.209-0.04-0.312c-0.008-0.061-0.016-0.121-0.023-0.183c-0.016-0.141-0.036-0.279-0.047-0.421
		c-0.025-0.313-0.039-0.63-0.041-0.951c0-0.014-0.002-0.027-0.002-0.041l0.038-0.706l0.092,0.093l0.312,0.312l0.864,0.865
		L98.78,212.715z M127.339,194.161c0.327,0,0.655,0.028,0.974,0.082c2.083,0.354,3.987,1.935,5.224,4.339
		c0.031,0.062,0.057,0.127,0.087,0.188c0.214,0.435,0.399,0.885,0.562,1.347c0.07,0.201,0.137,0.402,0.197,0.606
		c0.271,0.914,0.445,1.862,0.512,2.818c-0.966-1.154-2.077-2.114-3.267-2.818c-1.387-0.821-2.877-1.297-4.368-1.297
		c-0.357,0-0.716,0.027-1.067,0.08c-1.092,0.164-2.12,0.596-3.064,1.217c-1.801,1.186-3.272,3.103-4.214,5.388
		c-0.357-0.109-0.675-0.229-0.958-0.342c0-0.006,0-0.012-0.001-0.017c-0.014-0.693,0.031-1.403,0.154-2.125
		c0.118-0.695,0.303-1.375,0.536-2.032c0.104-0.296,0.219-0.587,0.345-0.872C120.642,196.962,124.02,194.161,127.339,194.161z
		 M149.46,194.819c2.138,0.362,3.971,1.938,5.201,4.116c0.281,0.497,0.528,1.025,0.742,1.579c0.026,0.069,0.053,0.139,0.078,0.209
		c0.354,0.971,0.601,2.01,0.72,3.088c-0.942-1.245-2.045-2.3-3.244-3.088c-1.497-0.983-3.137-1.558-4.781-1.558
		c-0.334,0-0.669,0.023-0.996,0.069c-1.241,0.175-2.437,0.693-3.525,1.488c-1.197,0.874-2.266,2.083-3.109,3.578
		c-0.298,0.528-0.552,1.086-0.782,1.654c-0.156-0.063-0.322-0.135-0.521-0.222c-0.158-0.069-0.298-0.125-0.429-0.174
		c0.004-0.051,0.011-0.102,0.016-0.152c0.027-0.301,0.062-0.604,0.114-0.909c0.171-1.006,0.468-1.981,0.864-2.903
		c0.128-0.297,0.265-0.588,0.412-0.872c1.807-3.48,5.051-5.987,8.241-5.987C148.797,194.736,149.133,194.764,149.46,194.819z
		 M159.583,200.724c0.978-3.04,3.052-5.435,5.671-5.993c0.389-0.083,0.792-0.125,1.196-0.125c2.208,0,4.498,1.283,6.286,3.266
		c0.757,0.839,1.42,1.805,1.952,2.853c0.002,0.004,0.004,0.009,0.006,0.013c-0.011-0.004-0.021-0.009-0.031-0.013
		s-0.021-0.009-0.03-0.012c-0.409-0.151-0.823-0.278-1.248-0.351c-0.404-0.069-0.818-0.104-1.233-0.104
		c-0.882,0-1.767,0.168-2.633,0.467c-2.561,0.883-4.947,2.964-6.575,5.653c-0.523-0.039-0.958-0.107-1.351-0.192
		c-0.207-0.045-0.404-0.094-0.598-0.145c-0.736-0.197-1.462-0.46-1.996-0.668c-0.077-1.295,0.047-2.573,0.339-3.776
		C159.41,201.3,159.491,201.009,159.583,200.724z M180.202,200.709c0.692-1.294,1.552-2.463,2.521-3.438
		c0.035-0.035,0.069-0.073,0.105-0.108c1.851-1.82,4.073-2.947,6.231-2.947c0.453,0,0.901,0.052,1.331,0.152
		c1.775,0.419,3.274,1.714,4.359,3.507c0.522,0.863,0.945,1.841,1.257,2.896c-0.027-0.016-0.056-0.029-0.083-0.045
		c-1.111-0.656-2.296-1.041-3.493-1.087c-1.449-0.066-2.868,0.34-4.178,1.085c-0.105,0.061-0.211,0.123-0.315,0.188
		c-0.267,0.165-0.526,0.346-0.782,0.54c-0.229,0.173-0.451,0.355-0.67,0.55c-1.044,0.929-1.969,2.086-2.715,3.409
		c-0.13,0.23-0.254,0.464-0.372,0.703c-0.19-0.045-0.382-0.089-0.574-0.132c-0.136-0.031-0.271-0.062-0.405-0.091
		c-0.981-0.218-1.956-0.417-2.808-0.584c-0.229-0.415-0.477-0.807-0.739-1.177c0.221-0.878,0.522-1.726,0.89-2.535
		c0.136-0.297,0.279-0.587,0.432-0.872C180.197,200.719,180.199,200.714,180.202,200.709z M197.56,214.72
		c-0.235,0.01-0.491,0.017-0.748,0.023c-0.062,0.001-0.124,0.003-0.188,0.004c-0.146,0.004-0.275,0.009-0.429,0.011
		c-1.797,0.022-4.41-0.176-6.688-0.399c-2.053-0.201-3.833-0.424-4.483-0.524c-0.225-0.037-0.456-0.045-0.691-0.042
		c-0.058,0.001-0.114,0.001-0.171,0.003c-0.612,0.023-1.181,0.137-1.561,0.235c-0.01-0.104-0.021-0.207-0.027-0.312
		c-0.006-0.085-0.017-0.167-0.021-0.253c-0.017-0.36-0.019-0.726-0.004-1.096c0.025-0.659,0.108-1.309,0.225-1.949
		c0.205-1.125,0.54-2.209,0.984-3.227c0.132-0.304,0.274-0.601,0.425-0.891c0.745-1.435,1.7-2.698,2.794-3.685
		c0.241-0.218,0.488-0.42,0.741-0.609c0.477-0.355,0.972-0.654,1.48-0.9c0.312-0.151,0.628-0.281,0.949-0.386
		c0.66-0.216,1.334-0.343,2.015-0.343l0.239,0.004c0.598,0.022,1.192,0.14,1.776,0.339c0.726,0.247,1.431,0.637,2.102,1.134
		c0.143,0.105,0.286,0.209,0.425,0.325c0.046,0.038,0.09,0.082,0.135,0.121c0.083,0.072,0.165,0.147,0.246,0.224
		c0.599,0.555,1.163,1.197,1.668,1.942c0.926,1.365,1.604,2.941,2.017,4.587c0.338,1.35,0.501,2.745,0.448,4.118
		c-0.007,0.166-0.027,0.326-0.04,0.49c-0.013,0.16-0.021,0.322-0.04,0.481c0,0.003,0,0.006-0.001,0.009
		c-0.053,0.021-0.11,0.041-0.166,0.062C200.191,214.499,199.118,214.653,197.56,214.72z M172.798,215.008
		c-0.071,0.001-0.138,0-0.21,0.001c-3.416,0.042-8.011-0.201-10.202-1.044c-0.104-0.04-0.226-0.071-0.352-0.101
		c-0.005-0.001-0.011-0.002-0.016-0.004c-0.118-0.027-0.239-0.053-0.362-0.08c-0.036-0.008-0.072-0.018-0.108-0.025
		c0.004-0.691,0.062-1.393,0.184-2.098c0.204-1.19,0.576-2.338,1.068-3.418c0.072-0.16,0.146-0.319,0.226-0.476
		c0.003-0.007,0.005-0.013,0.008-0.019c0.231-0.461,0.485-0.905,0.76-1.333c2.051-3.199,5.228-5.408,8.358-5.408
		c0.372,0,0.745,0.032,1.106,0.094c0.655,0.112,1.291,0.342,1.901,0.658c0.171,0.089,0.341,0.182,0.507,0.285
		c0.178,0.111,0.351,0.237,0.522,0.365c0.131,0.097,0.264,0.185,0.391,0.291c0.051,0.042,0.097,0.093,0.147,0.137
		c0.479,0.419,0.928,0.902,1.341,1.448c0.103,0.136,0.2,0.28,0.298,0.424c0.095,0.137,0.191,0.271,0.281,0.415
		c0.176,0.283,0.346,0.574,0.503,0.882c0.419,0.816,0.745,1.689,0.997,2.589c0.466,1.66,0.648,3.418,0.513,5.133
		c-0.012,0.153-0.033,0.304-0.05,0.456c-0.014,0.116-0.028,0.232-0.045,0.348c-0.001,0.007-0.002,0.014-0.002,0.021
		c-0.362,0.075-0.719,0.145-1.061,0.197C177.182,215.104,175.238,214.987,172.798,215.008z M122.238,214.714
		c-0.563-0.064-1.105-0.139-1.613-0.227c-0.584-0.101-1.116-0.219-1.588-0.353c-0.026-0.008-0.048-0.016-0.073-0.023
		c-0.09-0.026-0.175-0.054-0.26-0.082c-0.007-0.042-0.017-0.081-0.023-0.123c-0.001-0.006-0.002-0.012-0.003-0.018
		c-0.267-1.769-0.17-3.542,0.198-5.203c0.184-0.829,0.436-1.627,0.752-2.383c1.078-2.582,2.871-4.646,5.046-5.579
		c0.524-0.226,1.068-0.394,1.631-0.479c0.313-0.047,0.635-0.07,0.956-0.07c0.914,0,1.828,0.196,2.715,0.549
		c1.856,0.736,3.587,2.179,4.942,4.044c0.119,0.166,0.237,0.332,0.352,0.504c0.062,0.095,0.122,0.192,0.183,0.288
		c0.765,1.216,1.369,2.575,1.757,4.019c0.11,0.412,0.204,0.829,0.278,1.253c0.018,0.102,0.042,0.201,0.058,0.303
		c0.139,0.919,0.162,1.828,0.1,2.717c-0.014,0.189-0.022,0.381-0.045,0.569c-0.078,0.018-0.156,0.034-0.236,0.05
		c-0.326,0.066-0.667,0.125-1.021,0.175c-2.09,0.292-4.62,0.328-7.105,0.355c-0.262,0.003-0.523,0.006-0.783,0.009
		c-1.866,0.023-4.049-0.06-6.012-0.272C122.372,214.729,122.305,214.722,122.238,214.714z M139.745,214.708
		c-0.066-0.283-0.121-0.571-0.169-0.863c-0.017-0.1-0.039-0.197-0.054-0.298c-0.239-1.701-0.137-3.473,0.257-5.17
		c0.173-0.746,0.404-1.475,0.691-2.178c0.215-0.525,0.449-1.041,0.726-1.53c1.015-1.798,2.365-3.149,3.868-3.945
		c0.712-0.377,1.455-0.641,2.219-0.748c0.294-0.041,0.594-0.062,0.893-0.062c1.118,0,2.234,0.294,3.299,0.811
		c1.857,0.9,3.55,2.502,4.815,4.511c0.119,0.188,0.24,0.375,0.352,0.571c0.024,0.043,0.046,0.09,0.07,0.133
		c0.466,0.84,0.857,1.737,1.157,2.678c0.093,0.29,0.173,0.585,0.247,0.883v0.001c0.122,0.484,0.229,0.975,0.299,1.475
		c0.134,0.954,0.146,1.896,0.064,2.814c-0.019,0.208-0.038,0.415-0.068,0.62c-1.494,0.355-3.346,0.612-5.311,0.768
		c-1.285,0.102-2.612,0.161-3.91,0.178C146.063,215.391,141.634,215.112,139.745,214.708z M84.075,215.205
		c-0.051,0.001-0.099,0.001-0.151,0.003c-0.145,0.006-0.289,0.021-0.432,0.036c-0.128,0.012-0.257,0.024-0.395,0.043
		c-0.153,0.021-0.308,0.046-0.463,0.072c-0.256,0.044-0.512,0.088-0.807,0.155c-2.164,0.485-3.954,0.348-5.236,0.075
		c-0.494-0.104-0.899-0.228-1.233-0.345c-0.051-0.019-0.101-0.037-0.15-0.057c-0.095-0.377-0.17-0.763-0.23-1.155
		c-0.096-0.627-0.154-1.271-0.154-1.935c0-0.839,0.08-1.668,0.225-2.476c0.199-1.11,0.525-2.18,0.957-3.18
		c0.017-0.039,0.033-0.078,0.05-0.117c1.087-2.458,2.809-4.475,4.812-5.603c0.895-0.504,1.846-0.822,2.822-0.93
		c0.235-0.026,0.471-0.052,0.708-0.052c1.208,0,2.39,0.356,3.487,0.981c1.908,1.087,3.552,3.003,4.637,5.342
		c0.458,0.988,0.813,2.05,1.046,3.159c0.202,0.96,0.322,1.95,0.322,2.959c0,0.614-0.055,1.211-0.14,1.795
		c-0.048,0.327-0.108,0.646-0.181,0.962c-0.001,0.004-0.001,0.007-0.002,0.01c-0.163,0.044-0.33,0.083-0.497,0.116
		c-1.027,0.203-2.203,0.234-4.329,0.321c-0.091,0.004-0.162,0.001-0.248,0.003c-0.448,0.012-0.845,0.008-1.207-0.009
		c-0.209-0.009-0.418-0.018-0.607-0.031C85.743,215.28,84.995,215.175,84.075,215.205z"/>
	<path d="M110.045,156.527c-0.684-0.169-1.392-0.354-2.124-0.555c0.765,1.305,1.412,2.848,1.832,4.586l1.249-2.453
		C110.72,157.565,110.401,157.038,110.045,156.527z"/>
	<path d="M96.314,200.299c0.098,0.144,0.196,0.283,0.295,0.425c0.063,0.091,0.126,0.182,0.188,0.271
		c0.08,0.114,0.16,0.231,0.24,0.345c0.06,0.085,0.12,0.172,0.18,0.256c0.021,0.03,0.043,0.06,0.064,0.09
		c0.285,0.4,0.569,0.792,0.851,1.179c0.953,1.302,1.887,2.515,2.79,3.636c0.543,0.675,1.077,1.325,1.589,1.926
		c0.042,0.049,0.08,0.091,0.121,0.139c0.09,0.105,0.177,0.203,0.267,0.307c0.018,0.021,0.035,0.04,0.053,0.061
		c0.072,0.082,0.144,0.165,0.214,0.246c0.423,0.482,0.837,0.946,1.229,1.367c-0.292-0.492-0.545-0.961-0.812-1.438
		c-0.071-0.128-0.148-0.26-0.218-0.387c-0.018-0.032-0.038-0.065-0.056-0.098c-0.042-0.077-0.09-0.157-0.132-0.234
		c-0.007-0.013-0.015-0.025-0.022-0.039c-0.335-0.62-0.637-1.221-0.932-1.816c-1.025-2.076-1.805-4.007-2.372-5.809
		c-0.027-0.088-0.054-0.175-0.08-0.262c-0.181-0.591-0.34-1.17-0.476-1.733c-0.008-0.035-0.016-0.07-0.024-0.105
		c-0.033-0.14-0.068-0.281-0.098-0.42c-0.033-0.147-0.075-0.301-0.105-0.446c-0.056-0.275-0.093-0.54-0.139-0.809
		c-0.058-0.342-0.121-0.687-0.162-1.018c-0.982-7.886,2.519-13.039,6.235-17.837c-0.713-1.797-0.935-3.815-0.588-5.854
		c-1.023,0.912-1.994,1.817-2.724,2.81c-3.724,5.055-5.54,11.864-5.89,15.249c0,0-9.286-12.407-9.476-25.771
		c-0.063-4.562,2.261-11.449,8.293-13.339c-0.593,0.265-1.147,0.596-1.631,1.017c-9.181,7.991-0.644,19.774-0.762,18.123
		c-0.436-6.163,5.253-7.561,3.424-3.231c-4.338,10.27-0.203,15.584-0.203,15.584s0.41-5.424,3.997-9.572
		c3.585-4.15,7.146-5.143,8.657-10.015c0.62-1.998,0.657-4.733-0.542-7.219c-0.357-0.1-0.722-0.203-1.091-0.309
		c0.361,1.237,0.431,2.671,0.077,4.296c-1.314,6.047-6.965,7.324-10.75,13.932c0,0-1.146-1.446,0.673-6.593
		c0.438-1.237,1.322-2.297,1.689-3.726c0.907-3.523-4.635-4.004-6.043,1.632c-0.268,1.074-3.136-8.924,3.202-13.668
		c-0.202-0.093-0.399-0.185-0.598-0.278c-0.006-0.002-0.011-0.005-0.017-0.008c-0.305-0.143-0.607-0.286-0.903-0.431
		c-3.138,0.689-5.664,2.312-7.286,4.715c-8.294,12.273,0.683,31.549,9.664,44.665C96.223,200.169,96.269,200.232,96.314,200.299z"/>
	<path d="M162.374,157.334c0.098-0.26,0.205-0.517,0.33-0.768l0.426-0.857l-1.428-1.58c-0.216,0.577-0.435,1.157-0.655,1.736
		c-0.219,0.576-0.438,1.152-0.662,1.73l1.523,1.685C161.978,158.623,162.136,157.969,162.374,157.334z"/>
	<polygon points="118.31,146.653 118.314,146.667 118.313,146.653 	"/>
	<path d="M94.283,150.151c0.125,0.062,0.254,0.121,0.382,0.181c0.127,0.062,0.256,0.121,0.385,0.182
		c0.21,0.098,0.418,0.195,0.631,0.292c0.061,0.027,0.123,0.055,0.184,0.082c0.053,0.024,0.106,0.048,0.16,0.071
		c3.333,1.492,6.916,2.799,8.754,3.354c0.48,0.146,0.935,0.277,1.391,0.411c0.302,0.088,0.601,0.174,0.893,0.257
		c0.095,0.027,0.186,0.052,0.28,0.078c0.69,0.194,1.354,0.374,1.995,0.539c0.131,0.034,0.266,0.07,0.395,0.104
		c0.123,0.031,0.251,0.065,0.372,0.096c0.641,0.16,1.252,0.302,1.85,0.435l0.338-0.666l2.622-5.151
		c-0.055-0.017-0.11-0.033-0.165-0.05c-2.854-0.882-5.156-2.966-6.315-5.717l-1.803-4.276l-0.158-0.374
		c-2.692-1.095-6.129-3.008-8.379-4.719c-0.083-0.062-0.168-0.126-0.248-0.188c-0.279-0.219-0.531-0.432-0.764-0.641
		c-1.113-0.013-2.298,0.406-3.018,1.153c-1.065,1.108-2.132,2.214-3.203,3.316c-2.264,2.331-4.42,5.266-1.679,8.067
		C90.133,147.957,92.06,149.075,94.283,150.151z M104.652,147.468l0.195-0.633h0.001L104.652,147.468z"/>
	<path d="M98.917,135.284c2.073,1.48,4.947,3.076,7.291,4.08l-1.873-4.441c-3.09-7.336,0.085-15.832,7.229-19.341l0.106-0.052
		c-1.364-3.407-2.572-7.703-3.613-12.899c-0.049-0.247-0.096-0.51-0.145-0.762c-2.74,1.418-4.989,3.807-6.168,6.919l-5.362,14.158
		c-1.428,3.769-0.966,7.777,0.887,11.025C97.715,134.384,98.277,134.828,98.917,135.284z"/>
	<path d="M180.122,149.422l-4.085-2.159c-0.319-0.177-0.727-0.061-0.901,0.259l-1.016,1.788l-0.142,0.248l-0.141,0.248l-3.4-3.763
		l0.084-1.351c-0.551,0.688-1.127,1.354-1.718,2.005c-0.021,0.023-0.043,0.046-0.064,0.069c-0.352,0.386-0.705,0.77-1.07,1.14
		l0.936,1.035l0.753,0.833c0.378-0.068,0.759-0.113,1.145-0.113c0.365,0,0.721,0.041,1.072,0.103
		c0.579,0.101,1.142,0.274,1.675,0.54l0.238,0.119l1.653,0.823l0.663,0.331l0.665,0.331l0.102,0.051
		c0.785,0.392,1.448,0.937,1.982,1.585l1.829-3.22C180.558,150.005,180.441,149.599,180.122,149.422z"/>
	<path d="M162.436,160.672c0.031,0.375,0.09,0.747,0.184,1.111c0.44,1.711,1.511,3.064,3.012,3.812l3.319,1.654
		c0.782,0.39,1.626,0.587,2.507,0.587c2.44,0,4.787-1.542,5.979-3.928l1.333-2.677c1.233-2.479,0.949-5.282-0.504-7.18
		c-0.15-0.196-0.312-0.383-0.486-0.559c-0.277-0.277-0.583-0.528-0.919-0.745c-0.17-0.109-0.347-0.211-0.531-0.303l-0.189-0.095
		l-2.92-1.455l-0.212-0.105c-0.255-0.127-0.52-0.227-0.787-0.312c-0.551-0.177-1.124-0.273-1.718-0.273
		c-0.237,0-0.472,0.026-0.706,0.055c-0.108,0.014-0.217,0.025-0.325,0.045c-0.102,0.018-0.201,0.047-0.302,0.07
		c-0.326,0.075-0.646,0.176-0.959,0.303c-1.366,0.554-2.565,1.578-3.384,2.933c-0.104,0.173-0.215,0.341-0.306,0.523l-0.739,1.488
		l-0.13,0.261l-0.13,0.26l-0.331,0.667c-0.16,0.321-0.289,0.651-0.401,0.984c-0.224,0.67-0.353,1.358-0.377,2.046
		c-0.004,0.136-0.001,0.271,0.002,0.406C162.418,160.388,162.423,160.53,162.436,160.672z M165.815,160.956
		c-0.177-0.685-0.127-1.429,0.118-2.146c0.032-0.095,0.072-0.188,0.111-0.28c0.036-0.084,0.06-0.169,0.101-0.251l0.014-0.027
		l1.316-2.648c0.628-1.255,1.844-2.099,3.026-2.099c0.366,0,0.714,0.081,1.033,0.239l0.051,0.025l1.188,0.592l0.665,0.331
		l0.665,0.332l0.753,0.375c0.814,0.406,1.288,1.258,1.372,2.235c0.06,0.681-0.063,1.421-0.414,2.125l-0.753,1.513l-0.579,1.162
		c-0.624,1.25-1.852,2.09-3.054,2.09c-0.36,0-0.698-0.077-1.005-0.229l-1.921-0.956c-0.188-0.072-0.362-0.174-0.541-0.27
		l-0.86-0.429c-0.541-0.271-0.943-0.758-1.175-1.377C165.889,161.162,165.844,161.065,165.815,160.956z"/>
	<path d="M128.782,184.979c1.063,2.469,3.053,4.52,5.459,5.627c0.427,0.194,0.852,0.356,1.261,0.48
		c0.972,0.303,1.981,0.456,3.004,0.456c3.966,0,7.603-2.326,9.265-5.926c0.075-0.162,0.137-0.326,0.185-0.49
		c0.346-0.838,1.638-3.83,6.521-14.771c1.979-4.428,3.698-8.574,5.281-12.645c0.036-0.094,0.074-0.188,0.11-0.282
		s0.074-0.188,0.11-0.282c0.224-0.578,0.441-1.155,0.66-1.732c0.214-0.564,0.427-1.131,0.637-1.694
		c0.005-0.015,0.011-0.029,0.016-0.044c0.036-0.096,0.071-0.191,0.106-0.287s0.071-0.19,0.106-0.286
		c0.058-0.157,0.116-0.313,0.174-0.471c-0.131,0.075-0.26,0.158-0.391,0.23c-0.084,0.046-0.17,0.08-0.254,0.124
		c-0.083,0.044-0.169,0.081-0.253,0.124c-0.205,0.105-0.412,0.206-0.62,0.304c-0.078,0.036-0.154,0.078-0.232,0.114
		c-0.238,0.107-0.479,0.207-0.719,0.304c-0.476,0.19-0.951,0.377-1.437,0.522c-0.086,0.025-0.171,0.044-0.257,0.067
		c-0.012,0.004-0.023,0.006-0.035,0.01c-0.032,0.083-0.063,0.166-0.096,0.25c-0.036,0.095-0.071,0.189-0.107,0.284
		c-0.758,1.982-1.541,3.976-2.372,6.006c-1.065,2.604-2.203,5.268-3.44,8.038c-6.058,13.564-6.661,15.071-6.702,15.21l-0.051-0.016
		l0.062,0.028c-1.125,2.436-3.585,4.009-6.268,4.009c-0.686,0-1.368-0.103-2.027-0.305c-0.293-0.093-0.58-0.202-0.856-0.328
		c-3.627-1.67-5.381-5.927-3.832-9.295l5.166-11.895c-2.927-0.928-4.764-1.504-8.647-2.643l-6.61,12.948
		c-1.24,2.695-4.384,3.906-6.948,3.906c-0.782,0-1.525-0.107-2.208-0.32c-0.275-0.084-0.555-0.191-0.855-0.327
		c-2.108-0.971-3.367-2.91-3.575-5.141c-0.011-0.12-0.017-0.242-0.022-0.363c-0.005-0.132-0.007-0.263-0.005-0.396
		c0.014-1.062,0.254-2.167,0.754-3.253l3.592-7.057l0.23-0.452l0.224-0.44l2.668-5.241l0.344-0.676l0.35-0.687l3.224-6.335
		c0.117-0.03,0.231-0.058,0.351-0.093l0.001-0.001c0.12-0.035,0.231-0.058,0.354-0.098c0.867-0.284,1.811-0.688,2.851-1.239
		c1.34-0.71,2.247-1.592,2.862-2.544c0.609-0.941,0.923-1.952,1.055-2.946c0.055-0.42,0.086-0.835,0.086-1.241l0.424-0.224
		l0.934-0.495l0.935-0.495l2.848-1.509c0.251-0.143,0.364-0.429,0.313-0.698c-0.013-0.071-0.03-0.143-0.068-0.208l-1.471-2.444
		l-0.493-0.82l-0.418-0.694c-0.022-0.039-0.057-0.064-0.085-0.097c-0.204-0.232-0.544-0.307-0.821-0.147l-1.647,0.862l-0.383,0.2
		l-0.002,0.001l-0.404,0.212c0.419-0.892,0.838-1.783,1.244-2.663c0.097,0,0.198-0.001,0.301-0.002c0.001,0,0.001,0,0.001,0
		c0.097-0.001,0.196-0.002,0.296-0.003c0.58-0.007,1.23-0.021,1.933-0.047c0.251-0.01,0.509-0.021,0.771-0.033
		c0.254-0.012,0.513-0.026,0.776-0.042c2.362-0.141,5.016-0.429,7.191-1c1.108-0.291,2.095-0.654,2.851-1.111
		c0.166-0.101,0.322-0.203,0.481-0.306c0.227-0.146,0.447-0.292,0.661-0.44c-0.311,0.048-0.63,0.067-0.946,0.097
		c-0.847,0.076-1.707,0.108-2.596,0.046c-1.563-0.111-3.198-0.443-4.857-0.985c-0.16-0.052-0.726-0.246-1.405-0.582
		c-0.209-0.103-0.427-0.219-0.648-0.35c-0.211-0.123-0.422-0.259-0.63-0.407c-0.324-0.23-0.634-0.491-0.908-0.781
		c-0.066-0.07-0.131-0.142-0.192-0.216c-0.031-0.037-0.059-0.076-0.088-0.114c-0.065,0.027-0.135,0.055-0.201,0.082
		c0.032-0.073,0.063-0.145,0.095-0.218c-0.324-0.458-0.537-0.978-0.571-1.56l-0.66,0.324l-2.824,1.388l-6.915,3.398l1.611,3.82
		l0.973,2.307l0.585,1.39l0.436,1.032l0.026,0.062c0.026,0.062,0.044,0.128,0.068,0.19c0.299,0.783,0.441,1.615,0.411,2.445
		c0.016-0.033,0.031-0.064,0.047-0.098c-0.001,0.245-0.016,0.482-0.045,0.712l0,0.001c0,0.001,0,0.002,0,0.002
		c-0.054,0.422-0.151,0.815-0.282,1.183c-0.168,0.472-0.383,0.904-0.631,1.286c-0.25,0.384-0.527,0.717-0.804,1.009l-0.001,0.001
		c0,0,0,0-0.001,0.001c-0.196,0.206-0.391,0.391-0.578,0.55c0.004-0.009,0.007-0.015,0.012-0.023
		c-0.456,0.372-0.966,0.68-1.523,0.914c-0.25,0.104-0.524,0.196-0.842,0.281l-0.042,0.01c-0.147,0.039-0.294,0.07-0.442,0.097
		c-0.185,0.033-0.335,0.054-0.484,0.067c-0.025,0.004-0.058,0.006-0.089,0.007c-0.124,0.012-0.26,0.021-0.395,0.025l-0.21-0.001
		c-0.095-0.002-0.19-0.003-0.284-0.009l-0.18-0.016c-0.138-0.012-0.225-0.02-0.312-0.032l-0.363-0.063
		c-0.043-0.008-0.085-0.015-0.128-0.024c-0.165-0.037-0.33-0.079-0.49-0.129c-1.768-0.546-3.193-1.836-3.911-3.539l-0.481-1.142
		l-3.619-8.583c-2.301-5.461,0.063-11.786,5.382-14.399l0.033-0.016c-0.489-0.896-0.96-1.891-1.415-2.983l-0.075,0.037
		c-6.886,3.383-9.947,11.572-6.968,18.644l2.499,5.926l1.602,3.8c1.03,2.444,3.02,4.318,5.494,5.231
		c0.396,0.182,0.808,0.337,1.25,0.439l-2.836,5.573l-0.34,0.669l-0.34,0.669l-0.589,1.158l-0.133,0.262l-0.142,0.277l-1.367,2.686
		l-4.073,8.005c-0.338,0.734-0.584,1.479-0.76,2.225c-0.485,2.062-0.359,4.123,0.296,5.955c0.031,0.088,0.065,0.173,0.099,0.259
		c0.033,0.086,0.063,0.173,0.099,0.258c0.89,2.104,2.5,3.858,4.712,4.877c0.406,0.188,0.833,0.351,1.267,0.486
		c1.001,0.308,2.071,0.463,3.178,0.463c4.301,0,8.286-2.313,9.915-5.757l5.337-10.454l2.463,0.748l-3.69,8.503
		C127.634,179.476,127.637,182.318,128.782,184.979z"/>
	<path d="M137.694,120.505c2.693-0.462,3.117-0.92,4.402-2.333c0.115-0.127,0.242-0.266,0.374-0.409
		c0.168-0.183,0.346-0.374,0.543-0.581c-0.432-0.056-0.858-0.14-1.282-0.236c-1.138-0.261-2.242-0.661-3.288-1.206
		c-0.196-0.103-0.389-0.215-0.582-0.328c0.249,0.802,0.432,1.801,0.354,2.897C138.166,119.011,138.01,119.75,137.694,120.505z"/>
	<path d="M143.438,86.16c0.499,0.771,1.272,1.333,2.067,1.501c0.117,0.024,0.239,0.041,0.36,0.049
		c1.384,0.098,2.611-0.899,2.765-1.62c0.203-0.949-1.147-1.69-2.486-1.973c-0.286-0.061-0.572-0.103-0.849-0.122
		c-0.699-0.049-1.262,0.041-1.651,0.241c-0.307,0.158-0.509,0.383-0.569,0.674c-0.086,0.406,0.13,0.86,0.304,1.147
		C143.398,86.091,143.42,86.131,143.438,86.16z"/>
	<path d="M180.801,85.757c-0.265-0.018-0.54-0.02-0.82-0.002c-1.282,0.087-2.554,0.576-2.504,1.334
		c0.023,0.352,0.352,0.828,0.846,1.199c0.391,0.293,0.883,0.521,1.429,0.559c0.111,0.008,0.22,0.008,0.329,0.002
		c0.848-0.057,1.498-0.544,1.812-0.83c0.081-0.074,0.148-0.151,0.219-0.228c0.341-0.375,0.549-0.768,0.529-1.05
		C182.604,86.21,181.899,85.834,180.801,85.757z"/>
	<path d="M105.793,80.45c0.027,0.495,0.059,1.012,0.095,1.548c0.332,4.94,1.049,11.504,2.213,17.958
		c0.059,0.326,0.121,0.632,0.181,0.951c0,0.002,0,0.004,0.001,0.006c0.045,0.238,0.09,0.476,0.135,0.711
		c0.048,0.25,0.095,0.51,0.144,0.756c1.039,5.221,2.238,9.522,3.587,12.914c0.034,0.085,0.069,0.167,0.103,0.252
		c0.034,0.084,0.068,0.168,0.103,0.251c0.454,1.097,0.924,2.093,1.411,2.985c0.042,0.078,0.084,0.164,0.127,0.24
		c0.044,0.08,0.089,0.159,0.134,0.236c1.235,2.144,2.577,3.633,4.016,4.48c0.174,0.103,0.347,0.211,0.523,0.295
		c0.573,0.266,1.168,0.437,1.768,0.508c0.208,0.025,0.424,0.039,0.647,0.039c1.823,0,3.691-0.896,5.553-2.662
		c1.857-1.763,3.644-3.383,5.189-4.754c0.188-0.167,0.38-0.338,0.561-0.497c1.587-1.399,2.86-2.482,3.565-3.076l0.175-0.146
		l0.113,0.095l0.061,0.051c0.028,0.024,0.059,0.044,0.087,0.068c0.003,0.002,0.006,0.004,0.008,0.006
		c0.155,0.127,0.314,0.248,0.474,0.368c0.209,0.158,0.421,0.307,0.637,0.452c0.052,0.035,0.104,0.07,0.156,0.104
		c0.185,0.12,0.37,0.236,0.56,0.346c0.064,0.038,0.13,0.073,0.194,0.11c0.876,0.493,1.794,0.882,2.744,1.163
		c0.787,0.233,1.592,0.401,2.412,0.481l0.245,0.024l0.008,0.516l-0.079,0.081c-0.306,0.315-0.565,0.595-0.808,0.859
		c-0.116,0.125-0.236,0.256-0.339,0.369c-1.43,1.572-1.978,2.06-5.084,2.562c-0.394,0.063-0.832,0.128-1.314,0.194
		c-0.134,0.019-0.26,0.036-0.401,0.055c-0.039,0.005-0.085,0.012-0.128,0.017c-0.154,0.021-0.33,0.045-0.525,0.076
		c-0.088,0.014-0.176,0.028-0.27,0.044c-0.219,0.038-0.452,0.084-0.692,0.14c-0.04,0.009-0.08,0.02-0.121,0.029
		c-0.344,0.083-0.697,0.188-1.039,0.32c-0.881,0.338-1.672,0.86-1.991,1.671c-0.044,0.112-0.078,0.229-0.103,0.353l0,0.001
		c-0.015,0.074-0.035,0.145-0.042,0.223c0,0.001,0,0.003,0,0.005c-0.003,0.032,0.003,0.062,0.001,0.093c0,0.011,0.001,0.021,0,0.032
		c-0.013,0.431,0.094,0.83,0.294,1.192c0.053,0.096,0.116,0.188,0.18,0.279c0,0.001,0.001,0.001,0.001,0.002
		c0.055,0.077,0.115,0.152,0.177,0.227c0.002,0.002,0.004,0.004,0.006,0.007c0.243,0.289,0.531,0.553,0.842,0.786
		c0.204,0.152,0.415,0.291,0.626,0.418c0.22,0.133,0.437,0.254,0.646,0.359c0.731,0.369,1.338,0.571,1.404,0.593
		c1.407,0.459,2.79,0.754,4.126,0.896c0.201,0.021,0.404,0.049,0.603,0.063c0.188,0.014,0.373,0.016,0.559,0.022
		c0.536,0.02,1.065,0.017,1.585-0.018c0.815-0.053,1.608-0.176,2.38-0.36c1.044-0.249,2.048-0.611,2.998-1.098l0.762-0.39
		l-0.397,0.757c-0.504,0.96-1.029,1.761-1.639,2.687c-0.381,0.582-0.785,1.2-1.216,1.902c-0.079,0.128-0.158,0.258-0.239,0.393
		c-0.282,0.471-0.578,0.986-0.888,1.554c-0.222,0.406-0.448,0.832-0.686,1.3c-1.487,2.937-2.655,5.623-2.576,8.199
		c0.076,2.512,1.337,4.918,4.662,7.347c2.446,1.787,5.021,2.771,7.67,2.947c1.264,0.085,2.545-0.032,3.837-0.317
		c0.098-0.021,0.196-0.047,0.295-0.071c0.093-0.022,0.186-0.043,0.277-0.067c0.008-0.001,0.015-0.003,0.022-0.005
		c0.099-0.026,0.196-0.043,0.296-0.071c0.074-0.021,0.147-0.031,0.222-0.054c0.035-0.011,0.069-0.027,0.105-0.038
		c0.369-0.113,0.731-0.259,1.095-0.398c0.236-0.092,0.475-0.172,0.709-0.274c0.245-0.107,0.484-0.238,0.727-0.356
		c0.05-0.025,0.101-0.05,0.151-0.074c0.084-0.043,0.169-0.081,0.253-0.125c0.084-0.043,0.169-0.079,0.253-0.124
		c0.361-0.193,0.715-0.411,1.069-0.628c0.123-0.076,0.247-0.149,0.37-0.228c0.122-0.079,0.248-0.146,0.369-0.228
		c1.477-0.985,2.877-2.172,4.202-3.475c0.064-0.064,0.131-0.125,0.194-0.189c0.064-0.064,0.131-0.124,0.194-0.188
		c0.388-0.393,0.763-0.799,1.135-1.21c0.115-0.128,0.234-0.25,0.349-0.379c0.62-0.704,1.214-1.432,1.788-2.174
		c0.1-0.129,0.196-0.261,0.295-0.391c0.1-0.131,0.199-0.26,0.296-0.392c3.047-4.108,5.369-8.573,6.667-12.052
		c0.798-2.141,1.385-3.001,1.663-3.323l0.069-0.081l0.105-0.012c0.147-0.017,0.305-0.064,0.47-0.145l0.1-0.048l0.104,0.035
		c1.008,0.336,2.312,0.568,3.77,0.672c0.596,0.042,1.219,0.063,1.852,0.063c2.955,0,5.91-0.452,7.903-1.211
		c3.211-1.223,7.766-3.917,7.153-6.33c-0.329-1.301-1.681-1.785-4.062-1.466c-1.878,0.25-3.581,0.378-5.063,0.378
		c-3.661,0-5.315-0.753-6.06-1.384l-0.081-0.069l-0.115-0.098l0.156-0.205c0.171-0.225,0.335-0.465,0.505-0.693
		c6.136-8.207,11.43-18.19,14.569-27.548c0.492-1.466,0.919-2.897,1.292-4.288c0.79-2.946,1.312-5.692,1.519-8.083
		c0.33-3.826-0.114-6.673-1.321-8.461c-4.705-6.982-11.921-11.212-20.927-12.304c0.095,0.293,0.179,0.59,0.266,0.886
		c0.17,0.574,0.327,1.15,0.466,1.73c6.898,1.038,12.431,4.027,16.495,8.913c0.572,0.687,1.118,1.407,1.632,2.168
		c0.707,1.048,1.032,2.779,1.002,5.005c-0.037,2.812-0.652,6.424-1.814,10.498c-0.21,0.734-0.431,1.478-0.676,2.239
		c-3.003,9.337-8.027,19.035-14.147,27.305l-0.229,0.31l-0.215-0.32c-0.105-0.157-0.215-0.316-0.327-0.479l-0.252-0.362l0.11-0.156
		c3.419-4.841,3.172-9.907,2.955-14.376l-0.006-0.104c-0.087-1.833-0.17-3.564,0.003-5.188c0.173-1.717,0.504-3.176,0.824-4.587
		l0.016-0.069c0.199-0.877,0.399-1.771,0.561-2.719c0.157-0.925,0.275-1.901,0.313-2.969l0.015-0.076
		c0.068-0.205,0.1-0.446,0.094-0.718c-0.046-2.056-1.955-8.351-6.347-14.266c-0.058-0.077-0.118-0.148-0.177-0.225l-1.976,1.523
		c0.1,0.131,0.205,0.265,0.301,0.396c3.68,5.033,5.075,9.7,5.415,11.011l0.105,0.407l-0.415-0.072
		c-5.481-0.953-9.357-0.134-11.428,2.423c-1.026,1.264-1.531,2.858-1.673,4.634c-0.487,6.126,3.397,14.43,5.513,18.949
		c0.568,1.214,0.95,2.04,1.082,2.43c0.84,2.525,2.036,4.261,2.909,5.529c0.284,0.411,0.543,0.787,0.742,1.124l0.192,0.325
		l-0.369,0.079c-1.417,0.303-4.735,1.012-4.819,6.875c-0.003,0.167,0.015,0.431,0.11,0.741l0.05,0.159l-0.12,0.116
		c-0.837,0.81-1.646,2.284-2.477,4.508c-0.788,2.114-2.029,4.705-3.619,7.351c-0.097,0.162-0.201,0.323-0.301,0.485
		c-0.099,0.16-0.2,0.319-0.302,0.479c-0.569,0.903-1.176,1.804-1.819,2.69c-0.573,0.789-1.173,1.562-1.799,2.313
		c-0.1,0.119-0.193,0.243-0.294,0.361c-0.095,0.111-0.195,0.216-0.292,0.326c-0.084,0.096-0.171,0.189-0.255,0.284
		c-0.621,0.697-1.26,1.37-1.922,2.003c-0.14,0.134-0.28,0.265-0.422,0.395c-0.136,0.125-0.275,0.24-0.412,0.362
		c-0.519,0.458-1.048,0.89-1.587,1.295c-0.956,0.719-1.942,1.341-2.955,1.851c-0.032,0.017-0.064,0.033-0.097,0.049
		c-0.051,0.024-0.1,0.051-0.15,0.075c-0.069,0.034-0.138,0.072-0.208,0.104c-0.002,0.001-0.004,0.003-0.006,0.004
		c-0.01,0.004-0.02,0.01-0.029,0.014c-0.104,0.049-0.205,0.108-0.31,0.154c-0.177,0.076-0.357,0.128-0.535,0.197
		c-0.185,0.071-0.369,0.141-0.554,0.204c-0.049,0.017-0.097,0.037-0.145,0.053c-0.114,0.038-0.226,0.092-0.341,0.126
		c-0.42,0.126-0.837,0.22-1.253,0.299c-0.091,0.017-0.182,0.036-0.272,0.052c-0.09,0.015-0.181,0.027-0.271,0.04
		c-0.149,0.021-0.298,0.037-0.446,0.052c-0.343,0.033-0.685,0.057-1.021,0.057c-2.36,0-4.596-0.795-6.836-2.432
		c-2.781-2.032-3.716-3.788-3.457-6.008c0.19-1.625,1.016-3.498,2.241-5.917c0.742-1.465,1.402-2.579,2.005-3.533
		c0.29-0.461,0.568-0.887,0.833-1.292c0.947-1.444,1.799-2.746,2.63-4.725c0.085-0.203,0.171-0.413,0.256-0.632
		c0.336-0.863,0.671-1.85,1.009-3.023c0.054-0.189,0.067-0.392,0.039-0.602l-0.012-0.087l0.041-0.077
		c0.542-1.014,0.688-2.22,0.42-3.487c-0.293-1.391-1.033-2.631-2.011-3.449c-0.27-0.225-0.555-0.421-0.856-0.576
		c-0.012-0.006-0.022-0.014-0.034-0.02c-0.082-0.041-0.18-0.087-0.275-0.132c-0.383-0.181-0.87-0.37-1.44-0.449
		c-0.081-0.011-0.157-0.031-0.242-0.037c-0.198-0.014-0.398-0.005-0.6,0.014c-0.103,0.01-0.205,0.018-0.308,0.036l-0.443,0.079
		l0.115-0.362l0.021-0.066c0.02-0.062,0.046-0.128,0.067-0.191c0.028-0.083,0.06-0.17,0.09-0.255c0.118-0.334,0.25-0.681,0.396-1.04
		c0.254-0.619,0.547-1.284,0.875-2.006c0.038-0.083,0.073-0.163,0.112-0.248c0.022-0.05,0.042-0.095,0.065-0.146l0.046-0.102
		l0.222-0.488c0.287-0.633,0.634-1.279,1.001-1.963l0.069-0.13c1.82-3.381,4.221-7.853,3.628-17.264
		c-0.089-1.411-0.242-2.927-0.478-4.574c-0.639-4.464-3.617-6.904-8.38-6.896c-0.141,0-0.278-0.005-0.422,0
		c-0.656,0.021-1.3,0.091-1.928,0.186c-2.29,0.342-4.308,1.073-5.438,1.548c-0.312,0.131-0.595,0.258-0.86,0.384l-0.462,0.218
		l0.078-0.504c0.565-3.687,1.976-9.775,5.374-14.78l-2.173-1.252c-5.483,8.181-6.037,18.646-6.062,19.174
		c-0.025,0.355-0.031,0.863-0.038,1.505c-0.005,0.41-0.013,0.894-0.023,1.408c-0.009,0.44-0.023,0.918-0.043,1.426
		c-0.01,0.256-0.018,0.507-0.031,0.779c-0.012,0.253-0.03,0.525-0.047,0.791c-0.078,1.308-0.2,2.746-0.407,4.297
		c-0.104,0.775-0.237,1.581-0.386,2.398c-0.084,0.464-0.167,0.928-0.269,1.402c-0.578,2.72-0.431,5.465,0.349,8.003
		c0.027,0.087,0.046,0.177,0.075,0.265c0.028,0.087,0.049,0.178,0.08,0.265c0.405,1.167,0.962,2.276,1.642,3.317
		c0.068,0.105,0.145,0.206,0.216,0.309c0,0,0.001,0,0.001,0.001c0.074,0.107,0.147,0.215,0.225,0.321
		c0.114,0.157,0.213,0.322,0.333,0.475l0.162,0.206l-0.2,0.169c-0.418,0.353-1.054,0.895-1.818,1.557
		c-1.86,1.609-4.576,4.011-7.448,6.737c-0.336,0.319-0.667,0.598-0.992,0.84c-0.775,0.579-1.517,0.933-2.22,1.071
		c-0.219,0.043-0.435,0.072-0.646,0.072c-0.659,0-1.113-0.216-1.332-0.319c-0.582-0.274-1.157-0.741-1.723-1.36
		c-0.55-0.601-1.091-1.355-1.62-2.265c-0.044-0.076-0.088-0.158-0.133-0.237c-0.044-0.078-0.088-0.156-0.132-0.237
		c-0.082-0.15-0.165-0.292-0.247-0.45c-0.395-0.763-0.783-1.608-1.161-2.537c-0.033-0.081-0.064-0.171-0.098-0.254
		c-0.033-0.083-0.065-0.17-0.098-0.254c-1.298-3.316-2.479-7.586-3.48-12.67c-0.046-0.237-0.091-0.483-0.137-0.723
		c-0.04-0.208-0.08-0.416-0.119-0.626c-0.005-0.026-0.01-0.052-0.015-0.078c-0.036-0.192-0.073-0.377-0.108-0.572
		c-1.18-6.541-1.868-13.04-2.183-17.801c-0.202-3.067-0.251-5.419-0.172-6.576c0.638-9.392,3.688-15.64,9.065-18.572
		c2.423-1.32,5.354-1.989,8.713-1.989c4.684,0,9.46,1.283,13.21,2.64c0.064-0.17,0.134-0.339,0.202-0.51
		c0.238-0.596,0.51-1.192,0.805-1.789c-1.167-0.425-2.437-0.847-3.785-1.232c-4.167-1.188-7.989-1.715-11.417-1.587
		c-0.625,0.023-1.233,0.074-1.832,0.141c-2.627,0.293-5.001,1-7.085,2.134c-6.177,3.362-9.665,10.292-10.368,20.596
		c-0.067,1.006-0.054,2.642,0.042,4.693C105.766,79.917,105.779,80.177,105.793,80.45z M182.471,111.415l-0.257,0.46l-0.225-0.477
		c-0.28-0.594-0.508-1.16-0.697-1.731c-0.176-0.534-0.588-1.414-1.157-2.632l-0.032-0.068c-1.936-4.134-6.015-12.875-5.237-18.225
		c0.153-1.061,0.48-2.001,1.073-2.732c1.519-1.875,4.845-2.371,9.711-1.416l0.239,0.047l-0.021,0.243
		c-0.076,0.863-0.211,1.676-0.367,2.463c-0.123,0.622-0.258,1.228-0.394,1.823l-0.03,0.132c-0.33,1.465-0.672,2.981-0.861,4.822
		c-0.189,1.843-0.096,3.79-0.006,5.672C184.397,103.643,184.592,107.622,182.471,111.415z M180.079,124.294
		c0.087-3.78,1.604-4.092,3.072-4.395l0.07-0.015c0.194-0.04,0.384-0.079,0.566-0.13l0.146-0.041l0.111,0.104
		c0.115,0.107,0.24,0.216,0.379,0.319c1.558,1.197,4.073,1.802,7.48,1.802h0.001c1.424,0,3.032-0.113,4.77-0.325
		c0.207-0.025,0.407-0.046,0.618-0.074l0.961-0.128l-0.686,0.6c-0.645,0.52-2.033,1.494-4.214,2.373
		c-0.124,0.05-0.239,0.1-0.368,0.149c-1.705,0.646-4.414,1.047-7.071,1.047c-0.204,0-0.407-0.002-0.61-0.007
		c-0.075-0.002-0.138-0.008-0.211-0.01c-2.981-0.099-4.44-0.667-4.876-1.025c-0.017-0.013-0.042-0.028-0.055-0.041l-0.087-0.083
		L180.079,124.294z M147.587,117.59l0.076,0.003c0.321,0.022,0.65,0.178,1.016,0.363c0.423,0.211,0.803,0.627,1.099,1.13
		c0.213,0.363,0.389,0.766,0.479,1.197c0.104,0.49,0.19,1.417-0.385,2.115c-0.476,0.575-0.985,1.077-1.513,1.539
		c-0.097,0.084-0.19,0.177-0.289,0.258c-0.603,0.494-1.239,0.907-1.905,1.256c-1.596,0.837-3.365,1.274-5.308,1.274
		c-0.325,0-0.654-0.012-0.989-0.035c-0.058-0.004-0.117-0.014-0.176-0.019c-1.261-0.104-2.588-0.378-3.952-0.822
		c-0.539-0.176-1.015-0.409-1.404-0.637c-0.236-0.138-0.442-0.273-0.598-0.394c-0.009-0.007-0.021-0.015-0.029-0.021
		c-0.004-0.002-0.009-0.006-0.013-0.009l-0.337-0.269l-0.033-0.026l0.441-0.17c0.032-0.012,0.072-0.023,0.105-0.035
		c0.241-0.086,0.517-0.166,0.837-0.238c0.05-0.011,0.104-0.021,0.156-0.032c0.008-0.002,0.018-0.003,0.025-0.005
		c0.341-0.071,0.716-0.136,1.136-0.192c0.366-0.048,0.708-0.097,1.034-0.146c0.86-0.129,1.589-0.261,2.218-0.403
		c2.704-0.612,3.576-1.42,5.064-3.056c0.05-0.056,0.104-0.115,0.156-0.172c0.431-0.473,0.917-1,1.562-1.623
		C146.637,117.862,147.136,117.59,147.587,117.59z M134.9,86.012l0.018-1.077l0.104-0.079c0.841-0.645,3.709-2.053,6.796-2.625
		c0.715-0.132,1.44-0.218,2.156-0.24c0.118-0.003,0.237-0.011,0.355-0.011c0.905,0,1.734,0.113,2.464,0.335
		c1.984,0.604,3.114,2.055,3.455,4.436c0.431,3.009,0.585,5.552,0.545,7.741c-0.114,6.409-1.905,9.745-3.422,12.562
		c-0.412,0.765-0.801,1.488-1.144,2.243l-0.158,0.347l-0.11,0.242c-0.001,0.002-0.002,0.004-0.003,0.007
		c-0.039,0.084-0.075,0.165-0.113,0.249c-0.491,1.078-0.947,2.099-1.311,3.073c-0.033,0.089-0.062,0.175-0.093,0.263
		c-0.031,0.087-0.062,0.175-0.092,0.261c-0.034,0.099-0.074,0.201-0.105,0.299l-0.065,0.204l-0.156-0.011l-0.057-0.004
		c-1.42-0.104-2.784-0.5-4.044-1.143c-0.657-0.336-1.285-0.74-1.876-1.209c-0.012-0.01-0.024-0.018-0.036-0.027
		c-0.189-0.152-0.371-0.318-0.553-0.483c-0.023-0.021-0.047-0.042-0.07-0.064c-0.048-0.044-0.098-0.086-0.146-0.131
		c-0.002-0.002-0.004-0.004-0.006-0.006c-0.069-0.066-0.142-0.128-0.209-0.196c-0.087-0.087-0.167-0.185-0.252-0.275
		c-0.165-0.177-0.334-0.349-0.491-0.538c-0.755-0.91-1.352-1.917-1.821-2.978c-0.044-0.099-0.086-0.199-0.128-0.299
		c-0.041-0.101-0.089-0.198-0.127-0.299c-0.901-2.354-1.118-4.97-0.563-7.576c0.485-2.276,0.772-4.424,0.953-6.361
		c0.024-0.257,0.047-0.51,0.066-0.759c0.023-0.29,0.046-0.574,0.064-0.852c0.02-0.285,0.037-0.563,0.052-0.834
		C134.87,88.507,134.89,87.068,134.9,86.012z"/>
	<polygon points="147.587,117.862 147.587,117.87 147.588,117.87 	"/>
	<path d="M139.806,57.438c-0.033,0.087-0.061,0.172-0.093,0.259c-0.03,0.084-0.059,0.167-0.089,0.251
		c-0.725,2.047-1.154,4.01-1.395,5.565l-0.124,0.802l0.301,0.173l0.234,0.135l0.168,0.097l0.068,0.04l2.176,1.254l0.235,0.136
		l0.237,0.137l1.314,0.758l2.65,1.528l0.413,0.238l0.092,0.053l0.539-0.223l5.577-2.303l6.412,3.569l0.396,0.22l0.441-0.1
		l11.479-2.593l5.005,4.082l0.729,0.594l0.744-0.574l1.883-1.452l0.215-0.165l0.214-0.166l1.969-1.518l0.218-0.168l0.213-0.164
		l0.024-0.019l0.468-0.361l-0.007-0.592c-0.031-2.555-0.336-5.092-0.903-7.54c-0.004-0.017-0.007-0.035-0.011-0.052
		c-0.018-0.077-0.04-0.152-0.059-0.229c-0.022-0.094-0.048-0.188-0.071-0.281c-0.132-0.53-0.277-1.058-0.434-1.582
		c-0.102-0.339-0.205-0.677-0.316-1.012c-0.031-0.095-0.066-0.189-0.099-0.283c-0.032-0.095-0.064-0.189-0.098-0.283
		c-0.882-2.509-2.036-4.913-3.426-7.082c-0.771-1.205-1.604-2.317-2.474-3.337c-3.056-3.579-6.618-5.942-9.978-6.514l-0.096-0.014
		l-0.035-0.008l-0.027-0.003c-0.125-0.02-0.256-0.029-0.383-0.044c-0.418-0.049-0.847-0.081-1.287-0.081
		c-1.059,0-2.184,0.141-3.344,0.418c-0.01,0.002-0.021,0.006-0.03,0.008c-0.384,0.092-0.771,0.201-1.162,0.322
		c-2.926,0.914-6.003,2.64-8.789,4.946c-2.934,2.428-5.549,5.495-7.563,8.87c-0.317,0.493-0.604,0.996-0.873,1.503
		c-0.042,0.08-0.078,0.161-0.119,0.241c-0.042,0.081-0.081,0.163-0.121,0.244c-0.293,0.586-0.561,1.173-0.797,1.761
		C139.946,57.081,139.873,57.259,139.806,57.438z M172.018,44.208c1.453,1.395,2.842,3.083,4.082,5.019
		c1.213,1.893,2.281,4.024,3.135,6.341c0.033,0.09,0.063,0.183,0.096,0.274c0.033,0.093,0.065,0.187,0.099,0.281
		c0.139,0.399,0.271,0.804,0.397,1.213c0.136,0.443,0.264,0.892,0.383,1.346c0.024,0.094,0.048,0.188,0.072,0.282
		c0.023,0.094,0.049,0.187,0.071,0.281c0.03,0.122,0.064,0.24,0.093,0.362c0.541,2.319,0.852,4.777,0.883,7.338l-0.043,0.033
		l-0.218,0.168l-0.211,0.163l-1.979,1.525l-0.215,0.166l-0.215,0.166l-1.855,1.431l-5.452-4.446l-12.041,2.72l-6.912-3.847
		l-6.099,2.519l-0.007,0.003l-3.153-1.818l-0.674-0.388l-0.237-0.137l-0.237-0.137l-2.191-1.263l-0.188-0.109
		c0.006-0.038,0.014-0.078,0.021-0.116c0.028-0.18,0.063-0.367,0.096-0.551c0.261-1.478,0.651-3.063,1.213-4.653
		c0.029-0.083,0.062-0.167,0.092-0.25c0.031-0.086,0.062-0.172,0.095-0.258c0.075-0.202,0.151-0.402,0.233-0.603
		c0.232-0.571,0.494-1.135,0.775-1.692c0.041-0.081,0.08-0.162,0.122-0.243c0.042-0.08,0.079-0.161,0.122-0.24
		c0.242-0.451,0.499-0.896,0.777-1.33c2.059-3.45,4.604-6.333,7.302-8.564c3.133-2.594,6.476-4.315,9.501-5.037
		c1.069-0.256,2.1-0.386,3.068-0.386c0.515,0,1.012,0.037,1.488,0.111c0.047,0.01,0.095,0.014,0.141,0.022
		c0.035,0.006,0.07,0.016,0.105,0.022C166.965,40.369,169.582,41.872,172.018,44.208z"/>
</g>
</svg>
