<?xml version="1.0" encoding="UTF-8" standalone="no"?>
<!-- Created with Inkscape (http://www.inkscape.org/) -->

<svg
   xmlns:dc="http://purl.org/dc/elements/1.1/"
   xmlns:cc="http://creativecommons.org/ns#"
   xmlns:rdf="http://www.w3.org/1999/02/22-rdf-syntax-ns#"
   xmlns:svg="http://www.w3.org/2000/svg"
   xmlns="http://www.w3.org/2000/svg"
   xmlns:sodipodi="http://sodipodi.sourceforge.net/DTD/sodipodi-0.dtd"
   xmlns:inkscape="http://www.inkscape.org/namespaces/inkscape"
   width="142.03497mm"
   height="162.26102mm"
   viewBox="0 0 142.03497 162.26102"
   version="1.1"
   id="svg233"
   sodipodi:docname="postgres9.0-alt-1.svg"
   inkscape:version="0.92.2 5c3e80d, 2017-08-06">
  <defs
     id="defs227" />
  <sodipodi:namedview
     id="base"
     pagecolor="#ffffff"
     bordercolor="#666666"
     borderopacity="1.0"
     inkscape:pageopacity="0.0"
     inkscape:pageshadow="2"
     inkscape:zoom="0.94662481"
     inkscape:cx="105.63705"
     inkscape:cy="249.26287"
     inkscape:document-units="mm"
     inkscape:current-layer="layer1"
     showgrid="false"
     fit-margin-top="0"
     fit-margin-left="0"
     fit-margin-right="0"
     fit-margin-bottom="0"
     inkscape:window-width="1914"
     inkscape:window-height="1021"
     inkscape:window-x="0"
     inkscape:window-y="28"
     inkscape:window-maximized="0" />
  <metadata
     id="metadata230">
    <rdf:RDF>
      <cc:Work
         rdf:about="">
        <dc:format>image/svg+xml</dc:format>
        <dc:type
           rdf:resource="http://purl.org/dc/dcmitype/StillImage" />
        <dc:title></dc:title>
      </cc:Work>
    </rdf:RDF>
  </metadata>
  <g
     inkscape:label="Layer 1"
     inkscape:groupmode="layer"
     id="layer1"
     transform="translate(-104.57099,-16.098428)">
    <path
       style="opacity:0.5;fill:#000000;fill-opacity:1;fill-rule:nonzero;stroke:#000000;stroke-width:1;stroke-opacity:1"
       d="m 426.49427,209.25967 c -10.63889,-14.40349 -20.51847,-27.75505 -21.95463,-29.67013 -1.67807,-2.23769 -2.24681,-3.84636 -1.59154,-4.50163 1.06432,-1.06432 187.64069,-70.66377 188.17612,-70.19621 0.1683,0.14697 -0.24315,4.4871 -0.91434,9.64474 l -1.22032,9.37753 -70.69802,55.4602 c -38.88391,30.50311 -71.09308,55.59822 -71.57592,55.76693 -0.48285,0.16869 -9.58245,-11.47795 -20.22135,-25.88143 z"
       id="path274"
       inkscape:connector-curvature="0"
       transform="matrix(0.26458333,0,0,0.26458333,0.01368824,0.04890553)" />
    <path
       style="opacity:0.5;fill:#000000;fill-opacity:1;fill-rule:nonzero;stroke:#000000;stroke-width:1;stroke-opacity:1"
       d="m 396.90175,162.20792 c 1.08229,-2.4693 5.03423,-10.90718 8.78208,-18.75083 l 6.81427,-14.2612 5.17748,-1.91641 c 2.84761,-1.05402 39.05034,-11.36489 80.4505,-22.91304 83.90355,-23.404025 88.99369,-24.433596 101.73128,-20.576964 3.45314,1.045527 6.27844,2.199038 6.27844,2.563356 0,0.364318 -3.08992,2.186108 -6.8665,4.048422 -3.77657,1.862313 -6.8665,4.066657 -6.8665,4.898539 0,0.831884 -1.78265,2.087527 -3.96144,2.790317 -6.96796,2.24758 -179.4051,63.91366 -187.52967,67.06338 -5.82648,2.25881 -6.17789,2.00068 -4.00994,-2.94557 z"
       id="path276"
       inkscape:connector-curvature="0"
       transform="matrix(0.26458333,0,0,0.26458333,0.01368824,0.04890553)" />
    <path
       style="opacity:0.5;fill:#000000;fill-opacity:1;fill-rule:nonzero;stroke:#000000;stroke-width:1;stroke-opacity:1"
       d="m 449.79086,106.76842 c 0.87152,-0.33264 28.81709,-10.0392 62.10127,-21.570134 59.25119,-20.526921 60.78008,-20.991111 73.11233,-22.197898 l 12.59566,-1.232562 13.24711,5.61164 c 7.28591,3.086402 13.30186,6.135702 13.36876,6.776223 0.2473,2.367492 -0.33016,5.417079 -1.19697,6.321291 -0.50851,0.530451 -6.26049,-1.216901 -13.36611,-4.060396 l -12.47345,-4.991567 -11.6317,0.729748 c -10.73364,0.673406 -16.3876,2.06758 -73.23079,18.057494 -52.61477,14.800471 -69.95819,19.392791 -62.52611,16.556161 z"
       id="path278"
       inkscape:connector-curvature="0"
       transform="matrix(0.26458333,0,0,0.26458333,0.01368824,0.04890553)" />
    <path
       style="opacity:0.5;fill:#000000;fill-opacity:1;fill-rule:nonzero;stroke:#000000;stroke-width:1;stroke-opacity:1"
       d="m 702.41554,249.0879 c 0.31437,-0.8673 1.40873,-3.95378 2.43194,-6.85884 l 1.86035,-5.28192 -5.38966,-17.20765 c -2.96432,-9.46419 -5.38966,-17.3549 -5.38966,-17.53488 0,-0.17999 -5.94937,-4.01245 -13.22082,-8.51658 -8.82265,-5.46497 -13.81803,-7.96014 -15.01606,-7.50041 -3.39705,1.30357 -24.38523,14.45825 -26.1116,16.36586 -0.95065,1.05047 -4.26676,8.97385 -7.36914,17.60751 -5.43793,15.13337 -5.59193,15.85954 -4.28465,20.20331 1.54207,5.1239 1.34712,5.32036 -2.37449,2.39295 -1.63371,-1.28508 -4.28552,-2.11277 -6.76902,-2.11277 -2.2457,0 -4.09863,-0.35653 -4.11764,-0.79229 -0.019,-0.43575 -0.46438,-4.1199 -0.9897,-8.18698 -0.94125,-7.28718 -0.8617,-7.6867 5.47163,-27.47866 l 6.42677,-20.08397 12.22579,-7.30453 c 6.72419,-4.01749 11.69581,-7.48119 11.04805,-7.69711 -0.64777,-0.21592 -5.36082,1.29416 -10.47346,3.35574 -5.11263,2.06159 -9.8249,3.74833 -10.47171,3.74833 -0.6468,0 -4.54176,-6.04758 -8.65547,-13.43907 l -7.47945,-13.43908 4.66146,-6.05792 c 2.56381,-3.33186 5.10235,-6.3304 5.6412,-6.66343 0.53885,-0.33303 5.72344,0.59697 11.52131,2.06665 18.24684,4.62534 19.86617,3.29109 4.32967,-3.56742 -5.7997,-2.56025 -10.54491,-4.84948 -10.54491,-5.08717 0,-0.2377 2.83271,-4.06503 6.29491,-8.50517 3.46221,-4.44015 6.09175,-8.27617 5.84342,-8.5245 -0.24832,-0.24832 -6.82163,5.55492 -14.60735,12.89608 -7.78573,7.34116 -14.40043,13.34757 -14.69935,13.34757 -0.29892,0 0.40097,-3.09421 1.5553,-6.87602 1.15434,-3.78181 1.83366,-7.56696 1.5096,-8.41146 -0.32406,-0.84449 -3.34436,-2.95979 -6.71177,-4.70065 -9.77787,-5.0549 -9.20827,-3.98788 -7.1607,-13.41387 0.99465,-4.57886 2.34819,-8.871759 3.00787,-9.539776 0.65967,-0.668018 4.76471,-2.476065 9.1223,-4.017881 6.4022,-2.26525 9.13943,-3.988591 14.26119,-8.978734 3.48607,-3.396486 8.47749,-7.245476 11.09204,-8.55331 4.64638,-2.324182 5.30721,-2.363362 29.26301,-1.734995 23.22826,0.609284 24.77424,0.777581 29.57877,3.21997 2.78822,1.417397 7.32098,4.961267 10.07279,7.875268 4.24955,4.500019 6.3184,5.731087 13.733,8.171768 4.80134,1.580471 9.2592,3.289984 9.90635,3.79892 1.34547,1.05809 3.57709,11.213 3.57709,16.27735 0,3.21658 -0.42604,3.58661 -7.92289,6.88123 -4.35758,1.91502 -7.92288,3.97642 -7.92288,4.5809 0,0.60448 -3.08993,-1.9634 -6.8665,-5.70641 -3.77658,-3.743 -6.8665,-6.4412 -6.8665,-5.99598 0,0.44521 2.44314,4.43006 5.42921,8.85522 4.74143,7.02649 5.21892,8.19952 3.76919,9.25958 -0.91301,0.66761 -7.8722,3.06631 -15.46486,5.33044 -7.59267,2.26413 -13.80485,4.49339 -13.80485,4.95391 0,1.15028 0.54105,1.1002 18.48673,-1.71116 14.19202,-2.22331 16.0359,-2.31557 17.66748,-0.88403 3.84819,3.37639 3.33571,5.18682 -6.06304,21.41831 -5.03606,8.69719 -9.58124,16.0756 -10.10041,16.39646 -0.51916,0.32086 -4.8378,-1.10404 -9.59697,-3.16645 -4.75917,-2.0624 -9.0447,-3.74983 -9.52341,-3.74983 -2.69471,0 0.25139,2.52188 9.14883,7.83145 5.51057,3.28845 10.46544,6.81278 11.01083,7.83185 0.54539,1.01908 3.85676,9.80655 7.3586,19.52774 5.56837,15.45791 6.30023,18.36759 5.83485,23.19755 -1.01822,10.5676 -1.50198,12.38919 -3.29015,12.38919 -0.94537,0 -4.58428,2.49226 -8.08644,5.53836 -3.50218,3.04609 -6.11039,4.82874 -5.79602,3.96144 z m -64.27459,-88.5089 3.91154,-4.00578 -4.69105,-4.60392 -4.69105,-4.60392 -3.68356,3.06368 c -2.02596,1.68502 -3.71789,3.4901 -3.75983,4.01127 -0.0951,1.18107 7.17776,10.14445 8.23114,10.14445 0.4242,0 2.53146,-1.8026 4.68281,-4.00578 z m 70.68373,0.094 c 4.41755,-4.31363 4.83234,-5.7076 2.31899,-7.79349 -1.5184,-1.26016 -1.52242,-1.45784 -0.0403,-1.97803 1.38994,-0.48781 1.19998,-1.27689 -1.21807,-5.05997 -1.57565,-2.46512 -3.31755,-4.48545 -3.8709,-4.48963 -1.23072,-0.009 -7.97318,6.41278 -7.97318,7.59432 0,1.74369 2.88471,0.75991 5.29507,-1.8058 1.74932,-1.86205 2.827,-2.32215 3.60857,-1.54059 0.78155,0.78157 0.763,1.33785 -0.0621,1.86267 -0.64707,0.41156 -3.15466,2.54403 -5.57242,4.73882 l -4.39595,3.99053 3.46849,4.17741 c 1.90766,2.29758 3.68613,4.18599 3.95214,4.19646 0.266,0.0105 2.28634,-1.74124 4.48963,-3.8927 z m -71.10693,-15.1374 c -2.45854,-3.50489 -4.79917,-6.0006 -5.2014,-5.54602 -1.98394,2.2421 -6.19868,9.21208 -5.80724,9.60352 0.24532,0.24532 1.54001,-0.82465 2.87708,-2.3777 l 2.43104,-2.82374 3.64048,3.75823 c 5.85897,6.04849 7.06397,4.5193 2.06004,-2.61429 z"
       id="path280"
       inkscape:connector-curvature="0"
       transform="matrix(0.26458333,0,0,0.26458333,0.01368824,0.04890553)" />
    <path
       style="opacity:0.5;fill:#000000;fill-opacity:1;fill-rule:nonzero;stroke:#000000;stroke-width:1;stroke-opacity:1"
       d="m 490.14554,257.7529 -32.00767,-14.32275 2.95709,-2.87417 c 4.05128,-3.93768 130.3405,-108.0366 133.87903,-110.35513 4.41714,-2.89422 5.93137,-0.53063 7.09551,11.07562 l 0.96735,9.64406 -37.1189,57.2745 c -38.13727,58.84583 -41.75915,64.23416 -43.02621,64.01081 -0.40619,-0.0716 -15.14198,-6.57543 -32.7462,-14.45294 z"
       id="path282"
       inkscape:connector-curvature="0"
       transform="matrix(0.26458333,0,0,0.26458333,0.01368824,0.04890553)" />
    <path
       style="opacity:0.5;fill:#000000;fill-opacity:1;fill-rule:nonzero;stroke:#000000;stroke-width:1;stroke-opacity:1"
       d="m 538.52718,266.52416 c 0,-0.29147 15.52563,-23.81971 34.50139,-52.28498 29.62908,-44.44615 34.67472,-51.49482 35.72876,-49.91243 0.67505,1.01344 2.70967,5.53672 4.52137,10.05174 l 3.294,8.20913 -6.80303,23.41464 c -3.74166,12.87805 -6.80302,24.64312 -6.80302,26.14461 0,1.50148 0.96924,6.22759 2.15387,10.50248 1.18463,4.27488 1.91197,8.01442 1.6163,8.31009 -0.29566,0.29567 -13.03039,3.04388 -28.2994,6.10713 -15.269,3.06326 -30.37637,6.56337 -33.57193,7.77801 -6.44614,2.45021 -6.33831,2.42163 -6.33831,1.67958 z"
       id="path284"
       inkscape:connector-curvature="0"
       transform="matrix(0.26458333,0,0,0.26458333,0.01368824,0.04890553)" />
    <path
       style="opacity:0.5;fill:#000000;fill-opacity:1;fill-rule:nonzero;stroke:#000000;stroke-width:1;stroke-opacity:1"
       d="m 641.69763,254.37748 c -0.33866,-1.45253 -1.32775,-6.27793 -2.19797,-10.72313 l -1.58223,-8.08217 4.09462,-14.32792 c 2.25204,-7.88036 4.36642,-14.76773 4.69864,-15.30526 0.33221,-0.53753 5.43579,-3.7131 11.34129,-7.05682 l 10.73727,-6.0795 3.26988,1.78226 c 1.79843,0.98024 6.59295,4.01983 10.6545,6.75465 l 7.38462,4.97239 1.8635,7.92288 c 3.82606,16.26703 4.13814,21.33269 1.89326,30.73163 -1.13124,4.73632 -2.23975,8.79444 -2.46336,9.01805 -0.22361,0.22361 -1.01227,-1.6151 -1.75258,-4.08603 -0.7403,-2.47092 -4.02523,-7.88395 -7.29985,-12.02894 -5.40288,-6.83897 -6.38311,-7.59695 -10.5928,-8.1911 -3.19133,-0.45042 -6.82685,-0.003 -11.65005,1.43325 l -7.01108,2.08799 -4.93853,10.32479 c -2.71619,5.67864 -5.13987,11.03785 -5.38596,11.90937 -0.28698,1.01636 -0.66823,0.63755 -1.06317,-1.05639 z"
       id="path286"
       inkscape:connector-curvature="0"
       transform="matrix(0.26458333,0,0,0.26458333,0.01368824,0.04890553)" />
    <path
       style="opacity:0.5;fill:#000000;fill-opacity:1;fill-rule:nonzero;stroke:#000000;stroke-width:1;stroke-opacity:1"
       d="m 681.85784,261.76477 c -5.50715,-9.3502 -6.62205,-10.61901 -10.69897,-12.176 -4.41007,-1.68423 -4.66162,-1.6655 -8.11341,0.60385 -1.95922,1.28808 -6.58149,6.67845 -10.2717,11.97859 l -6.70948,9.63662 0.71064,-5.08883 c 0.39085,-2.79885 3.17243,-10.1502 6.18128,-16.33632 5.27661,-10.84858 5.61541,-11.27724 9.55205,-12.08584 6.25588,-1.28499 11.36907,0.58211 15.4288,5.6339 4.68206,5.82619 10.79013,20.44147 10.38417,24.84702 -0.29779,3.23162 -0.66256,2.83583 -6.46338,-7.01299 z"
       id="path288"
       inkscape:connector-curvature="0"
       transform="matrix(0.26458333,0,0,0.26458333,0.01368824,0.04890553)" />
    <path
       style="opacity:0.5;fill:#000000;fill-opacity:1;fill-rule:nonzero;stroke:#000000;stroke-width:1;stroke-opacity:1"
       d="m 644.19313,291.5456 c -0.0338,-6.91282 0.24344,-7.45428 11.276,-22.02046 9.15221,-12.08358 12.011,-14.20033 16.17131,-11.9738 2.10368,1.12585 17.94976,24.54642 17.94976,26.52981 0,0.59152 -3.41964,-1.33378 -7.5992,-4.27844 -7.42743,-5.2329 -7.76769,-5.35281 -15.05348,-5.305 -7.3299,0.0481 -7.50445,0.1142 -10.46071,3.96144 -1.65353,2.15189 -5.08761,7.24014 -7.63131,11.30722 l -4.62489,7.3947 z"
       id="path290"
       inkscape:connector-curvature="0"
       transform="matrix(0.26458333,0,0,0.26458333,0.01368824,0.04890553)" />
    <path
       style="opacity:0.5;fill:#000000;fill-opacity:1;fill-rule:nonzero;stroke:#000000;stroke-width:1;stroke-opacity:1"
       d="m 647.95484,315.99132 c -0.38503,-2.80349 -0.93646,-6.30872 -1.22541,-7.78941 -0.41873,-2.14575 1.21117,-4.99865 8.03045,-14.05618 4.70569,-6.25021 9.29631,-11.64817 10.20137,-11.99548 2.0947,-0.80381 23.88317,9.8767 25.53079,12.51496 1.67035,2.67465 0.22448,2.58419 -9.03559,-0.56537 -6.90639,-2.34901 -7.87629,-2.43334 -13.35073,-1.16076 -7.66243,1.78119 -10.23285,4.78465 -14.46216,16.8986 -1.82562,5.22911 -3.69491,9.89973 -4.15398,10.37917 -0.45907,0.47944 -1.1497,-1.42205 -1.53474,-4.22553 z"
       id="path292"
       inkscape:connector-curvature="0"
       transform="matrix(0.26458333,0,0,0.26458333,0.01368824,0.04890553)" />
    <path
       style="opacity:0.5;fill:#000000;fill-opacity:1;fill-rule:nonzero;stroke:#000000;stroke-width:1;stroke-opacity:1"
       d="m 655.34934,335.91085 -2.92604,-6.12197 7.20918,-14.46523 7.20919,-14.46524 4.77186,0.0804 c 6.25805,0.10539 21.3962,4.36812 22.00568,6.19656 0.38885,1.16656 -1.19264,1.29561 -8.55584,0.69816 -8.59569,-0.69745 -9.29027,-0.59 -14.35166,2.22021 -6.58753,3.65757 -8.14674,6.87037 -10.02774,20.66255 -0.7737,5.67309 -1.63215,10.54013 -1.90766,10.81564 -0.27552,0.27552 -1.81765,-2.25395 -3.42697,-5.62104 z"
       id="path294"
       inkscape:connector-curvature="0"
       transform="matrix(0.26458333,0,0,0.26458333,0.01368824,0.04890553)" />
    <path
       style="opacity:0.5;fill:#000000;fill-opacity:1;fill-rule:nonzero;stroke:#000000;stroke-width:1;stroke-opacity:1"
       d="m 668.05017,355.33463 -3.83599,-4.68132 3.28105,-15.12589 c 4.16504,-19.20116 3.96527,-18.99716 18.20821,-18.59432 5.8715,0.16606 10.72173,0.7695 10.89632,1.35566 0.17307,0.58101 -1.68982,2.56632 -4.13974,4.4118 -2.44992,1.84548 -7.42548,6.04488 -11.05681,9.332 -6.47093,5.85758 -6.60258,6.08525 -6.61158,11.43397 -0.0126,7.48689 -1.17542,16.54943 -2.12348,16.54943 -0.43009,0 -2.50818,-2.1066 -4.61798,-4.68133 z"
       id="path296"
       inkscape:connector-curvature="0"
       transform="matrix(0.26458333,0,0,0.26458333,0.01368824,0.04890553)" />
    <path
       style="opacity:0.5;fill:#000000;fill-opacity:1;fill-rule:nonzero;stroke:#000000;stroke-width:1;stroke-opacity:1"
       d="m 683.87938,372.69257 c -0.34247,-0.87151 -0.99388,-7.76442 -1.44759,-15.31757 l -0.82492,-13.73301 2.96622,-4.46084 c 3.12518,-4.6999 16.64718,-13.74099 18.67596,-12.48714 0.59291,0.36644 3.25933,3.50103 5.92537,6.96575 4.27405,5.55445 4.62074,6.38313 2.93132,7.00662 -14.02397,5.17564 -15.51836,6.21321 -19.63528,13.63293 -2.19243,3.95132 -4.88223,10.06278 -5.97733,13.58103 -1.19599,3.8424 -2.23973,5.76405 -2.61375,4.81223 z"
       id="path298"
       inkscape:connector-curvature="0"
       transform="matrix(0.26458333,0,0,0.26458333,0.01368824,0.04890553)" />
    <path
       style="opacity:0.5;fill:#000000;fill-opacity:1;fill-rule:nonzero;stroke:#000000;stroke-width:1;stroke-opacity:1"
       d="m 687.47743,383.9165 c 0,-1.94458 8.47688,-18.21836 11.94071,-22.92358 4.08881,-5.5542 4.96823,-6.15905 12.58574,-8.65632 l 8.18976,-2.68488 3.73824,6.15382 c 3.16207,5.20532 6.80521,14.33255 6.84589,17.15113 0.0183,1.26651 -4.18193,0.9504 -12.1608,-0.91525 l -7.4185,-1.73463 -6.84269,3.45297 c -3.76349,1.89913 -8.79315,5.05048 -11.17704,7.003 -3.958,3.24181 -5.70131,4.20614 -5.70131,3.15374 z"
       id="path300"
       inkscape:connector-curvature="0"
       transform="matrix(0.26458333,0,0,0.26458333,0.01368824,0.04890553)" />
    <path
       style="opacity:0.5;fill:#000000;fill-opacity:1;fill-rule:nonzero;stroke:#000000;stroke-width:1;stroke-opacity:1"
       d="m 708.74725,401.19037 c -10.67055,-2.83203 -19.6272,-5.37535 -19.90367,-5.65182 -2.71076,-2.71076 11.37099,-11.17079 22.92527,-13.77303 4.65966,-1.04945 6.91886,-1.0185 12.04156,0.16496 8.54192,1.97338 9.76508,2.78291 10.43411,6.90565 0.7302,4.49969 -2.62142,17.06743 -4.61843,17.31797 -0.81282,0.10197 -10.2083,-2.13171 -20.87884,-4.96373 z"
       id="path302"
       inkscape:connector-curvature="0"
       transform="matrix(0.26458333,0,0,0.26458333,0.01368824,0.04890553)" />
    <path
       style="opacity:0.5;fill:#000000;fill-opacity:1;fill-rule:nonzero;stroke:#000000;stroke-width:1;stroke-opacity:1"
       d="m 707.81222,423.89791 c -6.50409,-2.61879 -10.60367,-5.18716 -16.15555,-10.12137 l -7.43976,-6.61208 2.53133,-2.53133 2.53133,-2.53133 17.84976,4.94198 c 9.81736,2.71808 18.27448,5.34391 18.79359,5.83516 1.00959,0.9554 -6.52864,13.86998 -8.33853,14.28565 -0.58101,0.13344 -4.97849,-1.33656 -9.77217,-3.26668 z"
       id="path304"
       inkscape:connector-curvature="0"
       transform="matrix(0.26458333,0,0,0.26458333,0.01368824,0.04890553)" />
    <path
       style="opacity:0.5;fill:#000000;fill-opacity:1;fill-rule:nonzero;stroke:#000000;stroke-width:1;stroke-opacity:1"
       d="m 698.56947,443.81656 c -7.63374,-3.17819 -9.51261,-4.8221 -17.60541,-15.40382 l -6.26448,-8.1911 2.81696,-3.69322 c 1.54933,-2.03128 3.12056,-3.69323 3.49164,-3.69323 0.37107,0 3.69777,2.63653 7.39266,5.85895 3.69488,3.22243 9.87123,7.44704 13.72522,9.38802 3.85399,1.94099 8.0691,4.41472 9.36692,5.49719 l 2.35967,1.96812 -3.23915,5.54602 c -1.78154,3.05031 -3.79414,5.5046 -4.47244,5.45397 -0.67831,-0.0506 -4.08552,-1.27952 -7.57159,-2.7309 z"
       id="path306"
       inkscape:connector-curvature="0"
       transform="matrix(0.26458333,0,0,0.26458333,0.01368824,0.04890553)" />
    <path
       style="opacity:0.5;fill:#000000;fill-opacity:1;fill-rule:nonzero;stroke:#000000;stroke-width:1;stroke-opacity:1"
       d="m 635.22723,666.35034 c -5.78765,-4.0708 -10.97242,-7.85087 -11.5217,-8.40015 -0.62734,-0.62733 12.41842,-18.8865 35.08395,-49.10435 19.84545,-26.45812 36.08264,-48.61558 36.08264,-49.23879 0,-1.20057 -2.17956,-0.7349 -8.31599,1.77674 -2.41466,0.98832 -8.02995,1.45293 -17.43035,1.44218 -11.67892,-0.0133 -15.17038,-0.42039 -22.11794,-2.57857 -13.02683,-4.04664 -21.25419,-9.13606 -32.2298,-19.93726 -11.29862,-11.11908 -16.82694,-19.71636 -22.01855,-34.24186 -3.42852,-9.59259 -3.52584,-10.32286 -3.52584,-26.45786 0,-16.27186 0.0747,-16.81792 3.85999,-28.2152 2.61017,-7.85908 5.5293,-14.10401 9.01555,-19.28707 2.83556,-4.21567 5.51322,-8.63168 5.95035,-9.81334 1.49212,-4.03361 20.27557,-17.96862 31.50656,-23.374 11.36115,-5.46803 27.08712,-9.32608 38.01447,-9.32608 4.73284,0 5.50616,0.30322 6.06188,2.37687 1.46991,5.48494 0.50937,8.03334 -7.29438,19.35283 -6.49863,9.42639 -7.61391,11.60845 -6.07421,11.88427 1.03729,0.18581 4.01437,3.75111 6.61572,7.92288 6.49783,10.42052 12.27118,16.41729 18.38549,19.09699 l 5.1697,2.26571 -12.41248,3.96996 c -14.14534,4.52419 -12.69514,4.89606 -20.84421,-5.34502 l -5.42949,-6.82332 1.94405,-7.80686 c 1.06922,-4.29378 1.6569,-8.09402 1.30594,-8.44498 -0.35096,-0.35096 -2.60312,3.2701 -5.00479,8.04679 l -4.36668,8.68489 6.46582,8.34149 c 9.3905,12.11457 7.26297,13.66427 -6.96263,5.0716 -8.32226,-5.02688 -8.86188,-5.57137 -8.86188,-8.9418 0,-5.60773 8.58909,-19.04084 13.25299,-20.72733 2.00704,-0.72575 3.64917,-1.64398 3.64917,-2.04051 0,-1.94795 -4.91867,-1.53277 -11.69943,0.98754 -6.39431,2.37667 -8.57244,3.90156 -14.44097,10.11001 -22.17523,23.45966 -22.00625,57.41563 0.39251,78.87394 9.27085,8.8816 15.65803,12.76882 26.59471,16.18546 10.00789,3.12649 16.91079,3.41955 27.59714,1.17161 18.44991,-3.88107 33.84401,-16.14098 41.78678,-33.27915 4.13883,-8.93039 4.15521,-9.01801 4.14872,-22.18408 -0.007,-15.38542 -1.70187,-21.09407 -9.51645,-32.06437 -7.96434,-11.18057 -7.97418,-9.52254 0.1401,-23.61137 3.95151,-6.861 7.35619,-12.68611 7.56597,-12.94467 1.01401,-1.24991 15.91907,15.30446 21.3483,23.71059 8.02816,12.43008 11.55849,23.10259 12.6266,38.17139 0.69677,9.82995 0.48553,13.01736 -1.4707,22.19107 -2.61147,12.24647 -10.54656,30.26322 -18.54506,42.10685 -7.89211,11.68611 -101.80377,137.14053 -102.9383,137.5129 -0.56115,0.18419 -5.75562,-2.99577 -11.54327,-7.06657 z"
       id="path308"
       inkscape:connector-curvature="0"
       transform="matrix(0.26458333,0,0,0.26458333,0.01368824,0.04890553)" />
    <path
       style="opacity:0.5;fill:#000000;fill-opacity:1;fill-rule:nonzero;stroke:#000000;stroke-width:1;stroke-opacity:1"
       d="m 637.42164,447.89409 c -0.29171,-0.47201 0.39016,-2.25466 1.51528,-3.96145 l 2.04566,-3.10325 0.007,3.96144 c 0.005,2.74814 -0.45927,3.96144 -1.51527,3.96144 -0.83723,0 -1.76091,-0.38618 -2.05263,-0.85818 z"
       id="path310"
       inkscape:connector-curvature="0"
       transform="matrix(0.26458333,0,0,0.26458333,0.01368824,0.04890553)" />
    <path
       style="opacity:0.5;fill:#000000;fill-opacity:1;fill-rule:nonzero;stroke:#000000;stroke-width:1;stroke-opacity:1"
       d="m 623.63737,370.04437 c -1.00878,-5.3969 -2.10031,-6.64874 -6.52034,-7.47794 -2.48548,-0.46628 -4.40993,-0.14118 -6.23216,1.05279 -3.23779,2.12148 -3.23887,2.04505 -0.0726,-5.11438 l 2.56366,-5.7969 7.2079,2.42473 c 8.42824,2.83526 8.97879,4.09495 5.82461,13.32712 l -1.98256,5.80287 z"
       id="path312"
       inkscape:connector-curvature="0"
       transform="matrix(0.26458333,0,0,0.26458333,0.01368824,0.04890553)" />
    <path
       style="opacity:0.5;fill:#000000;fill-opacity:1;fill-rule:nonzero;stroke:#000000;stroke-width:1;stroke-opacity:1"
       d="m 789.94675,264.15378 c -2.03354,-0.91937 -15.96387,-4.39232 -30.95628,-7.71767 -14.99241,-3.32534 -27.56469,-6.35184 -27.93839,-6.72554 -0.3737,-0.37371 0.31383,-4.75809 1.52786,-9.74307 l 2.20732,-9.0636 -6.67502,-24.76627 -6.67501,-24.76627 3.80715,-9.97787 c 2.09393,-5.48782 4.07928,-9.96538 4.41189,-9.95013 0.59813,0.0274 64.71694,101.52557 65.39634,103.52043 0.46842,1.37539 -0.67229,1.19443 -5.10586,-0.81001 z"
       id="path314"
       inkscape:connector-curvature="0"
       transform="matrix(0.26458333,0,0,0.26458333,0.01368824,0.04890553)" />
    <path
       style="opacity:0.5;fill:#000000;fill-opacity:1;fill-rule:nonzero;stroke:#000000;stroke-width:1;stroke-opacity:1"
       d="m 809.06637,270.8776 c -0.69783,-0.84083 -17.64492,-28.03653 -37.66021,-60.43489 l -36.39142,-58.9061 v -9.66574 c 0,-8.91429 0.20296,-9.8564 2.61062,-12.11828 l 2.61063,-2.45256 6.63274,5.81503 c 3.64801,3.19826 33.01595,28.73473 65.2621,56.74771 32.24614,28.01297 58.74275,51.49293 58.88135,52.17768 0.18516,0.91476 -53.61558,27.96682 -59.79615,30.06666 -0.48448,0.1646 -1.45183,-0.38868 -2.14966,-1.22951 z"
       id="path316"
       inkscape:connector-curvature="0"
       transform="matrix(0.26458333,0,0,0.26458333,0.01368824,0.04890553)" />
    <path
       style="opacity:0.5;fill:#000000;fill-opacity:1;fill-rule:nonzero;stroke:#000000;stroke-width:1;stroke-opacity:1"
       d="m 814.44489,178.17216 -67.80992,-56.05013 -0.063,-4.38595 c -0.0346,-2.41228 -0.43818,-6.66728 -0.89677,-9.45556 -0.72547,-4.41098 -0.61436,-4.98547 0.85526,-4.4221 0.92898,0.35612 40.43197,15.87613 87.78441,34.48891 47.35245,18.61278 87.19257,34.26844 88.53361,34.79036 2.42086,0.94217 2.42463,0.97291 0.52819,4.31062 -1.05053,1.84892 -4.81043,6.48507 -8.35533,10.30256 -3.5449,3.81748 -12.36756,15.83525 -19.60591,26.70614 l -13.16064,19.76527 z"
       id="path318"
       inkscape:connector-curvature="0"
       transform="matrix(0.26458333,0,0,0.26458333,0.01368824,0.04890553)" />
    <path
       style="opacity:0.5;fill:#000000;fill-opacity:1;fill-rule:nonzero;stroke:#000000;stroke-width:1;stroke-opacity:1"
       d="m 837.03313,130.69794 c -65.34187,-24.79207 -92.27075,-35.473363 -93.36251,-37.032062 -0.84386,-1.204785 -4.32716,-3.511335 -7.74067,-5.125668 l -6.20637,-2.93515 5.60184,-2.273623 c 4.95554,-2.011305 6.81474,-2.193845 16.11449,-1.582153 9.5091,0.625461 17.40811,2.703803 82.74645,21.771766 39.72861,11.59416 74.24791,22.05881 76.70957,23.25478 4.31126,2.09456 4.77219,2.82506 12.54106,19.87532 4.43592,9.73546 8.06531,17.9909 8.06531,18.34543 0,0.35452 -0.59422,0.62171 -1.32048,0.59375 -0.72627,-0.028 -42.64318,-15.72954 -93.14869,-34.89239 z"
       id="path320"
       inkscape:connector-curvature="0"
       transform="matrix(0.26458333,0,0,0.26458333,0.01368824,0.04890553)" />
    <path
       style="opacity:0.5;fill:#000000;fill-opacity:1;fill-rule:nonzero;stroke:#000000;stroke-width:1;stroke-opacity:1"
       d="M 819.52552,89.128915 C 767.65316,73.621362 760.89713,71.843068 751.29342,71.16914 L 740.63428,70.421151 728.627,75.247577 c -6.604,2.654534 -12.30468,4.826426 -12.66818,4.826426 -0.3635,0 -1.1757,-1.677361 -1.8049,-3.72747 l -1.14399,-3.727472 7.04096,-3.195423 c 21.16672,-9.606159 17.8508,-8.810271 31.09277,-7.462886 11.56809,1.177065 13.32035,1.738562 69.95931,22.417792 31.9517,11.665768 58.2953,21.411776 58.54131,21.657786 1.3008,1.3008 -7.3624,-1.13558 -60.11876,-16.907415 z"
       id="path322"
       inkscape:connector-curvature="0"
       transform="matrix(0.26458333,0,0,0.26458333,0.01368824,0.04890553)" />
    <path
       style="opacity:0.5;fill:#000000;fill-opacity:1;fill-rule:nonzero;stroke:#000000;stroke-width:1;stroke-opacity:1"
       d="m 597.68473,388.26157 c 0,-0.40304 1.25304,-3.28772 2.78455,-6.4104 2.46454,-5.02511 3.56463,-6.06227 9.57244,-9.02485 3.73335,-1.841 7.18953,-3.09904 7.68042,-2.79566 1.07616,0.66511 4.43718,10.23099 3.81375,10.85442 -0.24174,0.24174 -0.98332,-0.57658 -1.64797,-1.81848 -1.065,-1.98998 -1.79619,-2.175 -6.1598,-1.55873 -4.06756,0.57445 -5.9413,1.66201 -10.49738,6.09288 -3.05031,2.96649 -5.54601,5.06385 -5.54601,4.66082 z"
       id="path324"
       inkscape:connector-curvature="0"
       transform="matrix(0.26458333,0,0,0.26458333,0.01368824,0.04890553)" />
    <path
       style="opacity:0.5;fill:#000000;fill-opacity:1;fill-rule:nonzero;stroke:#000000;stroke-width:1;stroke-opacity:1"
       d="m 600.85084,399.62118 c -0.6728,-2.03861 -1.0662,-4.11954 -0.87421,-4.62431 0.88029,-2.31447 12.08694,-10.68406 14.30566,-10.68406 3.04781,0 10.86844,5.04195 10.86844,7.00688 0,1.75666 -1.1987,1.80287 -6.39362,0.24643 -3.82236,-1.14521 -4.21081,-1.0232 -8.85261,2.7804 -2.67015,2.18799 -5.13735,5.10385 -5.48267,6.47969 -0.88661,3.53256 -2.14791,3.10693 -3.57099,-1.20503 z"
       id="path326"
       inkscape:connector-curvature="0"
       transform="matrix(0.26458333,0,0,0.26458333,0.01368824,0.04890553)" />
    <path
       style="opacity:0.5;fill:#000000;fill-opacity:1;fill-rule:nonzero;stroke:#000000;stroke-width:1;stroke-opacity:1"
       d="m 605.07942,410.96765 c 0,-2.91329 4.99886,-9.55205 8.59135,-11.40981 2.37877,-1.2301 4.63395,-1.48954 8.42079,-0.96871 2.84456,0.39122 5.17194,1.14208 5.17194,1.66858 0,0.52649 -0.6947,0.95725 -1.54377,0.95725 -0.84907,0 -5.38348,2.61455 -10.07646,5.81012 -9.24448,6.29477 -10.56385,6.78718 -10.56385,3.94257 z"
       id="path328"
       inkscape:connector-curvature="0"
       transform="matrix(0.26458333,0,0,0.26458333,0.01368824,0.04890553)" />
    <path
       style="opacity:0.5;fill:#000000;fill-opacity:1;fill-rule:nonzero;stroke:#000000;stroke-width:1;stroke-opacity:1"
       d="m 526.64285,351.8829 c -19.60914,-9.66487 -35.65298,-17.88055 -35.65298,-18.25706 0,-1.11059 7.26446,-4.24607 9.8074,-4.23306 1.28756,0.007 15.50443,2.5941 31.59303,5.75002 l 29.25201,5.73804 11.4188,-4.96008 c 6.28034,-2.72805 11.96564,-5.31433 12.634,-5.7473 0.66836,-0.43296 6.41164,-8.03788 12.76285,-16.8998 l 11.54763,-16.11259 2.89851,-23.62579 c 1.59418,-12.99418 3.15121,-24.28429 3.46005,-25.08913 0.30885,-0.80485 1.83169,-1.46336 3.3841,-1.46336 4.16551,0 15.40895,11.71091 16.97819,17.68413 1.05559,4.018 0.7152,6.2483 -3.30514,21.65589 l -4.48192,17.17656 -15.09489,21.04661 -15.09489,21.04661 -16.64231,11.93365 c -9.15326,6.56351 -17.35536,11.93263 -18.22688,11.9314 -0.87151,-0.001 -17.62842,-7.90986 -37.23756,-17.57474 z"
       id="path330"
       inkscape:connector-curvature="0"
       transform="matrix(0.26458333,0,0,0.26458333,0.01368824,0.04890553)" />
    <path
       style="opacity:0.5;fill:#000000;fill-opacity:1;fill-rule:nonzero;stroke:#000000;stroke-width:1;stroke-opacity:1"
       d="M 756.24907,352.66361 740.13163,341.08573 726.50985,322.0315 c -7.49198,-10.47982 -14.27917,-20.36287 -15.08264,-21.96233 -0.80347,-1.59946 -3.0297,-9.28276 -4.94717,-17.07401 l -3.48631,-14.16592 4.04819,-7.55932 c 3.09308,-5.77581 5.24759,-8.353 9.13174,-10.92323 2.79595,-1.85015 5.50501,-3.3639 6.02015,-3.3639 1.24698,0 1.63622,2.29621 4.47413,26.3938 l 2.42408,20.58369 10.9215,15.50041 c 6.00683,8.52522 11.97619,16.19146 13.26527,17.0361 1.28907,0.84463 6.99207,3.47792 12.67334,5.85177 l 10.32958,4.31607 29.68966,-5.94011 29.68966,-5.94011 4.62798,2.45513 c 2.54539,1.35033 4.50054,2.55535 4.34477,2.67782 -1.03247,0.81177 -70.78731,34.32414 -71.44451,34.32414 -0.45252,0 -8.07562,-5.21005 -16.9402,-11.57789 z"
       id="path332"
       inkscape:connector-curvature="0"
       transform="matrix(0.26458333,0,0,0.26458333,0.01368824,0.04890553)" />
  </g>
</svg>
