<?xml version="1.0" encoding="UTF-8" standalone="no"?>
<!-- Created with Inkscape (http://www.inkscape.org/) -->

<svg
   xmlns:dc="http://purl.org/dc/elements/1.1/"
   xmlns:cc="http://creativecommons.org/ns#"
   xmlns:rdf="http://www.w3.org/1999/02/22-rdf-syntax-ns#"
   xmlns:svg="http://www.w3.org/2000/svg"
   xmlns="http://www.w3.org/2000/svg"
   xmlns:sodipodi="http://sodipodi.sourceforge.net/DTD/sodipodi-0.dtd"
   xmlns:inkscape="http://www.inkscape.org/namespaces/inkscape"
   width="744.09448819"
   height="1052.3622047"
   id="svg2"
   version="1.1"
   inkscape:version="0.48.4 r9939"
   sodipodi:docname="New document 1">
  <defs
     id="defs4" />
  <sodipodi:namedview
     id="base"
     pagecolor="#ffffff"
     bordercolor="#666666"
     borderopacity="1.0"
     inkscape:pageopacity="0.0"
     inkscape:pageshadow="2"
     inkscape:zoom="1.4142136"
     inkscape:cx="191"
     inkscape:cy="520"
     inkscape:document-units="px"
     inkscape:current-layer="layer1"
     showgrid="false"
     inkscape:window-width="1855"
     inkscape:window-height="1056"
     inkscape:window-x="65"
     inkscape:window-y="24"
     inkscape:window-maximized="1" />
  <metadata
     id="metadata7">
    <rdf:RDF>
      <cc:Work
         rdf:about="">
        <dc:format>image/svg+xml</dc:format>
        <dc:type
           rdf:resource="http://purl.org/dc/dcmitype/StillImage" />
        <dc:title></dc:title>
      </cc:Work>
    </rdf:RDF>
  </metadata>
  <g
     inkscape:label="Layer 1"
     inkscape:groupmode="layer"
     id="layer1">
    <path
       style="fill:#000000"
       d="m 415.33535,693.79671 c -13.28367,-3.22158 -24.35291,-12.53285 -30.77704,-25.88916 -6.54023,-13.5977 -8.42624,-28.31559 -9.41624,-73.4817 l -0.64209,-29.29347 -3.5,2.62359 c -13.97604,10.4764 -32.57327,14.42315 -52,11.03557 -20.13064,-3.51032 -30.69345,-12.19011 -26.64015,-21.89103 2.07808,-4.97354 7.98097,-8.02235 22.64015,-11.6935 16.57579,-4.15114 19.75943,-5.78416 25.48553,-13.07258 2.6045,-3.3151 4.57323,-6.15361 4.37496,-6.3078 -0.19827,-0.15419 -3.51049,-0.82578 -7.36049,-1.49243 -3.85,-0.66664 -9.59907,-2.26968 -12.77571,-3.56229 l -5.7757,-2.35021 -5.28423,5.64882 c -9.55827,10.21774 -15.17183,16.49838 -25.15746,28.14707 -14.8999,17.38141 -20.84714,21.33771 -32.11352,21.36302 -18.53372,0.0416 -36.14239,-20.51196 -52.56944,-61.36128 -8.52613,-21.20203 -9.64681,-24.41993 -15.14947,-43.5 -9.32982,-32.35047 -16.74225,-65.66598 -20.24674,-91 -3.09928,-22.40464 -0.51296,-51.57131 6.14596,-69.30992 9.94626,-26.4957 31.27132,-43.92784 60.95093,-49.82426 6.65871,-1.32288 13.3633,-1.7582 25.97538,-1.68655 19.98154,0.11351 38.52696,2.94928 58,8.86876 6.6,2.0063 12.94706,3.86869 14.10458,4.13867 1.28275,0.29918 6.16396,-1.47491 12.5,-4.54317 5.71748,-2.76872 13.09542,-5.71374 16.39542,-6.54449 15.91776,-4.00719 35.09242,-4.36828 54.28029,-1.0222 8.43217,1.47045 8.83103,1.44839 18.17057,-1.00479 29.46334,-7.73903 59.1043,-8.29253 85.60919,-1.59864 22.67555,5.72679 40.22558,15.88679 56.58887,32.76024 13.10356,13.51209 15.37305,18.33404 16.83378,35.76635 3.95398,47.18695 -22.11876,126.0958 -62.70794,189.7848 -1.55773,2.44426 -1.59133,2.90239 -0.27476,3.74641 5.65474,3.62512 22.51675,3.93821 41.78864,0.77592 12.08869,-1.98361 13.76228,-2.05519 17.53768,-0.75 l 4.17368,1.44287 0.29556,6.74414 0.29555,6.74414 -4.68187,5.00529 c -14.53564,15.53978 -37.48573,24.00643 -65.07293,24.00643 -7.06723,0 -14.28712,-0.4123 -16.0442,-0.91622 -3.18041,-0.91213 -3.19719,-0.89761 -3.7536,3.25 -0.3074,2.29142 -2.15684,16.76622 -4.10986,32.16622 -1.95302,15.4 -3.70568,28.9 -3.8948,30 -4.18339,24.33283 -5.58723,29.82685 -9.82727,38.45957 -3.79031,7.71711 -12.05554,16.35451 -19.46861,20.34527 -15.91529,8.56786 -39.07221,12.6267 -52.9026,9.27254 z m 28.25467,-13.59328 c 9.70653,-2.47376 20.78037,-7.61441 25.69135,-11.9263 4.5956,-4.03499 9.11792,-13.14389 11.69583,-23.5578 3.04534,-12.30222 12.68664,-87.01285 13.09843,-101.5 0.36541,-12.85531 4.94413,-21.35467 13.92047,-25.8402 l 5.7455,-2.87106 -5.88607,-7.89437 c -3.23733,-4.3419 -7.5667,-11.26937 -9.62081,-15.39437 -2.05411,-4.125 -5.92515,-11.325 -8.60232,-16 -18.22443,-31.82435 -28.87359,-60.38833 -28.89338,-77.5 -0.005,-4.4 0.19853,-8.675 0.45248,-9.5 0.25395,-0.825 1.04809,-3.36948 1.76475,-5.65439 2.21623,-7.06597 7.85546,-13.46083 15.08137,-17.1022 8.39669,-4.23137 21.07338,-6.65103 30.71236,-5.86222 5.48788,0.4491 7.25,0.28619 7.25,-0.67027 0,-2.24316 -10.71302,-22.99429 -15.67944,-30.37107 -20.88267,-31.01774 -48.89325,-50.49129 -83.36105,-57.95438 -11.82635,-2.56068 -38.45094,-2.61602 -48.8065,-0.10145 -37.62791,9.13695 -61.20579,43.31024 -67.62901,98.02011 l -0.68144,5.80414 5.82872,-2.93664 c 9.28836,-4.67969 21.94831,-8.25833 31.42026,-8.8817 19.21657,-1.2647 32.10537,5.92948 37.77598,21.08552 3.08352,8.24146 6.23209,28.88186 6.80721,44.62455 0.82932,22.70126 -1.90706,35.49702 -13.15182,61.5 -3.92328,9.07242 -9.52291,23.87581 -9.52291,25.17515 0,0.17867 1.71984,0.32485 3.82186,0.32485 6.61884,0 12.66508,2.74409 17.54774,7.96405 7.25475,7.75591 7.51081,9.5462 7.51396,52.53595 0.004,51.63304 1.75157,72.2743 7.11261,84 5.19889,11.37103 11.49187,17.77074 20.70651,21.05768 5.69802,2.03253 18.71177,1.76487 27.88736,-0.57358 z M 344.8882,566.15879 c 8.39689,-1.93579 15.40164,-6.07123 22.86178,-13.49703 6.36676,-6.33745 7.25,-7.66282 7.25,-10.87919 0,-6.85478 -5.47979,-13.56324 -11.07909,-13.56324 -3.28607,0 -5.78152,2.12698 -12.9056,11 -9.28914,11.56961 -14.33913,14.33494 -34.76531,19.03721 -5.0875,1.17118 -9.25,2.5261 -9.25,3.01092 0,4.19919 26.212,7.58313 37.88822,4.89133 z m -81.42175,-7.21892 c 2.31347,-1.31032 9.60648,-8.74001 17.5,-17.82799 7.44344,-8.56979 16.53257,-18.88691 20.19807,-22.92694 l 6.66455,-7.3455 -5.93725,-6.47946 c -7.18625,-7.84252 -13.11763,-19.27393 -15.45737,-29.7906 -1.4391,-6.46848 -1.58173,-9.92794 -0.87763,-21.28688 0.46241,-7.45974 0.92163,-29.08817 1.0205,-48.06317 0.1378,-26.44825 0.56994,-37.06722 1.85164,-45.5 4.55007,-29.93669 14.99174,-55.17257 30.29501,-73.21827 l 5.27327,-6.21828 -8.24863,-2.48826 c -25.88133,-7.8073 -55.08793,-10.49425 -75.82241,-6.97552 -24.41239,4.14289 -40.65761,15.66175 -50.43587,35.76211 -6.51528,13.39293 -8.55481,23.41412 -9.18661,45.13822 -0.47516,16.33794 -0.27598,19.47739 2.15716,34 5.3081,31.68228 12.94044,62.59962 22.83486,92.50021 11.37885,34.38645 20.02644,53.52505 30.65404,67.8426 10.53788,14.19667 18.55968,17.95085 27.51667,12.87773 z M 546.65151,546.6965 c 8.99506,-1.81189 24.08883,-8.81043 29.96385,-13.89336 l 3.88462,-3.36088 -7,1.35673 c -18.66997,3.6186 -38.58991,2.73454 -48.21825,-2.13994 -9.63484,-4.87778 -18.28175,1.51763 -18.28175,13.5215 0,2.15641 0.44309,4.19459 0.98464,4.52929 4.4587,2.75563 24.95553,2.74856 38.66689,-0.0133 z M 347.89792,507.71038 c 1.12707,-4.47599 4.5918,-13.50128 13.58445,-35.38613 6.57897,-16.01083 7.86449,-23.83059 7.25056,-44.10492 -0.76007,-25.10042 -4.57676,-41.80472 -10.89928,-47.70227 -8.62809,-8.04815 -27.70297,-6.92248 -47.47555,2.80167 -11.97275,5.8882 -11.63029,5.21157 -10.3861,20.52064 0.86279,10.61622 0.73754,16.13145 -0.71263,31.37996 -2.29267,24.10744 -2.10105,31.57751 1.04489,40.73263 3.27513,9.53109 6.96167,15.65912 13.13282,21.83027 8.35268,8.35267 20.47852,14.33558 29.19419,14.40445 4.0707,0.0322 4.14793,-0.0335 5.26665,-4.4763 z m -4.87265,-110.742 c -7.85984,-2.08714 -11.6344,-10.55936 -6.02529,-13.52411 5.12904,-2.71101 19.17417,0.59775 20.51864,4.83378 1.70215,5.36301 -7.11474,10.64969 -14.49335,8.69033 z m 185.97871,96.00095 c 6.95529,-11.52348 19.70402,-37.16956 25.97362,-52.25 2.28659,-5.5 4.83612,-11.48981 5.66562,-13.31068 5.63833,-12.37695 15.71401,-48.90779 18.97336,-68.79067 2.54749,-15.54036 2.52777,-37.93341 -0.0403,-45.76572 -3.32243,-10.13292 -20.73413,-26.94636 -36.97979,-35.70916 -8.79656,-4.7448 -21.11328,-9.11225 -32.8182,-11.63718 -10.44354,-2.25282 -41.08399,-2.48389 -53.59373,-0.40416 l -8.31542,1.38242 7.22777,3.92188 c 28.6251,15.53235 50.68997,38.43275 65.99523,68.49428 9.60653,18.86848 11.60163,30.41364 8.43633,48.81899 -3.7067,21.55352 -3.87635,27.15668 -1.52139,50.24948 3.03132,29.72521 2.0182,40.79768 -5.16219,56.41801 -2.81116,6.11546 -3.08101,8.83251 -0.87721,8.83251 0.46731,0 3.63365,-4.6125 7.0363,-10.25 z M 515.0335,478.58826 c 2.38626,-9.33018 2.52799,-20.98827 0.46648,-38.36893 -2.04523,-17.24338 -1.87071,-30.6102 0.64928,-49.72871 1.18211,-8.96833 1.88208,-16.57326 1.55549,-16.89985 -1.13136,-1.13136 -23.22527,-0.70652 -27.70477,0.53273 -2.475,0.68471 -6.17495,2.33445 -8.22211,3.66611 -14.85331,9.6619 -9.06555,40.60403 16.00363,85.55741 4.40825,7.90477 9.27994,16.96064 10.82596,20.12415 3.26035,6.6714 3.52175,6.47277 6.42604,-4.88291 z m -27.25838,-87.87125 c -4.10609,-2.31341 -5.336,-5.22046 -3.20494,-7.57525 3.12529,-3.45341 14.20568,-5.18311 18.49554,-2.88725 5.11995,2.74012 -0.67278,10.89206 -8.23973,11.59554 -2.71751,0.25264 -5.33917,-0.16865 -7.05087,-1.13304 z"
       id="path3069"
       inkscape:connector-curvature="0" />
  </g>
</svg>
